<svg xmlns="http://www.w3.org/2000/svg" xmlns:xlink="http://www.w3.org/1999/xlink" version="1.1" width="458.8931207682974" height="217.3664118803074" enable-background="new 0 0 841.89 595.275" xml:space="preserve"><rect id="backgroundrect" width="100%" height="100%" x="0" y="0" fill="none" stroke="none" class=""/>
  
<g class="currentLayer"><title>Layer 1</title><g id="svg_154" class="logo">
	<path fill="#FFFFFF"  d="M110.6852009277344,13.276976360321044 c-53.859,0 -97.516,43.66 -97.516,97.512 c0,53.861 43.657000000000004,97.522 97.516,97.522 c53.858,0 97.52,-43.661 97.52,-97.522 C208.20520092773438,56.937976360321045 164.54420092773438,13.276976360321044 110.6852009277344,13.276976360321044 zM131.2122009277344,189.58697636032105 l-6.53,-7.042 c0.009000000000000006,-0.002000000000000001 0.018000000000000006,-0.004000000000000002 0.026000000000000013,-0.004000000000000002 l-14.28,-14.265 l-14.041,14.106 c0.024000000000000007,0.004000000000000002 0.047000000000000014,0.011000000000000006 0.06900000000000003,0.016000000000000007 l-6.535,7.037 c-36.134,-9.129 -62.847,-41.489 -62.847,-80.012 c0,-45.171 36.733,-81.865 82.314,-82.569 l-0.126,2.439 l-1.126,26.632 h-7.785 c1.943,-7.299 4.002,-14.191 6.156,-20.691 c-39.556,2.166 -71.07,34.602 -71.07,74.189 c0,30.65 18.898,57.01 45.789,68.361 l19.333,-19.365 l-15.871,-15.853 l0.253,-0.255 h-0.17700000000000005 c0.4900000000000001,-4.336 1.01,-8.623 1.5590000000000002,-12.842 h18.693 l-0.544,12.842 h-0.09000000000000004 l6.23,6.036 l6.025,-6.036 h-0.05200000000000002 l0.06100000000000002,-0.009000000000000006 l0.033000000000000015,-0.034000000000000016 l-0.542,-12.8 h18.605 c0.549,4.22 1.064,8.506 1.5550000000000002,12.842 h-0.07400000000000002 l0.022000000000000013,0.022000000000000013 l-15.631,15.705 l20.15,19.523 c26.436,-11.543 44.934,-37.667 44.934,-67.991 c0,-39.587 -31.521,-72.029 -71.087,-74.188 c2.137,6.457 4.182,13.299 6.11,20.543 h-7.72 l-1.129,-26.477 l-0.126,-2.444 c45.581,0.7010000000000002 82.314,37.396 82.314,82.566 C194.06320092773433,148.09397636032105 167.35220092773437,180.45397636032104 131.2122009277344,189.58697636032105 zM91.04520092773436,98.58297636032104 c0.8870000000000002,-5.013 1.816,-9.917 2.786,-14.706 h13.12 l-0.6240000000000002,14.706 H91.04520092773436 zM106.02620092773435,105.55297636032104 l-0.7170000000000002,16.946 h-18.043 c0.804,-5.7650000000000015 1.6640000000000001,-11.418 2.583,-16.946 H106.02620092773435 zM94.9352009277344,78.60897636032105 c1.1,-5.146 2.249,-10.137 3.444,-14.988 h9.428 l-0.6370000000000002,14.988 H94.9352009277344 zM114.8222009277344,98.58297636032104 l-0.6230000000000002,-14.706 h13.031 c0.977,4.789 1.908,9.693 2.79,14.706 H114.8222009277344 zM131.2192009277344,105.55297636032104 c0.912,5.5280000000000005 1.774,11.181 2.583,16.946 h-17.963 l-0.7220000000000002,-16.946 H131.2192009277344 zM113.96720092773438,78.60897636032105 l-0.6370000000000002,-14.988 h9.357 c1.196,4.852 2.348,9.846 3.4450000000000003,14.988 H113.96720092773438 z" id="svg_155"/>
</g><g id="svg_156" class="">
	<g id="svg_157">
		<path  fill="#FFFFFF"  d="M250.88225878906246,25.167976360321042 c-1.034,-1.987 -2.925,-2.981 -5.671,-2.981 c-1.514,0 -2.761,0.4080000000000001 -3.74,1.214 c-0.98,0.8200000000000002 -1.7510000000000003,2.13 -2.3120000000000003,3.956 c-0.562,1.823 -0.9540000000000002,4.201 -1.176,7.139 c-0.22400000000000006,2.947 -0.3380000000000002,6.549 -0.3380000000000002,10.804 c0,4.538 0.15700000000000006,8.211 0.464,11.01 c0.3070000000000001,2.8 0.784,4.973 1.429,6.514 c0.6430000000000002,1.536 1.453,2.575 2.439,3.108 c0.977,0.533 2.111,0.793 3.399,0.793 c1.066,0 2.061,-0.17500000000000004 2.985,-0.542 c0.926,-0.3630000000000001 1.723,-1.093 2.396,-2.186 c0.6700000000000004,-1.088 1.205,-2.6340000000000003 1.5950000000000002,-4.623 c0.3950000000000002,-1.984 0.5890000000000002,-4.605 0.5890000000000002,-7.853 h12.102 c0,3.248 -0.253,6.325 -0.7550000000000002,9.241 c-0.501,2.916 -1.444,5.46 -2.815,7.646 c-1.375,2.186 -3.306,3.8970000000000002 -5.799,5.129 c-2.494,1.231 -5.729,1.85 -9.706,1.85 c-4.54,0 -8.153,-0.7340000000000002 -10.843,-2.19 c-2.6900000000000004,-1.451 -4.748,-3.557 -6.18,-6.303 c-1.429,-2.741 -2.352,-6.02 -2.769,-9.837 c-0.4250000000000001,-3.803 -0.6340000000000002,-8.004 -0.6340000000000002,-12.605 c0,-4.533 0.20900000000000005,-8.717 0.6340000000000002,-12.56 c0.4170000000000001,-3.838 1.34,-7.13 2.769,-9.872 c1.432,-2.746 3.489,-4.889 6.18,-6.432 c2.689,-1.541 6.303,-2.3120000000000003 10.843,-2.3120000000000003 c4.312,0 7.716,0.7040000000000002 10.211,2.101 c2.492,1.4020000000000001 4.355,3.18 5.588,5.339 c1.231,2.159 2.002,4.479 2.3120000000000003,6.975 c0.3070000000000001,2.495 0.461,4.832 0.461,7.014 h-12.102 C252.43925878906248,30.33897636032105 251.92225878906254,27.163976360321044 250.88225878906246,25.167976360321042 z" id="svg_158"/>
		<path  fill="#FFFFFF"  d="M271.3092587890625,31.892976360321043 c0.4170000000000001,-3.838 1.342,-7.13 2.769,-9.872 c1.4340000000000002,-2.746 3.489,-4.889 6.177,-6.432 c2.692,-1.541 6.305,-2.3120000000000003 10.845,-2.3120000000000003 c4.538,0 8.152,0.771 10.841,2.3120000000000003 c2.6910000000000007,1.5430000000000001 4.75,3.6870000000000003 6.179,6.432 c1.427,2.742 2.352,6.034 2.771,9.872 c0.4210000000000001,3.843 0.6320000000000002,8.027 0.6320000000000002,12.56 c0,4.601 -0.21100000000000005,8.802 -0.6320000000000002,12.605 c-0.4190000000000001,3.817 -1.344,7.096 -2.771,9.837 c-1.429,2.746 -3.487,4.852 -6.179,6.303 c-2.688,1.456 -6.303,2.19 -10.841,2.19 c-4.54,0 -8.152,-0.7340000000000002 -10.845,-2.19 c-2.688,-1.451 -4.743,-3.557 -6.177,-6.303 c-1.427,-2.741 -2.352,-6.02 -2.769,-9.837 c-0.4230000000000001,-3.803 -0.6320000000000002,-8.004 -0.6320000000000002,-12.605 C270.67725878906253,39.919976360321044 270.8862587890625,35.73597636032105 271.3092587890625,31.892976360321043 zM283.0722587890625,54.75597636032104 c0.19700000000000006,2.827 0.5870000000000002,5.125 1.179,6.8900000000000015 c0.5870000000000002,1.7650000000000001 1.427,3.055 2.518,3.866 c1.095,0.8150000000000002 2.537,1.214 4.331,1.214 c1.792,0 3.234,-0.3980000000000002 4.327,-1.214 c1.093,-0.811 1.933,-2.101 2.524,-3.866 c0.5840000000000002,-1.7650000000000001 0.977,-4.063 1.171,-6.8900000000000015 c0.19700000000000006,-2.831 0.2960000000000001,-6.2620000000000005 0.2960000000000001,-10.303 c0,-4.027 -0.09900000000000006,-7.445 -0.2960000000000001,-10.245 c-0.19400000000000006,-2.799 -0.5870000000000002,-5.105 -1.171,-6.893 c-0.5920000000000002,-1.792 -1.432,-3.095 -2.524,-3.915 c-1.093,-0.806 -2.535,-1.214 -4.327,-1.214 c-1.794,0 -3.236,0.4080000000000001 -4.331,1.214 c-1.091,0.8200000000000002 -1.931,2.123 -2.518,3.915 c-0.5920000000000002,1.787 -0.981,4.093 -1.179,6.893 c-0.19900000000000007,2.8 -0.2950000000000001,6.218 -0.2950000000000001,10.245 C282.77725878906244,48.49397636032104 282.87225878906247,51.92497636032105 283.0722587890625,54.75597636032104 z" id="svg_159"/>
		<path  fill="#FFFFFF"  d="M318.6632587890625,14.455976360321046 h12.102 V64.54297636032105 h21.434 v9.917 h-33.535 V14.455976360321046 z" id="svg_160"/>
		<path  fill="#FFFFFF"  d="M357.57525878906245,14.455976360321046 h12.101 V64.54297636032105 h21.435 v9.917 H357.57525878906245 V14.455976360321046 z" id="svg_161"/>
		<path  fill="#FFFFFF"  d="M423.1312587890625,14.455976360321046 L439.0152587890625,74.46097636032104 h-12.609 l-2.771,-12.69 h-15.97 l-2.774,12.69 h-12.605 l15.884,-60.005 H423.1312587890625 zM421.53225878906255,51.852976360321044 l-5.796,-26.979 h-0.171 l-5.801,26.979 H421.53225878906255 z" id="svg_162"/>
	</g>
	<g id="svg_163">
		<path fill="#FFFFFF"  d="M238.27325878906254,89.48997636032105 c-0.521,-0.995 -1.472,-1.496 -2.849,-1.496 c-0.7620000000000002,0 -1.389,0.20600000000000004 -1.8820000000000001,0.6130000000000002 c-0.4900000000000001,0.4080000000000001 -0.8780000000000002,1.071 -1.1600000000000001,1.984 c-0.279,0.91 -0.4790000000000001,2.105 -0.5910000000000002,3.588 c-0.11200000000000003,1.474 -0.16800000000000007,3.283 -0.16800000000000007,5.42 c0,2.2800000000000002 0.07800000000000003,4.125 0.232,5.532 c0.15500000000000005,1.411 0.3950000000000002,2.5 0.7170000000000002,3.274 c0.3250000000000001,0.771 0.7320000000000002,1.294 1.226,1.5590000000000002 c0.4900000000000001,0.269 1.062,0.3980000000000002 1.707,0.3980000000000002 c0.537,0 1.036,-0.08900000000000004 1.5,-0.269 c0.466,-0.18800000000000006 0.8670000000000002,-0.551 1.203,-1.098 c0.3380000000000002,-0.551 0.6060000000000002,-1.326 0.802,-2.325 c0.19700000000000006,-0.999 0.2960000000000001,-2.316 0.2960000000000001,-3.947 h6.08 c0,1.6310000000000002 -0.127,3.181 -0.3830000000000001,4.646 c-0.253,1.46 -0.7240000000000002,2.737 -1.413,3.843 c-0.6900000000000004,1.093 -1.6590000000000005,1.953 -2.912,2.571 c-1.254,0.6180000000000002 -2.875,0.927 -4.873,0.927 c-2.282,0 -4.099,-0.3670000000000001 -5.447,-1.093 c-1.353,-0.7350000000000002 -2.388,-1.792 -3.104,-3.167 c-0.7170000000000002,-1.3800000000000001 -1.183,-3.028 -1.393,-4.941 c-0.21100000000000005,-1.917 -0.3160000000000001,-4.023 -0.3160000000000001,-6.334 c0,-2.276 0.10500000000000002,-4.381 0.3160000000000001,-6.307 c0.21000000000000005,-1.931 0.6760000000000004,-3.583 1.393,-4.963 c0.7170000000000002,-1.379 1.7520000000000002,-2.45 3.104,-3.225 c1.3490000000000002,-0.775 3.165,-1.165 5.447,-1.165 c2.1630000000000003,0 3.874,0.3540000000000001 5.127,1.057 c1.252,0.7030000000000002 2.188,1.5990000000000002 2.806,2.6790000000000003 c0.6210000000000002,1.084 1.006,2.253 1.1600000000000001,3.507 c0.15500000000000005,1.25 0.233,2.428 0.233,3.521 h-6.079 C239.05225878906253,92.08697636032105 238.79225878906254,90.49297636032105 238.27325878906254,89.48997636032105 z" id="svg_164"/>
		<path fill="#FFFFFF" d="M262.2272587890625,84.10997636032104 l7.98,30.138 h-6.334 l-1.3940000000000001,-6.37 h-8.018 l-1.3960000000000001,6.37 h-6.332 l7.978,-30.138 H262.2272587890625 zM261.42725878906253,102.89197636032104 l-2.916,-13.546 h-0.08300000000000003 l-2.914,13.546 H261.42725878906253 z" id="svg_165"/>
		<path fill="#FFFFFF" d="M277.2132587890625,105.72297636032104 c0,0.7030000000000002 0.056000000000000015,1.344 0.17,1.917 c0.11200000000000003,0.5830000000000002 0.3220000000000001,1.066 0.6320000000000002,1.46 c0.3110000000000001,0.3940000000000002 0.7260000000000002,0.7030000000000002 1.245,0.927 c0.521,0.22900000000000006 1.174,0.3360000000000002 1.9620000000000002,0.3360000000000002 c0.93,0 1.7680000000000002,-0.2950000000000001 2.513,-0.905 c0.7460000000000002,-0.6000000000000002 1.12,-1.541 1.12,-2.809 c0,-0.6760000000000004 -0.09400000000000006,-1.259 -0.275,-1.747 c-0.18400000000000005,-0.4930000000000001 -0.4860000000000001,-0.9410000000000002 -0.907,-1.335 c-0.4230000000000001,-0.3940000000000002 -0.977,-0.7520000000000002 -1.669,-1.075 c-0.6890000000000004,-0.3230000000000001 -1.538,-0.6540000000000002 -2.551,-0.99 c-1.353,-0.452 -2.521,-0.9400000000000002 -3.505,-1.482 c-0.988,-0.529 -1.81,-1.1560000000000001 -2.471,-1.8730000000000002 c-0.6610000000000003,-0.7210000000000002 -1.146,-1.55 -1.456,-2.495 c-0.3090000000000001,-0.9410000000000002 -0.466,-2.029 -0.466,-3.27 c0,-2.983 0.8330000000000002,-5.205 2.491,-6.67 c1.661,-1.465 3.941,-2.195 6.84,-2.195 c1.3490000000000002,0 2.596,0.14800000000000005 3.7350000000000003,0.4430000000000001 c1.141,0.3000000000000001 2.124,0.775 2.954,1.4380000000000002 c0.8310000000000002,0.6580000000000003 1.477,1.505 1.9420000000000002,2.526 c0.466,1.03 0.6940000000000004,2.262 0.6940000000000004,3.7 v0.8420000000000002 h-5.823 c0,-1.4380000000000002 -0.253,-2.54 -0.7600000000000002,-3.314 c-0.508,-0.775 -1.351,-1.1600000000000001 -2.532,-1.1600000000000001 c-0.6770000000000004,0 -1.239,0.10300000000000002 -1.689,0.2950000000000001 c-0.452,0.19700000000000006 -0.811,0.457 -1.075,0.779 c-0.269,0.3270000000000001 -0.452,0.6990000000000004 -0.551,1.12 c-0.09900000000000006,0.4210000000000001 -0.14600000000000005,0.8600000000000002 -0.14600000000000005,1.308 c0,0.932 0.19500000000000006,1.711 0.5890000000000002,2.343 c0.3960000000000002,0.6360000000000002 1.239,1.218 2.533,1.7510000000000003 l4.686,2.029 c1.1560000000000001,0.502 2.097,1.035 2.829,1.582 c0.7300000000000002,0.551 1.314,1.138 1.7510000000000003,1.774 c0.4390000000000001,0.6310000000000002 0.7390000000000002,1.33 0.909,2.087 c0.171,0.7610000000000002 0.251,1.604 0.251,2.531 c0,3.18 -0.923,5.496 -2.7640000000000002,6.948 c-1.843,1.447 -4.412,2.172 -7.704,2.172 c-3.434,0 -5.8870000000000005,-0.7440000000000002 -7.364,-2.235 c-1.479,-1.492 -2.218,-3.628 -2.218,-6.4190000000000005 v-1.223 h6.079 V105.72297636032104 z" id="svg_166"/>
		<path fill="#FFFFFF" d="M311.8702587890625,89.09097636032105 h-6.585 v25.157 h-6.079 V89.09097636032105 h-6.584 v-4.981 h19.248 V89.09097636032105 z" id="svg_167"/>
		<path fill="#FFFFFF" d="M331.32925878906246,89.09097636032105 H320.56525878906245 v7.091 h10.133 v4.981 H320.56525878906245 v8.108 h11.188 v4.977 h-17.266 V84.10997636032104 h16.843 V89.09097636032105 z" id="svg_168"/>
		<path fill="#FFFFFF" d="M334.79125878906245,84.10997636032104 h6.079 v25.161 h10.764 v4.977 h-16.843 V84.10997636032104 z" id="svg_169"/>
		<path fill="#FFFFFF" d="M354.33525878906255,84.10997636032104 h6.081 v25.161 h10.762 v4.977 H354.33525878906255 V84.10997636032104 z" id="svg_170"/>
		<path fill="#FFFFFF" d="M390.7222587890625,89.09097636032105 h-10.764 v7.091 h10.132 v4.981 h-10.132 v8.108 h11.188 v4.977 h-17.267 V84.10997636032104 h16.843 V89.09097636032105 z" id="svg_171"/>
		<path fill="#FFFFFF" d="M405.4142587890625,84.10997636032104 c2.531,0 4.5,0.6410000000000002 5.909,1.9220000000000002 c1.4060000000000001,1.2810000000000001 2.109,3.225 2.109,5.846 c0,2.029 -0.4080000000000001,3.677 -1.223,4.963 c-0.8200000000000002,1.2770000000000001 -2.083,2.101 -3.799,2.468 v0.08500000000000003 c1.5190000000000001,0.22000000000000006 2.629,0.7170000000000002 3.333,1.474 c0.7030000000000002,0.7570000000000002 1.142,1.9889999999999999 1.308,3.677 c0.056000000000000015,0.56 0.09900000000000006,1.174 0.13,1.836 c0.024000000000000007,0.6590000000000003 0.05400000000000002,1.3980000000000001 0.08300000000000003,2.213 c0.056000000000000015,1.604 0.14100000000000001,2.827 0.253,3.673 c0.17,0.8420000000000002 0.533,1.42 1.098,1.729 v0.251 h-6.585 c-0.3090000000000001,-0.4210000000000001 -0.506,-0.905 -0.5910000000000002,-1.451 c-0.08600000000000003,-0.551 -0.14400000000000004,-1.12 -0.171,-1.711 l-0.17,-5.783 c-0.05400000000000002,-1.188 -0.3500000000000001,-2.11 -0.8830000000000002,-2.786 c-0.537,-0.6770000000000004 -1.4380000000000002,-1.013 -2.7030000000000003,-1.013 h-3.25 v12.744 h-6.078 V84.10997636032104 H405.4142587890625 zM402.7942587890625,97.28397636032105 c1.465,0 2.589,-0.3490000000000002 3.3770000000000002,-1.035 c0.789,-0.6940000000000004 1.183,-1.85 1.183,-3.485 c0,-2.786 -1.408,-4.18 -4.22,-4.18 h-2.871 v8.699 H402.7942587890625 z" id="svg_172"/>
		<path fill="#FFFFFF" d="M431.03725878906255,84.10997636032104 L439.0152587890625,114.24797636032105 h-6.334 l-1.393,-6.37 h-8.021 l-1.3940000000000001,6.37 h-6.332 l7.979,-30.138 H431.03725878906255 zM430.2362587890625,102.89197636032104 l-2.916,-13.546 h-0.08300000000000003 l-2.914,13.546 H430.2362587890625 z" id="svg_173"/>
	</g>
	<g id="svg_174">
		<path fill="#FFFFFF" d="M252.00725878906246,154.81297636032104 c0,4.977 -1.1600000000000001,8.52 -3.472,10.643 c-2.315,2.119 -5.854,3.176 -10.612,3.176 c-2.485,0 -4.5280000000000005,-0.3360000000000002 -6.123,-1.012 c-1.5950000000000002,-0.6810000000000004 -2.8600000000000003,-1.6390000000000002 -3.799,-2.8850000000000002 c-0.9400000000000002,-1.245 -1.585,-2.697 -1.931,-4.363 c-0.3540000000000001,-1.653 -0.526,-3.404 -0.526,-5.232 v-2.033 h8.648 v1.4420000000000002 c0,2.495 0.272,4.336 0.8170000000000002,5.536 c0.546,1.205 1.6710000000000005,1.796 3.373,1.796 c1.7040000000000002,0 2.826,-0.5910000000000002 3.375,-1.796 c0.544,-1.2 0.8150000000000002,-3.041 0.8150000000000002,-5.536 v-33.403 h9.434 V154.81297636032104 z" id="svg_175"/>
		<path fill="#FFFFFF" d="M257.6732587890625,134.73597636032105 c0.3270000000000001,-2.992 1.049,-5.559 2.159,-7.696 c1.115,-2.137 2.72,-3.8120000000000003 4.815,-5.012 c2.097,-1.205 4.914,-1.8050000000000002 8.448,-1.8050000000000002 c3.539,0 6.356,0.6000000000000002 8.453,1.8050000000000002 c2.094,1.201 3.7,2.875 4.811,5.012 c1.115,2.137 1.8370000000000002,4.704 2.164,7.696 c0.3270000000000001,2.997 0.4900000000000001,6.258 0.4900000000000001,9.788 c0,3.588 -0.16300000000000006,6.8580000000000005 -0.4900000000000001,9.828 c-0.3270000000000001,2.975 -1.049,5.523 -2.164,7.664 c-1.11,2.137 -2.717,3.776 -4.811,4.91 c-2.097,1.138 -4.914,1.707 -8.453,1.707 c-3.534,0 -6.352,-0.5690000000000002 -8.448,-1.707 c-2.096,-1.133 -3.7,-2.773 -4.815,-4.91 c-1.11,-2.141 -1.832,-4.689 -2.159,-7.664 c-0.3260000000000001,-2.9699999999999998 -0.4920000000000001,-6.24 -0.4920000000000001,-9.828 C257.18125878906255,140.99397636032106 257.3472587890625,137.73297636032103 257.6732587890625,134.73597636032105 zM266.8432587890625,152.55597636032104 c0.15200000000000005,2.204 0.459,3.991 0.918,5.367 c0.457,1.379 1.111,2.378 1.9620000000000002,3.015 c0.8520000000000002,0.6360000000000002 1.98,0.9450000000000002 3.373,0.9450000000000002 c1.397,0 2.5220000000000002,-0.3090000000000001 3.373,-0.9450000000000002 c0.8520000000000002,-0.6360000000000002 1.51,-1.6350000000000002 1.967,-3.015 c0.457,-1.375 0.7620000000000002,-3.1630000000000003 0.918,-5.367 c0.15200000000000005,-2.208 0.22900000000000006,-4.878 0.22900000000000006,-8.032 c0,-3.14 -0.07600000000000003,-5.801 -0.22900000000000006,-7.987 c-0.15600000000000006,-2.181 -0.461,-3.973 -0.918,-5.375 c-0.457,-1.393 -1.115,-2.41 -1.967,-3.046 c-0.8510000000000002,-0.6270000000000002 -1.976,-0.9450000000000002 -3.373,-0.9450000000000002 c-1.393,0 -2.521,0.3180000000000001 -3.373,0.9450000000000002 c-0.8510000000000002,0.6360000000000002 -1.505,1.653 -1.9620000000000002,3.046 c-0.459,1.4020000000000001 -0.7660000000000002,3.194 -0.918,5.375 c-0.15400000000000005,2.186 -0.22900000000000006,4.847 -0.22900000000000006,7.987 C266.6152587890625,147.67797636032105 266.6892587890625,150.34697636032104 266.8432587890625,152.55597636032104 z" id="svg_176"/>
		<path fill="#FFFFFF" d="M308.20625878906253,155.73197636032106 h0.19700000000000006 l6.942,-34.586 h9.761 l-10.741,46.77 h-12.119 l-10.742,-46.77 h10.086 L308.20625878906253,155.73197636032106 z" id="svg_177"/>
		<path fill="#FFFFFF" d="M354.7072587890625,128.87297636032105 h-16.699 v11.006 h15.723 v7.727 h-15.723 v12.578 h17.357 v7.731 H328.57525878906245 v-46.77 h26.133 V128.87297636032105 z" id="svg_178"/>
		<path fill="#FFFFFF" d="M389.8372587890625,120.62197636032104 c3.321,0 6.005,0.538 8.043,1.622 c2.036,1.084 3.621,2.6430000000000002 4.753,4.654 c1.129,2.02 1.8930000000000002,4.444 2.289,7.275 c0.3980000000000002,2.835 0.6000000000000002,6.007 0.6000000000000002,9.505 c0,4.166 -0.255,7.786 -0.7660000000000002,10.858 c-0.511,3.086 -1.3840000000000001,5.617 -2.625,7.615 c-1.238,2.002 -2.902,3.48 -4.983,4.452 c-2.085,0.977 -4.719,1.46 -7.908,1.46 H374.1552587890625 v-47.442 H389.8372587890625 zM387.9762587890625,161.01797636032106 c1.689,0 3.033,-0.2820000000000001 4.057,-0.8650000000000002 c1.017,-0.5690000000000002 1.8250000000000002,-1.5270000000000001 2.423,-2.854 c0.5990000000000002,-1.33 0.997,-3.082 1.194,-5.25 c0.20600000000000004,-2.1630000000000003 0.3020000000000001,-4.869 0.3020000000000001,-8.107 c0,-2.706 -0.08700000000000004,-5.075 -0.264,-7.113 c-0.18000000000000005,-2.038 -0.545,-3.7270000000000003 -1.098,-5.08 c-0.556,-1.353 -1.373,-2.37 -2.457,-3.05 c-1.089,-0.6940000000000004 -2.54,-1.04 -4.354,-1.04 h-4.054 v33.359 H387.9762587890625 z" id="svg_179"/>
		<path fill="#FFFFFF" d="M438.3522587890625,128.46097636032104 h-16.948 v11.167 h15.949 v7.834 h-15.949 v12.758000000000001 H439.0152587890625 v7.843 h-27.182 v-47.442 h26.519 V128.46097636032104 z" id="svg_180"/>
	</g>
	<g id="svg_181">
		<path fill="#FFFFFF" d="M236.29725878906254,175.96997636032106 c1.3090000000000002,0 2.5220000000000002,0.134 3.638,0.3990000000000002 c1.115,0.269 2.071,0.7210000000000002 2.8760000000000003,1.339 c0.802,0.6230000000000002 1.427,1.46 1.874,2.5 c0.4430000000000001,1.039 0.6680000000000003,2.3200000000000003 0.6680000000000003,3.839 c0,1.7200000000000002 -0.401,3.203 -1.203,4.439 c-0.802,1.232 -2.009,2.074 -3.614,2.518 v0.08900000000000004 c1.782,0.23700000000000004 3.198,0.999 4.237,2.276 c1.044,1.2810000000000001 1.5630000000000002,2.992 1.5630000000000002,5.133 c0,1.245 -0.16600000000000006,2.4370000000000003 -0.4930000000000001,3.565 s-0.8830000000000002,2.119 -1.673,2.9699999999999998 c-0.786,0.8460000000000002 -1.814,1.5190000000000001 -3.075,2.024 c-1.268,0.506 -2.833,0.7570000000000002 -4.708,0.7570000000000002 h-10.843 v-31.849 H236.29725878906254 zM233.79825878906252,189.04097636032105 c1.7850000000000001,0 3.086,-0.3230000000000001 3.903,-0.9630000000000002 c0.8170000000000002,-0.6310000000000002 1.228,-1.715 1.228,-3.229 c0,-1.5230000000000001 -0.3710000000000001,-2.5940000000000003 -1.113,-3.212 c-0.7450000000000002,-0.6270000000000002 -1.9220000000000002,-0.936 -3.527,-0.936 h-2.318 v8.341 H233.79825878906252 zM234.47025878906254,203.09297636032105 c1.545,0 2.795,-0.3400000000000002 3.747,-1.026 c0.9520000000000002,-0.6850000000000004 1.427,-1.948 1.427,-3.79 c0,-0.927 -0.126,-1.693 -0.3810000000000001,-2.302 c-0.251,-0.6090000000000002 -0.5960000000000002,-1.098 -1.025,-1.469 c-0.4310000000000001,-0.3720000000000001 -0.9430000000000002,-0.6360000000000002 -1.537,-0.78 c-0.5960000000000002,-0.15200000000000005 -1.252,-0.22400000000000006 -1.964,-0.22400000000000006 h-2.7670000000000003 v9.59 H234.47025878906254 z" id="svg_182"/>
		<path fill="#FFFFFF" d="M264.4922587890625,175.96997636032106 l8.433,31.849 h-6.69 l-1.474,-6.7330000000000005 h-8.476 l-1.474,6.7330000000000005 h-6.689 l8.433,-31.849 H264.4922587890625 zM263.6452587890625,195.82297636032104 l-3.077,-14.321 h-0.09200000000000005 l-3.076,14.321 H263.6452587890625 z" id="svg_183"/>
		<path fill="#FFFFFF" d="M287.02325878906254,175.96997636032106 c2.677,0 4.757,0.6760000000000004 6.244,2.029 s2.23,3.414 2.23,6.177 c0,2.141 -0.4300000000000001,3.888 -1.294,5.241 c-0.8600000000000002,1.353 -2.199,2.227 -4.016,2.612 v0.08900000000000004 c1.608,0.23700000000000004 2.784,0.7570000000000002 3.527,1.5590000000000002 c0.7410000000000002,0.806 1.202,2.101 1.3820000000000001,3.8840000000000003 c0.056000000000000015,0.5960000000000002 0.10500000000000002,1.245 0.132,1.944 c0.032000000000000015,0.6990000000000004 0.06100000000000002,1.478 0.09000000000000004,2.338 c0.06100000000000002,1.693 0.15000000000000005,2.992 0.269,3.8840000000000003 c0.17800000000000005,0.8910000000000002 0.5640000000000002,1.5 1.158,1.827 v0.265 h-6.959 c-0.3270000000000001,-0.4430000000000001 -0.535,-0.9540000000000002 -0.6220000000000002,-1.537 c-0.09000000000000004,-0.5780000000000002 -0.15000000000000005,-1.187 -0.18000000000000005,-1.8050000000000002 l-0.17900000000000005,-6.114 c-0.05900000000000002,-1.246 -0.3720000000000001,-2.227 -0.937,-2.943 c-0.5640000000000002,-0.7120000000000002 -1.517,-1.07 -2.858,-1.07 h-3.431 v13.47 h-6.426 v-31.849 H287.02325878906254 zM284.25425878906253,189.88697636032106 c1.546,0 2.737,-0.3620000000000001 3.5700000000000003,-1.093 c0.8310000000000002,-0.7300000000000002 1.25,-1.9580000000000002 1.25,-3.678 c0,-2.947 -1.487,-4.417 -4.462,-4.417 h-3.032 v9.187 H284.25425878906253 z" id="svg_184"/>
		<path fill="#FFFFFF" d="M312.7402587890625,181.65897636032105 c-0.549,-1.057 -1.553,-1.586 -3.011,-1.586 c-0.804,0 -1.465,0.22000000000000006 -1.984,0.6500000000000002 c-0.521,0.4250000000000001 -0.927,1.1280000000000001 -1.228,2.096 c-0.2950000000000001,0.9630000000000002 -0.506,2.227 -0.6240000000000002,3.79 c-0.11900000000000004,1.5630000000000002 -0.17800000000000005,3.472 -0.17800000000000005,5.734 c0,2.41 0.08100000000000003,4.358 0.24700000000000005,5.841 c0.16100000000000006,1.492 0.4160000000000001,2.6390000000000002 0.7570000000000002,3.463 c0.3430000000000002,0.811 0.771,1.366 1.294,1.6480000000000001 c0.521,0.2820000000000001 1.12,0.4260000000000001 1.806,0.4260000000000001 c0.5640000000000002,0 1.093,-0.09400000000000006 1.5830000000000002,-0.2920000000000001 c0.4910000000000001,-0.19200000000000006 0.917,-0.5820000000000002 1.272,-1.165 c0.3560000000000001,-0.5730000000000002 0.6390000000000002,-1.397 0.8490000000000002,-2.45 c0.20700000000000005,-1.057 0.3120000000000001,-2.441 0.3120000000000001,-4.17 h6.422 c0,1.729 -0.13,3.36 -0.3990000000000002,4.905 c-0.269,1.546 -0.7660000000000002,2.903 -1.496,4.063 c-0.7280000000000002,1.1560000000000001 -1.7560000000000002,2.065 -3.075,2.7190000000000003 c-1.3250000000000002,0.6540000000000002 -3.043,0.981 -5.1530000000000005,0.981 c-2.41,0 -4.327,-0.3850000000000001 -5.758,-1.1560000000000001 c-1.427,-0.775 -2.52,-1.895 -3.277,-3.351 c-0.7570000000000002,-1.451 -1.25,-3.198 -1.471,-5.219 c-0.22300000000000006,-2.024 -0.3370000000000002,-4.255 -0.3370000000000002,-6.6880000000000015 c0,-2.41 0.11400000000000003,-4.636 0.3370000000000002,-6.675 c0.22100000000000006,-2.033 0.7140000000000002,-3.7800000000000002 1.471,-5.241 c0.7580000000000002,-1.456 1.851,-2.598 3.277,-3.414 c1.431,-0.8190000000000002 3.348,-1.227 5.758,-1.227 c2.289,0 4.095,0.3760000000000001 5.418,1.115 c1.324,0.7480000000000002 2.313,1.693 2.968,2.835 c0.6540000000000002,1.143 1.063,2.379 1.228,3.7 c0.16100000000000006,1.3210000000000002 0.24400000000000005,2.566 0.24400000000000005,3.7270000000000003 h-6.422 C313.5682587890625,184.39597636032104 313.2902587890625,182.71097636032104 312.7402587890625,181.65897636032105 z" id="svg_185"/>
		<path fill="#FFFFFF" d="M341.7172587890625,181.23797636032106 h-11.378 v7.489 h10.706 v5.264 h-10.706 v8.569 h11.823 v5.259 H323.9152587890625 v-31.849 h17.802 V181.23797636032106 z" id="svg_186"/>
		<path fill="#FFFFFF" d="M345.37425878906254,175.96997636032106 h6.424 v26.59 h11.375 v5.259 h-17.799 V175.96997636032106 z" id="svg_187"/>
		<path fill="#FFFFFF" d="M365.6932587890625,185.22397636032105 c0.22700000000000006,-2.033 0.7170000000000002,-3.7800000000000002 1.472,-5.241 c0.7600000000000002,-1.456 1.854,-2.598 3.279,-3.414 c1.429,-0.8190000000000002 3.346,-1.227 5.756,-1.227 s4.327,0.4080000000000001 5.756,1.227 c1.427,0.8150000000000002 2.521,1.9580000000000002 3.279,3.414 c0.7570000000000002,1.46 1.247,3.208 1.47,5.241 c0.22400000000000006,2.039 0.3360000000000002,4.265 0.3360000000000002,6.675 c0,2.432 -0.11200000000000003,4.663 -0.3360000000000002,6.6880000000000015 c-0.22300000000000006,2.021 -0.7130000000000002,3.7680000000000002 -1.47,5.219 c-0.7590000000000002,1.456 -1.8530000000000002,2.576 -3.279,3.351 c-1.429,0.771 -3.346,1.1560000000000001 -5.756,1.1560000000000001 s-4.327,-0.3850000000000001 -5.756,-1.1560000000000001 c-1.425,-0.775 -2.52,-1.895 -3.279,-3.351 c-0.7550000000000002,-1.451 -1.245,-3.198 -1.472,-5.219 c-0.22200000000000006,-2.024 -0.3330000000000002,-4.255 -0.3330000000000002,-6.6880000000000015 C365.3602587890625,189.48897636032103 365.4712587890625,187.26297636032103 365.6932587890625,185.22397636032105 zM371.94025878906245,197.35897636032104 c0.10300000000000002,1.505 0.3130000000000001,2.7190000000000003 0.6250000000000002,3.66 c0.3120000000000001,0.932 0.7590000000000002,1.622 1.339,2.051 c0.5760000000000002,0.4300000000000001 1.344,0.6500000000000002 2.2960000000000003,0.6500000000000002 c0.9500000000000002,0 1.7160000000000002,-0.22000000000000006 2.298,-0.6500000000000002 c0.5800000000000002,-0.4300000000000001 1.026,-1.12 1.34,-2.051 c0.3090000000000001,-0.9410000000000002 0.518,-2.1550000000000002 0.6220000000000002,-3.66 c0.10500000000000002,-1.5 0.15700000000000006,-3.319 0.15700000000000006,-5.46 c0,-2.146 -0.05200000000000002,-3.96 -0.15700000000000006,-5.443 c-0.10400000000000002,-1.492 -0.3130000000000001,-2.706 -0.6220000000000002,-3.664 c-0.3130000000000001,-0.9500000000000002 -0.7600000000000002,-1.6440000000000001 -1.34,-2.069 c-0.5820000000000002,-0.4300000000000001 -1.348,-0.6500000000000002 -2.298,-0.6500000000000002 c-0.9520000000000002,0 -1.7200000000000002,0.22000000000000006 -2.2960000000000003,0.6500000000000002 c-0.5800000000000002,0.4250000000000001 -1.027,1.12 -1.339,2.069 c-0.3120000000000001,0.9580000000000002 -0.522,2.172 -0.6250000000000002,3.664 c-0.10500000000000002,1.483 -0.15700000000000006,3.297 -0.15700000000000006,5.443 C371.78325878906253,194.03997636032105 371.83425878906246,195.85797636032103 371.94025878906245,197.35897636032104 z" id="svg_188"/>
		<path fill="#FFFFFF" d="M406.0012587890625,197.78897636032104 h0.09000000000000004 v-21.819 h5.889 v31.849 h-7.317 l-7.851,-22.303 h-0.09200000000000005 v22.303 h-5.889 v-31.849 h7.407 L406.0012587890625,197.78897636032104 z" id="svg_189"/>
		<path fill="#FFFFFF" d="M430.58025878906255,175.96997636032106 L439.0152587890625,207.81897636032105 h-6.692 l-1.474,-6.7330000000000005 h-8.475 l-1.475,6.7330000000000005 h-6.691 l8.432,-31.849 H430.58025878906255 zM429.73425878906255,195.82297636032104 l-3.077,-14.321 h-0.09000000000000004 l-3.077,14.321 H429.73425878906255 z" id="svg_190"/>
	</g>
</g></g></svg>