<?xml version="1.0" encoding="utf-8"?>
<!-- Generator: Adobe Illustrator 16.0.0, SVG Export Plug-In . SVG Version: 6.00 Build 0)  -->
<!DOCTYPE svg PUBLIC "-//W3C//DTD SVG 1.1//EN" "http://www.w3.org/Graphics/SVG/1.1/DTD/svg11.dtd">
<svg version="1.1" xmlns="http://www.w3.org/2000/svg" xmlns:xlink="http://www.w3.org/1999/xlink" x="0px" y="0px" width="192px"
	 height="192px" viewBox="0 0 192 192" enable-background="new 0 0 192 192" xml:space="preserve">
<g id="NOTICIAS23">
</g>
<g id="CALENDARI">
</g>
<g id="INCIDENCIES">
</g>
<g id="ACCEDIR">
</g>
<g id="SORTIR">
</g>
<g id="REGISTRE">
</g>
<g id="TUTORIAL">
</g>
<g id="TUTORIAL2">
</g>
<g id="CONVO">
</g>
<g id="COMUNICAT">
</g>
<g id="DIADA">
</g>
<g id="DIADA_2">
</g>
<g id="ENTRENO">
</g>
<g id="ENTRENO2">
</g>
<g id="DELEGACIÓ2">
</g>
<g id="EVENTO_SOCIAL">
</g>
<g id="ev2">
</g>
<g id="MAIL">
</g>
<g id="TELEFONO">
</g>
<g id="TLF_EMERG">
</g>
<g id="TRANS">
</g>
<g id="ACOMPAÑANT">
</g>
<g id="CONTRASEÑA">
</g>
<g id="CONTRA_x5F_2">
</g>
<g id="DADES_PERSONALS">
</g>
<g id="DADES_PERSONALS2">
</g>
<g id="EDITAR">
</g>
<g id="DELEGACIÓ">
</g>
<g id="PERFIL">
</g>
<g id="CONFIRMATS">
</g>
<g id="NO_CONFIRM">
</g>
<g id="CASTELLERS">
</g>
<g id="COMERCIAL">
</g>
<g id="COMERCIAL2">
</g>
<g id="CARREC">
</g>
<g id="REFRESH">
</g>
<g id="camara">
	<path fill="#790016" d="M96.001,16.288c-43.55,0-78.854,35.303-78.854,78.853c0,43.549,35.304,78.852,78.854,78.852
		c43.548,0,78.852-35.303,78.852-78.852C174.853,51.591,139.549,16.288,96.001,16.288z M96.001,166.608
		c-39.946,0-72.329-32.383-72.329-72.328c0-39.946,32.383-72.328,72.329-72.328c39.945,0,72.328,32.382,72.328,72.328
		C168.329,134.226,135.946,166.608,96.001,166.608z"/>
	<g>
		<path fill="#790016" d="M104.473,74.07c-13.059-0.128-23.865,10.585-24.031,23.825c-0.165,13.091,10.589,23.93,23.865,24.055
			c13.103,0.122,23.832-10.515,24.006-23.8C128.482,85.053,117.738,74.201,104.473,74.07z M104.358,118.29
			c-11.149-0.032-20.261-9.183-20.212-20.299c0.049-11.201,9.143-20.267,20.275-20.213c11.191,0.054,20.282,9.161,20.238,20.275
			C124.617,109.2,115.467,118.321,104.358,118.29z"/>
		<path fill="#790016" d="M62.09,75.927c-2.019-0.054-3.757,1.645-3.758,3.672c-0.002,2,1.65,3.649,3.664,3.659
			c2.037,0.01,3.671-1.589,3.688-3.61C65.701,77.621,64.117,75.98,62.09,75.927z"/>
		<path fill="#790016" d="M96.001,26.747c-37.299,0-67.535,30.236-67.535,67.533c0,37.298,30.236,67.534,67.535,67.534
			c37.297,0,67.533-30.236,67.533-67.534C163.534,56.983,133.298,26.747,96.001,26.747z M141.232,119.746
			c-0.049,0.105-0.125,0.207-0.145,0.317c-1.184,6.751-6.21,11.102-13.078,11.113c-21.887,0.036-43.774,0.037-65.661-0.003
			c-5.585-0.011-9.679-2.612-12.081-7.678c-0.555-1.168-0.771-2.496-1.143-3.75c0-13.731,0-27.464,0-41.196
			c0.05-0.199,0.119-0.395,0.146-0.597c0.639-4.557,3.029-7.941,7.148-9.875c1.478-0.693,2.094-1.335,1.939-2.954
			c-0.125-1.308,0.678-2.065,1.932-2.073c4.225-0.024,8.449-0.023,12.674,0.001c1.213,0.007,1.863,0.691,1.928,1.905
			c0.029,0.557,0.005,1.117,0.005,1.735c2.411,0,4.686,0.004,6.96-0.002c0.928-0.002,2.07,0.296,2.72-0.136
			c0.64-0.426,0.78-1.604,1.14-2.451c0.035-0.083,0.07-0.165,0.104-0.249c1.383-3.508,4.677-6.555,9.523-6.404
			c6.287,0.196,12.583,0.069,18.875,0.038c2.736-0.013,4.903,1.108,6.722,3.068c1.427,1.537,2.122,3.456,2.81,5.369
			c0.225,0.623,0.537,0.807,1.166,0.78c1.137-0.048,2.278-0.043,3.416-0.006c4.938,0.159,8.77,2.311,11.199,6.615
			c0.832,1.476,1.148,3.242,1.701,4.875C141.232,92.042,141.232,105.895,141.232,119.746z"/>
	</g>
</g>
<g id="musics">
</g>
<g id="Capa_39">
</g>
</svg>
