<?xml version="1.0" encoding="utf-8"?>
<!-- Generator: Adobe Illustrator 16.0.0, SVG Export Plug-In . SVG Version: 6.00 Build 0)  -->
<!DOCTYPE svg PUBLIC "-//W3C//DTD SVG 1.1//EN" "http://www.w3.org/Graphics/SVG/1.1/DTD/svg11.dtd">
<svg version="1.1" xmlns="http://www.w3.org/2000/svg" xmlns:xlink="http://www.w3.org/1999/xlink" x="0px" y="0px" width="192px"
	 height="192px" viewBox="0 0 192 192" enable-background="new 0 0 192 192" xml:space="preserve">
<g id="NOTICIAS23">
</g>
<g id="CALENDARI">
</g>
<g id="INCIDENCIES">
</g>
<g id="ACCEDIR">
</g>
<g id="SORTIR">
</g>
<g id="REGISTRE">
	<path fill="#790016" d="M96,16.234c-43.549,0-78.853,35.303-78.853,78.853c0,43.549,35.304,78.852,78.853,78.852
		s78.853-35.303,78.853-78.852C174.853,51.538,139.549,16.234,96,16.234z M96,166.555c-39.945,0-72.328-32.383-72.328-72.328
		c0-39.946,32.383-72.328,72.328-72.328c39.946,0,72.329,32.382,72.329,72.328C168.329,134.172,135.946,166.555,96,166.555z"/>
	<path fill-rule="evenodd" clip-rule="evenodd" fill="#790016" d="M66,138.466c23.001,0,46,0,69,0
		c-0.016,0.032-0.03,0.095-0.051,0.095c-0.132,0.009-0.266,0.004-0.397,0.004c-22.7,0-45.401,0.001-68.103-0.004
		C66.299,138.561,66.149,138.498,66,138.466z"/>
	<path fill="#790016" d="M96,26.693c-37.298,0-67.533,30.236-67.533,67.533c0,37.298,30.235,67.534,67.533,67.534
		c37.299,0,67.534-30.236,67.534-67.534C163.534,56.929,133.299,26.693,96,26.693z M97.51,51.618
		c0.499-0.077,0.991-0.197,1.489-0.298c1.736,0,3.466,0,5.2,0c0.678,0.127,1.354,0.268,2.036,0.382
		c12.054,1.985,21.388,11.617,23.034,23.771c2.004,14.834-8.102,28.609-22.853,31.151c-15.371,2.646-29.981-7.841-32.295-23.191
		C71.813,68.138,82.221,53.981,97.51,51.618z M58.603,99.204h-5.511v-9.72h-8.466v-5.511h8.466v-9.417h5.511v9.417h8.517v5.511
		h-8.517V99.204z M141.333,138.466c-26.444,0-52.888,0-79.333,0c0-1.187,0-2.373,0-3.56c0.109-0.801,0.223-1.603,0.33-2.402
		c1.702-12.482,7.416-22.585,17.729-29.979c0.464-0.333,0.729-0.347,1.188,0.052c5.738,4.971,12.424,7.596,20.01,7.691
		c7.951,0.099,14.942-2.57,20.958-7.778c0.115-0.1,0.229-0.202,0.345-0.301c0.027-0.023,0.068-0.033,0.206-0.101
		c1.151,0.89,2.388,1.755,3.53,2.734c7.826,6.701,12.512,15.199,14.35,25.299c0.274,1.521,0.385,3.069,0.581,4.605
		c0.013,0.101,0.07,0.197,0.107,0.294C141.333,136.169,141.333,137.315,141.333,138.466z"/>
</g>
<g id="TUTORIAL">
</g>
<g id="TUTORIAL2">
</g>
<g id="CONVO">
</g>
<g id="COMUNICAT">
</g>
<g id="DIADA">
</g>
<g id="DIADA_2">
</g>
<g id="ENTRENO">
</g>
<g id="ENTRENO2">
</g>
<g id="DELEGACIÓ2">
</g>
<g id="EVENTO_SOCIAL">
</g>
<g id="ev2">
</g>
<g id="MAIL">
</g>
<g id="TELEFONO">
</g>
<g id="TLF_EMERG">
</g>
<g id="TRANS">
</g>
<g id="ACOMPAÑANT">
</g>
<g id="CONTRASEÑA">
</g>
<g id="CONTRA_x5F_2">
</g>
<g id="DADES_PERSONALS">
</g>
<g id="DADES_PERSONALS2">
</g>
<g id="EDITAR">
</g>
<g id="DELEGACIÓ">
</g>
<g id="PERFIL">
</g>
<g id="CONFIRMATS">
</g>
<g id="NO_CONFIRM">
</g>
<g id="CASTELLERS">
</g>
</svg>
