<?xml version="1.0" encoding="utf-8"?>
<!-- Generator: Adobe Illustrator 16.0.0, SVG Export Plug-In . SVG Version: 6.00 Build 0)  -->
<!DOCTYPE svg PUBLIC "-//W3C//DTD SVG 1.1//EN" "http://www.w3.org/Graphics/SVG/1.1/DTD/svg11.dtd">
<svg version="1.1" xmlns="http://www.w3.org/2000/svg" xmlns:xlink="http://www.w3.org/1999/xlink" x="0px" y="0px" width="192px"
	 height="192px" viewBox="0 0 192 192" enable-background="new 0 0 192 192" xml:space="preserve">
<g id="NOTICIAS23">
</g>
<g id="CALENDARI">
</g>
<g id="INCIDENCIES">
</g>
<g id="ACCEDIR">
</g>
<g id="SORTIR">
</g>
<g id="REGISTRE">
</g>
<g id="TUTORIAL">
</g>
<g id="TUTORIAL2">
</g>
<g id="CONVO">
</g>
<g id="COMUNICAT">
</g>
<g id="DIADA">
</g>
<g id="DIADA_2">
</g>
<g id="ENTRENO">
</g>
<g id="ENTRENO2">
</g>
<g id="DELEGACIÓ2">
</g>
<g id="EVENTO_SOCIAL">
</g>
<g id="ev2">
</g>
<g id="MAIL">
</g>
<g id="TELEFONO">
</g>
<g id="TLF_EMERG">
</g>
<g id="TRANS">
</g>
<g id="ACOMPAÑANT">
</g>
<g id="CONTRASEÑA">
</g>
<g id="CONTRA_x5F_2">
</g>
<g id="DADES_PERSONALS">
</g>
<g id="DADES_PERSONALS2">
</g>
<g id="EDITAR">
</g>
<g id="DELEGACIÓ">
</g>
<g id="PERFIL">
</g>
<g id="CONFIRMATS">
	<path fill="#790016" d="M100.668,18.55c-43.55,0-78.854,35.303-78.854,78.853c0,43.549,35.304,78.852,78.854,78.852
		c43.548,0,78.852-35.303,78.852-78.852C179.52,53.853,144.216,18.55,100.668,18.55z M100.668,168.87
		c-39.946,0-72.329-32.383-72.329-72.328c0-39.946,32.383-72.328,72.329-72.328c39.945,0,72.328,32.382,72.328,72.328
		C172.996,136.487,140.613,168.87,100.668,168.87z"/>
	<path fill="#790016" d="M100.668,29.009c-37.299,0-67.535,30.236-67.535,67.533c0,37.298,30.236,67.534,67.535,67.534
		c37.297,0,67.533-30.236,67.533-67.534C168.201,59.245,137.965,29.009,100.668,29.009z M139.756,74.797l-43.66,58.212
		c-0.029,0.037-0.066,0.063-0.096,0.099c-0.041,0.052-0.07,0.108-0.115,0.158c-0.074,0.083-0.163,0.144-0.244,0.219
		c-0.086,0.08-0.166,0.161-0.258,0.231c-0.137,0.106-0.283,0.192-0.432,0.276c-0.088,0.052-0.174,0.109-0.268,0.153
		c-0.172,0.08-0.352,0.136-0.533,0.188c-0.078,0.022-0.154,0.057-0.234,0.074c-0.264,0.059-0.533,0.092-0.803,0.092h-0.002H93.11
		c-0.209,0-0.418-0.021-0.625-0.057c-0.067-0.011-0.131-0.031-0.196-0.046c-0.14-0.032-0.277-0.067-0.415-0.115
		c-0.081-0.027-0.158-0.065-0.237-0.1c-0.117-0.051-0.23-0.104-0.344-0.167c-0.084-0.047-0.164-0.1-0.244-0.153
		c-0.057-0.038-0.115-0.066-0.171-0.108c-0.04-0.029-0.071-0.068-0.109-0.1c-0.048-0.039-0.101-0.068-0.147-0.11L64,109.6
		c-1.529-1.377-1.654-3.733-0.278-5.265c1.376-1.53,3.734-1.655,5.265-0.278l23.591,21.221l41.216-54.953
		c1.232-1.646,3.57-1.981,5.217-0.745C140.657,70.814,140.99,73.15,139.756,74.797z"/>
</g>
<g id="NO_CONFIRM">
</g>
<g id="CASTELLERS">
</g>
</svg>
