<?xml version="1.0" encoding="utf-8"?>
<!-- Generator: Adobe Illustrator 16.0.0, SVG Export Plug-In . SVG Version: 6.00 Build 0)  -->
<!DOCTYPE svg PUBLIC "-//W3C//DTD SVG 1.1//EN" "http://www.w3.org/Graphics/SVG/1.1/DTD/svg11.dtd">
<svg version="1.1" xmlns="http://www.w3.org/2000/svg" xmlns:xlink="http://www.w3.org/1999/xlink" x="0px" y="0px" width="192px"
	 height="192px" viewBox="0 0 192 192" enable-background="new 0 0 192 192" xml:space="preserve">
<g id="NOTICIAS23">
</g>
<g id="CALENDARI">
</g>
<g id="INCIDENCIES">
</g>
<g id="ACCEDIR">
</g>
<g id="SORTIR">
</g>
<g id="REGISTRE">
</g>
<g id="TUTORIAL">
</g>
<g id="TUTORIAL2">
</g>
<g id="CONVO">
	<path fill="#790016" d="M102.479,17.094c-43.549,0-78.853,35.303-78.853,78.853c0,43.549,35.304,78.852,78.853,78.852
		s78.853-35.303,78.853-78.852C181.331,52.397,146.027,17.094,102.479,17.094z M102.479,167.414
		c-39.945,0-72.328-32.383-72.328-72.328c0-39.946,32.383-72.328,72.328-72.328c39.946,0,72.329,32.382,72.329,72.328
		C174.808,135.031,142.425,167.414,102.479,167.414z"/>
	<path fill="#790016" d="M102.479,27.553c-37.298,0-67.533,30.236-67.533,67.533c0,37.298,30.235,67.534,67.533,67.534
		c37.299,0,67.534-30.236,67.534-67.534C170.013,57.789,139.777,27.553,102.479,27.553z M154.193,81.689
		c0.791,1.763,0.003,3.834-1.761,4.626l-13,5.833c-0.465,0.208-0.952,0.308-1.431,0.308c-1.337,0-2.612-0.77-3.195-2.068
		c-0.791-1.763-0.003-3.834,1.761-4.626l13-5.833C151.332,79.139,153.402,79.926,154.193,81.689z M124.592,72.141l10.459-16.359
		c1.042-1.628,3.208-2.104,4.835-1.063c1.628,1.041,2.104,3.206,1.063,4.834L130.49,75.911c-0.668,1.044-1.798,1.615-2.952,1.615
		c-0.646,0-1.299-0.178-1.883-0.552C124.027,75.934,123.551,73.769,124.592,72.141z M59.987,125.28L53.01,96.872l8.307,0.83
		l5.647,23.258L59.987,125.28z M108.995,131.344c-1.545,6.95-9.303,6.895-9.303,6.895l-14.786-1.994
		c-9.469-2.492-7.641-10.964-7.641-10.964s1.071-0.813,2.4-0.813c1.328,0,2.25,0.813,2.25,0.813
		c0.206,4.581,3.486,6.063,3.486,6.063l11.9,1.494c5.668,1.495,7.226-3.736,7.226-3.736c0.81-1.621,2.972-0.665,2.972-0.665
		C109.494,128.935,108.995,131.344,108.995,131.344z M70.786,119.3l-5.98-22.428l36.714-29.238l15.948,57.646L70.786,119.3z
		 M128.266,129.102c-5.315,1.992-6.645-2.492-6.645-2.492l-16.613-62.132c0,0-0.997-3.654,3.489-4.817
		c4.346-1.127,5.647,2.492,5.647,2.492l17.111,62.464C131.256,124.615,132.752,127.418,128.266,129.102z M155.503,113.501
		c-0.273,0-0.55-0.032-0.827-0.1l-18.229-4.417c-1.879-0.455-3.032-2.347-2.577-4.226s2.351-3.033,4.226-2.577l18.229,4.417
		c1.879,0.455,3.032,2.347,2.577,4.226C158.514,112.426,157.081,113.501,155.503,113.501z"/>
</g>
<g id="COMUNICAT">
</g>
<g id="DIADA">
</g>
<g id="DIADA_2">
</g>
<g id="ENTRENO">
</g>
<g id="ENTRENO2">
</g>
<g id="DELEGACIÓ2">
</g>
<g id="EVENTO_SOCIAL">
</g>
<g id="ev2">
</g>
<g id="MAIL">
</g>
<g id="TELEFONO">
</g>
<g id="TLF_EMERG">
</g>
<g id="TRANS">
</g>
<g id="ACOMPAÑANT">
</g>
<g id="CONTRASEÑA">
</g>
<g id="CONTRA_x5F_2">
</g>
<g id="DADES_PERSONALS">
</g>
<g id="DADES_PERSONALS2">
</g>
<g id="EDITAR">
</g>
<g id="DELEGACIÓ">
</g>
<g id="PERFIL">
</g>
<g id="CONFIRMATS">
</g>
<g id="NO_CONFIRM">
</g>
<g id="CASTELLERS">
</g>
</svg>
