<?xml version="1.0" encoding="utf-8"?>
<!-- Generator: Adobe Illustrator 16.0.0, SVG Export Plug-In . SVG Version: 6.00 Build 0)  -->
<!DOCTYPE svg PUBLIC "-//W3C//DTD SVG 1.1//EN" "http://www.w3.org/Graphics/SVG/1.1/DTD/svg11.dtd">
<svg version="1.1" xmlns="http://www.w3.org/2000/svg" xmlns:xlink="http://www.w3.org/1999/xlink" x="0px" y="0px" width="192px"
	 height="192px" viewBox="0 0 192 192" enable-background="new 0 0 192 192" xml:space="preserve">
<g id="NOTICIAS23">
</g>
<g id="CALENDARI">
</g>
<g id="INCIDENCIES">
</g>
<g id="ACCEDIR">
</g>
<g id="SORTIR">
</g>
<g id="REGISTRE">
</g>
<g id="TUTORIAL">
</g>
<g id="TUTORIAL2">
</g>
<g id="CONVO">
</g>
<g id="COMUNICAT">
</g>
<g id="Capa_65">
</g>
<g id="DIADA">
</g>
<g id="DIADA_2">
</g>
<g id="ENTRENO">
</g>
<g id="ENTRENO2">
</g>
<g id="DELEGACIÓ2">
</g>
<g id="EVENTO_SOCIAL">
</g>
<g id="ev2">
</g>
<g id="MAIL">
</g>
<g id="TELEFONO">
</g>
<g id="TLF_EMERG">
</g>
<g id="TRANS">
</g>
<g id="ACOMPAÑANT">
</g>
<g id="CONTRASEÑA">
</g>
<g id="CONTRA_x5F_2">
</g>
<g id="DADES_PERSONALS">
</g>
<g id="DADES_PERSONALS2">
</g>
<g id="EDITAR">
</g>
<g id="DELEGACIÓ">
</g>
<g id="PERFIL">
</g>
<g id="CONFIRMATS">
</g>
<g id="NO_CONFIRM">
</g>
<g id="CASTELLERS">
</g>
<g id="COMERCIAL">
</g>
<g id="COMERCIAL2">
</g>
<g id="CARREC">
</g>
<g id="REFRESH">
</g>
<g id="camara">
</g>
<g id="musics">
</g>
<g id="Capa_39">
</g>
<g id="LLOC">
</g>
<g id="ALÇADA">
</g>
<g id="MANS_ALÇADES">
</g>
<g id="PESO">
</g>
<g id="ma">
</g>
<g id="primeres">
</g>
<g id="Capa_46">
</g>
<g id="Capa_47">
</g>
<g id="Capa_66">
</g>
<g id="Capa_67">
</g>
<g id="Capa_48">
</g>
<g id="asegurat">
</g>
<g id="taller">
</g>
<g id="Capa_51">
</g>
<g id="Capa_52">
</g>
<g id="Capa_53">
</g>
<g id="Capa_54">
	<path fill="#790016" d="M103.722,33.467c-37.298,0-67.533,30.235-67.533,67.533s30.235,67.534,67.533,67.534
		c37.299,0,67.534-30.236,67.534-67.534S141.021,33.467,103.722,33.467z M109.588,114.206c-0.037,0.756-0.091,1.53-0.162,2.321
		c-0.216,3.673-0.721,7.111-1.512,10.314c-0.793,3.204-2.052,5.978-3.78,8.316c-1.728,2.34-3.996,4.176-6.804,5.508
		c-2.808,1.331-6.301,1.998-10.476,1.998c-6.193,0-11.054-0.937-14.58-2.809c-3.529-1.871-6.175-4.463-7.938-7.775
		c-1.765-3.312-2.862-7.253-3.294-11.826c-0.432-4.571-0.647-9.559-0.647-14.958V93.739c0.143-5.184,0.467-9.971,0.972-14.363
		c0.503-4.392,1.637-8.189,3.402-11.395c1.763-3.202,4.374-5.705,7.829-7.506c3.456-1.799,8.208-2.7,14.257-2.7
		c13.679,0.217,21.06,7.201,22.14,20.952c0.144,1.01,0.251,2.035,0.324,3.078c0.07,1.045,0.07,2.07,0,3.078H94.414
		c-0.146-1.296-0.27-2.808-0.378-4.536c-0.108-1.728-0.378-3.348-0.81-4.86c-0.433-1.512-1.135-2.808-2.106-3.888
		s-2.395-1.62-4.266-1.62c-2.953,0-5.185,0.774-6.696,2.322c-1.512,1.549-2.575,3.402-3.187,5.562
		c-0.612,2.16-0.937,4.393-0.972,6.696c-0.037,2.306-0.054,4.249-0.054,5.832v22.464c0,1.657,0.089,3.511,0.27,5.563
		c0.179,2.052,0.611,3.979,1.296,5.777c0.684,1.801,1.764,3.294,3.24,4.482c1.475,1.188,3.51,1.782,6.103,1.782
		c2.087,0,3.635-0.719,4.644-2.16c1.008-1.439,1.729-3.168,2.16-5.184s0.665-4.067,0.702-6.156c0.035-2.088,0.089-3.78,0.162-5.076
		h15.228C109.678,112.677,109.624,113.45,109.588,114.206z M148.954,95.359c-1.944-0.216-3.764-0.216-5.454,0
		c-1.692,0.217-3.15,0.702-4.374,1.458c-1.226,0.756-2.197,1.836-2.916,3.24c-0.721,1.404-1.117,3.224-1.188,5.454v35.208h-14.039
		V79.808h13.5v10.8h0.216c0.863-2.23,1.744-4.013,2.646-5.346c0.899-1.331,1.854-2.43,2.862-3.294
		c2.015-1.655,3.726-2.592,5.13-2.808c1.404-0.217,2.609-0.36,3.618-0.433V95.359z"/>
</g>
<g id="Capa_55">
</g>
<g id="Capa_56">
</g>
<g id="Capa_57">
</g>
<g id="Capa_58">
</g>
<g id="Capa_59">
</g>
<g id="Capa_60">
</g>
<g id="Capa_68">
</g>
<g id="Capa_69">
</g>
<g id="Capa_61">
</g>
<g id="Capa_62">
</g>
<g id="Capa_63">
</g>
<g id="Capa_64">
</g>
</svg>
