<?xml version="1.0" encoding="utf-8"?>
<!-- Generator: Adobe Illustrator 16.0.0, SVG Export Plug-In . SVG Version: 6.00 Build 0)  -->
<!DOCTYPE svg PUBLIC "-//W3C//DTD SVG 1.1//EN" "http://www.w3.org/Graphics/SVG/1.1/DTD/svg11.dtd">
<svg version="1.1" xmlns="http://www.w3.org/2000/svg" xmlns:xlink="http://www.w3.org/1999/xlink" x="0px" y="0px" width="192px"
	 height="192px" viewBox="0 0 192 192" enable-background="new 0 0 192 192" xml:space="preserve">
<g id="NOTICIAS23">
</g>
<g id="CALENDARI">
</g>
<g id="INCIDENCIES">
</g>
<g id="ACCEDIR">
</g>
<g id="SORTIR">
</g>
<g id="REGISTRE">
</g>
<g id="TUTORIAL">
</g>
<g id="TUTORIAL2">
</g>
<g id="CONVO">
</g>
<g id="COMUNICAT">
</g>
<g id="Capa_65">
</g>
<g id="DIADA">
</g>
<g id="DIADA_2">
</g>
<g id="ENTRENO">
</g>
<g id="ENTRENO2">
</g>
<g id="DELEGACIÓ2">
</g>
<g id="EVENTO_SOCIAL">
</g>
<g id="ev2">
</g>
<g id="MAIL">
</g>
<g id="TELEFONO">
</g>
<g id="TLF_EMERG">
</g>
<g id="TRANS">
</g>
<g id="ACOMPAÑANT">
</g>
<g id="CONTRASEÑA">
</g>
<g id="CONTRA_x5F_2">
</g>
<g id="DADES_PERSONALS">
</g>
<g id="DADES_PERSONALS2">
</g>
<g id="EDITAR">
</g>
<g id="DELEGACIÓ">
</g>
<g id="PERFIL">
</g>
<g id="CONFIRMATS">
</g>
<g id="NO_CONFIRM">
</g>
<g id="CASTELLERS">
</g>
<g id="COMERCIAL">
</g>
<g id="COMERCIAL2">
</g>
<g id="CARREC">
</g>
<g id="REFRESH">
</g>
<g id="camara">
</g>
<g id="musics">
</g>
<g id="Capa_39">
</g>
<g id="LLOC">
</g>
<g id="ALÇADA">
</g>
<g id="MANS_ALÇADES">
</g>
<g id="PESO">
</g>
<g id="ma">
</g>
<g id="primeres">
</g>
<g id="Capa_46">
</g>
<g id="Capa_47">
</g>
<g id="Capa_66">
</g>
<g id="Capa_67">
</g>
<g id="Capa_48">
</g>
<g id="asegurat">
</g>
<g id="taller">
</g>
<g id="Capa_51">
</g>
<g id="Capa_52">
</g>
<g id="Capa_53">
</g>
<g id="Capa_54">
</g>
<g id="Capa_55">
</g>
<g id="Capa_56">
</g>
<g id="Capa_57">
</g>
<g id="Capa_58">
</g>
<g id="Capa_59">
</g>
<g id="Capa_60">
</g>
<g id="Capa_68">
</g>
<g id="Capa_69">
</g>
<g id="Capa_61">
</g>
<g id="Capa_62">
	<g>
		<path fill="#AF6774" d="M121.325,86.024c-0.282-0.875-0.749-1.567-1.396-2.076c-0.649-0.507-1.624-0.762-2.922-0.762
			c-1.301,0-2.302,0.368-3.007,1.102c-0.707,0.733-1.229,1.651-1.568,2.753c-0.339,1.101-0.537,2.259-0.592,3.473
			c-0.058,1.215-0.058,2.301,0,3.261v14.314c0,5.647,1.778,8.47,5.336,8.47c1.694,0,2.893-0.789,3.6-2.371
			c0.705-1.58,1.114-3.528,1.228-5.844V92.419c-0.113-1.187-0.183-2.329-0.211-3.43C121.763,87.888,121.607,86.9,121.325,86.024z"/>
		<path fill="#AF6774" d="M96,28.467c-37.299,0-67.533,30.234-67.533,67.533c0,37.297,30.234,67.533,67.533,67.533
			S163.533,133.297,163.533,96C163.533,58.701,133.299,28.467,96,28.467z M92.357,69.55H70.844v16.009h19.82v9.317h-19.82v19.565
			h21.514v9.317H58.984V60.232h33.373V69.55z M133.016,109.105c-0.058,1.92-0.254,3.826-0.594,5.718
			c-0.338,1.893-0.918,3.599-1.736,5.124c-0.818,1.524-1.963,2.753-3.431,3.685c-1.47,0.932-3.36,1.397-5.675,1.397
			c-2.147-0.113-4.023-0.564-5.632-1.354c-1.611-0.791-3.093-2.399-4.448-4.828h-0.168v20.921h-10.505V75.986h11.013v4.998h0.169
			c1.017-2.371,2.286-4.023,3.813-4.955c1.523-0.932,3.442-1.369,5.759-1.313c1.75,0.057,3.331,0.354,4.743,0.889
			c1.411,0.537,2.597,1.47,3.558,2.796c0.96,1.327,1.707,3.077,2.245,5.251c0.536,2.174,0.832,4.899,0.89,8.174V109.105z"/>
	</g>
</g>
<g id="Capa_63">
</g>
<g id="Capa_64">
</g>
</svg>
