<?xml version="1.0" encoding="utf-8"?>
<!-- Generator: Adobe Illustrator 16.0.0, SVG Export Plug-In . SVG Version: 6.00 Build 0)  -->
<!DOCTYPE svg PUBLIC "-//W3C//DTD SVG 1.1//EN" "http://www.w3.org/Graphics/SVG/1.1/DTD/svg11.dtd">
<svg version="1.1" xmlns="http://www.w3.org/2000/svg" xmlns:xlink="http://www.w3.org/1999/xlink" x="0px" y="0px" width="192px"
	 height="192px" viewBox="0 0 192 192" enable-background="new 0 0 192 192" xml:space="preserve">
<g id="NOTICIAS23">
</g>
<g id="CALENDARI">
</g>
<g id="INCIDENCIES">
</g>
<g id="ACCEDIR">
</g>
<g id="SORTIR">
</g>
<g id="REGISTRE">
</g>
<g id="TUTORIAL">
</g>
<g id="TUTORIAL2">
</g>
<g id="CONVO">
</g>
<g id="COMUNICAT">
</g>
<g id="DIADA">
</g>
<g id="DIADA_2">
</g>
<g id="ENTRENO">
</g>
<g id="ENTRENO2">
</g>
<g id="DELEGACIÓ2">
</g>
<g id="EVENTO_SOCIAL">
</g>
<g id="ev2">
</g>
<g id="MAIL">
</g>
<g id="TELEFONO">
</g>
<g id="TLF_EMERG">
</g>
<g id="TRANS">
</g>
<g id="ACOMPAÑANT">
</g>
<g id="CONTRASEÑA">
</g>
<g id="CONTRA_x5F_2">
</g>
<g id="DADES_PERSONALS">
</g>
<g id="DADES_PERSONALS2">
</g>
<g id="EDITAR">
</g>
<g id="DELEGACIÓ">
</g>
<g id="PERFIL">
</g>
<g id="CONFIRMATS">
</g>
<g id="NO_CONFIRM">
</g>
<g id="CASTELLERS">
	<path fill="#790016" d="M99,23.313c-43.549,0-78.853,35.303-78.853,78.853c0,43.549,35.304,78.852,78.853,78.852
		s78.852-35.303,78.852-78.852C177.852,58.617,142.549,23.313,99,23.313z M99,173.634c-39.945,0-72.328-32.383-72.328-72.328
		c0-39.946,32.383-72.328,72.328-72.328c39.946,0,72.329,32.382,72.329,72.328C171.329,141.251,138.946,173.634,99,173.634z"/>
	<path fill="#790016" d="M99,33.772c-37.299,0-67.533,30.236-67.533,67.533c0,37.298,30.234,67.534,67.533,67.534
		s67.534-30.236,67.534-67.534C166.534,64.008,136.299,33.772,99,33.772z M123.394,52.043c6.526,0.167,9.846,5.557,9.69,9.868
		c-0.19,5.292-4.321,9.413-9.771,9.393c-5.426-0.02-9.804-4.341-9.76-9.627C113.602,56.441,118.133,51.909,123.394,52.043z
		 M54.381,110.892c-5.358-0.076-9.742-4.479-9.711-9.756c0.029-5.268,4.566-9.711,9.827-9.628c5.375,0.086,9.751,4.474,9.717,9.746
		C64.181,106.509,59.633,110.968,54.381,110.892z M74.992,127.894c-3.317-0.186-5.824-1.73-7.765-4.244
		c-2.398-3.111-3.993-6.639-5.088-10.385c-0.131-0.449,0.184-1.273,0.566-1.586c7.034-5.719,7.144-15.477,0.182-21.232
		c-0.619-0.512-1.03-0.884-0.704-1.857c2.813-8.426,7.691-15.362,14.755-20.755c0.278-0.214,0.566-0.424,0.871-0.6
		c1.616-0.927,3.04-0.894,4.048,0.115c1.188,1.189,0.837,2.508,0.181,3.761c-1.169,2.228-2.507,4.371-3.611,6.628
		c-5.645,11.528-5.066,22.846,1.314,33.914c1.287,2.234,2.46,4.469,2.863,7.082C83.306,123.284,79.502,127.892,74.992,127.894z
		 M123.349,150.29c-5.27,0.01-9.797-4.484-9.777-9.707c0.021-5.246,4.529-9.701,9.809-9.689c5.377,0.012,9.664,4.322,9.663,9.719
		C133.043,145.989,128.743,150.28,123.349,150.29z M137.447,115.257c-0.844,5.238-4.107,9.225-7.662,12.938
		c-0.228,0.238-0.923,0.223-1.313,0.082c-8.472-3.039-16.441,1.018-18.5,9.686c-0.442,1.861-1.272,2.324-2.877,2.586
		c-8.245,1.34-16.254,0.611-24.002-2.563c-0.775-0.316-1.703-0.715-2.113-1.359c-0.519-0.814-0.936-2.008-0.719-2.869
		c0.173-0.697,1.283-1.488,2.089-1.637c1.818-0.334,3.706-0.295,5.563-0.408c10.215,0.148,19.146-3.119,26.23-10.574
		c2.437-2.563,4.37-5.643,6.307-8.635c1.773-2.74,3.697-5.188,6.951-6.172C133.513,104.481,138.367,109.562,137.447,115.257z
		 M141.15,99.63c-0.339,0.941-1.046,2.102-1.876,2.412c-0.741,0.277-2.145-0.199-2.762-0.828c-1.034-1.049-1.725-2.459-2.475-3.766
		c-3.187-5.556-7.215-10.337-12.697-13.759c-6.005-3.749-12.577-5.528-19.684-5.225c-2.083-0.281-4.222-0.352-6.236-0.886
		c-4.127-1.094-6.688-4.363-6.578-7.994c0.113-3.758,2.862-6.924,7.011-7.821c4.471-0.967,8.921-0.459,13.312,0.602
		c0.384,0.092,0.791,0.813,0.881,1.299c1.188,6.448,5.572,10.827,12.073,11.476c2.126,0.212,4.37-0.387,6.504-0.866
		c0.882-0.198,1.349-0.156,1.937,0.494c5.699,6.301,9.17,13.67,10.596,22.018C141.313,97.716,141.456,98.788,141.15,99.63z"/>
</g>
</svg>
