<?xml version="1.0" encoding="utf-8"?>
<!-- Generator: Adobe Illustrator 16.0.0, SVG Export Plug-In . SVG Version: 6.00 Build 0)  -->
<!DOCTYPE svg PUBLIC "-//W3C//DTD SVG 1.1//EN" "http://www.w3.org/Graphics/SVG/1.1/DTD/svg11.dtd">
<svg version="1.1" xmlns="http://www.w3.org/2000/svg" xmlns:xlink="http://www.w3.org/1999/xlink" x="0px" y="0px" width="192px"
	 height="192px" viewBox="0 0 192 192" enable-background="new 0 0 192 192" xml:space="preserve">
<g id="NOTICIAS23">
</g>
<g id="CALENDARI">
</g>
<g id="INCIDENCIES">
</g>
<g id="ACCEDIR">
</g>
<g id="SORTIR">
</g>
<g id="REGISTRE">
</g>
<g id="TUTORIAL">
</g>
<g id="TUTORIAL2">
</g>
<g id="CONVO">
</g>
<g id="COMUNICAT">
</g>
<g id="DIADA">
</g>
<g id="DIADA_2">
</g>
<g id="ENTRENO">
</g>
<g id="ENTRENO2">
</g>
<g id="DELEGACIÓ2">
</g>
<g id="EVENTO_SOCIAL">
</g>
<g id="ev2">
</g>
<g id="MAIL">
</g>
<g id="TELEFONO">
</g>
<g id="TLF_EMERG">
</g>
<g id="TRANS">
</g>
<g id="ACOMPAÑANT">
</g>
<g id="CONTRASEÑA">
</g>
<g id="CONTRA_x5F_2">
</g>
<g id="DADES_PERSONALS">
</g>
<g id="DADES_PERSONALS2">
</g>
<g id="EDITAR">
</g>
<g id="DELEGACIÓ">
</g>
<g id="PERFIL">
</g>
<g id="CONFIRMATS">
</g>
<g id="NO_CONFIRM">
	<path fill="#790016" d="M100.668,17.023c-43.55,0-78.854,35.303-78.854,78.853c0,43.549,35.304,78.852,78.854,78.852
		c43.548,0,78.852-35.303,78.852-78.852C179.52,52.327,144.216,17.023,100.668,17.023z M100.668,167.344
		c-39.946,0-72.329-32.383-72.329-72.328c0-39.946,32.383-72.328,72.329-72.328c39.945,0,72.328,32.382,72.328,72.328
		C172.996,134.961,140.613,167.344,100.668,167.344z"/>
	<path fill="#790016" d="M100.668,27.482c-37.299,0-67.535,30.236-67.535,67.533c0,37.298,30.236,67.534,67.535,67.534
		c37.297,0,67.533-30.236,67.533-67.534C168.201,57.718,137.965,27.482,100.668,27.482z M131.726,121.296
		c1.89,2.014,1.79,5.178-0.224,7.068c-0.965,0.906-2.194,1.354-3.421,1.354c-1.333,0-2.663-0.529-3.647-1.578L101.303,103.5
		l-25.355,25.463c-0.977,0.981-2.26,1.472-3.543,1.472c-1.276,0-2.553-0.485-3.527-1.457c-1.957-1.949-1.964-5.114-0.016-7.071
		l25.594-25.701L69.606,69.737c-1.89-2.014-1.79-5.178,0.224-7.068c2.013-1.891,5.177-1.791,7.067,0.223l24.618,26.223
		l23.871-23.973c1.947-1.958,5.115-1.963,7.072-0.015c1.955,1.948,1.962,5.114,0.014,7.071l-24.109,24.211L131.726,121.296z"/>
</g>
<g id="CASTELLERS">
</g>
</svg>
