<?xml version="1.0" encoding="utf-8"?>
<!-- Generator: Adobe Illustrator 16.0.0, SVG Export Plug-In . SVG Version: 6.00 Build 0)  -->
<!DOCTYPE svg PUBLIC "-//W3C//DTD SVG 1.1//EN" "http://www.w3.org/Graphics/SVG/1.1/DTD/svg11.dtd">
<svg version="1.1" xmlns="http://www.w3.org/2000/svg" xmlns:xlink="http://www.w3.org/1999/xlink" x="0px" y="0px" width="192px"
	 height="192px" viewBox="0 0 192 192" enable-background="new 0 0 192 192" xml:space="preserve">
<g id="NOTICIAS23">
</g>
<g id="CALENDARI">
</g>
<g id="INCIDENCIES">
</g>
<g id="ACCEDIR">
</g>
<g id="SORTIR">
</g>
<g id="REGISTRE">
</g>
<g id="TUTORIAL">
</g>
<g id="TUTORIAL2">
</g>
<g id="CONVO">
</g>
<g id="COMUNICAT">
</g>
<g id="DIADA">
</g>
<g id="DIADA_2">
</g>
<g id="ENTRENO">
</g>
<g id="ENTRENO2">
</g>
<g id="DELEGACIÓ2">
	<path fill="#790016" d="M97,19.164c-43.549,0-78.853,35.303-78.853,78.853c0,43.549,35.304,78.852,78.853,78.852
		s78.853-35.303,78.853-78.852C175.853,54.467,140.549,19.164,97,19.164z M97,169.484c-39.945,0-72.328-32.383-72.328-72.328
		c0-39.946,32.383-72.328,72.328-72.328c39.946,0,72.329,32.382,72.329,72.328C169.329,137.102,136.946,169.484,97,169.484z"/>
	<path fill="#790016" d="M97,29.623c-37.298,0-67.533,30.236-67.533,67.533c0,37.298,30.235,67.534,67.533,67.534
		c37.299,0,67.534-30.236,67.534-67.534C164.534,59.859,134.299,29.623,97,29.623z M124.893,73.599
		c8.073,1.329,14.325,7.78,15.426,15.92c1.344,9.936-5.426,19.162-15.305,20.864c-10.295,1.773-20.081-5.252-21.631-15.533
		c-1.545-10.244,5.427-19.727,15.666-21.309c0.334-0.051,0.663-0.132,0.998-0.2c1.16,0,2.319,0,3.482,0
		C123.984,73.426,124.435,73.521,124.893,73.599z M89.674,48.115c0.49-0.075,0.973-0.193,1.461-0.292c1.702,0,3.398,0,5.1,0
		c0.669,0.125,1.328,0.262,1.999,0.375c11.821,1.947,20.978,11.396,22.591,23.314c0.004,0.024,0.005,0.048,0.008,0.072
		c-0.595,0-1.189,0-1.785,0c-0.357,0.072-0.709,0.159-1.065,0.213c-10.925,1.688-18.364,11.807-16.715,22.736
		c0.337,2.232,1.053,4.311,2.048,6.206c-1.564,0.582-3.201,1.033-4.903,1.326c-5.099,0.878-10.108,0.279-14.599-1.476
		c-0.007-0.053-0.006-0.105-0.014-0.159c-0.881-6.521-5.889-11.69-12.357-12.755c-0.365-0.062-0.729-0.138-1.093-0.206
		c-0.339,0-0.676,0-1.015,0c-1.262-2.5-2.158-5.234-2.598-8.151C64.473,64.319,74.68,50.433,89.674,48.115z M66.361,89.777
		c0.247-0.038,0.49-0.097,0.736-0.147c0.855,0,1.711,0,2.566,0c0.336,0.063,0.669,0.132,1.006,0.189
		c5.951,0.98,10.56,5.736,11.371,11.736c0.99,7.325-3.999,14.125-11.281,15.38c-7.59,1.307-14.803-3.872-15.945-11.451
		C53.675,97.934,58.813,90.944,66.361,89.777z M88.686,133.684c-13.515,0-27.028,0-40.543,0c0-0.607,0-1.213,0-1.819
		c0.056-0.409,0.114-0.818,0.169-1.228c0.87-6.38,3.79-11.542,9.06-15.321c0.238-0.17,0.373-0.178,0.606,0.026
		c2.934,2.541,6.351,3.882,10.227,3.931c4.063,0.05,7.636-1.314,10.711-3.976c0.06-0.05,0.117-0.103,0.176-0.153
		c0.015-0.012,0.035-0.016,0.105-0.051c0.589,0.455,1.22,0.897,1.804,1.397c4,3.425,6.395,7.768,7.333,12.929
		c0.142,0.777,0.198,1.568,0.298,2.354c0.006,0.051,0.035,0.101,0.055,0.15C88.686,132.509,88.686,133.096,88.686,133.684z
		 M90.133,133.104c0.174-2.209-0.327-4.626-0.929-6.543c-1.386-4.417-4.569-7.969-7.579-11.421c-0.949-1.09-1.184-1.317-0.666-2.583
		c0.462-1.13,1.164-2.099,1.578-3.291c0.352-1.012,1.327-3.078,1.73-4.827c2.936,0.952,6.047,1.456,9.327,1.496
		c4.067,0.049,7.88-0.618,11.439-1.959c0.085,0.268,0.187,0.532,0.3,0.79c0.596,1.359,0.947,1.253,0.37,2.37
		c-0.731,1.416-2.636,2.858-3.83,3.842c-6.608,5.442-9.188,13.992-8.494,22.127C92.298,133.104,91.215,133.104,90.133,133.104z
		 M94.328,133.104c0-0.823,0-1.646,0-2.469c0.076-0.555,0.154-1.11,0.23-1.665c1.18-8.655,5.141-15.659,12.289-20.785
		c0.323-0.23,0.506-0.241,0.823,0.035c3.979,3.447,8.614,5.267,13.873,5.333c5.512,0.068,10.358-1.783,14.53-5.393
		c0.081-0.068,0.158-0.14,0.238-0.209c0.02-0.016,0.048-0.021,0.143-0.069c0.799,0.617,1.655,1.217,2.447,1.895
		c5.426,4.647,8.674,10.537,9.948,17.54c0.191,1.054,0.269,2.127,0.403,3.193c0.009,0.07,0.048,0.137,0.074,0.204
		c0,0.795,0,1.592,0,2.39C130.995,133.104,112.662,133.104,94.328,133.104z"/>
</g>
<g id="EVENTO_SOCIAL">
</g>
<g id="ev2">
</g>
<g id="MAIL">
</g>
<g id="TELEFONO">
</g>
<g id="TLF_EMERG">
</g>
<g id="TRANS">
</g>
<g id="ACOMPAÑANT">
</g>
<g id="CONTRASEÑA">
</g>
<g id="CONTRA_x5F_2">
</g>
<g id="DADES_PERSONALS">
</g>
<g id="DADES_PERSONALS2">
</g>
<g id="EDITAR">
</g>
<g id="DELEGACIÓ">
</g>
<g id="PERFIL">
</g>
<g id="CONFIRMATS">
</g>
<g id="NO_CONFIRM">
</g>
<g id="CASTELLERS">
</g>
</svg>
