<?xml version="1.0" encoding="utf-8"?>
<!-- Generator: Adobe Illustrator 16.0.0, SVG Export Plug-In . SVG Version: 6.00 Build 0)  -->
<!DOCTYPE svg PUBLIC "-//W3C//DTD SVG 1.1//EN" "http://www.w3.org/Graphics/SVG/1.1/DTD/svg11.dtd">
<svg version="1.1" xmlns="http://www.w3.org/2000/svg" xmlns:xlink="http://www.w3.org/1999/xlink" x="0px" y="0px" width="192px"
	 height="192px" viewBox="0 0 192 192" enable-background="new 0 0 192 192" xml:space="preserve">
<g id="NOTICIAS23">
</g>
<g id="CALENDARI">
</g>
<g id="INCIDENCIES">
</g>
<g id="ACCEDIR">
</g>
<g id="SORTIR">
</g>
<g id="REGISTRE">
</g>
<g id="TUTORIAL">
</g>
<g id="TUTORIAL2">
</g>
<g id="CONVO">
</g>
<g id="COMUNICAT">
</g>
<g id="DIADA">
</g>
<g id="DIADA_2">
</g>
<g id="ENTRENO">
</g>
<g id="ENTRENO2">
</g>
<g id="DELEGACIÓ2">
</g>
<g id="EVENTO_SOCIAL">
</g>
<g id="ev2">
	<path fill="#790016" d="M96,12.471c-43.549,0-78.853,35.303-78.853,78.853c0,43.548,35.304,78.851,78.853,78.851
		s78.853-35.303,78.853-78.851C174.853,47.774,139.549,12.471,96,12.471z M96,162.792c-39.945,0-72.328-32.383-72.328-72.329
		S56.055,18.135,96,18.135c39.946,0,72.329,32.382,72.329,72.328S135.946,162.792,96,162.792z"/>
	<g>
		<path fill-rule="evenodd" clip-rule="evenodd" fill="#790016" d="M106.035,65.331c-3.156,0.43-5.812,4.051-4.902,7.946
			c0.775,3.337,4.564,5.672,7.861,4.864c3.336-0.819,6.097-4.228,4.814-8.516C112.904,66.601,109.363,64.262,106.035,65.331z"/>
		<path fill-rule="evenodd" clip-rule="evenodd" fill="#790016" d="M96,23.524c-37.298,0-67.533,30.236-67.533,67.533
			S58.702,158.591,96,158.591c37.299,0,67.534-30.236,67.534-67.534S133.299,23.524,96,23.524z M84.54,128.325
			c-1.537,3.249-3.874,5.81-6.825,7.829c-2.641,1.803-5.506,3.134-8.555,4.083c-0.782,0.244-1.557,0.51-2.334,0.767
			c-2.427,0.497-2.121,0.734-2.646-1.682c-1.124-5.161-1.44-10.33,0.12-15.478c0.649-2.147,1.648-4.115,3.018-5.886
			c0.207-0.267,0.764-0.621,0.872-0.542c0.47,0.346,1.017,0.656,0.792,1.506c-0.495,1.871-1.012,3.758-1.226,5.673
			c-0.348,3.095,0.087,6.164,0.856,9.179c0.16,0.625,0.473,0.865,1.122,0.709c4.958-1.185,9.499-3.14,13.056-6.952
			c0.462-0.493,1.362-0.56,1.807-0.057C84.73,127.627,84.657,128.076,84.54,128.325z M126.524,66.278
			c-1.175,5.313-3.15,10.298-6.12,14.887c-5.393,8.333-11.354,16.255-17.336,24.162c-0.567,0.748-0.755,1.399-0.505,2.321
			c0.581,2.136,1.021,4.311,1.562,6.458c0.472,1.884,0.987,3.756,1.515,5.624c0.205,0.73,0.054,1.314-0.419,1.9
			c-2.357,2.921-4.686,5.864-7.029,8.793c-0.707,0.882-1.063,0.812-1.543-0.203c-1.558-3.284-3.14-6.558-4.72-9.832
			c-0.292-0.608-1.56-0.67-2.383-0.084c-1.025,0.731-2.056,1.464-3.013,2.28c-0.838,0.716-1.721,0.919-2.723,0.538
			c-1.176-0.446-2.375-0.861-3.487-1.435c-2.56-1.322-5.006-2.832-7.156-4.774c-0.243-0.22-0.455-0.474-0.695-0.698
			c-0.849-0.795-1.169-1.684-0.822-2.872c0.322-1.099,0.449-2.254,0.629-3.392c0.053-0.341,0.104-0.753-0.034-1.044
			c-0.584-1.229-0.178-1.313-1.798-1.273c-3.249,0.084-6.499,0.19-9.748,0.287c-0.026,0-0.056,0.006-0.082,0.006
			c-1.527,0.028-1.643-0.145-1.014-1.521c1.502-3.289,3.021-6.571,4.49-9.873c0.375-0.84,0.926-1.275,1.828-1.426
			c1.052-0.176,2.081-0.479,3.12-0.728c0.019,0.075,0.035,0.15,0.053,0.225c2.874-0.688,5.74-1.4,8.623-2.042
			c0.84-0.187,1.298-0.623,1.678-1.37c3.977-7.809,7.95-15.62,12.002-23.39c2.313-4.437,5.085-8.563,8.662-12.121
			c4.576-4.552,9.801-8.167,15.708-10.728c3.05-1.322,6.229-2.351,9.373-3.449c1.046-0.365,1.228-0.247,1.379,0.83
			c0.408,2.917,0.842,5.837,1.076,8.77C128.004,56.206,127.632,61.277,126.524,66.278z"/>
	</g>
</g>
<g id="MAIL">
</g>
<g id="TELEFONO">
</g>
<g id="TLF_EMERG">
</g>
<g id="TRANS">
</g>
<g id="ACOMPAÑANT">
</g>
<g id="CONTRASEÑA">
</g>
<g id="CONTRA_x5F_2">
</g>
<g id="DADES_PERSONALS">
</g>
<g id="DADES_PERSONALS2">
</g>
<g id="EDITAR">
</g>
<g id="DELEGACIÓ">
</g>
<g id="PERFIL">
</g>
<g id="CONFIRMATS">
</g>
<g id="NO_CONFIRM">
</g>
<g id="CASTELLERS">
</g>
</svg>
