<?xml version="1.0" encoding="utf-8"?>
<!-- Generator: Adobe Illustrator 16.0.0, SVG Export Plug-In . SVG Version: 6.00 Build 0)  -->
<!DOCTYPE svg PUBLIC "-//W3C//DTD SVG 1.1//EN" "http://www.w3.org/Graphics/SVG/1.1/DTD/svg11.dtd">
<svg version="1.1" xmlns="http://www.w3.org/2000/svg" xmlns:xlink="http://www.w3.org/1999/xlink" x="0px" y="0px" width="192px"
	 height="192px" viewBox="0 0 192 192" enable-background="new 0 0 192 192" xml:space="preserve">
<g id="NOTICIAS23">
</g>
<g id="CALENDARI">
</g>
<g id="INCIDENCIES">
</g>
<g id="ACCEDIR">
</g>
<g id="SORTIR">
</g>
<g id="REGISTRE">
</g>
<g id="TUTORIAL">
</g>
<g id="TUTORIAL2">
</g>
<g id="CONVO">
</g>
<g id="COMUNICAT">
</g>
<g id="DIADA">
</g>
<g id="DIADA_2">
</g>
<g id="ENTRENO">
</g>
<g id="ENTRENO2">
</g>
<g id="DELEGACIÓ2">
</g>
<g id="EVENTO_SOCIAL">
</g>
<g id="ev2">
</g>
<g id="MAIL">
</g>
<g id="TELEFONO">
</g>
<g id="TLF_EMERG">
</g>
<g id="TRANS">
</g>
<g id="ACOMPAÑANT">
</g>
<g id="CONTRASEÑA">
</g>
<g id="CONTRA_x5F_2">
</g>
<g id="DADES_PERSONALS">
</g>
<g id="DADES_PERSONALS2">
</g>
<g id="EDITAR">
</g>
<g id="DELEGACIÓ">
</g>
<g id="PERFIL">
</g>
<g id="CONFIRMATS">
</g>
<g id="NO_CONFIRM">
</g>
<g id="CASTELLERS">
</g>
<g id="COMERCIAL">
</g>
<g id="COMERCIAL2">
</g>
<g id="CARREC">
</g>
<g id="REFRESH">
</g>
<g id="camara">
</g>
<g id="musics">
</g>
<g id="Capa_39">
</g>
<g id="LLOC">
</g>
<g id="ALÇADA">
	<path fill="#790016" d="M98.35,14.783c-43.55,0-78.854,35.303-78.854,78.853c0,43.549,35.304,78.852,78.854,78.852
		c43.548,0,78.852-35.303,78.852-78.852C177.201,50.086,141.897,14.783,98.35,14.783z M98.35,165.104
		c-39.946,0-72.329-32.383-72.329-72.328S58.403,20.447,98.35,20.447c39.945,0,72.328,32.383,72.328,72.328
		S138.295,165.104,98.35,165.104z"/>
	<g>
		<path fill="#790016" d="M111.846,126.395c-1.04-0.06-2.086-0.058-3.125,0.005c-0.18,0.011-0.342,0.41-0.512,0.63
			c0.188,0.169,0.361,0.456,0.564,0.484c0.504,0.07,1.021,0.022,1.533,0.023c0.496,0,0.99-0.009,1.485,0.004
			c0.337,0.008,0.616-0.169,0.568-0.53C112.329,126.772,112.035,126.404,111.846,126.395z"/>
		<path fill="#790016" d="M111.771,113.978c0.34-0.009,0.607-0.189,0.605-0.604s-0.255-0.578-0.611-0.575
			c-0.973,0.008-1.945,0.011-2.918,0c-0.354-0.004-0.623,0.144-0.631,0.554c-0.01,0.439,0.268,0.626,0.637,0.626
			c0.479,0.001,0.955,0,1.434,0c0,0.002,0,0.002,0,0.004C110.781,113.981,111.277,113.991,111.771,113.978z"/>
		<path fill="#790016" d="M112.834,116.733c-1.703-0.007-3.406-0.008-5.109,0c-0.631,0.002-1.095,0.49-1.102,1.126
			c-0.008,0.669,0.414,1.125,1.077,1.133c0.852,0.012,1.704,0.004,2.555,0.004c0.869,0,1.739,0.006,2.608-0.003
			c0.693-0.007,1.076-0.407,1.082-1.106C113.952,117.186,113.529,116.735,112.834,116.733z"/>
		<path fill="#790016" d="M112.916,139.513c-0.869-0.009-1.738-0.003-2.607-0.004c-0.888,0-1.775-0.01-2.662,0.003
			c-0.604,0.008-0.988,0.423-1.025,1.065c-0.031,0.574,0.389,1.161,0.947,1.17c1.809,0.032,3.619,0.033,5.428,0.003
			c0.614-0.011,0.984-0.547,0.947-1.208C113.907,139.88,113.557,139.519,112.916,139.513z"/>
		<path fill="#790016" d="M108.766,136.629c1.01,0.059,2.025,0.059,3.035,0.002c0.203-0.012,0.528-0.334,0.559-0.557
			c0.051-0.375-0.209-0.6-0.584-0.584c-0.48,0.019-0.959,0.004-1.439,0.003c-0.515,0-1.035-0.054-1.541,0.025
			c-0.214,0.034-0.395,0.348-0.588,0.534C108.393,136.254,108.57,136.618,108.766,136.629z"/>
		<path fill="#790016" d="M110.307,130.96c-0.514,0-1.025,0.007-1.538-0.003c-0.351-0.008-0.586,0.209-0.532,0.565
			c0.033,0.22,0.311,0.549,0.488,0.559c1.04,0.056,2.086,0.063,3.125,0.006c0.187-0.01,0.467-0.365,0.508-0.604
			c0.051-0.31-0.184-0.534-0.514-0.526C111.332,130.967,110.819,130.96,110.307,130.96z"/>
		<path fill="#790016" d="M108.814,68.548c0.498-0.009,0.996-0.002,1.494-0.002c0.479,0,0.959-0.012,1.438,0.004
			c0.36,0.012,0.616-0.165,0.63-0.566c0.014-0.415-0.26-0.602-0.604-0.604c-0.996-0.005-1.991-0.031-2.984,0.026
			c-0.202,0.013-0.521,0.332-0.556,0.556C108.174,68.355,108.454,68.555,108.814,68.548z"/>
		<path fill="#790016" d="M107.69,50.757c0.851,0.009,1.704,0.002,2.556,0.003c0.869,0,1.738,0.004,2.607,0
			c0.704-0.004,1.08-0.385,1.089-1.088c0.009-0.699-0.378-1.157-1.044-1.163c-1.738-0.015-3.479-0.016-5.217-0.001
			c-0.604,0.006-1.051,0.508-1.059,1.113C106.614,50.301,107.028,50.75,107.69,50.757z"/>
		<path fill="#790016" d="M110.258,64.03v-0.003c0.53,0,1.066,0.051,1.587-0.025c0.196-0.029,0.48-0.335,0.501-0.543
			c0.018-0.18-0.276-0.566-0.443-0.575c-1.041-0.053-2.084-0.036-3.127-0.016c-0.301,0.006-0.58,0.163-0.559,0.575
			c0.021,0.396,0.246,0.598,0.609,0.59C109.303,64.023,109.78,64.03,110.258,64.03z"/>
		<path fill="#790016" d="M111.838,58.316c-1.025-0.014-2.055-0.035-3.078,0.021c-0.193,0.012-0.494,0.351-0.525,0.578
			c-0.051,0.373,0.246,0.533,0.571,0.532c0.495-0.002,0.991-0.001,1.486,0.001c0.496,0,0.991-0.002,1.487,0
			c0.324,0.001,0.576-0.146,0.598-0.535C112.397,58.523,112.161,58.32,111.838,58.316z"/>
		<path fill="#790016" d="M111.777,53.747c-0.993-0.008-1.989-0.033-2.98,0.023c-0.205,0.013-0.527,0.322-0.563,0.544
			c-0.063,0.393,0.217,0.594,0.578,0.589c0.479-0.007,0.959-0.002,1.438-0.001c0.497,0,0.994-0.01,1.491,0.003
			c0.354,0.009,0.62-0.145,0.638-0.556C112.396,53.926,112.119,53.75,111.777,53.747z"/>
		<path fill="#790016" d="M111.742,121.848c-0.479-0.003-0.956-0.001-1.434-0.001v0.003c-0.531,0-1.068-0.05-1.59,0.027
			c-0.188,0.027-0.342,0.362-0.512,0.557c0.172,0.19,0.338,0.537,0.516,0.546c1.024,0.049,2.051,0.019,3.078,0.014
			c0.369-0.001,0.551-0.194,0.528-0.637C112.307,121.907,112.047,121.849,111.742,121.848z"/>
		<path fill="#790016" d="M112.91,71.275c-0.852-0.012-1.703-0.003-2.556-0.004c-0.888,0-1.775-0.008-2.663,0.003
			c-0.65,0.008-1.086,0.486-1.073,1.147c0.012,0.602,0.472,1.105,1.068,1.109c1.739,0.013,3.479,0.01,5.22,0.002
			c0.469-0.002,1.047-0.617,1.046-1.078C113.951,71.76,113.542,71.284,112.91,71.275z"/>
		<path fill="#790016" d="M108.797,91.233c0.494,0.002,0.988,0.001,1.484,0.002c0.512,0,1.023,0.001,1.537-0.001
			c0.334-0.001,0.598-0.193,0.531-0.568c-0.037-0.213-0.322-0.516-0.506-0.524c-1.022-0.051-2.049-0.028-3.073-0.021
			c-0.322,0.002-0.567,0.173-0.558,0.572C108.222,91.091,108.475,91.232,108.797,91.233z"/>
		<path fill="#790016" d="M111.741,85.533c-0.973,0.004-1.944,0.004-2.916,0.003c-0.351-0.001-0.608,0.171-0.609,0.583
			c-0.001,0.414,0.259,0.586,0.607,0.584c0.495-0.003,0.99-0.001,1.485,0c0.477,0,0.955-0.01,1.432,0.002
			c0.35,0.01,0.623-0.143,0.637-0.551C112.389,85.713,112.115,85.531,111.741,85.533z"/>
		<path fill="#790016" d="M98.35,25.242c-37.299,0-67.535,30.236-67.535,67.533c0,37.298,30.236,67.534,67.535,67.534
			c37.297,0,67.533-30.236,67.533-67.534C165.883,55.479,135.646,25.242,98.35,25.242z M75.582,47.232
			c0.777-0.359,1.641-0.521,2.464-0.774c0.646,0,1.29,0,1.936,0c2.231,0.46,4.175,1.392,5.639,3.228
			c2.077,2.604,2.351,6.311,0.62,9.425c-1.561,2.806-4.957,4.51-8.141,4.083c-3.828-0.512-6.835-3.313-7.372-6.865
			C70.14,52.437,72.004,48.896,75.582,47.232z M93.652,103.63c-1.479,0.183-2.893-0.833-3.084-2.419
			c-0.368-3.005-0.617-6.025-0.912-9.041c-0.411-4.201-0.814-8.4-1.351-12.606c-0.044,0.804-0.087,1.608-0.13,2.413
			c-0.584,10.834-0.219,21.658,0.225,32.488c0.373,9.15,0.651,18.304,0.965,27.456c0.064,1.869-0.912,3.008-2.611,3.62
			c-0.45,0-0.902,0-1.352,0c-1.561-0.559-2.526-1.59-2.684-3.304c-0.246-2.662-0.521-5.323-0.783-7.986
			c-0.799-8.148-1.592-16.295-2.393-24.441c-0.133-1.358-0.285-2.713-0.43-4.067c-0.229,0.297-0.269,0.595-0.295,0.894
			c-0.479,4.811-0.951,9.621-1.428,14.432c-0.684,6.863-1.401,13.724-2.025,20.593c-0.172,1.899-0.868,3.26-2.737,3.881
			c-0.449,0-0.904,0-1.354,0c-2.212-1.011-2.671-1.815-2.583-4.296c0.355-10.055,0.693-20.11,1.047-30.165
			c0.158-4.544,0.469-9.086,0.464-13.631c-0.005-5.96-0.253-11.92-0.601-17.883c-0.217,2.18-0.436,4.357-0.645,6.535
			c-0.468,4.908-0.92,9.82-1.409,14.727c-0.181,1.824-1.55,3-3.159,2.813c-1.668-0.198-2.637-1.525-2.454-3.421
			c0.726-7.574,1.456-15.146,2.209-22.715c0.134-1.345,0.285-2.701,0.6-4.013c0.876-3.686,3.211-6.184,6.786-7.264
			c4.789-1.447,9.703-1.443,14.511-0.141c4.272,1.157,6.922,4.066,7.437,8.544c0.869,7.62,1.6,15.255,2.385,22.884
			c0.104,0.993,0.2,1.986,0.273,2.985C96.259,102.16,95.236,103.436,93.652,103.63z M131.003,103.913
			c-0.009,9.322-0.007,18.645-0.007,27.967c0,3.572,0.008,7.145-0.006,10.718c-0.006,1.656-1.114,2.868-2.611,2.872
			c-2.984,0.009-5.971,0.003-8.955,0.003c-3.57,0-7.142-0.034-10.713,0.016c-1.637,0.023-2.82-1.301-2.814-3.217
			c0.041-12.55,0.021-25.1,0.021-37.649c0-14.52,0-29.038,0-43.557c0-4.386,0-8.772,0.001-13.157c0-1.947,1.014-3.113,2.709-3.115
			c6.539-0.002,13.077,0,19.615,0.002c1.723,0,2.754,1.18,2.754,3.146c0,13.198-0.002,26.396,0.004,39.596
			c0,0.313,0.082,0.627,0.125,0.941c-0.043,0.158-0.125,0.314-0.125,0.473c-0.006,4.605-0.007,9.212,0.004,13.817
			c0,0.161,0.113,0.322,0.174,0.483C131.117,103.473,131.004,103.693,131.003,103.913z"/>
		<path fill="#790016" d="M110.314,109.393c0.496,0,0.994-0.002,1.49,0c0.336,0.002,0.605-0.186,0.557-0.556
			c-0.03-0.225-0.311-0.568-0.489-0.578c-1.044-0.055-2.094-0.056-3.138-0.002c-0.184,0.01-0.467,0.339-0.504,0.563
			c-0.063,0.374,0.207,0.568,0.539,0.569C109.285,109.394,109.8,109.391,110.314,109.393z"/>
		<path fill="#790016" d="M118.479,47.983c-1.058-0.006-1.911,0.929-1.938,2.12c-0.024,1.15,0.853,2.195,1.866,2.223
			c1.018,0.027,1.914-0.971,1.921-2.139C120.336,48.973,119.511,47.989,118.479,47.983z"/>
		<path fill="#790016" d="M111.783,99.161c-0.496,0.01-0.994,0.003-1.49,0.003c-0.479,0-0.958,0.01-1.437-0.004
			c-0.349-0.01-0.63,0.124-0.642,0.544c-0.012,0.405,0.248,0.613,0.596,0.616c0.994,0.009,1.986,0.013,2.98-0.001
			c0.338-0.005,0.605-0.195,0.586-0.621C112.359,99.313,112.117,99.155,111.783,99.161z"/>
		<path fill="#790016" d="M108.823,77.605c0.478,0.006,0.954,0.002,1.431,0.002c0-0.002,0-0.002,0-0.004
			c0.513,0,1.025,0,1.538,0.001c0.329,0.001,0.577-0.165,0.585-0.545c0.011-0.397-0.223-0.63-0.578-0.632
			c-0.988-0.008-1.979-0.008-2.967,0c-0.34,0.003-0.607,0.178-0.615,0.593C108.209,77.451,108.484,77.602,108.823,77.605z"/>
		<path fill="#790016" d="M108.771,104.83c1.005,0.058,2.013,0.028,3.021,0.027c0.354,0,0.635-0.216,0.566-0.604
			c-0.037-0.221-0.35-0.5-0.566-0.536c-0.484-0.08-0.986-0.024-1.48-0.023c-0.514,0-1.032-0.056-1.535,0.026
			c-0.209,0.034-0.381,0.36-0.57,0.554C108.394,104.468,108.574,104.819,108.771,104.83z"/>
		<path fill="#790016" d="M108.797,82.187c1.009,0.003,2.018,0.032,3.023-0.026c0.197-0.012,0.495-0.347,0.537-0.58
			c0.061-0.348-0.192-0.574-0.537-0.572c-0.496,0.004-0.99,0.001-1.486,0.002c-0.513,0-1.025,0.002-1.539-0.001
			c-0.33-0.001-0.577,0.167-0.58,0.548C108.211,81.949,108.436,82.186,108.797,82.187z"/>
		<path fill="#790016" d="M112.844,94.007c-1.683-0.012-3.367-0.01-5.049,0.001c-0.723,0.005-1.154,0.43-1.174,1.1
			c-0.018,0.685,0.439,1.143,1.18,1.153c0.833,0.011,1.666,0.002,2.498,0.001c0.852,0,1.701,0.015,2.551-0.005
			c0.724-0.017,1.111-0.444,1.1-1.157C113.938,94.43,113.537,94.012,112.844,94.007z"/>
	</g>
</g>
<g id="MANS_ALÇADES">
</g>
<g id="PESO">
</g>
<g id="ma">
</g>
<g id="primeres">
</g>
<g id="Capa_46">
</g>
<g id="Capa_47">
</g>
<g id="Capa_48">
</g>
<g id="asegurat">
</g>
<g id="taller">
</g>
<g id="Capa_51">
</g>
<g id="Capa_52">
</g>
<g id="Capa_53">
</g>
<g id="Capa_54">
</g>
<g id="Capa_55">
</g>
<g id="Capa_56">
</g>
<g id="Capa_57">
</g>
<g id="Capa_58">
</g>
<g id="Capa_59">
</g>
<g id="Capa_60">
</g>
<g id="Capa_61">
</g>
<g id="Capa_62">
</g>
<g id="Capa_63">
</g>
<g id="Capa_64">
</g>
</svg>
