<?xml version="1.0" encoding="utf-8"?>
<!-- Generator: Adobe Illustrator 16.0.0, SVG Export Plug-In . SVG Version: 6.00 Build 0)  -->
<!DOCTYPE svg PUBLIC "-//W3C//DTD SVG 1.1//EN" "http://www.w3.org/Graphics/SVG/1.1/DTD/svg11.dtd">
<svg version="1.1" xmlns="http://www.w3.org/2000/svg" xmlns:xlink="http://www.w3.org/1999/xlink" x="0px" y="0px" width="192px"
	 height="192px" viewBox="0 0 192 192" enable-background="new 0 0 192 192" xml:space="preserve">
<g id="NOTICIAS23">
</g>
<g id="CALENDARI">
</g>
<g id="INCIDENCIES">
</g>
<g id="ACCEDIR">
</g>
<g id="SORTIR">
</g>
<g id="REGISTRE">
</g>
<g id="TUTORIAL">
</g>
<g id="TUTORIAL2">
</g>
<g id="CONVO">
</g>
<g id="COMUNICAT">
</g>
<g id="DIADA">
</g>
<g id="DIADA_2">
</g>
<g id="ENTRENO">
</g>
<g id="ENTRENO2">
</g>
<g id="DELEGACIÓ2">
</g>
<g id="EVENTO_SOCIAL">
</g>
<g id="ev2">
</g>
<g id="MAIL">
</g>
<g id="TELEFONO">
</g>
<g id="TLF_EMERG">
</g>
<g id="TRANS">
</g>
<g id="ACOMPAÑANT">
</g>
<g id="CONTRASEÑA">
</g>
<g id="CONTRA_x5F_2">
</g>
<g id="DADES_PERSONALS">
</g>
<g id="DADES_PERSONALS2">
</g>
<g id="EDITAR">
</g>
<g id="DELEGACIÓ">
</g>
<g id="PERFIL">
</g>
<g id="CONFIRMATS">
</g>
<g id="NO_CONFIRM">
</g>
<g id="CASTELLERS">
</g>
<g id="COMERCIAL">
	<path fill="#790016" d="M98,18.094c-43.549,0-78.853,35.303-78.853,78.851c0,43.549,35.304,78.852,78.853,78.852
		s78.852-35.303,78.852-78.852C176.852,53.397,141.549,18.094,98,18.094z M98,168.414c-39.945,0-72.328-32.383-72.328-72.328
		c0-39.946,32.383-72.328,72.328-72.328c39.946,0,72.329,32.382,72.329,72.328C170.329,136.031,137.946,168.414,98,168.414z"/>
	<g>
		<path fill="#790016" d="M98,28.553c-37.299,0-67.533,30.235-67.533,67.533c0,37.297,30.234,67.533,67.533,67.533
			s67.534-30.236,67.534-67.533C165.534,58.789,135.299,28.553,98,28.553z M119.407,58.362l-11.708,23.06l-5.949-13.265
			l16.121-19.59L119.407,58.362z M115.883,47.546l-8.775,10.815h-16.53l-9.591-10.815H115.883z M79.354,48.567l17.141,19.59
			L90.17,81.421l-12.447-23.06L79.354,48.567z M138.127,138.559h-79.18V61.014h16.53L90.17,85.911c0,0,8.506-16.325,8.844-15.713
			c0.34,0.612,9.521,15.713,9.521,15.713l13.469-24.896h16.123V138.559z"/>
		<path fill="#790016" d="M107.55,110.818c-0.833-0.95-1.817-1.825-2.95-2.625c-1.133-0.801-2.35-1.533-3.649-2.2v-9.95
			c1.166,0.333,1.916,0.917,2.25,1.75c0.333,0.834,0.5,1.934,0.5,3.3h5.8c0.033-0.532,0.017-1.058-0.05-1.575
			c-0.067-0.516-0.117-1.041-0.15-1.574c-0.067-1.7-0.759-3.192-2.075-4.476c-1.316-1.283-3.342-2.091-6.074-2.425v-3.15h-3.4v3.15
			c-1.533,0.2-2.834,0.583-3.9,1.15c-1.066,0.567-1.941,1.275-2.625,2.125s-1.184,1.792-1.5,2.825
			c-0.316,1.034-0.475,2.101-0.475,3.2c0,1.733,0.217,3.192,0.65,4.375c0.433,1.184,1.041,2.226,1.824,3.125
			c0.783,0.9,1.7,1.726,2.75,2.476c1.051,0.75,2.191,1.524,3.426,2.324v11.15c-0.834-0.2-1.459-0.517-1.875-0.95
			c-0.418-0.433-0.718-0.95-0.9-1.55c-0.184-0.6-0.292-1.275-0.325-2.025s-0.05-1.524-0.05-2.324h-6
			c-0.1,1.633-0.009,3.149,0.275,4.55c0.282,1.399,0.774,2.625,1.475,3.675s1.642,1.908,2.825,2.575
			c1.183,0.666,2.657,1.066,4.425,1.2v5.3h3.4v-5.45c1.633-0.233,3.041-0.625,4.225-1.175c1.183-0.55,2.142-1.283,2.875-2.2
			c0.732-0.916,1.267-2.025,1.6-3.325s0.483-2.816,0.45-4.55c0-1.3-0.25-2.508-0.75-3.625
			C109.05,112.802,108.383,111.768,107.55,110.818z M97.9,104.993c-0.334-0.366-0.659-0.726-0.976-1.075
			c-0.317-0.35-0.6-0.725-0.85-1.125s-0.45-0.842-0.601-1.325c-0.149-0.482-0.225-1.041-0.225-1.675
			c0-0.933,0.225-1.758,0.675-2.475s1.108-1.142,1.976-1.275V104.993z M103.1,122.293c-0.566,0.733-1.283,1.233-2.149,1.5v-10.1
			c0.3,0.199,0.625,0.475,0.975,0.824c0.351,0.351,0.675,0.759,0.976,1.226c0.3,0.467,0.55,0.983,0.75,1.55
			c0.199,0.567,0.3,1.167,0.3,1.8C103.95,120.493,103.666,121.561,103.1,122.293z"/>
	</g>
</g>
<g id="COMERCIAL2">
</g>
</svg>
