<?xml version="1.0" encoding="utf-8"?>
<!-- Generator: Adobe Illustrator 16.0.0, SVG Export Plug-In . SVG Version: 6.00 Build 0)  -->
<!DOCTYPE svg PUBLIC "-//W3C//DTD SVG 1.1//EN" "http://www.w3.org/Graphics/SVG/1.1/DTD/svg11.dtd">
<svg version="1.1" xmlns="http://www.w3.org/2000/svg" xmlns:xlink="http://www.w3.org/1999/xlink" x="0px" y="0px" width="192px"
	 height="192px" viewBox="0 0 192 192" enable-background="new 0 0 192 192" xml:space="preserve">
<g id="NOTICIAS23">
</g>
<g id="CALENDARI">
</g>
<g id="INCIDENCIES">
</g>
<g id="ACCEDIR">
</g>
<g id="SORTIR">
</g>
<g id="REGISTRE">
</g>
<g id="TUTORIAL">
</g>
<g id="TUTORIAL2">
</g>
<g id="CONVO">
</g>
<g id="COMUNICAT">
</g>
<g id="DIADA">
</g>
<g id="DIADA_2">
</g>
<g id="ENTRENO">
</g>
<g id="ENTRENO2">
</g>
<g id="DELEGACIÓ2">
</g>
<g id="EVENTO_SOCIAL">
</g>
<g id="ev2">
</g>
<g id="MAIL">
</g>
<g id="TELEFONO">
</g>
<g id="TLF_EMERG">
</g>
<g id="TRANS">
</g>
<g id="ACOMPAÑANT">
</g>
<g id="CONTRASEÑA">
</g>
<g id="CONTRA_x5F_2">
</g>
<g id="DADES_PERSONALS">
</g>
<g id="DADES_PERSONALS2">
</g>
<g id="EDITAR">
</g>
<g id="DELEGACIÓ">
</g>
<g id="PERFIL">
</g>
<g id="CONFIRMATS">
</g>
<g id="NO_CONFIRM">
</g>
<g id="CASTELLERS">
</g>
<g id="COMERCIAL">
</g>
<g id="COMERCIAL2">
</g>
<g id="CARREC">
</g>
<g id="REFRESH">
</g>
<g id="camara">
</g>
<g id="musics">
</g>
<g id="Capa_39">
</g>
<g id="LLOC">
</g>
<g id="ALÇADA">
</g>
<g id="MANS_ALÇADES">
	<path fill="#790016" d="M97.501,20.308c-43.549,0-78.853,35.304-78.853,78.853s35.304,78.852,78.853,78.852
		s78.853-35.303,78.853-78.852S141.05,20.308,97.501,20.308z M97.501,170.628c-39.945,0-72.328-32.383-72.328-72.328
		c0-39.946,32.383-72.328,72.328-72.328c39.946,0,72.329,32.382,72.329,72.328C169.83,138.245,137.447,170.628,97.501,170.628z"/>
	<g>
		<path fill="none" d="M130.152,94.92c0-0.158,0.082-0.314,0.125-0.473c-0.043-0.314-0.125-0.628-0.125-0.941
			c-0.006-13.199-0.004-26.397-0.004-39.596c0-1.967-1.031-3.146-2.754-3.146c-6.538-0.002-13.076-0.004-19.615-0.002
			c-1.695,0.002-2.709,1.168-2.709,3.115c-0.001,4.385-0.001,8.771-0.001,13.157c0,14.519,0,29.037,0,43.557
			c0,12.55,0.021,25.1-0.021,37.649c-0.006,1.916,1.178,3.24,2.814,3.217c3.571-0.05,7.143-0.016,10.713-0.016
			c2.984,0,5.971,0.006,8.955-0.003c1.497-0.004,2.605-1.216,2.611-2.872c0.014-3.573,0.006-7.146,0.006-10.718
			c0-9.322-0.002-18.645,0.007-27.967c0.001-0.22,0.114-0.44,0.175-0.661c-0.061-0.161-0.174-0.322-0.174-0.483
			C130.146,104.132,130.146,99.525,130.152,94.92z M106.834,54.477c1.738-0.015,3.479-0.014,5.217,0.001
			c0.666,0.006,1.053,0.464,1.044,1.163c-0.009,0.703-0.385,1.084-1.089,1.088c-0.869,0.004-1.738,0-2.607,0
			c-0.852-0.001-1.705,0.006-2.556-0.003c-0.662-0.007-1.076-0.456-1.067-1.136C105.783,54.984,106.23,54.482,106.834,54.477z
			 M107.941,73.375c0.993-0.058,1.988-0.031,2.984-0.026c0.344,0.002,0.617,0.188,0.604,0.604c-0.014,0.401-0.27,0.578-0.63,0.566
			c-0.479-0.016-0.96-0.004-1.438-0.004c-0.498,0-0.996-0.007-1.494,0.002c-0.36,0.007-0.641-0.192-0.581-0.586
			C107.42,73.707,107.739,73.388,107.941,73.375z M107.369,69.412c-0.021-0.412,0.258-0.569,0.559-0.575
			c1.043-0.021,2.086-0.037,3.127,0.016c0.167,0.009,0.461,0.396,0.443,0.575c-0.021,0.208-0.305,0.514-0.501,0.543
			c-0.521,0.076-1.057,0.025-1.587,0.025c0,0.001,0,0.002,0,0.003c-0.478,0-0.955-0.007-1.432,0.003
			C107.615,70.01,107.391,69.809,107.369,69.412z M110.932,65.418c-0.496-0.002-0.991,0-1.487,0
			c-0.495-0.002-0.991-0.003-1.486-0.001c-0.325,0.001-0.622-0.159-0.571-0.532c0.031-0.228,0.332-0.566,0.525-0.578
			c1.023-0.057,2.053-0.035,3.078-0.021c0.323,0.004,0.56,0.207,0.539,0.598C111.508,65.271,111.256,65.419,110.932,65.418z
			 M110.894,60.874c-0.497-0.013-0.994-0.003-1.491-0.003c-0.479-0.001-0.959-0.006-1.438,0.001
			c-0.361,0.005-0.641-0.196-0.578-0.589c0.035-0.222,0.357-0.531,0.563-0.544c0.991-0.057,1.987-0.031,2.98-0.023
			c0.342,0.003,0.619,0.179,0.602,0.603C111.514,60.729,111.247,60.883,110.894,60.874z M112.148,147.719
			c-1.809,0.03-3.619,0.029-5.428-0.003c-0.559-0.009-0.979-0.596-0.947-1.17c0.037-0.643,0.422-1.058,1.025-1.065
			c0.887-0.013,1.774-0.003,2.662-0.003c0.869,0.001,1.738-0.005,2.607,0.004c0.641,0.006,0.991,0.367,1.027,1.029
			C113.133,147.172,112.763,147.708,112.148,147.719z M110.944,133.51c-0.495-0.013-0.989-0.004-1.485-0.004
			c-0.512-0.001-1.029,0.047-1.533-0.023c-0.203-0.028-0.377-0.315-0.564-0.484c0.17-0.22,0.332-0.619,0.512-0.63
			c1.039-0.063,2.085-0.064,3.125-0.005c0.189,0.01,0.483,0.378,0.515,0.616C111.561,133.341,111.281,133.518,110.944,133.51z
			 M111.51,137.452c-0.041,0.238-0.321,0.594-0.508,0.604c-1.039,0.057-2.085,0.05-3.125-0.006c-0.178-0.01-0.455-0.339-0.488-0.559
			c-0.054-0.356,0.182-0.573,0.532-0.565c0.513,0.01,1.024,0.003,1.538,0.003c0.513,0,1.025,0.007,1.537-0.003
			C111.326,136.918,111.561,137.143,111.51,137.452z M110.953,128.962c-1.027,0.005-2.054,0.035-3.078-0.014
			c-0.178-0.009-0.344-0.355-0.516-0.546c0.17-0.194,0.323-0.529,0.512-0.557c0.521-0.077,1.059-0.027,1.59-0.027
			c0-0.001,0-0.002,0-0.003c0.478,0,0.955-0.002,1.434,0.001c0.305,0.001,0.564,0.06,0.587,0.509
			C111.504,128.768,111.322,128.961,110.953,128.962z M107.947,141.487c0.506-0.079,1.026-0.025,1.541-0.025
			c0.48,0.001,0.959,0.016,1.439-0.003c0.375-0.016,0.635,0.209,0.584,0.584c-0.03,0.223-0.355,0.545-0.559,0.557
			c-1.01,0.057-2.025,0.057-3.035-0.002c-0.195-0.011-0.373-0.375-0.559-0.576C107.553,141.835,107.733,141.521,107.947,141.487z
			 M112.016,124.962c-0.869,0.009-1.739,0.003-2.608,0.003c-0.851,0-1.703,0.008-2.555-0.004c-0.663-0.008-1.085-0.464-1.077-1.133
			c0.007-0.636,0.471-1.124,1.102-1.126c1.703-0.008,3.406-0.007,5.109,0c0.695,0.002,1.118,0.452,1.111,1.153
			C113.092,124.555,112.709,124.955,112.016,124.962z M108.006,119.946c-0.369,0-0.646-0.187-0.637-0.626
			c0.008-0.41,0.277-0.558,0.631-0.554c0.973,0.011,1.945,0.008,2.918,0c0.356-0.003,0.609,0.16,0.611,0.575
			s-0.266,0.596-0.605,0.604c-0.494,0.014-0.99,0.004-1.484,0.004c0-0.002,0-0.002,0-0.004
			C108.961,119.946,108.484,119.947,108.006,119.946z M107.383,114.789c0.037-0.225,0.32-0.554,0.504-0.563
			c1.044-0.054,2.094-0.053,3.138,0.002c0.179,0.01,0.459,0.354,0.489,0.578c0.049,0.37-0.221,0.558-0.557,0.556
			c-0.496-0.002-0.994,0-1.49,0c-0.515-0.002-1.029,0.001-1.545-0.003C107.59,115.357,107.32,115.163,107.383,114.789z
			 M110.943,106.288c-0.994,0.014-1.986,0.01-2.98,0.001c-0.348-0.003-0.607-0.211-0.596-0.616c0.012-0.42,0.293-0.554,0.642-0.544
			c0.479,0.014,0.957,0.004,1.437,0.004c0.496,0,0.994,0.007,1.49-0.003c0.334-0.006,0.576,0.152,0.594,0.537
			C111.549,106.093,111.281,106.283,110.943,106.288z M107.928,109.688c0.503-0.082,1.021-0.026,1.535-0.026
			c0.494-0.001,0.996-0.057,1.48,0.023c0.217,0.036,0.529,0.315,0.566,0.536c0.068,0.389-0.212,0.604-0.566,0.604
			c-1.008,0.001-2.016,0.03-3.021-0.027c-0.196-0.011-0.377-0.362-0.565-0.557C107.547,110.049,107.719,109.723,107.928,109.688z
			 M112.002,102.226c-0.85,0.02-1.699,0.005-2.551,0.005c-0.832,0.001-1.665,0.01-2.498-0.001c-0.74-0.011-1.197-0.469-1.18-1.153
			c0.02-0.67,0.451-1.095,1.174-1.1c1.682-0.011,3.366-0.013,5.049-0.001c0.693,0.005,1.094,0.423,1.105,1.093
			C113.113,101.781,112.726,102.209,112.002,102.226z M107.947,86.978c0.514,0.003,1.026,0.001,1.539,0.001
			c0.496-0.001,0.99,0.002,1.486-0.002c0.345-0.002,0.598,0.225,0.537,0.572c-0.042,0.233-0.34,0.568-0.537,0.58
			c-1.006,0.059-2.015,0.029-3.023,0.026c-0.361-0.001-0.586-0.237-0.582-0.63C107.37,87.145,107.617,86.977,107.947,86.978z
			 M107.369,82.989c0.008-0.415,0.275-0.59,0.615-0.593c0.988-0.008,1.979-0.008,2.967,0c0.355,0.002,0.589,0.234,0.578,0.632
			c-0.008,0.38-0.256,0.546-0.585,0.545c-0.513-0.001-1.025-0.001-1.538-0.001c0,0.002,0,0.002,0,0.004
			c-0.477,0-0.953,0.004-1.431-0.002C107.637,83.57,107.361,83.42,107.369,82.989z M111.529,92.123
			c-0.014,0.408-0.287,0.561-0.637,0.551c-0.477-0.012-0.955-0.002-1.432-0.002c-0.495-0.001-0.99-0.003-1.485,0
			c-0.349,0.002-0.608-0.17-0.607-0.584c0.001-0.412,0.259-0.584,0.609-0.583c0.972,0.001,1.943,0.001,2.916-0.003
			C111.268,91.5,111.541,91.682,111.529,92.123z M107.923,96.089c1.024-0.007,2.051-0.029,3.073,0.021
			c0.184,0.009,0.469,0.312,0.506,0.524c0.066,0.375-0.197,0.567-0.531,0.568c-0.514,0.002-1.025,0.001-1.537,0.001
			c-0.496-0.001-0.99,0-1.484-0.002c-0.322-0.001-0.575-0.143-0.584-0.541C107.355,96.262,107.601,96.091,107.923,96.089z
			 M112.059,79.502c-1.74,0.008-3.48,0.011-5.22-0.002c-0.597-0.004-1.057-0.508-1.068-1.109c-0.013-0.661,0.423-1.14,1.073-1.147
			c0.888-0.011,1.775-0.003,2.663-0.003c0.853,0.001,1.704-0.008,2.556,0.004c0.632,0.009,1.041,0.484,1.042,1.18
			C113.105,78.885,112.527,79.5,112.059,79.502z M117.561,58.295c-1.014-0.027-1.891-1.072-1.866-2.223
			c0.026-1.191,0.88-2.126,1.938-2.12c1.031,0.006,1.856,0.989,1.85,2.204C119.475,57.324,118.578,58.322,117.561,58.295z"/>
		<path fill="#790016" d="M110.998,132.363c-1.04-0.06-2.086-0.058-3.125,0.005c-0.18,0.011-0.342,0.41-0.512,0.63
			c0.188,0.169,0.361,0.456,0.564,0.484c0.504,0.07,1.021,0.022,1.533,0.023c0.496,0,0.99-0.009,1.485,0.004
			c0.337,0.008,0.616-0.169,0.568-0.53C111.481,132.741,111.188,132.373,110.998,132.363z"/>
		<path fill="#790016" d="M110.924,119.946c0.34-0.009,0.607-0.189,0.605-0.604s-0.255-0.578-0.611-0.575
			c-0.973,0.008-1.945,0.011-2.918,0c-0.354-0.004-0.623,0.144-0.631,0.554c-0.01,0.439,0.268,0.626,0.637,0.626
			c0.479,0.001,0.955,0,1.434,0c0,0.002,0,0.002,0,0.004C109.934,119.95,110.43,119.96,110.924,119.946z"/>
		<path fill="#790016" d="M111.986,122.702c-1.703-0.007-3.406-0.008-5.109,0c-0.631,0.002-1.095,0.49-1.102,1.126
			c-0.008,0.669,0.414,1.125,1.077,1.133c0.852,0.012,1.704,0.004,2.555,0.004c0.869,0,1.739,0.006,2.608-0.003
			c0.693-0.007,1.076-0.407,1.082-1.106C113.104,123.154,112.682,122.704,111.986,122.702z"/>
		<path fill="#790016" d="M112.068,145.481c-0.869-0.009-1.738-0.003-2.607-0.004c-0.888,0-1.775-0.01-2.662,0.003
			c-0.604,0.008-0.988,0.423-1.025,1.065c-0.031,0.574,0.389,1.161,0.947,1.17c1.809,0.032,3.619,0.033,5.428,0.003
			c0.614-0.011,0.984-0.547,0.947-1.208C113.06,145.849,112.709,145.487,112.068,145.481z"/>
		<path fill="#790016" d="M107.918,142.598c1.01,0.059,2.025,0.059,3.035,0.002c0.203-0.012,0.528-0.334,0.559-0.557
			c0.051-0.375-0.209-0.6-0.584-0.584c-0.48,0.019-0.959,0.004-1.439,0.003c-0.515,0-1.035-0.054-1.541,0.025
			c-0.214,0.034-0.395,0.348-0.588,0.534C107.545,142.223,107.723,142.587,107.918,142.598z"/>
		<path fill="#790016" d="M109.459,136.929c-0.514,0-1.025,0.007-1.538-0.003c-0.351-0.008-0.586,0.209-0.532,0.565
			c0.033,0.22,0.311,0.549,0.488,0.559c1.04,0.056,2.086,0.063,3.125,0.006c0.187-0.01,0.467-0.365,0.508-0.604
			c0.051-0.31-0.184-0.534-0.514-0.526C110.484,136.936,109.972,136.929,109.459,136.929z"/>
		<path fill="#790016" d="M107.967,74.517c0.498-0.009,0.996-0.002,1.494-0.002c0.479,0,0.959-0.012,1.438,0.004
			c0.36,0.012,0.616-0.165,0.63-0.566c0.014-0.415-0.26-0.602-0.604-0.604c-0.996-0.005-1.991-0.031-2.984,0.026
			c-0.202,0.013-0.521,0.332-0.556,0.556C107.326,74.324,107.606,74.523,107.967,74.517z"/>
		<path fill="#790016" d="M106.843,56.726c0.851,0.009,1.704,0.002,2.556,0.003c0.869,0,1.738,0.004,2.607,0
			c0.704-0.004,1.08-0.385,1.089-1.088c0.009-0.699-0.378-1.157-1.044-1.163c-1.738-0.015-3.479-0.016-5.217-0.001
			c-0.604,0.006-1.051,0.508-1.059,1.113C105.767,56.27,106.181,56.719,106.843,56.726z"/>
		<path fill="#790016" d="M109.41,69.999c0-0.001,0-0.002,0-0.003c0.53,0,1.066,0.051,1.587-0.025
			c0.196-0.029,0.48-0.335,0.501-0.543c0.018-0.18-0.276-0.566-0.443-0.575c-1.041-0.053-2.084-0.036-3.127-0.016
			c-0.301,0.006-0.58,0.163-0.559,0.575c0.021,0.396,0.246,0.598,0.609,0.59C108.455,69.992,108.933,69.999,109.41,69.999z"/>
		<path fill="#790016" d="M110.99,64.285c-1.025-0.014-2.055-0.035-3.078,0.021c-0.193,0.012-0.494,0.351-0.525,0.578
			c-0.051,0.373,0.246,0.533,0.571,0.532c0.495-0.002,0.991-0.001,1.486,0.001c0.496,0,0.991-0.002,1.487,0
			c0.324,0.001,0.576-0.146,0.598-0.535C111.55,64.492,111.313,64.289,110.99,64.285z"/>
		<path fill="#790016" d="M110.93,59.716c-0.993-0.008-1.989-0.033-2.98,0.023c-0.205,0.013-0.527,0.322-0.563,0.544
			c-0.063,0.393,0.217,0.594,0.578,0.589c0.479-0.007,0.959-0.002,1.438-0.001c0.497,0,0.994-0.01,1.491,0.003
			c0.354,0.009,0.62-0.145,0.638-0.556C111.549,59.895,111.271,59.719,110.93,59.716z"/>
		<path fill="#790016" d="M110.895,127.816c-0.479-0.003-0.956-0.001-1.434-0.001c0,0.001,0,0.002,0,0.003
			c-0.531,0-1.068-0.05-1.59,0.027c-0.188,0.027-0.342,0.362-0.512,0.557c0.172,0.19,0.338,0.537,0.516,0.546
			c1.024,0.049,2.051,0.019,3.078,0.014c0.369-0.001,0.551-0.194,0.528-0.637C111.459,127.876,111.199,127.817,110.895,127.816z"/>
		<path fill="#790016" d="M112.063,77.244c-0.852-0.012-1.703-0.003-2.556-0.004c-0.888,0-1.775-0.008-2.663,0.003
			c-0.65,0.008-1.086,0.486-1.073,1.147c0.012,0.602,0.472,1.105,1.068,1.109c1.739,0.013,3.479,0.01,5.22,0.002
			c0.469-0.002,1.047-0.617,1.046-1.078C113.104,77.729,112.694,77.253,112.063,77.244z"/>
		<path fill="#790016" d="M107.949,97.202c0.494,0.002,0.988,0.001,1.484,0.002c0.512,0,1.023,0.001,1.537-0.001
			c0.334-0.001,0.598-0.193,0.531-0.568c-0.037-0.213-0.322-0.516-0.506-0.524c-1.022-0.051-2.049-0.028-3.073-0.021
			c-0.322,0.002-0.567,0.173-0.558,0.572C107.374,97.06,107.627,97.201,107.949,97.202z"/>
		<path fill="#790016" d="M110.894,91.502c-0.973,0.004-1.944,0.004-2.916,0.003c-0.351-0.001-0.608,0.171-0.609,0.583
			c-0.001,0.414,0.259,0.586,0.607,0.584c0.495-0.003,0.99-0.001,1.485,0c0.477,0,0.955-0.01,1.432,0.002
			c0.35,0.01,0.623-0.143,0.637-0.551C111.541,91.682,111.268,91.5,110.894,91.502z"/>
		<path fill="#790016" d="M97.502,31.211c-37.299,0-67.535,30.236-67.535,67.533c0,37.298,30.236,67.534,67.535,67.534
			c37.297,0,67.533-30.236,67.533-67.534C165.035,61.447,134.799,31.211,97.502,31.211z M99.229,77.018
			c-2.464,4.029-4.917,8.068-7.435,12.063c-0.72,1.144-1.026,2.331-0.923,3.636c0.304,3.789-0.735,7.356-1.897,10.869
			c-1.235,3.733-2.236,7.439-2.212,11.445c0.07,11.462-0.044,22.926-0.085,34.388c-0.002,0.424,0,0.848,0,1.436
			c-6.466,0-12.797,0-19.267,0c0-0.394-0.032-0.759,0.007-1.117c0.88-8.215,1.752-16.431,2.665-24.643
			c0.567-5.121,1.196-10.235,1.806-15.351c0.13-1.095-0.336-1.942-1.181-2.527c-3.014-2.087-5.251-4.938-7.612-7.662
			c-0.855-0.985-1.483-2.165-2.238-3.24c-0.292-0.416-0.608-0.831-0.982-1.171c-2.552-2.318-5.131-4.607-7.672-6.938
			c-0.298-0.272-0.65-0.806-0.565-1.1c0.117-0.409,0.565-0.884,0.975-1.021c1.31-0.435,2.707-0.315,3.823,0.418
			c1.476,0.97,2.818,2.161,4.125,3.358c0.841,0.772,1.486,1.754,2.277,2.587c0.402,0.424,0.888,0.816,1.411,1.066
			c1.601,0.765,2.669,0.382,3.207-1.278c1.355-4.188,1.915-8.274,0.231-12.689c-1.61-4.223-2.384-8.767-3.459-13.185
			c-0.162-0.671-0.098-1.471,0.111-2.131c0.133-0.414,0.711-0.907,1.129-0.946c0.419-0.04,0.927,0.389,1.318,0.706
			c0.2,0.164,0.246,0.531,0.334,0.814c1.412,4.593,2.805,9.192,4.242,13.777c0.252,0.802,0.561,1.646,1.074,2.285
			c0.407,0.505,1.136,0.913,1.781,1.031c1.172,0.212,1.693-0.276,1.675-1.481c-0.02-1.317-0.112-2.643-0.312-3.943
			c-0.727-4.752-0.305-9.529-0.374-14.296c-0.007-0.461,0.024-0.976,0.223-1.373c0.21-0.422,0.574-0.886,0.986-1.066
			c1.213-0.528,2.143,0.183,2.214,1.548c0.161,3.143,0.356,6.284,0.515,9.427c0.142,2.76,0.243,5.52,0.374,8.279
			c0.027,0.594,0.036,1.203,0.176,1.774c0.207,0.836,0.674,1.49,1.659,1.481c0.923-0.008,1.243-0.694,1.378-1.424
			c0.185-1,0.224-2.026,0.371-3.034c0.502-3.41,1.036-6.816,1.531-10.229c0.109-0.756,0.082-1.531,0.162-2.292
			c0.127-1.211,0.706-1.794,1.629-1.701c0.887,0.09,1.506,0.84,1.426,1.946c-0.15,2.037-0.331,4.076-0.604,6.101
			c-0.511,3.793-1.097,7.576-1.655,11.364c-0.184,1.239,0.364,2.206,1.644,2.88c1.069,0.562,1.696,0.432,2.722-0.563
			c0.061-0.06,0.128-0.114,0.18-0.183c2.2-2.964,4.397-5.932,6.6-8.896c0.505-0.678,0.961-1.409,1.563-1.983
			c0.249-0.236,0.993-0.317,1.218-0.124c0.315,0.27,0.537,0.888,0.472,1.306C99.9,75.979,99.539,76.512,99.229,77.018z
			 M130.155,109.882c-0.009,9.322-0.007,18.645-0.007,27.967c0,3.572,0.008,7.145-0.006,10.718
			c-0.006,1.656-1.114,2.868-2.611,2.872c-2.984,0.009-5.971,0.003-8.955,0.003c-3.57,0-7.142-0.034-10.713,0.016
			c-1.637,0.023-2.82-1.301-2.814-3.217c0.041-12.55,0.021-25.1,0.021-37.649c0-14.52,0-29.038,0-43.557
			c0-4.386,0-8.772,0.001-13.157c0-1.947,1.014-3.113,2.709-3.115c6.539-0.002,13.077,0,19.615,0.002
			c1.723,0,2.754,1.18,2.754,3.146c0,13.198-0.002,26.396,0.004,39.596c0,0.313,0.082,0.627,0.125,0.941
			c-0.043,0.158-0.125,0.314-0.125,0.473c-0.006,4.605-0.007,9.212,0.004,13.817c0,0.161,0.113,0.322,0.174,0.483
			C130.27,109.441,130.156,109.662,130.155,109.882z"/>
		<path fill="#790016" d="M109.467,115.361c0.496,0,0.994-0.002,1.49,0c0.336,0.002,0.605-0.186,0.557-0.556
			c-0.03-0.225-0.311-0.568-0.489-0.578c-1.044-0.055-2.094-0.056-3.138-0.002c-0.184,0.01-0.467,0.339-0.504,0.563
			c-0.063,0.374,0.207,0.568,0.539,0.569C108.438,115.362,108.952,115.359,109.467,115.361z"/>
		<path fill="#790016" d="M117.632,53.952c-1.058-0.006-1.911,0.929-1.938,2.12c-0.024,1.15,0.853,2.195,1.866,2.223
			c1.018,0.027,1.914-0.971,1.921-2.139C119.488,54.941,118.663,53.958,117.632,53.952z"/>
		<path fill="#790016" d="M110.936,105.13c-0.496,0.01-0.994,0.003-1.49,0.003c-0.479,0-0.958,0.01-1.437-0.004
			c-0.349-0.01-0.63,0.124-0.642,0.544c-0.012,0.405,0.248,0.613,0.596,0.616c0.994,0.009,1.986,0.013,2.98-0.001
			c0.338-0.005,0.605-0.195,0.586-0.621C111.512,105.282,111.27,105.124,110.936,105.13z"/>
		<path fill="#790016" d="M107.976,83.574c0.478,0.006,0.954,0.002,1.431,0.002c0-0.002,0-0.002,0-0.004
			c0.513,0,1.025,0,1.538,0.001c0.329,0.001,0.577-0.165,0.585-0.545c0.011-0.397-0.223-0.63-0.578-0.632
			c-0.988-0.008-1.979-0.008-2.967,0c-0.34,0.003-0.607,0.178-0.615,0.593C107.361,83.42,107.637,83.57,107.976,83.574z"/>
		<path fill="#790016" d="M107.923,110.799c1.005,0.058,2.013,0.028,3.021,0.027c0.354,0,0.635-0.216,0.566-0.604
			c-0.037-0.221-0.35-0.5-0.566-0.536c-0.484-0.08-0.986-0.024-1.48-0.023c-0.514,0-1.032-0.056-1.535,0.026
			c-0.209,0.034-0.381,0.36-0.57,0.554C107.546,110.437,107.727,110.788,107.923,110.799z"/>
		<path fill="#790016" d="M107.949,88.155c1.009,0.003,2.018,0.032,3.023-0.026c0.197-0.012,0.495-0.347,0.537-0.58
			c0.061-0.348-0.192-0.574-0.537-0.572c-0.496,0.004-0.99,0.001-1.486,0.002c-0.513,0-1.025,0.002-1.539-0.001
			c-0.33-0.001-0.577,0.167-0.58,0.548C107.363,87.918,107.588,88.154,107.949,88.155z"/>
		<path fill="#790016" d="M111.996,99.976c-1.683-0.012-3.367-0.01-5.049,0.001c-0.723,0.005-1.154,0.43-1.174,1.1
			c-0.018,0.685,0.439,1.143,1.18,1.153c0.833,0.011,1.666,0.002,2.498,0.001c0.852,0,1.701,0.015,2.551-0.005
			c0.724-0.017,1.111-0.444,1.1-1.157C113.09,100.398,112.689,99.98,111.996,99.976z"/>
	</g>
</g>
<g id="PESO">
</g>
<g id="ma">
</g>
<g id="primeres">
</g>
<g id="Capa_46">
</g>
<g id="Capa_47">
</g>
<g id="Capa_48">
</g>
<g id="asegurat">
</g>
<g id="taller">
</g>
<g id="Capa_51">
</g>
<g id="Capa_52">
</g>
<g id="Capa_53">
</g>
<g id="Capa_54">
</g>
<g id="Capa_55">
</g>
<g id="Capa_56">
</g>
<g id="Capa_57">
</g>
<g id="Capa_58">
</g>
<g id="Capa_59">
</g>
<g id="Capa_60">
</g>
<g id="Capa_61">
</g>
<g id="Capa_62">
</g>
<g id="Capa_63">
</g>
<g id="Capa_64">
</g>
</svg>
