<?xml version="1.0" encoding="utf-8"?>
<!-- Generator: Adobe Illustrator 16.0.0, SVG Export Plug-In . SVG Version: 6.00 Build 0)  -->
<!DOCTYPE svg PUBLIC "-//W3C//DTD SVG 1.1//EN" "http://www.w3.org/Graphics/SVG/1.1/DTD/svg11.dtd">
<svg version="1.1" xmlns="http://www.w3.org/2000/svg" xmlns:xlink="http://www.w3.org/1999/xlink" x="0px" y="0px" width="192px"
	 height="192px" viewBox="0 0 192 192" enable-background="new 0 0 192 192" xml:space="preserve">
<g id="NOTICIAS23">
</g>
<g id="CALENDARI">
</g>
<g id="INCIDENCIES">
</g>
<g id="ACCEDIR">
</g>
<g id="SORTIR">
</g>
<g id="REGISTRE">
</g>
<g id="TUTORIAL">
</g>
<g id="TUTORIAL2">
</g>
<g id="CONVO">
</g>
<g id="COMUNICAT">
</g>
<g id="DIADA">
</g>
<g id="DIADA_2">
</g>
<g id="ENTRENO">
</g>
<g id="ENTRENO2">
</g>
<g id="DELEGACIÓ2">
</g>
<g id="EVENTO_SOCIAL">
</g>
<g id="ev2">
</g>
<g id="MAIL">
</g>
<g id="TELEFONO">
</g>
<g id="TLF_EMERG">
</g>
<g id="TRANS">
</g>
<g id="ACOMPAÑANT">
</g>
<g id="CONTRASEÑA">
</g>
<g id="CONTRA_x5F_2">
</g>
<g id="DADES_PERSONALS">
</g>
<g id="DADES_PERSONALS2">
</g>
<g id="EDITAR">
</g>
<g id="DELEGACIÓ">
</g>
<g id="PERFIL">
</g>
<g id="CONFIRMATS">
</g>
<g id="NO_CONFIRM">
</g>
<g id="CASTELLERS">
</g>
<g id="COMERCIAL">
</g>
<g id="COMERCIAL2">
</g>
<g id="CARREC">
</g>
<g id="REFRESH">
</g>
<g id="camara">
</g>
<g id="musics">
</g>
<g id="Capa_39">
</g>
<g id="LLOC">
</g>
<g id="ALÇADA">
</g>
<g id="MANS_ALÇADES">
</g>
<g id="PESO">
	<path fill="#790016" d="M96,19.893c-43.549,0-78.853,35.304-78.853,78.853S52.451,177.597,96,177.597s78.853-35.303,78.853-78.852
		S139.549,19.893,96,19.893z M96,170.213c-39.945,0-72.328-32.383-72.328-72.328c0-39.946,32.383-72.328,72.328-72.328
		c39.946,0,72.329,32.382,72.329,72.328C168.329,137.83,135.946,170.213,96,170.213z"/>
	<g>
		<path fill="#790016" d="M112.663,70.532c-5.649-2.696-11.615-3.925-17.87-3.604c-2.116,0.109-4.252,0.255-6.332,0.634
			c-7.781,1.42-14.365,5.083-19.79,10.842c-0.526,0.558-0.599,0.948-0.077,1.59c3.71,4.581,7.393,9.185,11.048,13.811
			c0.541,0.686,1.104,0.977,1.984,0.97c4.763-0.041,9.527-0.02,14.291-0.02c4.895,0,9.791-0.006,14.686,0.006
			c0.614,0.002,1.084-0.119,1.502-0.646c3.761-4.742,7.54-9.471,11.343-14.18c0.469-0.579,0.423-0.947-0.059-1.468
			C120.314,75.14,116.745,72.481,112.663,70.532z M107.475,77.018c-1.04,4.532-2.105,9.058-3.113,13.597
			c-0.179,0.798-0.524,1.091-1.326,1.077c-2.002-0.035-4.003-0.006-6.004-0.01c-0.225,0-0.449-0.055-0.904-0.116
			c4.011-6.063,7.903-11.948,11.795-17.832c0.073,0.034,0.149,0.065,0.223,0.099C107.922,74.893,107.716,75.959,107.475,77.018z"/>
		<path fill="#790016" d="M96,30.352c-37.298,0-67.533,30.235-67.533,67.533S58.702,165.419,96,165.419
			c37.299,0,67.534-30.236,67.534-67.534S133.299,30.352,96,30.352z M136.447,125.535c-0.103,0.164-0.244,0.315-0.298,0.494
			c-0.255,0.853-0.407,1.746-0.738,2.567c-1.938,4.802-5.425,7.884-10.419,9.267c-0.358,0.098-0.686,0.31-1.027,0.469
			c-18.696,0-37.392,0-56.088,0c-0.413-0.181-0.816-0.396-1.243-0.532c-5.552-1.775-9.086-5.492-10.707-11.068
			c-0.075-0.257-0.246-0.483-0.374-0.724c0-18.748,0-37.497,0-56.245c0.179-0.414,0.395-0.816,0.533-1.243
			c1.844-5.649,5.59-9.271,11.384-10.728c0.254-0.063,0.481-0.234,0.723-0.354c18.484,0,36.971,0,55.457,0
			c0.57,0.208,1.129,0.447,1.71,0.618c5.417,1.607,8.912,5.118,10.49,10.545c0.16,0.556,0.397,1.091,0.598,1.635
			C136.447,88.668,136.447,107.101,136.447,125.535z"/>
	</g>
</g>
<g id="ma">
</g>
<g id="primeres">
</g>
<g id="Capa_46">
</g>
<g id="Capa_47">
</g>
<g id="Capa_48">
</g>
<g id="asegurat">
</g>
<g id="taller">
</g>
<g id="Capa_51">
</g>
<g id="Capa_52">
</g>
<g id="Capa_53">
</g>
<g id="Capa_54">
</g>
<g id="Capa_55">
</g>
<g id="Capa_56">
</g>
<g id="Capa_57">
</g>
<g id="Capa_58">
</g>
<g id="Capa_59">
</g>
<g id="Capa_60">
</g>
<g id="Capa_61">
</g>
<g id="Capa_62">
</g>
<g id="Capa_63">
</g>
<g id="Capa_64">
</g>
</svg>
