<?xml version="1.0" encoding="utf-8"?>
<!-- Generator: Adobe Illustrator 16.0.0, SVG Export Plug-In . SVG Version: 6.00 Build 0)  -->
<!DOCTYPE svg PUBLIC "-//W3C//DTD SVG 1.1//EN" "http://www.w3.org/Graphics/SVG/1.1/DTD/svg11.dtd">
<svg version="1.1" xmlns="http://www.w3.org/2000/svg" xmlns:xlink="http://www.w3.org/1999/xlink" x="0px" y="0px" width="192px"
	 height="192px" viewBox="0 0 192 192" enable-background="new 0 0 192 192" xml:space="preserve">
<g id="NOTICIAS23">
</g>
<g id="CALENDARI">
</g>
<g id="INCIDENCIES">
</g>
<g id="ACCEDIR">
</g>
<g id="SORTIR">
	<path fill="#790016" d="M96,24.607c-43.549,0-78.853,35.303-78.853,78.853c0,43.549,35.304,78.852,78.853,78.852
		s78.853-35.303,78.853-78.852C174.853,59.91,139.549,24.607,96,24.607z M96,174.927c-39.945,0-72.328-32.383-72.328-72.328
		c0-39.946,32.383-72.328,72.328-72.328c39.946,0,72.329,32.382,72.329,72.328C168.329,142.544,135.946,174.927,96,174.927z"/>
	<path fill="#790016" d="M96,35.066c-37.298,0-67.533,30.236-67.533,67.533c0,37.298,30.235,67.534,67.533,67.534
		c37.299,0,67.534-30.236,67.534-67.534C163.534,65.302,133.299,35.066,96,35.066z M125.221,120.411
		c-6.317,14.272-20.474,23.554-36.067,23.646c-0.079,0-0.159,0-0.236,0c-21.777,0-39.559-17.65-39.687-39.456
		c-0.128-21.884,17.572-39.793,39.456-39.923c0.077,0,0.158,0,0.235,0c14.563,0,27.911,7.936,34.883,20.755
		c0.813,1.494,0.26,3.362-1.233,4.175c-1.498,0.813-3.363,0.259-4.175-1.234c-5.891-10.833-17.172-17.54-29.475-17.54
		c-0.067,0-0.134,0-0.2,0c-18.489,0.109-33.442,15.241-33.335,33.73c0.108,18.422,15.133,33.335,33.53,33.335c0.067,0,0.132,0,0.2,0
		c13.174-0.078,25.136-7.921,30.475-19.981c0.688-1.555,2.504-2.258,4.06-1.569C125.207,117.038,125.91,118.856,125.221,120.411z
		 M151.761,102.747c-0.011,0.09-0.011,0.182-0.029,0.271c-0.004,0.023-0.007,0.047-0.012,0.07c-0.005,0.023-0.015,0.045-0.021,0.068
		c-0.021,0.089-0.051,0.174-0.081,0.26c-0.019,0.054-0.029,0.111-0.051,0.165c-0.06,0.151-0.137,0.293-0.221,0.432
		c-0.018,0.03-0.029,0.062-0.049,0.091c-0.151,0.237-0.339,0.446-0.55,0.633c-0.028,0.025-0.059,0.048-0.089,0.073
		c-0.095,0.079-0.189,0.157-0.293,0.224l-18.215,12.53c-0.533,0.367-1.141,0.542-1.742,0.542c-0.979,0-1.941-0.466-2.539-1.334
		c-0.964-1.4-0.609-3.316,0.792-4.28l10.131-6.969H80.903c-1.7,0-3.077-1.379-3.077-3.078c0-1.7,1.377-3.079,3.077-3.079h58.128
		l-10.402-7.349c-1.388-0.981-1.719-2.902-0.737-4.291c0.979-1.388,2.899-1.72,4.29-0.738l18.306,12.932
		c0.06,0.042,0.106,0.095,0.162,0.14c0.084,0.069,0.17,0.136,0.247,0.214c0.08,0.082,0.148,0.17,0.218,0.259
		c0.044,0.054,0.094,0.099,0.133,0.156c0.014,0.019,0.02,0.039,0.031,0.057c0.063,0.098,0.116,0.201,0.168,0.305
		c0.041,0.081,0.086,0.159,0.118,0.242c0.037,0.092,0.062,0.187,0.089,0.282c0.028,0.098,0.062,0.195,0.08,0.294
		c0.017,0.091,0.021,0.183,0.029,0.274c0.009,0.095,0.024,0.19,0.024,0.285c0,0.005,0.002,0.01,0.002,0.016
		c0,0.009-0.003,0.018-0.003,0.027C151.785,102.563,151.77,102.654,151.761,102.747z"/>
</g>
<g id="REGISTRE">
</g>
<g id="TUTORIAL">
</g>
<g id="TUTORIAL2">
</g>
<g id="CONVO">
</g>
<g id="COMUNICAT">
</g>
<g id="DIADA">
</g>
<g id="DIADA_2">
</g>
<g id="ENTRENO">
</g>
<g id="ENTRENO2">
</g>
<g id="DELEGACIÓ2">
</g>
<g id="EVENTO_SOCIAL">
</g>
<g id="ev2">
</g>
<g id="MAIL">
</g>
<g id="TELEFONO">
</g>
<g id="TLF_EMERG">
</g>
<g id="TRANS">
</g>
<g id="ACOMPAÑANT">
</g>
<g id="CONTRASEÑA">
</g>
<g id="CONTRA_x5F_2">
</g>
<g id="DADES_PERSONALS">
</g>
<g id="DADES_PERSONALS2">
</g>
<g id="EDITAR">
</g>
<g id="DELEGACIÓ">
</g>
<g id="PERFIL">
</g>
<g id="CONFIRMATS">
</g>
<g id="NO_CONFIRM">
</g>
<g id="CASTELLERS">
</g>
</svg>
