<?xml version="1.0" encoding="utf-8"?>
<!-- Generator: Adobe Illustrator 16.0.0, SVG Export Plug-In . SVG Version: 6.00 Build 0)  -->
<!DOCTYPE svg PUBLIC "-//W3C//DTD SVG 1.1//EN" "http://www.w3.org/Graphics/SVG/1.1/DTD/svg11.dtd">
<svg version="1.1" xmlns="http://www.w3.org/2000/svg" xmlns:xlink="http://www.w3.org/1999/xlink" x="0px" y="0px" width="192px"
	 height="192px" viewBox="0 0 192 192" enable-background="new 0 0 192 192" xml:space="preserve">
<g id="NOTICIAS23">
</g>
<g id="CALENDARI">
</g>
<g id="INCIDENCIES">
</g>
<g id="ACCEDIR">
</g>
<g id="SORTIR">
</g>
<g id="REGISTRE">
</g>
<g id="TUTORIAL">
</g>
<g id="TUTORIAL2">
</g>
<g id="CONVO">
</g>
<g id="COMUNICAT">
</g>
<g id="Capa_65">
</g>
<g id="DIADA">
</g>
<g id="DIADA_2">
</g>
<g id="ENTRENO">
</g>
<g id="ENTRENO2">
</g>
<g id="DELEGACIÓ2">
</g>
<g id="EVENTO_SOCIAL">
</g>
<g id="ev2">
</g>
<g id="MAIL">
</g>
<g id="TELEFONO">
</g>
<g id="TLF_EMERG">
</g>
<g id="TRANS">
</g>
<g id="ACOMPAÑANT">
</g>
<g id="CONTRASEÑA">
</g>
<g id="CONTRA_x5F_2">
</g>
<g id="DADES_PERSONALS">
</g>
<g id="DADES_PERSONALS2">
</g>
<g id="EDITAR">
</g>
<g id="DELEGACIÓ">
</g>
<g id="PERFIL">
</g>
<g id="CONFIRMATS">
</g>
<g id="NO_CONFIRM">
</g>
<g id="CASTELLERS">
</g>
<g id="COMERCIAL">
</g>
<g id="COMERCIAL2">
</g>
<g id="CARREC">
</g>
<g id="REFRESH">
</g>
<g id="camara">
</g>
<g id="musics">
</g>
<g id="Capa_39">
</g>
<g id="LLOC">
</g>
<g id="ALÇADA">
</g>
<g id="MANS_ALÇADES">
</g>
<g id="PESO">
</g>
<g id="ma">
</g>
<g id="primeres">
</g>
<g id="Capa_46">
</g>
<g id="Capa_47">
</g>
<g id="Capa_66">
</g>
<g id="Capa_67">
</g>
<g id="Capa_48">
</g>
<g id="asegurat">
</g>
<g id="taller">
</g>
<g id="Capa_51">
</g>
<g id="Capa_52">
	<g>
		<path fill="#790016" d="M97.501,27.606c-37.298,0-67.533,30.235-67.533,67.533s30.235,67.534,67.533,67.534
			c37.299,0,67.534-30.236,67.534-67.534S134.8,27.606,97.501,27.606z M99.465,121.424h-10.78v-18.172
			c0-5.749,0.063-11.485,0.192-17.21c0.128-5.723,0.372-11.459,0.731-17.209h-0.153l-11.551,52.591h-6.545L60.041,68.833h-0.386
			c0.358,5.75,0.604,11.486,0.731,17.209c0.128,5.725,0.193,11.461,0.193,17.21v18.172H49.8v-57.75h17.171l5.775,26.796
			c0.462,2.208,0.847,4.416,1.154,6.622c0.309,2.208,0.59,4.44,0.848,6.699h0.153c0.257-2.874,0.501-5.339,0.731-7.393
			c0.231-2.052,0.552-4.029,0.963-5.929l5.775-26.796h17.094V121.424z M135.116,121.424l-2.85-14.63h-12.628l-2.849,14.63h-11.55
			l13.782-57.75h14.554l13.09,57.75H135.116z"/>
		<path fill="#790016" d="M127.031,77.919c-0.154-1.334-0.309-2.669-0.462-4.004c-0.052-0.667-0.104-1.321-0.154-1.964
			c-0.052-0.641-0.129-1.271-0.231-1.887h-0.153c-0.104,0.616-0.181,1.246-0.231,1.887c-0.052,0.643-0.104,1.297-0.154,1.964
			c-0.153,1.335-0.308,2.67-0.462,4.004c-0.153,1.335-0.359,2.67-0.616,4.004l-3.233,16.401h9.24l-2.927-16.401
			C127.39,80.589,127.185,79.254,127.031,77.919z"/>
	</g>
</g>
<g id="Capa_53">
</g>
<g id="Capa_54">
</g>
<g id="Capa_55">
</g>
<g id="Capa_56">
</g>
<g id="Capa_57">
</g>
<g id="Capa_58">
</g>
<g id="Capa_59">
</g>
<g id="Capa_60">
</g>
<g id="Capa_68">
</g>
<g id="Capa_69">
</g>
<g id="Capa_61">
</g>
<g id="Capa_62">
</g>
<g id="Capa_63">
</g>
<g id="Capa_64">
</g>
</svg>
