<?xml version="1.0" encoding="utf-8"?>
<!-- Generator: Adobe Illustrator 16.0.0, SVG Export Plug-In . SVG Version: 6.00 Build 0)  -->
<!DOCTYPE svg PUBLIC "-//W3C//DTD SVG 1.1//EN" "http://www.w3.org/Graphics/SVG/1.1/DTD/svg11.dtd">
<svg version="1.1" xmlns="http://www.w3.org/2000/svg" xmlns:xlink="http://www.w3.org/1999/xlink" x="0px" y="0px" width="192px"
	 height="192px" viewBox="0 0 192 192" enable-background="new 0 0 192 192" xml:space="preserve">
<g id="NOTICIAS23">
</g>
<g id="CALENDARI">
</g>
<g id="INCIDENCIES">
</g>
<g id="ACCEDIR">
</g>
<g id="SORTIR">
</g>
<g id="REGISTRE">
</g>
<g id="TUTORIAL">
</g>
<g id="TUTORIAL2">
</g>
<g id="CONVO">
</g>
<g id="COMUNICAT">
</g>
<g id="DIADA">
</g>
<g id="DIADA_2">
</g>
<g id="ENTRENO">
</g>
<g id="ENTRENO2">
</g>
<g id="DELEGACIÓ2">
</g>
<g id="EVENTO_SOCIAL">
</g>
<g id="ev2">
</g>
<g id="MAIL">
</g>
<g id="TELEFONO">
</g>
<g id="TLF_EMERG">
</g>
<g id="TRANS">
</g>
<g id="ACOMPAÑANT">
</g>
<g id="CONTRASEÑA">
</g>
<g id="CONTRA_x5F_2">
</g>
<g id="DADES_PERSONALS">
</g>
<g id="DADES_PERSONALS2">
	<path fill="#790016" d="M100.334,20.883c-43.549,0-78.853,35.303-78.853,78.853c0,43.549,35.304,78.852,78.853,78.852
		s78.852-35.303,78.852-78.852C179.186,56.186,143.883,20.883,100.334,20.883z M100.334,171.203
		c-39.945,0-72.328-32.383-72.328-72.328c0-39.946,32.383-72.328,72.328-72.328c39.946,0,72.329,32.382,72.329,72.328
		C172.663,138.82,140.28,171.203,100.334,171.203z"/>
	<path fill="#790016" d="M100.334,31.342c-37.299,0-67.533,30.236-67.533,67.533c0,37.298,30.234,67.534,67.533,67.534
		s67.533-30.236,67.533-67.534C167.867,61.578,137.633,31.342,100.334,31.342z M82.217,48.86c0.448-0.069,0.891-0.177,1.336-0.267
		c1.555,0,3.106,0,4.66,0c0.609,0.114,1.214,0.24,1.825,0.343c10.804,1.779,19.169,10.413,20.644,21.305
		c1.798,13.297-7.26,25.643-20.48,27.922c-13.777,2.372-26.871-7.028-28.945-20.788C59.186,63.668,68.516,50.978,82.217,48.86z
		 M49.143,128.567c0-1.101,0-2.201,0-3.302c0.102-0.743,0.207-1.486,0.307-2.229c1.579-11.581,6.88-20.954,16.447-27.813
		c0.431-0.309,0.677-0.322,1.102,0.048c5.324,4.611,11.526,7.047,18.564,7.135c7.377,0.092,13.862-2.385,19.443-7.217
		c0.107-0.092,0.213-0.188,0.32-0.278c0.025-0.022,0.063-0.031,0.19-0.094c1.069,0.825,2.216,1.628,3.275,2.536
		c3.73,3.194,6.677,6.836,8.905,10.885l-20.328,20.328C81.293,128.567,65.219,128.567,49.143,128.567z M105.152,153.207
		c-5.311,1.064-10.619,2.131-15.926,3.201c-0.129,0.026-0.246,0.097-0.369,0.147c-0.176-0.036-0.504,0.151-0.418-0.278
		c0.369-1.738,0.754-3.473,1.106-5.214c0.796-3.924,1.569-7.851,2.366-11.774c0.064-0.329,0.215-0.641,0.3-0.882
		c4.696,4.696,9.369,9.37,14.132,14.133C106.287,153.077,105.691,153.098,105.152,153.207z M109.031,149.55
		c-4.59-4.594-9.301-9.308-13.959-13.971c2.043-2.044,4.104-4.105,6.152-6.155c-0.006,0-0.012,0-0.012,0l16.965-16.971
		c0.002,0.003,0.004,0.006,0.004,0.009c5.523-5.523,11.049-11.051,16.57-16.573c4.641,4.638,9.341,9.339,13.971,13.97
		C135.504,123.079,122.236,136.346,109.031,149.55z M151.494,107.243c-4.533-4.532-9.207-9.208-13.986-13.987
		c0.365-0.332,0.824-0.719,1.252-1.139c1.218-1.204,2.463-2.388,3.63-3.644c1.472-1.583,3.12-2.815,5.316-3.149
		c0.464,0,0.927,0,1.392,0c2.188,0.36,3.832,1.601,5.297,3.183c1.008,1.088,2.053,2.147,3.152,3.138
		c2.716,2.444,2.768,6.738,0.52,9.232C156.008,103.156,153.656,105.168,151.494,107.243z"/>
</g>
<g id="EDITAR">
</g>
<g id="DELEGACIÓ">
</g>
<g id="PERFIL">
</g>
<g id="CONFIRMATS">
</g>
<g id="NO_CONFIRM">
</g>
<g id="CASTELLERS">
</g>
</svg>
