<?xml version="1.0" encoding="utf-8"?>
<!-- Generator: Adobe Illustrator 16.0.0, SVG Export Plug-In . SVG Version: 6.00 Build 0)  -->
<!DOCTYPE svg PUBLIC "-//W3C//DTD SVG 1.1//EN" "http://www.w3.org/Graphics/SVG/1.1/DTD/svg11.dtd">
<svg version="1.1" xmlns="http://www.w3.org/2000/svg" xmlns:xlink="http://www.w3.org/1999/xlink" x="0px" y="0px" width="192px"
	 height="192px" viewBox="0 0 192 192" enable-background="new 0 0 192 192" xml:space="preserve">
<g id="NOTICIAS23">
</g>
<g id="CALENDARI">
</g>
<g id="INCIDENCIES">
</g>
<g id="ACCEDIR">
</g>
<g id="SORTIR">
</g>
<g id="REGISTRE">
</g>
<g id="TUTORIAL">
</g>
<g id="TUTORIAL2">
</g>
<g id="CONVO">
</g>
<g id="COMUNICAT">
</g>
<g id="DIADA">
</g>
<g id="DIADA_2">
</g>
<g id="ENTRENO">
	<path fill="#790016" d="M96,15.375c-43.549,0-78.853,35.303-78.853,78.853c0,43.549,35.304,78.852,78.853,78.852
		s78.853-35.303,78.853-78.852C174.853,50.678,139.549,15.375,96,15.375z M96,165.695c-39.945,0-72.328-32.383-72.328-72.328
		c0-39.946,32.383-72.328,72.328-72.328c39.946,0,72.329,32.382,72.329,72.328C168.329,133.313,135.946,165.695,96,165.695z"/>
	<path fill="#790016" d="M96,25.834c-37.298,0-67.533,30.236-67.533,67.533c0,37.298,30.235,67.534,67.533,67.534
		c37.299,0,67.534-30.236,67.534-67.534C163.534,56.07,133.299,25.834,96,25.834z M61.218,107.571c0,2.75-2.25,5-5,5h-0.667
		c-2.75,0-5-2.25-5-5V78.238c0-2.75,2.25-5,5-5h0.667c2.75,0,5,2.25,5,5V107.571z M72.947,107.175c0,2.75-2.25,5-5,5H67.28
		c-2.75,0-5-2.25-5-5V77.842c0-2.75,2.25-5,5-5h0.667c2.75,0,5,2.25,5,5V107.175z M113.604,98.291L79.6,98.506
		c-2.75,0.018-5.015-2.218-5.032-4.968l-0.023-3.812c-0.018-2.75,2.218-5.014,4.968-5.032l34.005-0.217
		c2.75-0.018,5.014,2.218,5.031,4.968l0.024,3.813C118.589,96.009,116.354,98.273,113.604,98.291z M130.667,107.175
		c0,2.75-2.25,5-5,5H125c-2.75,0-5-2.25-5-5V77.842c0-2.75,2.25-5,5-5h0.667c2.75,0,5,2.25,5,5V107.175z M143.334,107.175
		c0,2.75-2.25,5-5,5h-0.667c-2.75,0-5-2.25-5-5V77.842c0-2.75,2.25-5,5-5h0.667c2.75,0,5,2.25,5,5V107.175z"/>
</g>
<g id="ENTRENO2">
</g>
<g id="DELEGACIÓ2">
</g>
<g id="EVENTO_SOCIAL">
</g>
<g id="ev2">
</g>
<g id="MAIL">
</g>
<g id="TELEFONO">
</g>
<g id="TLF_EMERG">
</g>
<g id="TRANS">
</g>
<g id="ACOMPAÑANT">
</g>
<g id="CONTRASEÑA">
</g>
<g id="CONTRA_x5F_2">
</g>
<g id="DADES_PERSONALS">
</g>
<g id="DADES_PERSONALS2">
</g>
<g id="EDITAR">
</g>
<g id="DELEGACIÓ">
</g>
<g id="PERFIL">
</g>
<g id="CONFIRMATS">
</g>
<g id="NO_CONFIRM">
</g>
<g id="CASTELLERS">
</g>
</svg>
