<?xml version="1.0" encoding="utf-8"?>
<!-- Generator: Adobe Illustrator 16.0.0, SVG Export Plug-In . SVG Version: 6.00 Build 0)  -->
<!DOCTYPE svg PUBLIC "-//W3C//DTD SVG 1.1//EN" "http://www.w3.org/Graphics/SVG/1.1/DTD/svg11.dtd">
<svg version="1.1" xmlns="http://www.w3.org/2000/svg" xmlns:xlink="http://www.w3.org/1999/xlink" x="0px" y="0px" width="192px"
	 height="192px" viewBox="0 0 192 192" enable-background="new 0 0 192 192" xml:space="preserve">
<g id="NOTICIAS23">
</g>
<g id="CALENDARI">
</g>
<g id="INCIDENCIES">
</g>
<g id="ACCEDIR">
</g>
<g id="SORTIR">
</g>
<g id="REGISTRE">
</g>
<g id="TUTORIAL">
</g>
<g id="TUTORIAL2">
</g>
<g id="CONVO">
</g>
<g id="COMUNICAT">
</g>
<g id="DIADA">
</g>
<g id="DIADA_2">
</g>
<g id="ENTRENO">
</g>
<g id="ENTRENO2">
</g>
<g id="DELEGACIÓ2">
</g>
<g id="EVENTO_SOCIAL">
</g>
<g id="ev2">
</g>
<g id="MAIL">
</g>
<g id="TELEFONO">
</g>
<g id="TLF_EMERG">
	<path fill="#790016" d="M96,13.656c-43.549,0-78.853,35.303-78.853,78.852S52.451,171.359,96,171.359s78.853-35.303,78.853-78.852
		S139.549,13.656,96,13.656z M96,163.977c-39.945,0-72.328-32.383-72.328-72.328C23.672,51.702,56.055,19.32,96,19.32
		c39.946,0,72.329,32.382,72.329,72.329C168.329,131.594,135.946,163.977,96,163.977z"/>
	<g>
		<path fill="#790016" d="M90.692,88.382H132.5V46.684H90.692V88.382z M97.072,63.781h10.934V51.618h7.116v12.163h10.998v7.116
			h-10.998v12.55h-7.116v-12.55H97.072V63.781z"/>
		<path fill="#790016" d="M96,24.115c-37.298,0-67.533,30.236-67.533,67.534c0,37.297,30.235,67.533,67.533,67.533
			c37.299,0,67.534-30.236,67.534-67.533C163.534,54.351,133.299,24.115,96,24.115z M123.398,127.028
			c-0.615,8.936-8.17,16.193-17.289,16.285c-3.892,0.039-7.909-0.63-11.676-1.673c-23.884-6.623-39.32-22.95-50.02-44.416
			c-1.551-3.112-1.862-6.841-2.747-10.286c0.37-6.834,3.035-12.285,7.743-16.852c2.049-1.986,8.61-3.37,10.966-2.01
			c1.122,0.649,2.04,2.003,2.586,3.243c2.171,4.93,4.271,9.897,6.134,14.948c0.453,1.233,0.299,3.026-0.275,4.226
			c-0.926,1.927-2.195,3.832-3.754,5.277c-2.361,2.188-2.279,3.996-0.604,6.627c6.419,10.097,15.04,17.434,26.108,21.978
			c1.902,0.781,3.234,0.546,4.48-1.022c1.833-2.301,3.86-4.458,5.547-6.857c1.342-1.91,2.98-2.393,4.902-1.51
			c5.502,2.53,11.01,5.071,16.327,7.955C122.826,123.482,123.492,125.665,123.398,127.028z M138.5,91.382c0,1.657-1.343,3-3,3
			H87.692c-1.657,0-3-1.343-3-3V43.684c0-1.657,1.343-3,3-3H135.5c1.657,0,3,1.343,3,3V91.382z"/>
	</g>
</g>
<g id="TRANS">
</g>
<g id="ACOMPAÑANT">
</g>
<g id="CONTRASEÑA">
</g>
<g id="CONTRA_x5F_2">
</g>
<g id="DADES_PERSONALS">
</g>
<g id="DADES_PERSONALS2">
</g>
<g id="EDITAR">
</g>
<g id="DELEGACIÓ">
</g>
<g id="PERFIL">
</g>
<g id="CONFIRMATS">
</g>
<g id="NO_CONFIRM">
</g>
<g id="CASTELLERS">
</g>
</svg>
