<?xml version="1.0" encoding="utf-8"?>
<!-- Generator: Adobe Illustrator 16.0.0, SVG Export Plug-In . SVG Version: 6.00 Build 0)  -->
<!DOCTYPE svg PUBLIC "-//W3C//DTD SVG 1.1//EN" "http://www.w3.org/Graphics/SVG/1.1/DTD/svg11.dtd">
<svg version="1.1" xmlns="http://www.w3.org/2000/svg" xmlns:xlink="http://www.w3.org/1999/xlink" x="0px" y="0px" width="192px"
	 height="192px" viewBox="0 0 192 192" enable-background="new 0 0 192 192" xml:space="preserve">
<g id="NOTICIAS23">
</g>
<g id="CALENDARI">
</g>
<g id="INCIDENCIES">
</g>
<g id="ACCEDIR">
</g>
<g id="SORTIR">
</g>
<g id="REGISTRE">
</g>
<g id="TUTORIAL">
</g>
<g id="TUTORIAL2">
</g>
<g id="CONVO">
</g>
<g id="COMUNICAT">
</g>
<g id="DIADA">
</g>
<g id="DIADA_2">
</g>
<g id="ENTRENO">
</g>
<g id="ENTRENO2">
</g>
<g id="DELEGACIÓ2">
</g>
<g id="EVENTO_SOCIAL">
</g>
<g id="ev2">
</g>
<g id="MAIL">
</g>
<g id="TELEFONO">
</g>
<g id="TLF_EMERG">
</g>
<g id="TRANS">
	<path fill="#790016" d="M96,16.234c-43.549,0-78.853,35.303-78.853,78.853c0,43.549,35.304,78.852,78.853,78.852
		s78.852-35.303,78.852-78.852C174.852,51.538,139.549,16.234,96,16.234z M96,166.555c-39.945,0-72.328-32.383-72.328-72.328
		c0-39.946,32.383-72.328,72.328-72.328c39.946,0,72.329,32.382,72.329,72.328C168.329,134.172,135.946,166.555,96,166.555z"/>
	<g>
		<path fill="#790016" d="M124.834,77.513c-19.42,0-38.568,0-57.881,0c0,8.487,0,16.546,0,24.632c19.451,0,38.676,0,57.881,0
			C124.834,93.785,124.834,85.642,124.834,77.513z"/>
		<path fill="#790016" d="M112.769,63.32c0.142-2.083-0.695-2.746-2.745-2.706c-5.588,0.107-11.18,0.035-16.77,0.035
			c-4.515,0-9.028,0-13.775,0c0,3.165,0,5.757,0,8.492c11.084,0,21.979,0,33.264,0C112.742,67.071,112.642,65.188,112.769,63.32z"/>
		<path fill="#790016" d="M71.08,110.535c-2.173,0.014-4.264,2.057-4.318,4.223c-0.057,2.281,2.123,4.514,4.399,4.5
			c2.146-0.012,4.271-2.094,4.334-4.25C75.563,112.738,73.377,110.523,71.08,110.535z"/>
		<path fill="#790016" d="M120.908,110.471c-2.275,0.02-4.154,1.883-4.215,4.176c-0.064,2.457,1.861,4.461,4.269,4.443
			c2.267-0.016,4.162-1.896,4.222-4.189C125.247,112.441,123.324,110.449,120.908,110.471z"/>
		<path fill="#790016" d="M96,26.693c-37.299,0-67.533,30.236-67.533,67.533c0,37.298,30.234,67.534,67.533,67.534
			s67.534-30.236,67.534-67.534C163.534,56.929,133.299,26.693,96,26.693z M133.165,125.324c-0.001,0.502-0.114,1.004-0.21,1.801
			c-2.428,0-4.762,0-7.343,0c0.005,0.096,0.013,0.189,0.013,0.287v4.797c0,2.871-2.036,5.201-4.547,5.201
			c-2.51,0-4.547-2.33-4.547-5.201v-4.797c0-0.088,0.008-0.176,0.013-0.264l-40.95,0.117c0.002,0.049,0.007,0.098,0.007,0.146v4.797
			c0,2.871-2.036,5.201-4.547,5.201s-4.546-2.33-4.546-5.201v-4.797c0-0.041,0.005-0.08,0.006-0.121c-2.537,0-4.896,0-7.497,0
			c-0.093-1.676-0.188-2.611-0.188-3.547c-0.008-19.189,0.009-38.38-0.016-57.571c-0.006-5.25,1.719-9.582,6.604-11.999
			c1.722-0.852,3.813-1.317,5.742-1.329c16.554-0.1,33.108-0.106,49.663-0.028c7.093,0.034,12.273,5.059,12.309,12.088
			C133.232,85.044,133.172,105.184,133.165,125.324z"/>
	</g>
</g>
<g id="ACOMPAÑANT">
</g>
<g id="CONTRASEÑA">
</g>
<g id="CONTRA_x5F_2">
</g>
<g id="DADES_PERSONALS">
</g>
<g id="DADES_PERSONALS2">
</g>
<g id="EDITAR">
</g>
<g id="DELEGACIÓ">
</g>
<g id="PERFIL">
</g>
<g id="CONFIRMATS">
</g>
<g id="NO_CONFIRM">
</g>
<g id="CASTELLERS">
</g>
</svg>
