<?xml version="1.0" encoding="utf-8"?>
<!-- Generator: Adobe Illustrator 16.0.0, SVG Export Plug-In . SVG Version: 6.00 Build 0)  -->
<!DOCTYPE svg PUBLIC "-//W3C//DTD SVG 1.1//EN" "http://www.w3.org/Graphics/SVG/1.1/DTD/svg11.dtd">
<svg version="1.1" xmlns="http://www.w3.org/2000/svg" xmlns:xlink="http://www.w3.org/1999/xlink" x="0px" y="0px" width="192px"
	 height="192px" viewBox="0 0 192 192" enable-background="new 0 0 192 192" xml:space="preserve">
<g id="NOTICIAS23">
</g>
<g id="CALENDARI">
</g>
<g id="INCIDENCIES">
</g>
<g id="ACCEDIR">
</g>
<g id="SORTIR">
</g>
<g id="REGISTRE">
</g>
<g id="TUTORIAL">
</g>
<g id="TUTORIAL2">
</g>
<g id="CONVO">
</g>
<g id="COMUNICAT">
</g>
<g id="DIADA">
</g>
<g id="DIADA_2">
</g>
<g id="ENTRENO">
</g>
<g id="ENTRENO2">
</g>
<g id="DELEGACIÓ2">
</g>
<g id="EVENTO_SOCIAL">
</g>
<g id="ev2">
</g>
<g id="MAIL">
</g>
<g id="TELEFONO">
</g>
<g id="TLF_EMERG">
</g>
<g id="TRANS">
</g>
<g id="ACOMPAÑANT">
</g>
<g id="CONTRASEÑA">
	<path fill="#790016" d="M96,18.55c-43.549,0-78.853,35.303-78.853,78.853c0,43.549,35.304,78.852,78.853,78.852
		s78.852-35.303,78.852-78.852C174.852,53.853,139.549,18.55,96,18.55z M96,168.87c-39.945,0-72.328-32.383-72.328-72.328
		c0-39.946,32.383-72.328,72.328-72.328c39.946,0,72.329,32.382,72.329,72.328C168.329,136.487,135.946,168.87,96,168.87z"/>
	<g>
		<path fill="#790016" d="M94.996,97.615c-3.468,0.014-6.582,2.193-7.66,5.367c-1.087,3.179-0.06,6.271,2.729,8.591
			c0.442,0.37,0.801,1.099,0.822,1.677c0.09,2.481,0.012,4.966,0.049,7.448c0.035,2.528,1.76,4.285,4.119,4.272
			c2.343-0.014,4.029-1.786,4.061-4.331c0.027-2.431-0.053-4.863,0.047-7.289c0.027-0.624,0.404-1.409,0.882-1.806
			c2.739-2.28,3.759-5.429,2.649-8.617C101.598,99.771,98.454,97.603,94.996,97.615z"/>
		<path fill="#790016" d="M96,29.009c-37.299,0-67.533,30.236-67.533,67.533c0,37.298,30.234,67.534,67.533,67.534
			s67.534-30.236,67.534-67.534C163.534,59.245,133.299,29.009,96,29.009z M81.156,53.827c10.521-5.107,21.02-4.776,30.82,1.944
			c5.754,3.944,8.643,9.846,9.709,16.651c0.258,1.647,0.313,3.328,0.47,5.092c-2.905,0-5.585,0-8.441,0
			c-0.312-6.288-2.831-11.481-8.056-15.184c-3.344-2.371-7.112-3.423-11.196-3.345c-8.185,0.16-17.567,6.5-18.196,18.525
			c-2.803,0-5.48,0-8.15,0C67.59,69.239,71.484,58.521,81.156,53.827z M117.563,138.567c-7.513,0.002-15.025,0-22.538,0
			c-7.565,0-15.13,0.004-22.695,0c-6.955-0.007-11.184-4.196-11.197-11.149c-0.02-10.633-0.02-21.266,0-31.899
			c0.013-6.939,4.242-11.16,11.191-11.167c15.132-0.015,30.262-0.01,45.391,0c5.547,0.003,9.469,2.731,10.767,7.556
			c0.323,1.207,0.415,2.506,0.421,3.763c0.03,10.527,0.026,21.055,0.014,31.583C128.908,134.412,124.732,138.563,117.563,138.567z"
			/>
	</g>
</g>
<g id="CONTRA_x5F_2">
</g>
<g id="DADES_PERSONALS">
</g>
<g id="DADES_PERSONALS2">
</g>
<g id="EDITAR">
</g>
<g id="DELEGACIÓ">
</g>
<g id="PERFIL">
</g>
<g id="CONFIRMATS">
</g>
<g id="NO_CONFIRM">
</g>
<g id="CASTELLERS">
</g>
</svg>
