<?xml version="1.0" encoding="utf-8"?>
<!-- Generator: Adobe Illustrator 16.0.0, SVG Export Plug-In . SVG Version: 6.00 Build 0)  -->
<!DOCTYPE svg PUBLIC "-//W3C//DTD SVG 1.1//EN" "http://www.w3.org/Graphics/SVG/1.1/DTD/svg11.dtd">
<svg version="1.1" xmlns="http://www.w3.org/2000/svg" xmlns:xlink="http://www.w3.org/1999/xlink" x="0px" y="0px" width="192px"
	 height="192px" viewBox="0 0 192 192" enable-background="new 0 0 192 192" xml:space="preserve">
<g id="NOTICIAS23">
</g>
<g id="CALENDARI">
	<path fill="#790016" d="M96,19.298c-43.549,0-78.853,35.303-78.853,78.853c0,43.549,35.304,78.852,78.853,78.852
		s78.853-35.303,78.853-78.852C174.853,54.601,139.549,19.298,96,19.298z M96,169.618c-39.945,0-72.328-32.383-72.328-72.328
		c0-39.946,32.383-72.328,72.328-72.328c39.946,0,72.329,32.382,72.329,72.328C168.329,137.235,135.946,169.618,96,169.618z"/>
	<path fill="#790016" d="M96,29.757c-37.298,0-67.533,30.236-67.533,67.533c0,37.298,30.235,67.534,67.533,67.534
		c37.299,0,67.534-30.236,67.534-67.534C163.534,59.993,133.299,29.757,96,29.757z M117.027,55.838c0-2.642,1.09-4.804,2.42-4.804
		c1.328,0,2.417,2.162,2.417,4.804v6.406c0,2.643-1.089,4.806-2.417,4.806c-1.33,0-2.42-2.163-2.42-4.806V55.838z M70.342,55.838
		c0-2.642,1.089-4.804,2.419-4.804c1.329,0,2.417,2.162,2.417,4.804v6.406c0,2.643-1.088,4.805-2.417,4.805
		c-1.33,0-2.419-2.162-2.419-4.805V55.838z M135.844,135.071c0,4.297-2.766,7.813-6.148,7.813H61.249
		c-3.383,0-6.148-3.517-6.148-7.813V89.6c0-4.297,2.766-7.814,6.148-7.814h68.446c3.383,0,6.148,3.517,6.148,7.814V135.071z
		 M135.888,75.035c0,2.373-2.74,4.314-6.089,4.314H61.189c-3.349,0-6.089-1.941-6.089-4.314v-8.652c0-2.373,2.74-4.314,6.089-4.314
		h7.714v2.61c0,2.374,1.736,4.315,3.857,4.315s3.856-1.942,3.856-4.315v-2.61h38.972v2.61c0,2.374,1.736,4.315,3.857,4.315
		s3.855-1.942,3.855-4.315v-2.61h6.497c3.349,0,6.089,1.941,6.089,4.314V75.035z"/>
	<rect x="62.334" y="89.5" fill="#790016" width="13.167" height="11.167"/>
	<rect x="79.834" y="89.5" fill="#790016" width="13.167" height="11.167"/>
	<rect x="97.501" y="89.5" fill="#790016" width="13.167" height="11.167"/>
	<rect x="116.168" y="89.5" fill="#790016" width="13.167" height="11.167"/>
	<rect x="62.334" y="104.166" fill="#790016" width="13.167" height="11.168"/>
	<rect x="79.834" y="104.166" fill="#790016" width="13.167" height="11.168"/>
	<rect x="62.334" y="119.499" fill="#790016" width="13.167" height="11.168"/>
	<rect x="79.834" y="119.499" fill="#790016" width="13.167" height="11.168"/>
	<rect x="97.501" y="104.166" fill="#790016" width="13.167" height="11.168"/>
	<rect x="116.168" y="104.166" fill="#790016" width="13.167" height="11.168"/>
</g>
<g id="INCIDENCIES">
</g>
<g id="ACCEDIR">
</g>
<g id="SORTIR">
</g>
<g id="REGISTRE">
</g>
<g id="TUTORIAL">
</g>
<g id="TUTORIAL2">
</g>
<g id="CONVO">
</g>
<g id="COMUNICAT">
</g>
<g id="DIADA">
</g>
<g id="DIADA_2">
</g>
<g id="ENTRENO">
</g>
<g id="ENTRENO2">
</g>
<g id="DELEGACIÓ2">
</g>
<g id="EVENTO_SOCIAL">
</g>
<g id="ev2">
</g>
<g id="MAIL">
</g>
<g id="TELEFONO">
</g>
<g id="TLF_EMERG">
</g>
<g id="TRANS">
</g>
<g id="ACOMPAÑANT">
</g>
<g id="CONTRASEÑA">
</g>
<g id="CONTRA_x5F_2">
</g>
<g id="DADES_PERSONALS">
</g>
<g id="DADES_PERSONALS2">
</g>
<g id="EDITAR">
</g>
<g id="DELEGACIÓ">
</g>
<g id="PERFIL">
</g>
<g id="CONFIRMATS">
</g>
<g id="NO_CONFIRM">
</g>
<g id="CASTELLERS">
</g>
</svg>
