<?xml version="1.0" encoding="utf-8"?>
<!-- Generator: Adobe Illustrator 16.0.0, SVG Export Plug-In . SVG Version: 6.00 Build 0)  -->
<!DOCTYPE svg PUBLIC "-//W3C//DTD SVG 1.1//EN" "http://www.w3.org/Graphics/SVG/1.1/DTD/svg11.dtd">
<svg version="1.1" xmlns="http://www.w3.org/2000/svg" xmlns:xlink="http://www.w3.org/1999/xlink" x="0px" y="0px" width="192px"
	 height="192px" viewBox="0 0 192 192" enable-background="new 0 0 192 192" xml:space="preserve">
<g id="NOTICIAS23">
</g>
<g id="CALENDARI">
</g>
<g id="INCIDENCIES">
</g>
<g id="ACCEDIR">
</g>
<g id="SORTIR">
</g>
<g id="REGISTRE">
</g>
<g id="TUTORIAL">
</g>
<g id="TUTORIAL2">
</g>
<g id="CONVO">
</g>
<g id="COMUNICAT">
</g>
<g id="DIADA">
</g>
<g id="DIADA_2">
</g>
<g id="ENTRENO">
</g>
<g id="ENTRENO2">
</g>
<g id="DELEGACIÓ2">
</g>
<g id="EVENTO_SOCIAL">
</g>
<g id="ev2">
</g>
<g id="MAIL">
</g>
<g id="TELEFONO">
</g>
<g id="TLF_EMERG">
</g>
<g id="TRANS">
</g>
<g id="ACOMPAÑANT">
</g>
<g id="CONTRASEÑA">
</g>
<g id="CONTRA_x5F_2">
</g>
<g id="DADES_PERSONALS">
</g>
<g id="DADES_PERSONALS2">
</g>
<g id="EDITAR">
</g>
<g id="DELEGACIÓ">
</g>
<g id="PERFIL">
</g>
<g id="CONFIRMATS">
</g>
<g id="NO_CONFIRM">
</g>
<g id="CASTELLERS">
</g>
<g id="COMERCIAL">
</g>
<g id="COMERCIAL2">
</g>
<g id="CARREC">
</g>
<g id="REFRESH">
	<path fill="#790016" d="M98.335,11.482c-43.55,0-78.854,35.303-78.854,78.853c0,43.548,35.304,78.851,78.854,78.851
		c43.548,0,78.852-35.303,78.852-78.851C177.187,46.785,141.883,11.482,98.335,11.482z M98.335,161.803
		c-39.946,0-72.329-32.383-72.329-72.329s32.383-72.328,72.329-72.328c39.945,0,72.328,32.382,72.328,72.328
		S138.28,161.803,98.335,161.803z"/>
	<path fill="#790016" d="M98.335,21.941c-37.299,0-67.535,30.236-67.535,67.533s30.236,67.534,67.535,67.534
		c37.297,0,67.533-30.236,67.533-67.534S135.632,21.941,98.335,21.941z M68.66,119.061c-2.801,6.324-5.555,12.539-8.308,18.756
		c-0.444-0.016-0.89-0.031-1.335-0.045c-0.414-1.467-1.016-2.908-1.213-4.402c-1.752-13.318-3.395-26.65-5.172-39.966
		c-0.289-2.162,0.033-3.278,2.491-2.958c14.203,1.847,28.411,3.654,42.608,5.541c0.635,0.084,1.186,0.802,1.775,1.225
		c-0.588,0.691-1.037,1.686-1.785,2.023c-4.784,2.174-9.649,4.17-14.453,6.301c-1.281,0.57-2.439,1.42-4.035,2.365
		c8.641,11.377,20.003,14.012,33.301,12.336c1.078,4.762,2.084,9.211,3.083,13.625C104.885,139.854,83.546,133.162,68.66,119.061z
		 M140.809,89.919c-13.855-1.861-27.726-3.619-41.58-5.488c-0.732-0.099-1.373-0.873-2.056-1.333
		c0.532-0.629,0.938-1.534,1.614-1.84c4.787-2.161,9.646-4.165,14.443-6.302c1.374-0.612,2.625-1.498,4.311-2.478
		c-8.895-11.362-20.195-14.109-33.354-12.254c-1.059-4.724-2.076-9.26-3.233-14.417c18.597-2.964,34.319,1.343,47.083,15.64
		c2.427-5.564,4.698-10.877,7.08-16.141c0.419-0.926,1.301-1.643,1.969-2.456c0.51,0.985,1.338,1.926,1.479,2.96
		c1.862,13.637,3.564,27.297,5.468,40.928C144.441,89.663,143.467,90.278,140.809,89.919z"/>
</g>
</svg>
