<?xml version="1.0" encoding="utf-8"?>
<!-- Generator: Adobe Illustrator 16.0.0, SVG Export Plug-In . SVG Version: 6.00 Build 0)  -->
<!DOCTYPE svg PUBLIC "-//W3C//DTD SVG 1.1//EN" "http://www.w3.org/Graphics/SVG/1.1/DTD/svg11.dtd">
<svg version="1.1" xmlns="http://www.w3.org/2000/svg" xmlns:xlink="http://www.w3.org/1999/xlink" x="0px" y="0px" width="192px"
	 height="192px" viewBox="0 0 192 192" enable-background="new 0 0 192 192" xml:space="preserve">
<g id="NOTICIAS23">
</g>
<g id="CALENDARI">
</g>
<g id="INCIDENCIES">
</g>
<g id="ACCEDIR">
</g>
<g id="SORTIR">
</g>
<g id="REGISTRE">
</g>
<g id="TUTORIAL">
</g>
<g id="TUTORIAL2">
</g>
<g id="CONVO">
</g>
<g id="COMUNICAT">
</g>
<g id="DIADA">
</g>
<g id="DIADA_2">
</g>
<g id="ENTRENO">
</g>
<g id="ENTRENO2">
</g>
<g id="DELEGACIÓ2">
</g>
<g id="EVENTO_SOCIAL">
</g>
<g id="ev2">
</g>
<g id="MAIL">
</g>
<g id="TELEFONO">
</g>
<g id="TLF_EMERG">
</g>
<g id="TRANS">
</g>
<g id="ACOMPAÑANT">
	<path fill="#790016" d="M100.682,17.953c-43.549,0-78.853,35.303-78.853,78.853c0,43.549,35.304,78.852,78.853,78.852
		s78.853-35.303,78.853-78.852C179.534,53.256,144.23,17.953,100.682,17.953z M100.682,168.273
		c-39.945,0-72.328-32.383-72.328-72.328c0-39.946,32.383-72.328,72.328-72.328c39.946,0,72.329,32.382,72.329,72.328
		C173.011,135.891,140.628,168.273,100.682,168.273z"/>
	<path fill-rule="evenodd" clip-rule="evenodd" fill="#790016" d="M61.496,137.606c20.457,0,40.913,0,61.37,0
		c-0.015,0.03-0.026,0.086-0.045,0.086c-0.117,0.007-0.235,0.003-0.354,0.003c-20.19,0-40.382,0-60.572-0.003
		C61.762,137.692,61.629,137.637,61.496,137.606z"/>
	<path fill="#790016" d="M100.682,28.412c-37.298,0-67.533,30.236-67.533,67.533c0,37.298,30.235,67.534,67.533,67.534
		c37.299,0,67.534-30.236,67.534-67.534C168.216,58.648,137.98,28.412,100.682,28.412z M103.732,49.411
		c2.498-1.42,5.281-2.44,8.301-2.907c0.43-0.065,0.857-0.169,1.285-0.256c1.502,0,2.998,0,4.496,0
		c0.588,0.109,1.172,0.231,1.761,0.331c2.864,0.471,5.538,1.456,7.956,2.833c6.385,3.637,10.924,10.096,11.955,17.716
		c1.734,12.826-7.002,24.734-19.756,26.932c-2.184,0.377-4.348,0.439-6.451,0.234c0.266-1.027,0.439-2.081,0.566-3.147
		c0.24-1.983,0.259-4.021-0.02-6.09c-1.352-9.979-8.705-17.981-18.371-20.229c-0.51-0.119-1.02-0.233-1.541-0.319
		c-0.529-0.089-1.051-0.196-1.577-0.297C93.981,57.963,98.092,52.62,103.732,49.411z M84.964,66.743
		c0.397-0.061,0.792-0.157,1.187-0.237c1.383,0,2.762,0,4.145,0c0.541,0.101,1.079,0.213,1.623,0.304
		c9.604,1.583,17.042,9.258,18.353,18.941c1.599,11.822-6.454,22.799-18.21,24.825c-12.248,2.107-23.889-6.249-25.732-18.482
		C64.488,79.908,72.781,68.626,84.964,66.743z M120.994,137.606c-21.813,0-43.623,0-65.436,0c0-0.978,0-1.955,0-2.936
		c0.091-0.659,0.184-1.32,0.271-1.981c1.404-10.295,6.117-18.628,14.625-24.728c0.383-0.274,0.601-0.285,0.979,0.043
		c4.732,4.101,10.247,6.266,16.504,6.343c6.559,0.082,12.324-2.12,17.287-6.416c0.096-0.081,0.189-0.167,0.284-0.246
		c0.022-0.021,0.057-0.027,0.17-0.083c0.95,0.733,1.97,1.446,2.911,2.254c6.456,5.527,10.321,12.538,11.836,20.867
		c0.227,1.254,0.318,2.532,0.48,3.8c0.01,0.083,0.059,0.162,0.088,0.242C120.994,135.713,120.994,136.659,120.994,137.606z
		 M107.275,106.039c2.455-2.266,3.387-5.068,4.73-8.134c1.066,0.136,2.145,0.231,3.252,0.245c7.117,0.089,13.371-2.3,18.756-6.961
		c0.104-0.089,0.205-0.182,0.309-0.267c0.024-0.023,0.059-0.031,0.183-0.091c1.03,0.795,2.138,1.569,3.159,2.446
		c7.004,5.996,11.197,13.602,12.841,22.638c0.245,1.359,0.345,2.747,0.521,4.121c0.01,0.091,0.063,0.177,0.096,0.264
		c0,1.026,0,2.054,0,3.082c-9.885,0-19.77,0-29.652,0c-2.227-4.587-5.199-9.209-9.307-12.725"/>
	<path fill="#790016" d="M125.355,123.361c9.111,0,18.223,0.001,27.333,0.001c0.128,0,0.257,0.005,0.384-0.003
		c0.02,0,0.033-0.061,0.049-0.093c-9.271,0-18.541,0-27.811,0C125.325,123.298,125.342,123.33,125.355,123.361z"/>
</g>
<g id="CONTRASEÑA">
</g>
<g id="CONTRA_x5F_2">
</g>
<g id="DADES_PERSONALS">
</g>
<g id="DADES_PERSONALS2">
</g>
<g id="EDITAR">
</g>
<g id="DELEGACIÓ">
</g>
<g id="PERFIL">
</g>
<g id="CONFIRMATS">
</g>
<g id="NO_CONFIRM">
</g>
<g id="CASTELLERS">
</g>
</svg>
