<?xml version="1.0" encoding="utf-8"?>
<!-- Generator: Adobe Illustrator 16.0.0, SVG Export Plug-In . SVG Version: 6.00 Build 0)  -->
<!DOCTYPE svg PUBLIC "-//W3C//DTD SVG 1.1//EN" "http://www.w3.org/Graphics/SVG/1.1/DTD/svg11.dtd">
<svg version="1.1" xmlns="http://www.w3.org/2000/svg" xmlns:xlink="http://www.w3.org/1999/xlink" x="0px" y="0px" width="192px"
	 height="192px" viewBox="0 0 192 192" enable-background="new 0 0 192 192" xml:space="preserve">
<g id="NOTICIAS23">
</g>
<g id="CALENDARI">
</g>
<g id="INCIDENCIES">
</g>
<g id="ACCEDIR">
</g>
<g id="SORTIR">
</g>
<g id="REGISTRE">
</g>
<g id="TUTORIAL">
</g>
<g id="TUTORIAL2">
</g>
<g id="CONVO">
</g>
<g id="COMUNICAT">
</g>
<g id="DIADA">
</g>
<g id="DIADA_2">
</g>
<g id="ENTRENO">
</g>
<g id="ENTRENO2">
</g>
<g id="DELEGACIÓ2">
</g>
<g id="EVENTO_SOCIAL">
</g>
<g id="ev2">
</g>
<g id="MAIL">
</g>
<g id="TELEFONO">
</g>
<g id="TLF_EMERG">
</g>
<g id="TRANS">
</g>
<g id="ACOMPAÑANT">
</g>
<g id="CONTRASEÑA">
</g>
<g id="CONTRA_x5F_2">
</g>
<g id="DADES_PERSONALS">
</g>
<g id="DADES_PERSONALS2">
</g>
<g id="EDITAR">
	<path fill="#790016" d="M94.812,22.549c-43.549,0-78.853,35.303-78.853,78.853c0,43.549,35.304,78.852,78.853,78.852
		s78.853-35.303,78.853-78.852C173.664,57.853,138.36,22.549,94.812,22.549z M94.812,172.87c-39.945,0-72.329-32.383-72.329-72.328
		c0-39.946,32.384-72.328,72.329-72.328c39.946,0,72.329,32.382,72.329,72.328C167.141,140.487,134.758,172.87,94.812,172.87z"/>
	<path fill="#790016" d="M94.812,33.008c-37.298,0-67.533,30.236-67.533,67.533c0,37.298,30.235,67.534,67.533,67.534
		c37.299,0,67.534-30.236,67.534-67.534C162.346,63.244,132.11,33.008,94.812,33.008z M73.602,137.608
		c-5.959,1.195-11.916,2.392-17.873,3.592c-0.143,0.029-0.275,0.109-0.414,0.165c-0.197-0.041-0.563,0.169-0.467-0.313
		c0.413-1.95,0.845-3.897,1.24-5.852c0.892-4.403,1.762-8.811,2.654-13.214c0.074-0.369,0.242-0.719,0.337-0.989
		c5.271,5.27,10.516,10.516,15.861,15.862C74.877,137.462,74.208,137.487,73.602,137.608z M77.957,133.505
		c-5.152-5.156-10.439-10.446-15.668-15.679c14.768-14.772,29.67-29.678,44.533-44.544c5.207,5.206,10.481,10.481,15.68,15.679
		C107.666,103.797,92.775,118.687,77.957,133.505z M132.986,78.879c-2.309,2.558-4.949,4.817-7.376,7.145
		c-5.086-5.086-10.333-10.333-15.696-15.698c0.411-0.373,0.926-0.807,1.404-1.278c1.369-1.352,2.766-2.68,4.074-4.088
		c1.651-1.777,3.502-3.16,5.967-3.535c0.521,0,1.042,0,1.562,0c2.456,0.404,4.302,1.797,5.945,3.572
		c1.13,1.221,2.302,2.41,3.538,3.521C135.451,71.261,135.512,76.081,132.986,78.879z"/>
</g>
<g id="DELEGACIÓ">
</g>
<g id="PERFIL">
</g>
<g id="CONFIRMATS">
</g>
<g id="NO_CONFIRM">
</g>
<g id="CASTELLERS">
</g>
</svg>
