<?xml version="1.0" encoding="utf-8"?>
<!-- Generator: Adobe Illustrator 16.0.0, SVG Export Plug-In . SVG Version: 6.00 Build 0)  -->
<!DOCTYPE svg PUBLIC "-//W3C//DTD SVG 1.1//EN" "http://www.w3.org/Graphics/SVG/1.1/DTD/svg11.dtd">
<svg version="1.1" xmlns="http://www.w3.org/2000/svg" xmlns:xlink="http://www.w3.org/1999/xlink" x="0px" y="0px" width="192px"
	 height="192px" viewBox="0 0 192 192" enable-background="new 0 0 192 192" xml:space="preserve">
<g id="NOTICIAS23">
</g>
<g id="CALENDARI">
</g>
<g id="INCIDENCIES">
</g>
<g id="ACCEDIR">
</g>
<g id="SORTIR">
</g>
<g id="REGISTRE">
</g>
<g id="TUTORIAL">
</g>
<g id="TUTORIAL2">
</g>
<g id="CONVO">
</g>
<g id="COMUNICAT">
</g>
<g id="DIADA">
</g>
<g id="DIADA_2">
</g>
<g id="ENTRENO">
</g>
<g id="ENTRENO2">
</g>
<g id="DELEGACIÓ2">
</g>
<g id="EVENTO_SOCIAL">
</g>
<g id="ev2">
</g>
<g id="MAIL">
</g>
<g id="TELEFONO">
</g>
<g id="TLF_EMERG">
</g>
<g id="TRANS">
</g>
<g id="ACOMPAÑANT">
</g>
<g id="CONTRASEÑA">
</g>
<g id="CONTRA_x5F_2">
</g>
<g id="DADES_PERSONALS">
</g>
<g id="DADES_PERSONALS2">
</g>
<g id="EDITAR">
</g>
<g id="DELEGACIÓ">
</g>
<g id="PERFIL">
	<path fill="#790016" d="M96,23.026c-43.549,0-78.853,35.303-78.853,78.853c0,43.549,35.304,78.852,78.853,78.852
		s78.852-35.303,78.852-78.852C174.852,58.33,139.549,23.026,96,23.026z M96,173.347c-39.945,0-72.328-32.383-72.328-72.328
		C23.672,61.073,56.055,28.69,96,28.69c39.946,0,72.329,32.382,72.329,72.328C168.329,140.964,135.946,173.347,96,173.347z"/>
	<path fill="#790016" d="M96,33.485c-37.299,0-67.533,30.236-67.533,67.533c0,37.298,30.234,67.534,67.533,67.534
		s67.534-30.236,67.534-67.534C163.534,63.721,133.299,33.485,96,33.485z M90.847,53.068c0.499-0.077,0.991-0.197,1.489-0.297
		c1.732,0,3.462,0,5.194,0c0.679,0.126,1.353,0.267,2.034,0.382c12.043,1.983,21.368,11.607,23.012,23.749
		c2.004,14.822-8.094,28.585-22.83,31.124c-15.357,2.645-29.953-7.834-32.266-23.171C65.174,69.574,75.572,55.429,90.847,53.068z
		 M136.021,141.918c-27.348,0-54.694,0-82.043,0c0-1.229,0-2.455,0-3.682c0.113-0.828,0.23-1.656,0.342-2.484
		c1.76-12.91,7.669-23.357,18.334-31.004c0.48-0.344,0.754-0.359,1.227,0.053c5.936,5.141,12.85,7.855,20.694,7.955
		c8.224,0.102,15.452-2.66,21.675-8.045c0.119-0.102,0.236-0.209,0.355-0.311c0.029-0.023,0.071-0.033,0.213-0.104
		c1.191,0.92,2.47,1.814,3.65,2.826c8.095,6.932,12.94,15.719,14.84,26.164c0.285,1.572,0.4,3.174,0.602,4.764
		c0.014,0.104,0.072,0.203,0.111,0.303C136.021,139.541,136.021,140.729,136.021,141.918z"/>
	<path fill-rule="evenodd" clip-rule="evenodd" fill="#790016" d="M53.979,141.918c27.349,0,54.695,0,82.043,0
		c-0.018,0.037-0.035,0.111-0.061,0.111c-0.156,0.012-0.315,0.006-0.473,0.006c-26.99,0-53.983,0-80.976-0.006
		C54.334,142.029,54.156,141.955,53.979,141.918z"/>
</g>
<g id="CONFIRMATS">
</g>
<g id="NO_CONFIRM">
</g>
<g id="CASTELLERS">
</g>
</svg>
