<?xml version="1.0" encoding="utf-8"?>
<!-- Generator: Adobe Illustrator 16.0.0, SVG Export Plug-In . SVG Version: 6.00 Build 0)  -->
<!DOCTYPE svg PUBLIC "-//W3C//DTD SVG 1.1//EN" "http://www.w3.org/Graphics/SVG/1.1/DTD/svg11.dtd">
<svg version="1.1" xmlns="http://www.w3.org/2000/svg" xmlns:xlink="http://www.w3.org/1999/xlink" x="0px" y="0px" width="192px"
	 height="192px" viewBox="0 0 192 192" enable-background="new 0 0 192 192" xml:space="preserve">
<g id="NOTICIAS23">
</g>
<g id="CALENDARI">
</g>
<g id="INCIDENCIES">
</g>
<g id="ACCEDIR">
</g>
<g id="SORTIR">
</g>
<g id="REGISTRE">
</g>
<g id="TUTORIAL">
</g>
<g id="TUTORIAL2">
</g>
<g id="CONVO">
</g>
<g id="COMUNICAT">
</g>
<g id="Capa_65">
</g>
<g id="DIADA">
</g>
<g id="DIADA_2">
</g>
<g id="ENTRENO">
</g>
<g id="ENTRENO2">
</g>
<g id="DELEGACIÓ2">
</g>
<g id="EVENTO_SOCIAL">
</g>
<g id="ev2">
</g>
<g id="MAIL">
</g>
<g id="TELEFONO">
</g>
<g id="TLF_EMERG">
</g>
<g id="TRANS">
</g>
<g id="ACOMPAÑANT">
</g>
<g id="CONTRASEÑA">
</g>
<g id="CONTRA_x5F_2">
</g>
<g id="DADES_PERSONALS">
</g>
<g id="DADES_PERSONALS2">
</g>
<g id="EDITAR">
</g>
<g id="DELEGACIÓ">
</g>
<g id="PERFIL">
</g>
<g id="CONFIRMATS">
</g>
<g id="NO_CONFIRM">
</g>
<g id="CASTELLERS">
</g>
<g id="COMERCIAL">
</g>
<g id="COMERCIAL2">
</g>
<g id="CARREC">
</g>
<g id="REFRESH">
</g>
<g id="camara">
</g>
<g id="musics">
</g>
<g id="Capa_39">
</g>
<g id="LLOC">
</g>
<g id="ALÇADA">
</g>
<g id="MANS_ALÇADES">
</g>
<g id="PESO">
</g>
<g id="ma">
</g>
<g id="primeres">
</g>
<g id="Capa_46">
</g>
<g id="Capa_47">
</g>
<g id="Capa_66">
</g>
<g id="Capa_67">
</g>
<g id="Capa_48">
</g>
<g id="asegurat">
</g>
<g id="taller">
</g>
<g id="Capa_51">
</g>
<g id="Capa_52">
</g>
<g id="Capa_53">
</g>
<g id="Capa_54">
</g>
<g id="Capa_55">
</g>
<g id="Capa_56">
</g>
<g id="Capa_57">
</g>
<g id="Capa_58">
</g>
<g id="Capa_59">
</g>
<g id="Capa_60">
</g>
<g id="Capa_68">
	<path fill="#616B7C" d="M96,26.748c-37.298,0-67.533,30.235-67.533,67.533S58.702,161.815,96,161.815
		c37.299,0,67.534-30.236,67.534-67.534S133.299,26.748,96,26.748z M141.505,129.023c-0.78,1.53-1.741,2.993-2.792,4.354
		c-1.352,1.753-3.098,3.085-5.145,3.977c-0.456,0.199-0.949,0.311-1.658,0.535c-0.475-0.365-1.096-0.697-1.518-1.196
		c-1.445-1.717-2.828-3.488-4.224-5.246c-7.034-8.857-14.22-17.589-22.159-25.656c-2.254-2.291-4.525-4.564-6.79-6.846
		c-3.316,3.616-6.61,7.253-9.851,10.936c-4.39,4.99-8.514,10.219-12.651,15.425c-3.123,3.93-6.082,7.989-9.109,11.998
		c-1.052,1.394-1.803,1.713-3.379,0.908c-1.53-0.78-2.993-1.741-4.354-2.792c-1.753-1.352-3.085-3.098-3.977-5.145
		c-0.199-0.456-0.311-0.949-0.535-1.658c0.365-0.475,0.697-1.096,1.196-1.518c1.717-1.445,3.488-2.828,5.246-4.224
		c8.857-7.034,17.589-14.22,25.656-22.159c2.279-2.244,4.543-4.504,6.813-6.758c-5.095-5.111-10.2-10.214-15.31-15.311
		c-2.323-2.317-4.766-4.517-7.183-6.739c-0.658-0.604-1.431-1.079-2.133-1.639c-0.228-0.182-0.59-0.476-0.558-0.656
		c0.158-0.85-0.393-1.168-0.937-1.589c-0.743-0.576-1.448-1.212-2.092-1.897c-0.145-0.153-0.087-0.736,0.088-0.906
		c0.642-0.631,0.528-1.097-0.079-1.667c-0.591-0.556-1.026-1.284-1.648-1.796c-0.645-0.529-1.431-0.89-2.153-1.324
		c-0.401-0.242-0.899-0.403-1.188-0.742c-1.708-2.016-3.977-3.343-6.002-4.968c-0.871-0.698-0.941-0.835-0.217-1.655
		c0.704-0.799,1.49-1.523,2.229-2.292c0.407-0.424,0.679-0.189,0.956,0.15c1.046,1.282,2.068,2.585,3.151,3.833
		c0.602,0.692,1.36,1.248,1.949,1.946c0.625,0.741,1.134,1.578,1.69,2.375c0.259,0.37,0.456,0.804,0.775,1.107
		c0.712,0.676,1.496,1.274,2.227,1.931c0.423,0.38,0.779,0.428,1.244,0.041c0.932-0.776,0.894-0.723,1.521,0.29
		c0.312,0.505,0.866,0.86,1.313,1.282c0.543,0.514,0.926,1.311,1.916,1.029c0.119-0.034,0.367,0.16,0.463,0.307
		c1.58,2.434,3.787,4.284,5.84,6.27c4.621,4.467,9.235,8.943,13.947,13.313c1.648,1.529,3.297,3.059,4.948,4.586
		c5.198-5.18,10.386-10.37,15.568-15.565c2.317-2.323,4.517-4.766,6.739-7.183c0.604-0.658,1.079-1.431,1.639-2.133
		c0.182-0.228,0.476-0.59,0.656-0.558c0.85,0.158,1.168-0.393,1.589-0.937c0.576-0.743,1.212-1.448,1.897-2.092
		c0.153-0.145,0.736-0.087,0.906,0.088c0.631,0.642,1.097,0.528,1.667-0.079c0.556-0.591,1.284-1.026,1.796-1.648
		c0.529-0.645,0.89-1.431,1.324-2.153c0.242-0.401,0.403-0.899,0.742-1.188c2.016-1.708,3.343-3.977,4.968-6.002
		c0.698-0.871,0.835-0.941,1.655-0.217c0.799,0.704,1.523,1.49,2.292,2.229c0.424,0.407,0.189,0.679-0.15,0.956
		c-1.282,1.046-2.585,2.068-3.833,3.151c-0.692,0.602-1.248,1.36-1.946,1.949c-0.741,0.625-1.578,1.134-2.375,1.69
		c-0.37,0.259-0.804,0.456-1.107,0.775c-0.676,0.712-1.274,1.496-1.931,2.227c-0.38,0.423-0.428,0.779-0.041,1.244
		c0.776,0.932,0.723,0.894-0.29,1.521c-0.505,0.312-0.86,0.866-1.282,1.313c-0.514,0.543-1.311,0.926-1.029,1.916
		c0.034,0.119-0.16,0.367-0.307,0.463c-2.434,1.58-4.284,3.787-6.27,5.84c-4.467,4.621-8.943,9.235-13.313,13.947
		c-1.543,1.664-3.086,3.328-4.628,4.993c3.704,3.399,7.428,6.776,11.201,10.096c4.99,4.39,10.219,8.514,15.425,12.651
		c3.93,3.123,7.989,6.082,11.998,9.109C141.99,126.696,142.31,127.447,141.505,129.023z"/>
</g>
<g id="Capa_69">
</g>
<g id="Capa_61">
</g>
<g id="Capa_62">
</g>
<g id="Capa_63">
</g>
<g id="Capa_64">
</g>
</svg>
