<?xml version="1.0" encoding="utf-8"?>
<!-- Generator: Adobe Illustrator 16.0.0, SVG Export Plug-In . SVG Version: 6.00 Build 0)  -->
<!DOCTYPE svg PUBLIC "-//W3C//DTD SVG 1.1//EN" "http://www.w3.org/Graphics/SVG/1.1/DTD/svg11.dtd">
<svg version="1.1" xmlns="http://www.w3.org/2000/svg" xmlns:xlink="http://www.w3.org/1999/xlink" x="0px" y="0px" width="192px"
	 height="192px" viewBox="0 0 192 192" enable-background="new 0 0 192 192" xml:space="preserve">
<g id="NOTICIAS23">
</g>
<g id="CALENDARI">
</g>
<g id="INCIDENCIES">
</g>
<g id="ACCEDIR">
</g>
<g id="SORTIR">
</g>
<g id="REGISTRE">
</g>
<g id="TUTORIAL">
</g>
<g id="TUTORIAL2">
</g>
<g id="CONVO">
</g>
<g id="COMUNICAT">
</g>
<g id="DIADA">
</g>
<g id="DIADA_2">
</g>
<g id="ENTRENO">
</g>
<g id="ENTRENO2">
</g>
<g id="DELEGACIÓ2">
</g>
<g id="EVENTO_SOCIAL">
</g>
<g id="ev2">
</g>
<g id="MAIL">
</g>
<g id="TELEFONO">
</g>
<g id="TLF_EMERG">
</g>
<g id="TRANS">
</g>
<g id="ACOMPAÑANT">
</g>
<g id="CONTRASEÑA">
</g>
<g id="CONTRA_x5F_2">
</g>
<g id="DADES_PERSONALS">
</g>
<g id="DADES_PERSONALS2">
</g>
<g id="EDITAR">
</g>
<g id="DELEGACIÓ">
</g>
<g id="PERFIL">
</g>
<g id="CONFIRMATS">
</g>
<g id="NO_CONFIRM">
</g>
<g id="CASTELLERS">
</g>
<g id="COMERCIAL">
</g>
<g id="COMERCIAL2">
</g>
<g id="CARREC">
</g>
<g id="REFRESH">
</g>
<g id="camara">
</g>
<g id="musics">
</g>
<g id="Capa_39">
</g>
<g id="LLOC">
	<path fill="#790016" d="M99.002,15.06c-43.551,0-78.854,35.304-78.854,78.853s35.304,78.852,78.854,78.852
		c43.547,0,78.85-35.303,78.85-78.852S142.549,15.06,99.002,15.06z M99.002,165.381c-39.947,0-72.33-32.383-72.33-72.329
		s32.383-72.328,72.33-72.328c39.944,0,72.327,32.382,72.327,72.328S138.946,165.381,99.002,165.381z"/>
	<path fill="#790016" d="M99.002,25.519c-37.301,0-67.536,30.235-67.536,67.533s30.235,67.534,67.536,67.534
		c37.296,0,67.531-30.236,67.531-67.534S136.298,25.519,99.002,25.519z M133.935,134.123c-8.56,0.036-17.12,0.016-25.683,0.014
		c-0.114,0-0.226-0.029-0.511-0.067c0-8.719,0-17.379,0-26.103c-0.388-0.018-0.675-0.04-0.96-0.04
		c-5.189-0.003-10.379,0.014-15.568-0.021c-0.775-0.005-0.988,0.204-0.984,0.982c0.026,8.003,0.017,16.007,0.017,24.011
		c0,0.374,0,0.749,0,1.242c-0.41,0-0.722,0-1.034,0c-8.209,0-16.419,0.002-24.628,0c-3.168-0.003-4.908-1.723-4.911-4.887
		c-0.007-10.524,0.006-21.05-0.017-31.575c-0.005-0.793,0.289-1.27,0.889-1.76c6.024-4.932,12.021-9.899,18.031-14.85
		c5.376-4.431,10.762-8.851,16.14-13.279c1.419-1.168,2.825-2.35,4.277-3.558c2.131,1.752,4.207,3.458,6.281,5.167
		c6.146,5.062,12.293,10.124,18.438,15.188c4.697,3.872,9.398,7.738,14.075,11.636c0.287,0.242,0.517,0.736,0.519,1.113
		c0.026,10.788,0.038,21.579,0.008,32.368C138.305,132.307,136.513,134.114,133.935,134.123z M149.748,96.871
		c-1.248,1.512-2.369,1.646-3.908,0.374c-4.104-3.394-8.18-6.825-12.271-10.237c-3.595-3-7.199-5.993-10.798-8.99
		c-3.714-3.092-7.428-6.182-11.137-9.277c-4-3.338-8.006-6.674-11.995-10.027c-0.468-0.394-0.797-0.404-1.271-0.004
		c-3.648,3.078-7.313,6.136-10.977,9.193c-3.642,3.039-7.292,6.069-10.937,9.104c-3.667,3.055-7.333,6.108-10.999,9.163
		C61.361,89.58,57.271,92.99,53.177,96.4c-0.472,0.393-0.93,0.807-1.43,1.161c-1.15,0.814-2.203,0.754-3.127-0.315
		c-1.604-1.852-3.127-3.773-4.684-5.665c0-0.411,0-0.821,0-1.231c0.891-0.91,1.712-1.9,2.682-2.715
		c6.881-5.779,13.786-11.526,20.691-17.273c5.288-4.398,10.591-8.777,15.881-13.173c3.514-2.918,6.993-5.876,10.528-8.767
		c3.109-2.544,7.494-2.534,10.609,0.039c5.349,4.418,10.654,8.888,15.978,13.334c0.106,0.089,0.229,0.156,0.493,0.334
		c0.032-0.421,0.074-0.718,0.074-1.015c0.005-3.839,0.001-7.679,0.007-11.519c0.002-2.175,0.675-2.852,2.825-2.853
		c3.957-0.003,7.914-0.003,11.87,0c2.029,0.002,2.752,0.723,2.752,2.761c0.004,8.763,0.009,17.526-0.014,26.289
		c-0.003,0.719,0.222,1.195,0.765,1.643c4.519,3.719,9.03,7.449,13.518,11.207c0.567,0.475,0.981,1.133,1.466,1.707
		c0,0.41,0,0.82,0,1.231C152.625,93.346,151.198,95.117,149.748,96.871z"/>
</g>
<g id="ALÇADA">
</g>
<g id="MANS_ALÇADES">
</g>
<g id="PESO">
</g>
<g id="ma">
</g>
<g id="primeres">
</g>
<g id="Capa_46">
</g>
<g id="Capa_47">
</g>
<g id="Capa_48">
</g>
<g id="asegurat">
</g>
<g id="taller">
</g>
<g id="Capa_51">
</g>
<g id="Capa_52">
</g>
<g id="Capa_53">
</g>
<g id="Capa_54">
</g>
<g id="Capa_55">
</g>
<g id="Capa_56">
</g>
<g id="Capa_57">
</g>
<g id="Capa_58">
</g>
<g id="Capa_59">
</g>
<g id="Capa_60">
</g>
<g id="Capa_61">
</g>
<g id="Capa_62">
</g>
<g id="Capa_63">
</g>
<g id="Capa_64">
</g>
</svg>
