<?xml version="1.0" encoding="utf-8"?>
<!-- Generator: Adobe Illustrator 16.0.0, SVG Export Plug-In . SVG Version: 6.00 Build 0)  -->
<!DOCTYPE svg PUBLIC "-//W3C//DTD SVG 1.1//EN" "http://www.w3.org/Graphics/SVG/1.1/DTD/svg11.dtd">
<svg version="1.1" xmlns="http://www.w3.org/2000/svg" xmlns:xlink="http://www.w3.org/1999/xlink" x="0px" y="0px" width="192px"
	 height="192px" viewBox="0 0 192 192" enable-background="new 0 0 192 192" xml:space="preserve">
<g id="NOTICIAS23">
</g>
<g id="CALENDARI">
</g>
<g id="INCIDENCIES">
</g>
<g id="ACCEDIR">
</g>
<g id="SORTIR">
</g>
<g id="REGISTRE">
</g>
<g id="TUTORIAL">
</g>
<g id="TUTORIAL2">
</g>
<g id="CONVO">
</g>
<g id="COMUNICAT">
</g>
<g id="DIADA">
	<path fill="#790016" d="M100.5,14.516c-43.549,0-78.853,35.303-78.853,78.852c0,43.548,35.304,78.851,78.853,78.851
		s78.853-35.303,78.853-78.851C179.353,49.819,144.049,14.516,100.5,14.516z M100.5,164.836c-39.945,0-72.328-32.383-72.328-72.328
		c0-39.946,32.383-72.328,72.328-72.328c39.946,0,72.329,32.382,72.329,72.328C172.829,132.453,140.446,164.836,100.5,164.836z"/>
	<g>
		<path fill="#790016" d="M100.5,24.975c-37.298,0-67.533,30.235-67.533,67.533c0,37.296,30.235,67.533,67.533,67.533
			c37.299,0,67.534-30.236,67.534-67.533C168.034,55.21,137.799,24.975,100.5,24.975z M121.907,54.784l-11.708,23.06l-5.95-13.265
			l16.122-19.59L121.907,54.784z M118.383,43.968l-8.775,10.815h-16.53l-9.59-10.815H118.383z M81.854,44.989l17.141,19.59
			L92.67,77.843l-12.447-23.06L81.854,44.989z M140.626,134.98H61.447V57.436h16.53L92.67,82.333c0,0,8.506-16.325,8.844-15.713
			c0.34,0.612,9.521,15.713,9.521,15.713l13.469-24.896h16.122V134.98z"/>
		<path fill="#790016" d="M110.047,118.248h22.752V89.764h-22.752V118.248z M113.127,92.489h16.583v22.345h-16.583V92.489z"/>
	</g>
</g>
<g id="DIADA_2">
</g>
<g id="ENTRENO">
</g>
<g id="ENTRENO2">
</g>
<g id="DELEGACIÓ2">
</g>
<g id="EVENTO_SOCIAL">
</g>
<g id="ev2">
</g>
<g id="MAIL">
</g>
<g id="TELEFONO">
</g>
<g id="TLF_EMERG">
</g>
<g id="TRANS">
</g>
<g id="ACOMPAÑANT">
</g>
<g id="CONTRASEÑA">
</g>
<g id="CONTRA_x5F_2">
</g>
<g id="DADES_PERSONALS">
</g>
<g id="DADES_PERSONALS2">
</g>
<g id="EDITAR">
</g>
<g id="DELEGACIÓ">
</g>
<g id="PERFIL">
</g>
<g id="CONFIRMATS">
</g>
<g id="NO_CONFIRM">
</g>
<g id="CASTELLERS">
</g>
</svg>
