<?xml version="1.0" encoding="utf-8"?>
<!-- Generator: Adobe Illustrator 16.0.0, SVG Export Plug-In . SVG Version: 6.00 Build 0)  -->
<!DOCTYPE svg PUBLIC "-//W3C//DTD SVG 1.1//EN" "http://www.w3.org/Graphics/SVG/1.1/DTD/svg11.dtd">
<svg version="1.1" xmlns="http://www.w3.org/2000/svg" xmlns:xlink="http://www.w3.org/1999/xlink" x="0px" y="0px" width="192px"
	 height="192px" viewBox="0 0 192 192" enable-background="new 0 0 192 192" xml:space="preserve">
<g id="NOTICIAS23">
</g>
<g id="CALENDARI">
</g>
<g id="INCIDENCIES">
</g>
<g id="ACCEDIR">
</g>
<g id="SORTIR">
</g>
<g id="REGISTRE">
</g>
<g id="TUTORIAL">
</g>
<g id="TUTORIAL2">
	<path fill="#790016" d="M96.001,17.148c-43.549,0-78.853,35.303-78.853,78.853c0,43.549,35.304,78.852,78.853,78.852
		S174.854,139.549,174.854,96C174.854,52.451,139.55,17.148,96.001,17.148z M96.001,167.468c-39.945,0-72.328-32.383-72.328-72.328
		c0-39.946,32.383-72.328,72.328-72.328c39.946,0,72.329,32.382,72.329,72.328C168.33,135.085,135.947,167.468,96.001,167.468z"/>
	<path fill="#790016" d="M96.001,27.607c-37.298,0-67.533,30.236-67.533,67.533c0,37.298,30.235,67.534,67.533,67.534
		c37.299,0,67.534-30.236,67.534-67.534C163.535,57.843,133.3,27.607,96.001,27.607z M114.916,60.225l15.566-7.318
		c0.685-0.318,1.486-0.013,1.8,0.683c0.313,0.697,0.014,1.522-0.667,1.842l-15.567,7.318c-0.184,0.086-0.376,0.127-0.565,0.127
		c-0.514,0-1.005-0.301-1.234-0.81C113.936,61.37,114.234,60.545,114.916,60.225z M106.594,50.35l5.088-9.383
		c0.396-0.729,1.306-0.997,2.033-0.604c0.729,0.395,0.999,1.306,0.604,2.034l-5.088,9.383c-0.271,0.501-0.787,0.786-1.319,0.786
		c-0.242,0-0.486-0.059-0.714-0.182C106.469,51.989,106.198,51.078,106.594,50.35z M97.625,54.981
		c6.105,0,11.053,5.321,11.053,11.885c0,1.541-0.28,3.008-0.777,4.36c0,0-0.134,0.424-0.268,0.691
		c-0.003,0.005-0.013,0.006-0.018,0.009c-0.772,1.763-1.937,3.286-3.373,4.445c-1.625,2.736-0.674,5.946-0.674,5.946H92.039h-0.95
		c1.026-1.759-0.532-5.302-1.879-7.761c-0.044-0.058-0.098-0.11-0.143-0.169c-0.571-0.75-1.057-1.579-1.444-2.465l-0.004-0.005
		h0.001c-0.671-1.534-1.048-3.245-1.048-5.051C86.572,60.302,91.521,54.981,97.625,54.981z M90.91,88.182v-4.468h12.717v4.468H90.91
		z M103.627,89.671c0,0-1.307,0.417-2.02,2.437h-8.439c0,0-1.545-2.556-2.258-2.437H103.627z M81.12,40.386
		c0.714-0.415,1.634-0.176,2.051,0.542l5.463,9.383c0.417,0.716,0.175,1.634-0.541,2.051c-0.237,0.138-0.497,0.204-0.754,0.204
		c-0.516,0-1.019-0.267-1.297-0.746l-5.463-9.383C80.162,41.721,80.404,40.803,81.12,40.386z M62.656,52.925
		c0.318-0.747,1.135-1.073,1.83-0.731l15.834,7.841c0.693,0.343,0.997,1.227,0.679,1.974c-0.232,0.545-0.731,0.868-1.255,0.868
		c-0.192,0-0.389-0.044-0.575-0.136l-15.835-7.841C62.642,54.556,62.338,53.672,62.656,52.925z M102.521,135.288
		c0,0-3.392,5.373-9.613,0H51.387V79.583c0,0,2.217-2.262,3.914-1.697c1.695,0.565,0.283-5.655,0.283-5.655s14.6-6.079,29.628-1.075
		c0.177,0.6,0.378,1.189,0.624,1.752c-0.002,0-0.002,0-0.002,0s0.003,0.005,0.004,0.006c0.214,0.487,0.457,0.955,0.719,1.41
		c-14.517-5.779-28.146-0.183-28.146-0.183v53.867c12.3-7.21,38.491,2.863,38.491,2.863V94.399h1.696v36.474
		c27.464-10.498,37.219-3.394,37.749-3.287c0.53,0.106-0.848-55.139-0.848-55.139c-11.655-2.173-20.455-0.573-26.533,1.756
		c0.234-0.417,0.46-0.839,0.654-1.283c0.006-0.003,0.016-0.004,0.019-0.011c0.159-0.318,0.321-0.822,0.321-0.822
		c0.129-0.354,0.241-0.716,0.346-1.082c6.481-2,15.673-3.229,28.186-1.577l0.824,5.669c0,0,2.365,0.528,3.075,0.954
		c0.549,0.329,1.696,1.553,1.696,1.553v57.684H102.521z"/>
</g>
<g id="CONVO">
</g>
<g id="COMUNICAT">
</g>
<g id="DIADA">
</g>
<g id="DIADA_2">
</g>
<g id="ENTRENO">
</g>
<g id="ENTRENO2">
</g>
<g id="DELEGACIÓ2">
</g>
<g id="EVENTO_SOCIAL">
</g>
<g id="ev2">
</g>
<g id="MAIL">
</g>
<g id="TELEFONO">
</g>
<g id="TLF_EMERG">
</g>
<g id="TRANS">
</g>
<g id="ACOMPAÑANT">
</g>
<g id="CONTRASEÑA">
</g>
<g id="CONTRA_x5F_2">
</g>
<g id="DADES_PERSONALS">
</g>
<g id="DADES_PERSONALS2">
</g>
<g id="EDITAR">
</g>
<g id="DELEGACIÓ">
</g>
<g id="PERFIL">
</g>
<g id="CONFIRMATS">
</g>
<g id="NO_CONFIRM">
</g>
<g id="CASTELLERS">
</g>
</svg>
