<?xml version="1.0" encoding="utf-8"?>
<!-- Generator: Adobe Illustrator 16.0.0, SVG Export Plug-In . SVG Version: 6.00 Build 0)  -->
<!DOCTYPE svg PUBLIC "-//W3C//DTD SVG 1.1//EN" "http://www.w3.org/Graphics/SVG/1.1/DTD/svg11.dtd">
<svg version="1.1" xmlns="http://www.w3.org/2000/svg" xmlns:xlink="http://www.w3.org/1999/xlink" x="0px" y="0px" width="192px"
	 height="192px" viewBox="0 0 192 192" enable-background="new 0 0 192 192" xml:space="preserve">
<g id="NOTICIAS23">
</g>
<g id="CALENDARI">
</g>
<g id="INCIDENCIES">
</g>
<g id="ACCEDIR">
</g>
<g id="SORTIR">
</g>
<g id="REGISTRE">
</g>
<g id="TUTORIAL">
</g>
<g id="TUTORIAL2">
</g>
<g id="CONVO">
</g>
<g id="COMUNICAT">
</g>
<g id="DIADA">
</g>
<g id="DIADA_2">
</g>
<g id="ENTRENO">
</g>
<g id="ENTRENO2">
</g>
<g id="DELEGACIÓ2">
</g>
<g id="EVENTO_SOCIAL">
</g>
<g id="ev2">
</g>
<g id="MAIL">
</g>
<g id="TELEFONO">
</g>
<g id="TLF_EMERG">
</g>
<g id="TRANS">
</g>
<g id="ACOMPAÑANT">
</g>
<g id="CONTRASEÑA">
</g>
<g id="CONTRA_x5F_2">
</g>
<g id="DADES_PERSONALS">
</g>
<g id="DADES_PERSONALS2">
</g>
<g id="EDITAR">
</g>
<g id="DELEGACIÓ">
</g>
<g id="PERFIL">
</g>
<g id="CONFIRMATS">
</g>
<g id="NO_CONFIRM">
</g>
<g id="CASTELLERS">
</g>
<g id="COMERCIAL">
</g>
<g id="COMERCIAL2">
</g>
<g id="CARREC">
</g>
<g id="REFRESH">
</g>
<g id="camara">
</g>
<g id="musics">
</g>
<g id="Capa_39">
</g>
<g id="LLOC">
</g>
<g id="ALÇADA">
</g>
<g id="MANS_ALÇADES">
</g>
<g id="PESO">
</g>
<g id="ma">
</g>
<g id="primeres">
	<path fill="#790016" d="M96,17.148c-43.549,0-78.853,35.303-78.853,78.852S52.451,174.852,96,174.852S174.853,139.549,174.853,96
		S139.549,17.148,96,17.148z M96,167.469c-39.945,0-72.328-32.383-72.328-72.328c0-39.946,32.383-72.328,72.328-72.328
		c39.946,0,72.329,32.382,72.329,72.328C168.329,135.086,135.946,167.469,96,167.469z"/>
	<path fill="#790016" d="M96,27.607c-37.298,0-67.533,30.235-67.533,67.533c0,37.297,30.235,67.533,67.533,67.533
		c37.299,0,67.534-30.236,67.534-67.533C163.534,57.843,133.299,27.607,96,27.607z"/>
	<path fill-rule="evenodd" clip-rule="evenodd" fill="#FFFFFF" d="M130.648,149.947c-7.186-0.266-14.225-0.526-21.486-0.795
		c0.207-1.527,0.398-3,0.607-4.473c1.365-9.564,2.711-19.132,4.111-28.693c0.583-3.982,1.23-7.957,1.952-11.916
		c0.29-1.586-0.332-2.594-1.454-3.562c-4.002-3.444-7.397-7.409-10.074-11.978c-0.331-0.566-0.695-1.142-1.157-1.597
		c-2.733-2.691-5.51-5.337-8.239-8.029c-0.319-0.315-0.707-0.968-0.58-1.238c0.223-0.479,0.766-1.017,1.264-1.124
		c2.08-0.452,4.031,0.133,5.533,1.541c1.718,1.608,3.206,3.466,4.769,5.235c0.976,1.104,1.857,2.249,3.544,2.348
		c0.938,0.054,1.622-0.159,1.953-1.018c1.669-4.315,2.871-8.583,1.481-13.361c-1.536-5.299-2.535-10.761-3.696-16.165
		c-0.161-0.747-0.051-1.639,0.209-2.363c0.164-0.454,0.829-0.977,1.295-1.002c0.467-0.028,1.014,0.469,1.437,0.839
		c0.215,0.189,0.251,0.601,0.336,0.919c1.381,5.162,2.738,10.331,4.149,15.484c0.245,0.902,0.616,1.793,1.073,2.606
		c0.635,1.13,1.722,1.476,2.937,1.157c1.188-0.313,1.043-1.405,0.964-2.245c-0.588-6.248-0.463-12.493-0.07-18.74
		c0.046-0.752,0.094-1.522,0.285-2.248c0.283-1.078,1.101-1.515,2.175-1.369c1.089,0.146,1.409,0.859,1.437,1.916
		c0.127,4.727,0.352,9.452,0.47,14.18c0.043,1.653-0.134,3.311-0.177,4.968c-0.02,0.849-0.169,1.782,0.12,2.526
		c0.265,0.683,0.95,1.441,1.621,1.667c1.021,0.343,1.531-0.59,1.706-1.458c0.411-2.038,0.728-4.097,1.073-6.146
		c0.622-3.686,1.234-7.372,1.856-11.059c0.181-1.064,0.562-2.009,1.883-1.804c1.306,0.202,1.673,1.219,1.494,2.345
		c-1,6.26-2.092,12.507-3.053,18.773c-0.136,0.886,0.007,2.047,0.497,2.751c1.227,1.76,2.851,1.854,4.275,0.188
		c2.665-3.121,5.163-6.385,7.725-9.597c0.531-0.659,0.954-1.442,1.593-1.969c0.374-0.308,1.362-0.476,1.57-0.245
		c0.354,0.385,0.6,1.293,0.38,1.706c-0.824,1.536-1.85,2.967-2.812,4.428c-2.423,3.674-4.915,7.305-7.234,11.044
		c-0.531,0.857-0.686,2.083-0.658,3.133c0.109,4.225-1.152,8.144-2.587,12c-1.525,4.098-2.791,8.176-2.93,12.63
		c-0.396,12.788-0.993,25.57-1.512,38.353C130.688,148.918,130.671,149.341,130.648,149.947z"/>
	<path fill-rule="evenodd" clip-rule="evenodd" fill="#FFFFFF" d="M62.761,149.21c6.493-0.33,12.852-0.653,19.413-0.987
		c-0.213-1.525-0.412-2.996-0.627-4.467c-1.401-9.549-2.784-19.102-4.215-28.647c-0.598-3.977-1.251-7.943-1.974-11.896
		c-0.291-1.583,0.254-2.596,1.253-3.573c3.558-3.479,6.56-7.474,8.9-12.066c0.288-0.568,0.607-1.146,1.019-1.605
		c2.424-2.715,4.889-5.385,7.31-8.101c0.283-0.318,0.622-0.975,0.502-1.243c-0.209-0.478-0.71-1.01-1.162-1.112
		c-1.888-0.434-3.642,0.169-4.976,1.59c-1.523,1.623-2.838,3.493-4.221,5.277c-0.862,1.111-1.64,2.264-3.163,2.378
		c-0.847,0.063-1.47-0.144-1.784-0.999c-1.583-4.299-2.745-8.556-1.572-13.346c1.298-5.311,2.106-10.779,3.062-16.192
		c0.133-0.749,0.018-1.639-0.23-2.361c-0.156-0.452-0.766-0.968-1.188-0.989c-0.423-0.025-0.907,0.477-1.285,0.852
		c-0.191,0.191-0.216,0.603-0.288,0.922c-1.158,5.173-2.296,10.353-3.481,15.518c-0.207,0.904-0.525,1.797-0.925,2.614
		c-0.555,1.136-1.53,1.491-2.636,1.184c-1.08-0.304-0.967-1.396-0.91-2.236c0.423-6.252,0.202-12.493-0.263-18.735
		c-0.055-0.752-0.111-1.521-0.297-2.244c-0.274-1.076-1.021-1.505-1.99-1.351c-0.981,0.156-1.259,0.871-1.266,1.93
		c-0.031,4.727-0.153,9.451-0.179,14.18c-0.01,1.653,0.18,3.309,0.247,4.965c0.032,0.848,0.185,1.778-0.063,2.526
		c-0.229,0.685-0.835,1.45-1.438,1.681c-0.917,0.353-1.395-0.575-1.567-1.441c-0.408-2.034-0.73-4.089-1.079-6.135
		c-0.626-3.679-1.243-7.359-1.869-11.038c-0.182-1.063-0.543-2.004-1.735-1.787c-1.176,0.214-1.49,1.234-1.309,2.358
		c1.013,6.248,2.108,12.484,3.086,18.739c0.139,0.886,0.03,2.048-0.4,2.755c-1.079,1.771-2.546,1.88-3.863,0.228
		c-2.464-3.097-4.779-6.337-7.152-9.523c-0.49-0.655-0.887-1.435-1.473-1.955c-0.345-0.305-1.241-0.463-1.426-0.232
		c-0.313,0.39-0.52,1.3-0.313,1.711c0.771,1.528,1.724,2.949,2.618,4.4c2.255,3.651,4.571,7.258,6.732,10.977
		c0.496,0.853,0.657,2.076,0.651,3.126c-0.026,4.225,1.184,8.131,2.548,11.974c1.451,4.082,2.665,8.148,2.868,12.601
		c0.58,12.78,1.344,25.554,2.035,38.327C62.709,148.182,62.73,148.604,62.761,149.21z"/>
</g>
<g id="Capa_46">
</g>
<g id="Capa_47">
</g>
<g id="Capa_48">
</g>
<g id="asegurat">
</g>
<g id="taller">
</g>
<g id="Capa_51">
</g>
<g id="Capa_52">
</g>
<g id="Capa_53">
</g>
<g id="Capa_54">
</g>
<g id="Capa_55">
</g>
<g id="Capa_56">
</g>
<g id="Capa_57">
</g>
<g id="Capa_58">
</g>
<g id="Capa_59">
</g>
<g id="Capa_60">
</g>
<g id="Capa_61">
</g>
<g id="Capa_62">
</g>
<g id="Capa_63">
</g>
<g id="Capa_64">
</g>
</svg>
