<?xml version="1.0" encoding="utf-8"?>
<!-- Generator: Adobe Illustrator 16.0.0, SVG Export Plug-In . SVG Version: 6.00 Build 0)  -->
<!DOCTYPE svg PUBLIC "-//W3C//DTD SVG 1.1//EN" "http://www.w3.org/Graphics/SVG/1.1/DTD/svg11.dtd">
<svg version="1.1" xmlns="http://www.w3.org/2000/svg" xmlns:xlink="http://www.w3.org/1999/xlink" x="0px" y="0px" width="192px"
	 height="192px" viewBox="0 0 192 192" enable-background="new 0 0 192 192" xml:space="preserve">
<g id="NOTICIAS23">
</g>
<g id="CALENDARI">
</g>
<g id="INCIDENCIES">
</g>
<g id="ACCEDIR">
</g>
<g id="SORTIR">
</g>
<g id="REGISTRE">
</g>
<g id="TUTORIAL">
</g>
<g id="TUTORIAL2">
</g>
<g id="CONVO">
</g>
<g id="COMUNICAT">
</g>
<g id="DIADA">
</g>
<g id="DIADA_2">
</g>
<g id="ENTRENO">
</g>
<g id="ENTRENO2">
</g>
<g id="DELEGACIÓ2">
</g>
<g id="EVENTO_SOCIAL">
</g>
<g id="ev2">
</g>
<g id="MAIL">
</g>
<g id="TELEFONO">
</g>
<g id="TLF_EMERG">
</g>
<g id="TRANS">
</g>
<g id="ACOMPAÑANT">
</g>
<g id="CONTRASEÑA">
</g>
<g id="CONTRA_x5F_2">
</g>
<g id="DADES_PERSONALS">
</g>
<g id="DADES_PERSONALS2">
</g>
<g id="EDITAR">
</g>
<g id="DELEGACIÓ">
</g>
<g id="PERFIL">
</g>
<g id="CONFIRMATS">
</g>
<g id="NO_CONFIRM">
</g>
<g id="CASTELLERS">
</g>
<g id="COMERCIAL">
</g>
<g id="COMERCIAL2">
</g>
<g id="CARREC">
</g>
<g id="REFRESH">
</g>
<g id="camara">
</g>
<g id="musics">
</g>
<g id="Capa_39">
</g>
<g id="LLOC">
</g>
<g id="ALÇADA">
</g>
<g id="MANS_ALÇADES">
</g>
<g id="PESO">
</g>
<g id="ma">
</g>
<g id="primeres">
</g>
<g id="Capa_46">
</g>
<g id="Capa_47">
</g>
<g id="Capa_48">
</g>
<g id="asegurat">
</g>
<g id="taller">
	<path fill="#790016" d="M99,17.147c-43.549,0-78.853,35.304-78.853,78.853S55.451,174.852,99,174.852S177.853,139.549,177.853,96
		S142.549,17.147,99,17.147z M99,167.468c-39.945,0-72.328-32.383-72.328-72.328c0-39.946,32.383-72.328,72.328-72.328
		c39.946,0,72.329,32.382,72.329,72.328C171.329,135.085,138.946,167.468,99,167.468z"/>
	<g>
		<path fill="#790016" d="M111.396,84.488c-3.061,0-5.541-2.268-5.541-5.065c0,2.456-1.912,4.503-4.45,4.966v15.098h1.205
			c4.737,1.246,1.856,6.795,1.856,6.795l3.685-1.447v7.237l-1.588-0.03l-0.809-4.312l-2.091,0.481l-1.77-2.572
			c-0.135,0.121-0.306,0.215-0.489,0.296v17.717h23.312v-11.95c-1.739-0.2-3.365-0.676-3.365-0.676v3.056l-4.182-2.251l-0.16,3.377
			h-1.449l0.322-6.272l3.859,1.608v-0.965c-1.446-1.126,0-3.699,0-3.699v-4.021l-3.055,0.805c-3.699,0.644-0.966-2.573-0.966-2.573
			c0.483-1.77,4.021-3.056,4.021-3.056l1.609-2.091v3.056c2.241-0.8,3.354,6.958,3.365,7.03v-3.321
			c-0.633-2.069-1.691-4.576-3.043-4.19v-0.805c0,0,1.844,0.28,3.043,1.709V84.055c-0.685,0.276-1.441,0.434-2.238,0.434
			c-3.061,0-5.542-2.268-5.542-5.065C116.937,82.221,114.457,84.488,111.396,84.488z"/>
		<path fill="#790016" d="M99.474,106.24c-2.125-0.02-4.656-0.763-4.656-0.763v3.055l-4.182-2.251l-0.161,3.378h-1.447l0.322-6.272
			l3.859,1.607v-0.964c-1.446-1.127,0-3.7,0-3.7v-4.02l-3.056,0.804c-3.699,0.644-0.965-2.574-0.965-2.574
			c0.481-1.769,4.021-3.055,4.021-3.055l1.608-2.091v3.056c2.252-0.806,3.366,7.036,3.366,7.036h1.29V84.424
			c-2.66-0.371-4.7-2.465-4.7-5.001c0,2.798-2.481,5.065-5.541,5.065c-3.061,0-5.542-2.268-5.542-5.065
			c0,2.798-2.481,5.065-5.541,5.065c-0.47,0-0.925-0.06-1.36-0.16v19.822h1.36c4.737,1.246,1.857,6.796,1.857,6.796l3.684-1.448
			v7.237l-1.589-0.031l-0.809-4.311l-2.091,0.482l-1.769-2.573c-0.172,0.155-0.396,0.269-0.645,0.359v12.989h22.685V106.24z
			 M95.14,91.163c0,0,5.468,0.804,3.698,6.915v0.644c0,0-1.447-7.397-3.698-6.754V91.163z"/>
		<path fill="#790016" d="M99,27.606c-37.298,0-67.533,30.235-67.533,67.533S61.702,162.674,99,162.674
			c37.299,0,67.534-30.236,67.534-67.534S136.299,27.606,99,27.606z M144.588,84.488c-2.871,0-5.232-1.996-5.514-4.553
			c-0.281,2.557-2.643,4.553-5.514,4.553c-3.06,0-5.541-2.268-5.541-5.065c0,1.276-0.521,2.439-1.373,3.331v22.281h2.497
			c4.738,1.246,1.858,6.795,1.858,6.795l3.684-1.448v7.238l-1.589-0.031l-0.809-4.312l-2.091,0.482l-1.77-2.573
			c-0.401,0.361-1.044,0.532-1.781,0.585v11.88h5.47v5.468l12.472,7.077H56.291l12.457-7.077v-5.468h6.111v-12.752
			c-2.092-0.053-4.502-0.759-4.502-0.759v3.057l-4.184-2.251l-0.159,3.376h-1.448l0.321-6.271l3.86,1.608v-0.966
			c-1.447-1.125,0-3.699,0-3.699v-4.021l-3.056,0.805c-3.7,0.644-0.965-2.573-0.965-2.573c0.482-1.77,4.021-3.057,4.021-3.057
			l1.609-2.09v3.056c2.25-0.804,3.364,7.036,3.364,7.036h1.138V83.492c-1.363-0.923-2.252-2.399-2.252-4.069h-0.176
			c0,2.798-2.48,5.065-5.54,5.065c-2.498,0-4.607-1.51-5.3-3.585c-0.693,2.075-2.804,3.585-5.301,3.585
			c-3.06,0-5.541-2.268-5.541-5.065l49.207-33.924l-0.008-11.431h0.973v2.092h7.229l-4.101,3.778l4.101,3.137l-7.229,0.161v2.263
			l49.207,33.924C150.129,82.221,147.647,84.488,144.588,84.488z M70.679,96.631v-0.803c0,0,5.467,0.803,3.698,6.915v0.644
			C74.377,103.387,72.93,95.988,70.679,96.631z"/>
	</g>
</g>
<g id="Capa_51">
</g>
<g id="Capa_52">
</g>
<g id="Capa_53">
</g>
<g id="Capa_54">
</g>
<g id="Capa_55">
</g>
<g id="Capa_56">
</g>
<g id="Capa_57">
</g>
<g id="Capa_58">
</g>
<g id="Capa_59">
</g>
<g id="Capa_60">
</g>
<g id="Capa_61">
</g>
<g id="Capa_62">
</g>
<g id="Capa_63">
</g>
<g id="Capa_64">
</g>
</svg>
