<?xml version="1.0" encoding="utf-8"?>
<!-- Generator: Adobe Illustrator 16.0.0, SVG Export Plug-In . SVG Version: 6.00 Build 0)  -->
<!DOCTYPE svg PUBLIC "-//W3C//DTD SVG 1.1//EN" "http://www.w3.org/Graphics/SVG/1.1/DTD/svg11.dtd">
<svg version="1.1" xmlns="http://www.w3.org/2000/svg" xmlns:xlink="http://www.w3.org/1999/xlink" x="0px" y="0px" width="192px"
	 height="192px" viewBox="0 0 192 192" enable-background="new 0 0 192 192" xml:space="preserve">
<g id="NOTICIAS23">
</g>
<g id="CALENDARI">
</g>
<g id="INCIDENCIES">
</g>
<g id="ACCEDIR">
</g>
<g id="SORTIR">
</g>
<g id="REGISTRE">
</g>
<g id="TUTORIAL">
</g>
<g id="TUTORIAL2">
</g>
<g id="CONVO">
</g>
<g id="COMUNICAT">
</g>
<g id="DIADA">
</g>
<g id="DIADA_2">
</g>
<g id="ENTRENO">
</g>
<g id="ENTRENO2">
</g>
<g id="DELEGACIÓ2">
</g>
<g id="EVENTO_SOCIAL">
</g>
<g id="ev2">
</g>
<g id="MAIL">
</g>
<g id="TELEFONO">
</g>
<g id="TLF_EMERG">
</g>
<g id="TRANS">
</g>
<g id="ACOMPAÑANT">
</g>
<g id="CONTRASEÑA">
</g>
<g id="CONTRA_x5F_2">
</g>
<g id="DADES_PERSONALS">
</g>
<g id="DADES_PERSONALS2">
</g>
<g id="EDITAR">
</g>
<g id="DELEGACIÓ">
</g>
<g id="PERFIL">
</g>
<g id="CONFIRMATS">
</g>
<g id="NO_CONFIRM">
</g>
<g id="CASTELLERS">
</g>
<g id="COMERCIAL">
</g>
<g id="COMERCIAL2">
</g>
<g id="CARREC">
</g>
<g id="REFRESH">
</g>
<g id="camara">
</g>
<g id="musics">
	<path fill="#790016" d="M96.002,16.288c-43.551,0-78.855,35.303-78.855,78.853c0,43.549,35.305,78.852,78.855,78.852
		c43.547,0,78.851-35.303,78.851-78.852C174.853,51.591,139.549,16.288,96.002,16.288z M96.002,166.608
		c-39.947,0-72.33-32.383-72.33-72.328c0-39.946,32.383-72.328,72.33-72.328c39.944,0,72.326,32.382,72.326,72.328
		C168.328,134.226,135.946,166.608,96.002,166.608z"/>
	<path fill="#790016" d="M96.252,26.747c-37.301,0-67.536,30.236-67.536,67.533c0,37.298,30.235,67.534,67.536,67.534
		c37.296,0,67.531-30.236,67.531-67.534C163.783,56.983,133.548,26.747,96.252,26.747z M67.301,105.104
		c-0.793,0.714-1.546,1.472-2.342,2.181c-1.332,1.188-2.69,2.348-4.026,3.532c-0.954,0.844-1.886,1.71-2.827,2.567
		c-0.527,0.48-1.063,0.956-1.58,1.448c-0.477,0.453-0.928,0.932-1.4,1.389c-0.516,0.499-1.039,0.987-1.563,1.476
		c-0.351,0.326-0.709,0.645-1.061,0.97c-0.408,0.376-0.813,0.754-1.217,1.134c-0.182,0.17-0.338,0.335-0.332,0.63
		c0.006,0.293-0.277,0.383-0.506,0.479c-0.213,0.091-0.385,0.019-0.561-0.118c-0.654-0.504-1.182-1.14-1.787-1.692
		c-0.768-0.7-1.449-1.479-2.14-2.251c-0.155-0.173-0.296-0.359-0.468-0.57c2.174-1.893,4.329-3.77,6.514-5.671
		c-0.517-0.597-1.012-1.167-1.541-1.775c-2.139,1.859-4.26,3.703-6.418,5.58c-0.17-0.213-0.344-0.404-0.49-0.612
		c-0.83-1.172-1.57-2.396-2.105-3.731c-0.102-0.248-0.107-0.54-0.117-0.814c-0.01-0.231,0.242-0.419,0.498-0.45
		c0.199-0.024,0.406-0.054,0.587-0.133c0.733-0.322,1.476-0.61,2.157-1.058c0.627-0.411,1.346-0.685,2.023-1.021
		c0.973-0.481,1.935-0.983,2.861-1.554c0.52-0.32,1.082-0.573,1.619-0.867c0.498-0.272,0.984-0.565,1.482-0.838
		c0.422-0.229,0.855-0.437,1.279-0.662c0.141-0.075,0.266-0.18,0.4-0.266c1.426-0.91,2.848-1.825,4.279-2.725
		c0.631-0.396,1.281-0.756,1.918-1.141c0.175-0.105,0.332-0.238,0.498-0.357c0.085-0.06,0.162-0.136,0.256-0.171
		c0.605-0.223,1.117-0.61,1.655-0.947c1.099-0.688,2.169-1.42,3.255-2.13c0.416-0.271,0.842-0.526,1.258-0.797
		c0.492-0.317,0.977-0.643,1.463-0.967c0.57-0.38,1.141-0.76,1.707-1.143c0.387-0.261,0.768-0.533,1.156-0.789
		c0.143-0.095,0.178-0.215,0.175-0.372c-0.007-0.388-0.001-0.774-0.001-1.161c0.033-0.002,0.066-0.004,0.1-0.006
		c0.15,1.513,0.299,3.024,0.449,4.536c-0.025,0.008-0.051,0.015-0.076,0.021c-0.07-0.148-0.139-0.297-0.209-0.446
		c-0.035,0.678-0.219,1.369,0.105,2.004c0.444,0.873,0.514,1.812,0.598,2.757c0.125,1.395,0.283,2.785,0.418,4.178
		c0.107,1.104,0.195,2.209,0.302,3.313c0.127,1.307,0.27,2.611,0.399,3.918c0.105,1.074,0.199,2.149,0.303,3.226
		c0.078,0.841,0.161,1.683,0.24,2.524c0.006,0.065,0,0.133,0,0.272c-0.088-0.082-0.131-0.113-0.164-0.153
		c-1.058-1.259-1.889-2.646-2.322-4.243c-0.086-0.32-0.137-0.662-0.137-0.994c-0.012-2.974-0.006-5.948-0.006-8.921
		c0-0.155,0-0.309,0-0.55c-0.422,0.347-0.773,0.623-1.109,0.917C69.598,103.069,68.441,104.077,67.301,105.104z M80.795,104.209
		c0.094,0.034,0.16,0.056,0.225,0.082c0.808,0.345,1.611,0.698,2.426,1.028c0.214,0.087,0.326,0.201,0.367,0.431
		c0.378,2.083,0.763,4.164,1.147,6.246c0.536,2.899,1.073,5.798,1.609,8.697c0.136,0.729,0.272,1.456,0.426,2.278
		c-4.17-1.132-7.985-2.76-11.223-5.624C77.45,112.959,79.119,108.595,80.795,104.209z M75.385,116.244
		c-0.027-0.005-0.055-0.01-0.081-0.017c-0.058-0.527-0.123-1.054-0.173-1.582c-0.16-1.698-0.313-3.397-0.474-5.096
		c-0.144-1.495-0.292-2.989-0.437-4.483c-0.178-1.828-0.354-3.656-0.53-5.484c-0.032-0.331-0.067-0.662-0.103-0.992
		c0.037-0.014,0.07-0.026,0.105-0.04c1.705,2.289,3.934,3.941,6.434,5.295C78.539,107.995,76.961,112.119,75.385,116.244z
		 M84.58,105.8c1.365,0.348,2.666,0.723,3.986,1.004c1.311,0.279,2.643,0.464,4,0.696c-1.593,5.06-3.182,10.107-4.77,15.155
		c-0.031-0.003-0.064-0.005-0.096-0.007C86.662,117.042,85.625,111.436,84.58,105.8z M93.34,107.554
		c1.287,0.058,2.541,0.111,3.863,0.169c1.953,5.322,3.912,10.667,5.895,16.07c-4.969,0.695-9.836,0.526-14.713-0.499
		C90.047,118.015,91.691,112.793,93.34,107.554z M93.89,105.815c0.401-1.277,0.783-2.494,1.165-3.71
		c0.029-0.001,0.059-0.002,0.088-0.003c0.455,1.245,0.913,2.49,1.4,3.82C95.625,105.886,94.787,105.852,93.89,105.815z
		 M97.996,107.685c2.9-0.064,5.689-0.398,8.508-1.034c-0.938,5.512-1.855,10.947-2.791,16.38c-0.031,0-0.061-0.001-0.094-0.001
		C101.754,117.938,99.889,112.849,97.996,107.685z M107.332,106.473c1.096-0.341,2.195-0.683,3.346-1.041
		c2.127,4.354,4.256,8.71,6.402,13.101c-1.504,1.114-3.113,1.998-4.807,2.734c-2.505,1.09-5.109,1.842-7.803,2.306
		C104.42,123.217,107.076,107.402,107.332,106.473z M111.42,105.116c3.072-1.253,5.902-2.894,8.209-5.365
		c0.061,0.396-0.605,5.166-1.137,8.627c-0.439,2.861-0.813,5.733-1.219,8.633C117.023,116.731,111.613,105.716,111.42,105.116z
		 M119.392,98.233c-1.524,1.549-3.253,2.819-5.183,3.802c-1.081,0.55-2.209,1.005-3.316,1.502c-0.064,0.028-0.135,0.045-0.256,0.085
		c-0.696-1.428-1.373-2.817-2.066-4.241c0.104-0.042,0.176-0.078,0.253-0.103c2.364-0.752,4.624-1.734,6.725-3.065
		c1.151-0.731,2.229-1.563,3.192-2.526c0.756-0.754,1.447-1.569,1.996-2.493c0.035-0.061,0.08-0.115,0.195-0.152
		c-0.039,0.35-0.072,0.7-0.121,1.048c-0.193,1.371-0.393,2.741-0.592,4.112c-0.021,0.158-0.07,0.317-0.069,0.476
		C120.154,97.325,119.83,97.789,119.392,98.233z M109.93,103.902c-0.776,0.239-1.494,0.46-2.293,0.705
		c0.178-1.345,0.437-2.612,0.636-3.888c0.034-0.002,0.069-0.004,0.103-0.007C108.885,101.756,109.393,102.799,109.93,103.902z
		 M106.828,104.749c-1.43,0.572-7.531,1.323-9.482,1.165c-0.604-1.644-1.2-3.271-1.821-4.963c4.122,0.132,8.144-0.243,12.159-1.342
		C107.428,101.371,107.105,103.063,106.828,104.749z M94.64,100.903c-0.508,1.615-1.009,3.208-1.519,4.829
		c-3.063-0.297-6.018-0.887-8.905-1.898c-0.327-1.769-0.653-3.527-0.995-5.38C86.943,99.906,90.707,100.659,94.64,100.903z
		 M83.395,103.548c-0.705-0.297-1.336-0.561-2.012-0.845c0.393-1.069,0.777-2.108,1.281-3.117
		C82.902,100.882,83.143,102.179,83.395,103.548z M80.711,102.315c-0.083-0.021-0.156-0.026-0.215-0.058
		c-2.096-1.079-4.027-2.389-5.65-4.115c-0.389-0.415-0.723-0.882-1.102-1.31c-0.326-0.371-0.424-0.804-0.467-1.282
		c-0.158-1.756-0.342-3.509-0.512-5.264c-0.021-0.209-0.021-0.42-0.029-0.63c0.02-0.003,0.039-0.007,0.059-0.01
		c0.186,0.358,0.363,0.721,0.559,1.074c0.533,0.965,1.199,1.831,1.959,2.629c1.873,1.97,4.124,3.388,6.571,4.521
		c0.132,0.062,0.261,0.128,0.44,0.216C81.786,99.498,81.252,100.896,80.711,102.315z M122.013,118.825
		c-0.682,1.821-1.814,3.335-3.214,4.663c-1.971,1.87-4.268,3.227-6.75,4.287c-2.969,1.269-6.066,2.049-9.26,2.481
		c-3.092,0.418-6.189,0.495-9.295,0.23c-3.979-0.338-7.84-1.189-11.514-2.792c-2.684-1.171-5.143-2.679-7.172-4.82
		c-1.445-1.524-2.518-3.265-2.99-5.34c-0.297-1.306-0.293-2.613-0.016-3.922c0.016-0.085,0.049-0.166,0.091-0.306
		c0.128,0.366,0.226,0.682,0.351,0.986c0.631,1.551,1.553,2.905,2.717,4.109c1.574,1.631,3.416,2.89,5.414,3.922
		c2.096,1.085,4.311,1.871,6.594,2.473c2.271,0.597,4.584,0.93,6.916,1.126c1.926,0.162,3.862,0.166,5.791,0.048
		c2.953-0.181,5.869-0.625,8.716-1.465c2.909-0.858,5.671-2.034,8.177-3.763c1.551-1.07,2.945-2.314,4.054-3.85
		c0.704-0.976,1.297-2.018,1.636-3.186c0.016-0.053,0.051-0.1,0.122-0.231C122.813,115.357,122.656,117.109,122.013,118.825z
		 M98.211,75.403c0.125-0.013,0.188-0.027,0.254-0.025c4.092,0.161,8.061,0.88,11.797,2.627c1.375,0.642,2.654,1.434,3.778,2.461
		c0.786,0.718,1.46,1.526,1.915,2.495c0.881,1.88,0.713,3.697-0.367,5.444c-0.697,1.128-1.65,2.012-2.721,2.775
		c-1.674,1.194-3.529,2.02-5.477,2.646c-0.697,0.224-1.408,0.399-2.113,0.599C105.059,94.488,96,96.5,88.87,94.396
		c-2.315-0.684-4.44-1.333-6.517-2.59c-1.02-0.617-1.962-1.334-2.766-2.221c-0.903-0.995-1.563-2.116-1.768-3.471
		c-0.178-1.174,0.05-2.273,0.584-3.318c0.556-1.09,1.365-1.97,2.303-2.738c1.42-1.164,3.023-2.002,4.725-2.667
		c2.57-1.003,5.238-1.583,7.979-1.845c0.802-0.077,1.607-0.114,2.41-0.168c0.057-0.003,0.113,0.009,0.221,0.018 M96.805,74.271
		c-0.119-0.01-0.205-0.024-0.289-0.022c-4.205,0.087-8.314,0.704-12.26,2.214c-1.703,0.652-3.318,1.475-4.791,2.559
		c-1.206,0.887-2.221,1.951-3.021,3.218c-0.17,0.271-0.4,0.508-0.557,0.787c-0.328,0.585-0.626,1.188-0.932,1.785
		c-0.041,0.077-0.043,0.175-0.086,0.248c-0.475,0.786-0.504,1.668-0.564,2.544c-0.008,0.103-0.004,0.207-0.021,0.307
		c-0.174,0.972-0.063,1.926,0.162,2.874c0.028,0.119,0.037,0.244,0.066,0.438c-0.107-0.084-0.156-0.112-0.191-0.152
		c-1.236-1.387-2.114-2.947-2.317-4.83c-0.155-1.426,0.138-2.769,0.771-4.043c0.514-1.034,1.211-1.934,2.027-2.746
		c1.502-1.496,3.266-2.612,5.16-3.537c2.061-1.007,4.225-1.729,6.447-2.283c0.113-0.028,0.227-0.058,0.34-0.091
		c0.021-0.006,0.039-0.034,0.08-0.072c-0.178-0.132-0.346-0.27-0.524-0.389c-1.224-0.803-2.44-1.614-3.675-2.398
		c-0.701-0.446-1.438-0.836-2.145-1.274c-0.884-0.548-1.71-1.172-2.318-2.032c-0.177-0.248-0.289-0.54-0.441-0.804
		c-0.361-0.623-0.92-1.042-1.484-1.464c-0.865-0.647-1.715-1.317-2.566-1.985c-0.218-0.171-0.326-0.404-0.28-0.724
		c-0.251-0.046-0.464-0.16-0.595-0.419c-0.136-0.269-0.133-0.532-0.072-0.81c0.049-0.213,0.092-0.428,0.145-0.674
		c-0.951-0.782-1.896-1.56-2.779-2.288c-0.313,0-0.544,0.015-0.773-0.003c-0.348-0.029-0.604-0.212-0.74-0.537
		c-0.104-0.243-0.266-0.393-0.52-0.49c-0.447-0.172-0.819-0.45-0.958-0.938c-0.302,0.027-0.573,0.069-0.844,0.073
		c-0.616,0.009-1.177-0.149-1.677-0.532c-0.65-0.498-1.324-0.965-1.986-1.448c-0.082-0.06-0.16-0.129-0.23-0.202
		c-0.236-0.238-0.199-0.261,0.023-0.512c0.365-0.415,0.693-0.863,1.02-1.311c0.412-0.565,0.801-1.149,1.209-1.716
		c0.137-0.186,0.262-0.185,0.492-0.017c0.51,0.369,1.004,0.76,1.521,1.118c0.557,0.386,1.049,0.833,1.471,1.366
		c0.215,0.269,0.332,0.545,0.33,0.881c-0.002,0.117,0.008,0.235-0.002,0.351c-0.021,0.204,0.049,0.326,0.254,0.396
		c0.379,0.129,0.689,0.346,0.951,0.668c0.154,0.188,0.44,0.266,0.662,0.402c0.145,0.09,0.332,0.165,0.414,0.299
		c0.365,0.599,0.867,1.042,1.453,1.414c0.629,0.398,1.249,0.812,1.858,1.239c0.212,0.148,0.396,0.18,0.593,0.023
		c0.275-0.217,0.561-0.277,0.9-0.151c0.121,0.045,0.283-0.003,0.424-0.03c0.212-0.04,0.376-0.003,0.558,0.146
		c0.494,0.406,1.011,0.788,1.532,1.16c0.713,0.508,1.443,0.992,2.157,1.499c0.267,0.189,0.558,0.308,0.868,0.386
		c0.668,0.168,1.311,0.399,1.895,0.774c0.527,0.339,1.051,0.682,1.488,1.144c0.289,0.305,0.623,0.566,0.932,0.854
		c0.867,0.807,1.729,1.62,2.597,2.425c0.247,0.229,0.509,0.439,0.761,0.662c0.186,0.163,0.361,0.339,0.553,0.496
		c0.43,0.351,0.861,0.7,1.303,1.037c0.623,0.478,1.238,0.97,1.891,1.407c0.799,0.534,1.52,1.171,2.33,1.685
		c0.162,0.103,0.377,0.171,0.569,0.174c0.952,0.014,1.905-0.005,2.856,0.001c0.248,0.002,0.459-0.058,0.652-0.209
		c0.527-0.414,1.027-0.87,1.593-1.224c0.37-0.231,0.741-0.461,1.091-0.721c0.643-0.477,1.291-0.95,1.906-1.461
		c0.853-0.708,1.686-1.441,2.513-2.18c0.762-0.682,1.505-1.385,2.255-2.082c0.361-0.335,0.71-0.687,1.081-1.013
		c0.864-0.758,1.806-1.389,2.935-1.68c0.557-0.144,1.055-0.371,1.521-0.722c0.771-0.581,1.584-1.099,2.373-1.653
		c0.333-0.233,0.668-0.471,0.966-0.745c0.188-0.174,0.362-0.199,0.594-0.151c0.15,0.031,0.322,0.045,0.465,0
		c0.277-0.087,0.525-0.058,0.746,0.115c0.256,0.203,0.469,0.189,0.738-0.001c0.813-0.572,1.641-1.122,2.471-1.666
		c0.308-0.202,0.45-0.527,0.66-0.801c0.165-0.214,0.326-0.393,0.602-0.479c0.307-0.096,0.551-0.291,0.775-0.543
		c0.193-0.217,0.486-0.363,0.76-0.487c0.211-0.095,0.303-0.208,0.271-0.43c-0.004-0.029,0.002-0.059,0-0.088
		c-0.023-0.469,0.055-0.897,0.428-1.237c0.343-0.313,0.643-0.677,1.004-0.968c0.58-0.468,1.193-0.896,1.795-1.337
		c0.359-0.265,0.412-0.258,0.67,0.081c0.459,0.604,0.916,1.204,1.295,1.87c0.232,0.408,0.613,0.734,0.939,1.084
		c0.113,0.123,0.125,0.228,0.029,0.346c-0.072,0.09-0.158,0.176-0.25,0.245c-0.789,0.582-1.555,1.202-2.381,1.725
		c-0.58,0.366-1.268,0.42-1.951,0.267c-0.057-0.013-0.113-0.021-0.17-0.029c-0.014-0.002-0.027,0.007-0.066,0.017
		c-0.184,0.504-0.588,0.786-1.079,0.989c-0.147,0.061-0.31,0.202-0.364,0.345c-0.225,0.6-0.795,0.719-1.256,0.636
		c-0.205-0.037-0.334,0.015-0.471,0.126c-0.869,0.713-1.736,1.429-2.619,2.156c0.055,0.252,0.115,0.491,0.16,0.732
		c0.11,0.595-0.117,0.997-0.662,1.16c0.002,0.367-0.157,0.636-0.469,0.866c-1.066,0.792-2.139,1.583-3.154,2.44
		c-0.389,0.328-0.67,0.809-0.924,1.262c-0.247,0.44-0.518,0.846-0.897,1.174c-0.407,0.354-0.813,0.709-1.243,1.034
		c-0.268,0.202-0.578,0.343-0.863,0.518c-1.148,0.7-2.299,1.396-3.438,2.108c-0.631,0.396-1.242,0.823-1.861,1.239
		c-0.143,0.096-0.28,0.201-0.508,0.367c0.25,0.062,0.41,0.102,0.569,0.14c2.978,0.707,5.847,1.706,8.5,3.258
		c1.759,1.029,3.349,2.262,4.603,3.892c0.967,1.26,1.555,2.676,1.764,4.25c0.02,0.159,0.014,0.322,0.01,0.483
		c-0.053,1.843,0.045,3.687-0.016,5.528c-0.016,0.47,0.191,0.738,0.535,0.958c0.947,0.605,1.902,1.197,2.797,1.883
		c0.347,0.265,0.75,0.452,1.117,0.693c1.098,0.721,2.186,1.459,3.289,2.173c0.5,0.322,1.027,0.6,1.537,0.906
		c0.445,0.268,0.885,0.548,1.328,0.819c0.449,0.275,0.903,0.54,1.35,0.818c0.68,0.424,1.354,0.859,2.033,1.284
		c0.482,0.301,0.975,0.585,1.455,0.887c0.52,0.325,1.02,0.678,1.546,0.99c0.601,0.357,1.218,0.685,1.831,1.021
		c0.971,0.532,1.949,1.052,2.914,1.594c0.712,0.399,1.4,0.839,2.113,1.234c0.389,0.216,0.811,0.369,1.211,0.563
		c0.367,0.177,0.729,0.362,1.088,0.553c0.926,0.491,1.824,1.036,2.82,1.385c0.146,0.051,0.307,0.089,0.463,0.1
		c0.359,0.026,0.529,0.221,0.551,0.577c0.031,0.545-0.247,0.989-0.461,1.442c-0.57,1.204-1.277,2.329-2.087,3.389
		c-0.052,0.066-0.126,0.115-0.198,0.181c-2.127-1.851-4.24-3.688-6.395-5.561c-0.512,0.582-1.005,1.147-1.536,1.754
		c1.069,0.994,2.179,1.908,3.257,2.856c1.074,0.945,2.156,1.883,3.252,2.837c-0.481,0.565-0.929,1.14-1.426,1.664
		c-0.572,0.602-1.191,1.157-1.783,1.74c-0.219,0.214-0.414,0.451-0.625,0.671c-0.078,0.08-0.172,0.146-0.264,0.212
		c-0.08,0.058-0.185,0.091-0.246,0.162c-0.174,0.199-0.373,0.279-0.621,0.175c-0.275-0.114-0.541-0.234-0.525-0.613
		c0.004-0.102-0.055-0.23-0.129-0.306c-0.264-0.273-0.544-0.529-0.82-0.789c-0.446-0.418-0.895-0.833-1.342-1.25
		c-0.332-0.309-0.669-0.611-0.993-0.928c-0.616-0.602-1.226-1.213-1.84-1.817c-0.22-0.214-0.443-0.423-0.672-0.628
		c-1.14-1.027-2.278-2.057-3.423-3.079c-1.475-1.315-2.961-2.618-4.428-3.941c-1.291-1.166-2.557-2.362-3.85-3.525
		c-0.889-0.8-1.807-1.566-2.793-2.418c-0.008,0.239-0.018,0.39-0.018,0.54c0,2.975,0.006,5.949-0.008,8.923
		c-0.002,0.33-0.059,0.673-0.162,0.986c-0.668,2.027-1.908,3.676-3.451,5.117c-0.23,0.217-0.475,0.421-0.781,0.591
		c0.041-0.326,0.078-0.652,0.125-0.978c0.191-1.357,0.387-2.715,0.58-4.073c0.283-1.978,0.566-3.956,0.846-5.936
		c0.189-1.328,0.373-2.658,0.56-3.988c0.183-1.313,0.362-2.63,0.558-3.943c0.029-0.194,0.1-0.397,0.203-0.564
		c0.963-1.548,0.727-0.929,0.742-2.785c0-0.014-0.01-0.027-0.041-0.121c-0.154,0.249-0.283,0.456-0.412,0.663
		c-0.021-0.004-0.043-0.008-0.064-0.012c0-0.074-0.01-0.15,0.002-0.223c0.162-1.126,0.328-2.252,0.49-3.379
		c0.021-0.145,0.027-0.291,0.033-0.438c0.02-0.395-0.002-0.774,0.154-1.172c0.168-0.423,0.167-0.914,0.229-1.376
		c0.109-0.818,0.21-1.639,0.275-2.468c-0.18,0.504-0.328,1.022-0.549,1.507c-0.225,0.491-0.5,0.961-0.789,1.418
		c-0.293,0.466-0.635,0.898-1.102,1.247c0.074-0.413,0.162-0.823,0.218-1.238c0.05-0.376,0.106-0.759,0.084-1.134
		c-0.049-0.832-0.132-1.664-0.229-2.492c-0.031-0.271-0.134-0.538-0.238-0.792c-0.217-0.527-0.438-1.054-0.691-1.564
		c-0.182-0.364-0.414-0.703-0.637-1.045c-0.199-0.307-0.424-0.597-0.621-0.904c-0.906-1.405-2.115-2.499-3.496-3.416
		c-1.846-1.226-3.861-2.086-5.971-2.736c-2.898-0.894-5.871-1.374-8.896-1.517c-0.498-0.023-0.996-0.043-1.494-0.061
		c-0.1-0.003-0.198,0.016-0.324,0.026"/>
	<path fill="#790016" d="M105.277,94.427"/>
</g>
<g id="Capa_39">
</g>
<g id="LLOC">
</g>
<g id="ALÇADA">
</g>
<g id="MANS_ALÇADES">
</g>
<g id="PESO">
</g>
<g id="ma">
</g>
<g id="primeres">
</g>
<g id="Capa_46">
</g>
<g id="Capa_47">
</g>
<g id="Capa_48">
</g>
<g id="asegurat">
</g>
<g id="taller">
</g>
<g id="Capa_51">
</g>
<g id="Capa_52">
</g>
<g id="Capa_53">
</g>
<g id="Capa_54">
</g>
<g id="Capa_55">
</g>
<g id="Capa_56">
</g>
<g id="Capa_57">
</g>
<g id="Capa_58">
</g>
<g id="Capa_59">
</g>
<g id="Capa_60">
</g>
<g id="Capa_61">
</g>
<g id="Capa_62">
</g>
<g id="Capa_63">
</g>
<g id="Capa_64">
</g>
</svg>
