<?xml version="1.0" encoding="utf-8"?>
<!-- Generator: Adobe Illustrator 16.0.0, SVG Export Plug-In . SVG Version: 6.00 Build 0)  -->
<!DOCTYPE svg PUBLIC "-//W3C//DTD SVG 1.1//EN" "http://www.w3.org/Graphics/SVG/1.1/DTD/svg11.dtd">
<svg version="1.1" xmlns="http://www.w3.org/2000/svg" xmlns:xlink="http://www.w3.org/1999/xlink" x="0px" y="0px" width="192px"
	 height="192px" viewBox="0 0 192 192" enable-background="new 0 0 192 192" xml:space="preserve">
<g id="NOTICIAS23">
</g>
<g id="CALENDARI">
</g>
<g id="INCIDENCIES">
</g>
<g id="ACCEDIR">
</g>
<g id="SORTIR">
</g>
<g id="REGISTRE">
</g>
<g id="TUTORIAL">
</g>
<g id="TUTORIAL2">
</g>
<g id="CONVO">
</g>
<g id="COMUNICAT">
</g>
<g id="DIADA">
</g>
<g id="DIADA_2">
</g>
<g id="ENTRENO">
</g>
<g id="ENTRENO2">
</g>
<g id="DELEGACIÓ2">
</g>
<g id="EVENTO_SOCIAL">
</g>
<g id="ev2">
</g>
<g id="MAIL">
</g>
<g id="TELEFONO">
</g>
<g id="TLF_EMERG">
</g>
<g id="TRANS">
</g>
<g id="ACOMPAÑANT">
</g>
<g id="CONTRASEÑA">
</g>
<g id="CONTRA_x5F_2">
	<path fill-rule="evenodd" clip-rule="evenodd" fill="#790016" d="M96.011,174.149c-13.4,0-26.801,0.008-40.199-0.002
		c-12.322-0.01-19.81-7.431-19.836-19.746c-0.033-18.833-0.033-37.667,0-56.502c0.023-12.29,7.514-19.765,19.825-19.777
		c26.801-0.028,53.598-0.02,80.397,0c9.819,0.004,16.766,4.836,19.067,13.383c0.574,2.137,0.736,4.439,0.743,6.665
		c0.057,18.647,0.049,37.294,0.026,55.942c-0.014,12.68-7.407,20.031-20.108,20.035C122.621,174.154,109.314,174.149,96.011,174.149
		z M95.955,101.613c-6.142,0.024-11.659,3.886-13.568,9.507c-1.922,5.63-0.104,11.105,4.832,15.218
		c0.787,0.654,1.421,1.946,1.459,2.968c0.159,4.395,0.021,8.796,0.085,13.194c0.063,4.478,3.117,7.588,7.295,7.566
		c4.152-0.024,7.139-3.164,7.194-7.671c0.048-4.304-0.093-8.613,0.084-12.912c0.045-1.103,0.716-2.493,1.562-3.196
		c4.854-4.041,6.656-9.614,4.693-15.262C107.647,105.433,102.081,101.591,95.955,101.613z"/>
	<path fill-rule="evenodd" clip-rule="evenodd" fill="#790016" d="M62.78,66.004c-4.966,0-9.707,0-14.438,0
		c-0.928-14.651,5.967-33.634,23.1-41.95c18.638-9.045,37.228-8.458,54.589,3.444c10.19,6.986,15.312,17.438,17.197,29.493
		c0.459,2.917,0.555,5.895,0.835,9.02c-5.148,0-9.896,0-14.953,0c-0.553-11.138-5.014-20.338-14.266-26.894
		c-5.927-4.201-12.602-6.063-19.836-5.925C80.513,33.474,63.894,44.706,62.78,66.004z"/>
</g>
<g id="DADES_PERSONALS">
</g>
<g id="DADES_PERSONALS2">
</g>
<g id="EDITAR">
</g>
<g id="DELEGACIÓ">
</g>
<g id="PERFIL">
</g>
<g id="CONFIRMATS">
</g>
<g id="NO_CONFIRM">
</g>
<g id="CASTELLERS">
</g>
</svg>
