<?xml version="1.0" encoding="utf-8"?>
<!-- Generator: Adobe Illustrator 16.0.0, SVG Export Plug-In . SVG Version: 6.00 Build 0)  -->
<!DOCTYPE svg PUBLIC "-//W3C//DTD SVG 1.1//EN" "http://www.w3.org/Graphics/SVG/1.1/DTD/svg11.dtd">
<svg version="1.1" xmlns="http://www.w3.org/2000/svg" xmlns:xlink="http://www.w3.org/1999/xlink" x="0px" y="0px" width="192px"
	 height="192px" viewBox="0 0 192 192" enable-background="new 0 0 192 192" xml:space="preserve">
<g id="NOTICIAS23">
</g>
<g id="CALENDARI">
</g>
<g id="INCIDENCIES">
</g>
<g id="ACCEDIR">
</g>
<g id="SORTIR">
</g>
<g id="REGISTRE">
</g>
<g id="TUTORIAL">
</g>
<g id="TUTORIAL2">
</g>
<g id="CONVO">
</g>
<g id="COMUNICAT">
</g>
<g id="DIADA">
</g>
<g id="DIADA_2">
</g>
<g id="ENTRENO">
</g>
<g id="ENTRENO2">
</g>
<g id="DELEGACIÓ2">
</g>
<g id="EVENTO_SOCIAL">
	<path fill="#790016" d="M96,17.953c-43.549,0-78.853,35.303-78.853,78.853c0,43.548,35.304,78.851,78.853,78.851
		s78.853-35.303,78.853-78.851C174.853,53.256,139.549,17.953,96,17.953z M96,168.273c-39.945,0-72.328-32.383-72.328-72.329
		S56.055,23.617,96,23.617c39.946,0,72.329,32.382,72.329,72.328S135.946,168.273,96,168.273z"/>
	<g>
		<path fill-rule="evenodd" clip-rule="evenodd" fill="#790016" d="M120.923,67.254c-0.109-0.118-0.394-0.206-0.528-0.148
			c-1.197,0.51-2.379,1.056-3.665,1.638c5.92,5.745,9.524,12.185,7.188,20.663c0.076,0.006,0.111,0.019,0.129,0.007
			c0.063-0.042,0.137-0.081,0.18-0.141c2.44-3.437,3.355-7.249,2.582-11.385C126.029,73.715,123.742,70.323,120.923,67.254z"/>
		<path fill-rule="evenodd" clip-rule="evenodd" fill="#790016" d="M69.205,61.229c-1.217,2.125-2.603,4.174-3.602,6.398
			c-1.898,4.226-2.746,8.65-1.684,13.292c0.695,3.032,2.152,5.627,4.399,7.759c-0.083-0.13-0.163-0.258-0.245-0.387
			c-1.973-3.065-2.933-6.396-2.607-10.052c0.396-4.454,2.375-8.231,5.063-11.689c0.715-0.918,1.504-1.777,2.301-2.713
			c-1.107-1.011-2.179-1.991-3.28-2.997C69.405,61.002,69.28,61.102,69.205,61.229z"/>
		<path fill-rule="evenodd" clip-rule="evenodd" fill="#790016" d="M96,28.412c-37.298,0-67.533,30.236-67.533,67.533
			S58.702,163.479,96,163.479c37.299,0,67.534-30.236,67.534-67.534S133.299,28.412,96,28.412z M83.319,107.18
			c0.149,0.331,0.333,0.646,0.534,1.031c-0.3-0.024-0.563-0.047-0.924-0.078c0.18,0.895,0.334,1.735,0.52,2.568
			c1.477,6.643,2.151,13.374,2.213,20.169c0.023,2.617-0.043,5.235-0.056,7.852c-0.003,0.62-0.158,1.162-0.728,1.459
			c-0.254,0.133-0.627,0.228-0.867,0.136c-0.166-0.066-0.285-0.477-0.283-0.731c0.01-1.807,0.074-3.611,0.087-5.417
			c0.045-6.504-0.38-12.971-1.603-19.369c-0.379-1.976-0.848-3.934-1.229-5.911c-0.129-0.664-0.447-0.735-0.988-0.533
			c-0.388,0.146-0.783,0.274-1.223,0.426c0.42-0.75,0.813-1.453,1.179-2.104c-1.31-0.651-2.558-1.185-3.72-1.865
			c-3.023-1.771-5.6-4.09-7.951-6.673c-3.167-3.478-5.697-7.356-7.354-11.766c-1.082-2.888-1.602-5.888-1.558-8.986
			c0.046-3.401,0.532-6.724,1.583-9.959c1.522-4.685,3.934-8.825,7.619-12.15c3.014-2.717,6.52-4.41,10.566-4.934
			c0.18-0.024,0.354-0.081,0.531-0.122c1.047,0,2.094,0,3.141,0c0.813,0.18,1.628,0.343,2.436,0.543
			c4.383,1.086,7.862,3.584,10.702,7.006c1.093,1.317,2.009,2.781,3.018,4.197c-6.614,4.426-10.164,10.631-11.763,18.11
			c-1.606,7.516-0.48,14.551,3.645,21.049c-2.201,1.927-4.402,3.691-7.04,4.791C83.092,106.219,83.055,106.602,83.319,107.18z
			 M132.016,93.464c-0.977,4.011-2.797,7.643-5.184,10.999c-1.933,2.716-4.151,5.178-6.682,7.349c-1.867,1.603-3.83,3.082-6.1,4.085
			c-0.505,0.222-0.627,0.503-0.42,0.968c0.158,0.354,0.344,0.697,0.565,1.145c-0.582-0.086-1.095-0.162-1.573-0.231
			c0,2.233-0.197,4.42,0.047,6.558c0.358,3.15,2.271,5.499,4.592,7.529c1.036,0.905,0.889,1.664-0.383,2.289
			c-1.308,0.644-2.643,1.26-3.859,2.053c-1.162,0.756-1.342,1.856-0.893,3.186c0.645,1.899,1.242,3.815,1.838,5.729
			c0.084,0.269,0.064,0.57,0.078,0.856c0.051,1.08-0.178,2.028-1.228,2.587c-0.21,0-0.419,0-0.628,0
			c-0.039-0.256-0.143-0.521-0.107-0.768c0.266-1.88-0.433-3.551-1.088-5.236c-0.293-0.754-0.578-1.517-0.789-2.297
			c-0.656-2.44,0.403-4.188,2.383-5.65c0.771-0.572,1.627-1.032,2.514-1.587c-0.461-0.521-0.918-1.042-1.379-1.56
			c-1.988-2.236-3.083-4.822-3.082-7.84c0-1.801,0-3.603,0-5.479c-0.576,0.141-1.068,0.26-1.506,0.366
			c0.326-0.545,0.654-1.095,1.035-1.731c-2.514-0.713-4.596-1.978-6.563-3.459c-2.517-1.897-4.754-4.083-6.765-6.504
			c-1.929-2.319-3.589-4.825-4.894-7.544c-1.467-3.064-2.492-6.278-2.674-9.694c-0.365-6.938,1.211-13.404,4.984-19.262
			c2.476-3.841,5.745-6.843,10.021-8.595c3.54-1.451,7.207-1.735,10.926-0.775c5.074,1.309,8.879,4.417,11.879,8.599
			c2.75,3.833,4.365,8.151,5.127,12.771C132.822,86.03,132.915,89.773,132.016,93.464z"/>
	</g>
	<path fill-rule="evenodd" clip-rule="evenodd" fill="#790016" d="M116.729,68.744c1.286-0.582,2.468-1.128,3.665-1.638
		c0.135-0.058,0.419,0.031,0.528,0.148c2.819,3.069,5.106,6.461,5.886,10.634c0.773,4.136-0.142,7.948-2.582,11.385
		c-0.043,0.06-0.117,0.098-0.18,0.141c-0.018,0.011-0.053-0.001-0.129-0.007C126.254,80.929,122.649,74.489,116.729,68.744z"/>
	<path fill-rule="evenodd" clip-rule="evenodd" fill="#790016" d="M68.319,88.679c-2.247-2.132-3.704-4.727-4.399-7.759
		c-1.063-4.642-0.215-9.066,1.684-13.292c0.999-2.224,2.385-4.273,3.602-6.398c0.075-0.128,0.2-0.227,0.345-0.39
		c1.102,1.006,2.173,1.986,3.28,2.997c-0.797,0.937-1.586,1.795-2.301,2.713c-2.688,3.458-4.667,7.236-5.063,11.689
		c-0.325,3.656,0.635,6.987,2.607,10.052C68.156,88.42,68.236,88.549,68.319,88.679z"/>
</g>
<g id="ev2">
</g>
<g id="MAIL">
</g>
<g id="TELEFONO">
</g>
<g id="TLF_EMERG">
</g>
<g id="TRANS">
</g>
<g id="ACOMPAÑANT">
</g>
<g id="CONTRASEÑA">
</g>
<g id="CONTRA_x5F_2">
</g>
<g id="DADES_PERSONALS">
</g>
<g id="DADES_PERSONALS2">
</g>
<g id="EDITAR">
</g>
<g id="DELEGACIÓ">
</g>
<g id="PERFIL">
</g>
<g id="CONFIRMATS">
</g>
<g id="NO_CONFIRM">
</g>
<g id="CASTELLERS">
</g>
</svg>
