<?xml version="1.0" encoding="utf-8"?>
<!-- Generator: Adobe Illustrator 16.0.0, SVG Export Plug-In . SVG Version: 6.00 Build 0)  -->
<!DOCTYPE svg PUBLIC "-//W3C//DTD SVG 1.1//EN" "http://www.w3.org/Graphics/SVG/1.1/DTD/svg11.dtd">
<svg version="1.1" xmlns="http://www.w3.org/2000/svg" xmlns:xlink="http://www.w3.org/1999/xlink" x="0px" y="0px" width="192px"
	 height="192px" viewBox="0 0 192 192" enable-background="new 0 0 192 192" xml:space="preserve">
<g id="NOTICIAS23">
</g>
<g id="CALENDARI">
</g>
<g id="INCIDENCIES">
</g>
<g id="ACCEDIR">
</g>
<g id="SORTIR">
</g>
<g id="REGISTRE">
</g>
<g id="TUTORIAL">
</g>
<g id="TUTORIAL2">
</g>
<g id="CONVO">
</g>
<g id="COMUNICAT">
</g>
<g id="DIADA">
</g>
<g id="DIADA_2">
	<path fill="#790016" d="M96,16.289c-43.549,0-78.853,35.303-78.853,78.853c0,43.549,35.304,78.852,78.853,78.852
		s78.853-35.303,78.853-78.852C174.853,51.592,139.549,16.289,96,16.289z M96,166.609c-39.945,0-72.328-32.383-72.328-72.328
		c0-39.946,32.383-72.328,72.328-72.328c39.946,0,72.329,32.382,72.329,72.328C168.329,134.226,135.946,166.609,96,166.609z"/>
	<g>
		<path fill="#790016" d="M96,26.748c-37.298,0-67.533,30.236-67.533,67.533c0,37.298,30.235,67.534,67.533,67.534
			c37.299,0,67.534-30.236,67.534-67.534C163.534,56.983,133.299,26.748,96,26.748z M96.667,42.684
			c13.117,0,23.75,10.634,23.75,23.75c0,13.117-10.633,23.751-23.75,23.751S72.916,79.551,72.916,66.434
			C72.916,53.317,83.55,42.684,96.667,42.684z M137.123,119.349c-0.973,11.018-15.102,17.534-21.478,19.927
			c-1.905,4.263-5.63,7.158-9.913,7.158H87.6c-6.223,0-11.267-6.112-11.267-13.651v-28.061c0-0.536,0.034-1.06,0.084-1.58
			c-1.188,0.078-2.353,0.132-3.469,0.132c-9.237,0-16.065-2.68-20.373-8.016c-8.016-9.93-4.173-25.367-1.577-32.843
			c-0.62-1.085-0.972-2.328-0.972-3.649c0-4.234,3.612-7.667,8.069-7.667c4.458,0,8.07,3.432,8.07,7.667
			c0,3.619-2.641,6.644-6.19,7.449c-2.199,6.711-4.325,17.469,0.219,23.084c4.284,5.295,14.167,4.863,21.954,3.491
			c0.964-0.647,2.008-1.139,3.118-1.422c3.384,1.855,7.269,2.912,11.4,2.912s8.016-1.057,11.399-2.912
			c0.752,0.192,1.471,0.484,2.159,0.848l0.114-0.194C129.193,100.976,137.955,109.915,137.123,119.349z"/>
		<path fill="#790016" d="M117,106.216v22.421c4.788-2.454,9.775-6.015,10.121-10.007C127.318,116.341,125.971,112.099,117,106.216z
			"/>
	</g>
</g>
<g id="ENTRENO">
</g>
<g id="ENTRENO2">
</g>
<g id="DELEGACIÓ2">
</g>
<g id="EVENTO_SOCIAL">
</g>
<g id="ev2">
</g>
<g id="MAIL">
</g>
<g id="TELEFONO">
</g>
<g id="TLF_EMERG">
</g>
<g id="TRANS">
</g>
<g id="ACOMPAÑANT">
</g>
<g id="CONTRASEÑA">
</g>
<g id="CONTRA_x5F_2">
</g>
<g id="DADES_PERSONALS">
</g>
<g id="DADES_PERSONALS2">
</g>
<g id="EDITAR">
</g>
<g id="DELEGACIÓ">
</g>
<g id="PERFIL">
</g>
<g id="CONFIRMATS">
</g>
<g id="NO_CONFIRM">
</g>
<g id="CASTELLERS">
</g>
</svg>
