<?xml version="1.0" encoding="utf-8"?>
<!-- Generator: Adobe Illustrator 16.0.0, SVG Export Plug-In . SVG Version: 6.00 Build 0)  -->
<!DOCTYPE svg PUBLIC "-//W3C//DTD SVG 1.1//EN" "http://www.w3.org/Graphics/SVG/1.1/DTD/svg11.dtd">
<svg version="1.1" xmlns="http://www.w3.org/2000/svg" xmlns:xlink="http://www.w3.org/1999/xlink" x="0px" y="0px" width="192px"
	 height="192px" viewBox="0 0 192 192" enable-background="new 0 0 192 192" xml:space="preserve">
<g id="NOTICIAS23">
</g>
<g id="CALENDARI">
</g>
<g id="INCIDENCIES">
</g>
<g id="ACCEDIR">
</g>
<g id="SORTIR">
</g>
<g id="REGISTRE">
</g>
<g id="TUTORIAL">
</g>
<g id="TUTORIAL2">
</g>
<g id="CONVO">
</g>
<g id="COMUNICAT">
</g>
<g id="DIADA">
</g>
<g id="DIADA_2">
</g>
<g id="ENTRENO">
</g>
<g id="ENTRENO2">
</g>
<g id="DELEGACIÓ2">
</g>
<g id="EVENTO_SOCIAL">
</g>
<g id="ev2">
</g>
<g id="MAIL">
</g>
<g id="TELEFONO">
</g>
<g id="TLF_EMERG">
</g>
<g id="TRANS">
</g>
<g id="ACOMPAÑANT">
</g>
<g id="CONTRASEÑA">
</g>
<g id="CONTRA_x5F_2">
</g>
<g id="DADES_PERSONALS">
</g>
<g id="DADES_PERSONALS2">
</g>
<g id="EDITAR">
</g>
<g id="DELEGACIÓ">
	<path fill="#790016" d="M96,18.55c-43.549,0-78.853,35.303-78.853,78.853c0,43.549,35.304,78.852,78.853,78.852
		s78.852-35.303,78.852-78.852C174.852,53.853,139.549,18.55,96,18.55z M96,168.87c-39.945,0-72.328-32.383-72.328-72.328
		c0-39.946,32.383-72.328,72.328-72.328c39.946,0,72.329,32.382,72.329,72.328C168.329,136.487,135.946,168.87,96,168.87z"/>
	<path fill="#790016" d="M95.999,29.009c-37.298,0-67.534,30.236-67.534,67.533c0,37.298,30.236,67.534,67.534,67.534
		c37.299,0,67.534-30.236,67.534-67.534C163.533,59.245,133.298,29.009,95.999,29.009z M110.124,148.489
		c-3.429-0.463-6.372-2.186-8.451-4.626c-16.451,1.702-30.15-3.649-40.426-16.714c-9.536-12.12-11.638-25.837-7.32-40.582
		c0.094-0.313,0.292-0.595,0.051-1.183c-3.912,1.479-7.796,3.034-11.743,4.412c-3.128,1.091-6.066-1.44-5.42-4.577
		c0.158-0.761,0.614-1.46,0.932-2.189c0.685-0.431,1.366-0.862,2.05-1.292c4.073-1.482,8.155-2.94,12.215-4.453
		c2.831-1.056,5.632-2.194,8.451-3.284c3.359-1.299,5.283-0.404,6.592,3c2.632,6.832,5.301,13.651,7.92,20.488
		c1.021,2.662,0.133,5.018-2.141,5.921c-2.268,0.901-4.452-0.233-5.525-2.896c-0.73-1.806-1.421-3.627-2.126-5.44
		c-0.896-2.307-1.786-4.617-3.137-6.955c-0.58,2.646-1.41,5.267-1.7,7.945c-2.431,22.581,15.749,41.228,38.115,39.837
		c-0.049-0.852-0.024-1.72,0.094-2.598c0.999-7.388,7.798-12.567,15.188-11.568c7.387,0.998,12.566,7.798,11.568,15.186
		S117.512,149.488,110.124,148.489z M155.865,105.271c-0.75,0.573-1.498,1.146-2.248,1.72c-3.146,1.435-6.318,2.823-9.439,4.315
		c-3.393,1.624-6.735,3.35-10.104,5.025c-3.223,1.603-5.23,0.887-6.844-2.377c-3.213-6.506-6.445-12.999-9.67-19.498
		c-1.232-2.489-0.872-4.625,0.992-5.948c1.629-1.158,3.996-1.017,5.331,0.519c0.731,0.84,1.19,1.934,1.698,2.95
		c1.682,3.364,3.328,6.745,4.996,10.116c0.055,0.111,0.189,0.184,0.674,0.626c0.342-2.849,0.85-5.397,0.926-7.96
		c0.629-21.276-16.898-37.864-37.378-37.015c-0.794,6.854-6.694,12.097-13.727,11.928c-7.454-0.179-13.351-6.365-13.171-13.818
		c0.178-7.454,6.365-13.35,13.818-13.171c4.93,0.118,9.164,2.873,11.426,6.876c10.31-0.832,19.992,1.705,28.658,8.092
		c15.031,11.077,20.801,26.166,17.836,44.594c-0.105,0.646-0.24,1.29-0.427,2.293c4.03-1.96,7.759-3.864,11.565-5.597
		c3.014-1.371,6.172,0.88,5.813,4.064C156.506,103.778,156.115,104.517,155.865,105.271z"/>
</g>
<g id="PERFIL">
</g>
<g id="CONFIRMATS">
</g>
<g id="NO_CONFIRM">
</g>
<g id="CASTELLERS">
</g>
</svg>
