<?xml version="1.0" encoding="utf-8"?>
<!-- Generator: Adobe Illustrator 16.0.0, SVG Export Plug-In . SVG Version: 6.00 Build 0)  -->
<!DOCTYPE svg PUBLIC "-//W3C//DTD SVG 1.1//EN" "http://www.w3.org/Graphics/SVG/1.1/DTD/svg11.dtd">
<svg version="1.1" xmlns="http://www.w3.org/2000/svg" xmlns:xlink="http://www.w3.org/1999/xlink" x="0px" y="0px" width="192px"
	 height="192px" viewBox="0 0 192 192" enable-background="new 0 0 192 192" xml:space="preserve">
<g id="NOTICIAS23">
	<path fill="#790016" d="M97.695,18.148c-43.549,0-78.853,35.303-78.853,78.852s35.304,78.854,78.853,78.854
		S176.548,140.549,176.548,97S141.244,18.148,97.695,18.148z M97.695,168.469c-39.945,0-72.328-32.383-72.328-72.328
		c0-39.946,32.383-72.329,72.328-72.329c39.946,0,72.329,32.382,72.329,72.329C170.024,136.086,137.642,168.469,97.695,168.469z"/>
	<g>
		<path fill="#790016" d="M133.88,66.196h-21.738c-0.553,0-1,0.448-1,1s0.447,1,1,1h21.738c0.553,0,1-0.448,1-1
			S134.433,66.196,133.88,66.196z"/>
		<path fill="#790016" d="M133.88,76.337h-21.738c-0.553,0-1,0.448-1,1s0.447,1,1,1h21.738c0.553,0,1-0.448,1-1
			S134.433,76.337,133.88,76.337z"/>
		<path fill="#790016" d="M133.88,86.562h-21.738c-0.553,0-1,0.448-1,1s0.447,1,1,1h21.738c0.553,0,1-0.448,1-1
			S134.433,86.562,133.88,86.562z"/>
		<path fill="#790016" d="M133.88,110.734h-21.738c-0.553,0-1,0.447-1,1s0.447,1,1,1h21.738c0.553,0,1-0.447,1-1
			S134.433,110.734,133.88,110.734z"/>
		<path fill="#790016" d="M133.88,118.706h-21.738c-0.553,0-1,0.447-1,1s0.447,1,1,1h21.738c0.553,0,1-0.447,1-1
			S134.433,118.706,133.88,118.706z"/>
		<path fill="#790016" d="M133.88,127.097h-21.738c-0.553,0-1,0.447-1,1s0.447,1,1,1h21.738c0.553,0,1-0.447,1-1
			S134.433,127.097,133.88,127.097z"/>
		<path fill="#790016" d="M100.49,127.097H79.533c-0.553,0-1,0.447-1,1s0.447,1,1,1h20.957c0.553,0,1-0.447,1-1
			S101.043,127.097,100.49,127.097z"/>
		<path fill="#790016" d="M100.49,118.706H79.533c-0.553,0-1,0.447-1,1s0.447,1,1,1h20.957c0.553,0,1-0.447,1-1
			S101.043,118.706,100.49,118.706z"/>
		<path fill="#790016" d="M100.49,110.734H79.533c-0.553,0-1,0.447-1,1s0.447,1,1,1h20.957c0.553,0,1-0.447,1-1
			S101.043,110.734,100.49,110.734z"/>
		<path fill="#790016" d="M133.88,95.479H79.533c-0.553,0-1,0.447-1,1s0.447,1,1,1h54.347c0.553,0,1-0.447,1-1
			S134.433,95.479,133.88,95.479z"/>
		<path fill="#790016" d="M133.88,103.133H79.533c-0.553,0-1,0.447-1,1s0.447,1,1,1h54.347c0.553,0,1-0.447,1-1
			S134.433,103.133,133.88,103.133z"/>
		<path fill="#790016" d="M97.695,28.607c-37.298,0-67.533,30.236-67.533,67.534c0,37.297,30.235,67.533,67.533,67.533
			c37.299,0,67.534-30.236,67.534-67.533C165.229,58.843,134.994,28.607,97.695,28.607z M140.303,133.114
			c0,2.577-1.973,4.668-4.407,4.668l-4.328-0.108H69.176v-0.049h-4.867l-4.479-0.191c-1.243,0-2.362-0.55-3.163-1.429
			c-0.007-0.004-0.017-0.01-0.022-0.016c-0.108-0.108-0.205-0.246-0.298-0.394c-0.57-0.787-0.924-1.761-0.924-2.83
			c0-0.11,0.023-0.214,0.03-0.322c-0.135-1.038-0.154-1.879-0.154-1.879V79.991c-0.062-0.309-0.094-0.628-0.094-0.956
			c0-2.578,1.973-4.668,4.407-4.668c0.168,0,0.328,0.033,0.492,0.053h6.366v54.555c0,0.828,0.672,1.5,1.5,1.5s1.5-0.672,1.5-1.5
			V57.636c0.048-0.06,0.098-0.122,0.154-0.191c0.076-2.506,2.006-4.517,4.393-4.517c0.303,0,0.597,0.033,0.883,0.094h57.823
			l2.963-0.05c1.277,0,2.417,0.584,3.223,1.503c0.002,0.002,0.005,0.004,0.007,0.006c0.018,0.019,0.034,0.048,0.051,0.069
			c0.693,0.825,1.127,1.899,1.127,3.09c0,0.338,0.028,1.881-0.036,2.199c0.144,1.912,0.008,2.504,0.008,2.504v65.765
			c0,0,0.315,0.859,0.21,2.684C140.438,131.278,140.303,132.567,140.303,133.114z"/>
	</g>
	
		<rect x="80.979" y="65.31" fill="#790016" stroke="#FFFFFF" stroke-linecap="round" stroke-linejoin="round" stroke-miterlimit="10" width="22.548" height="21.743"/>
</g>
<g id="CALENDARI">
</g>
<g id="INCIDENCIES">
</g>
<g id="ACCEDIR">
</g>
<g id="SORTIR">
</g>
<g id="REGISTRE">
</g>
<g id="TUTORIAL">
</g>
<g id="TUTORIAL2">
</g>
<g id="CONVO">
</g>
<g id="COMUNICAT">
</g>
<g id="DIADA">
</g>
<g id="DIADA_2">
</g>
<g id="ENTRENO">
</g>
<g id="ENTRENO2">
</g>
<g id="DELEGACIÓ2">
</g>
<g id="EVENTO_SOCIAL">
</g>
<g id="ev2">
</g>
<g id="MAIL">
</g>
<g id="TELEFONO">
</g>
<g id="TLF_EMERG">
</g>
<g id="TRANS">
</g>
<g id="ACOMPAÑANT">
</g>
<g id="CONTRASEÑA">
</g>
<g id="CONTRA_x5F_2">
</g>
<g id="DADES_PERSONALS">
</g>
<g id="DADES_PERSONALS2">
</g>
<g id="EDITAR">
</g>
<g id="DELEGACIÓ">
</g>
<g id="PERFIL">
</g>
<g id="CONFIRMATS">
</g>
<g id="NO_CONFIRM">
</g>
<g id="CASTELLERS">
</g>
</svg>
