<?xml version="1.0" encoding="utf-8"?>
<!-- Generator: Adobe Illustrator 16.0.0, SVG Export Plug-In . SVG Version: 6.00 Build 0)  -->
<!DOCTYPE svg PUBLIC "-//W3C//DTD SVG 1.1//EN" "http://www.w3.org/Graphics/SVG/1.1/DTD/svg11.dtd">
<svg version="1.1" xmlns="http://www.w3.org/2000/svg" xmlns:xlink="http://www.w3.org/1999/xlink" x="0px" y="0px" width="192px"
	 height="192px" viewBox="0 0 192 192" enable-background="new 0 0 192 192" xml:space="preserve">
<g id="NOTICIAS23">
</g>
<g id="CALENDARI">
</g>
<g id="INCIDENCIES">
</g>
<g id="ACCEDIR">
</g>
<g id="SORTIR">
</g>
<g id="REGISTRE">
</g>
<g id="TUTORIAL">
</g>
<g id="TUTORIAL2">
</g>
<g id="CONVO">
</g>
<g id="COMUNICAT">
	<path fill="#790016" d="M96,18.026c-43.549,0-78.853,35.303-78.853,78.853c0,43.549,35.304,78.852,78.853,78.852
		s78.853-35.303,78.853-78.852C174.853,53.33,139.549,18.026,96,18.026z M96,168.347c-39.945,0-72.328-32.383-72.328-72.328
		C23.672,56.073,56.055,23.69,96,23.69c39.946,0,72.329,32.382,72.329,72.328C168.329,135.964,135.946,168.347,96,168.347z"/>
	<path fill="#790016" d="M96,28.485c-37.298,0-67.533,30.236-67.533,67.533c0,37.298,30.235,67.534,67.533,67.534
		c37.299,0,67.534-30.236,67.534-67.534C163.534,58.721,133.299,28.485,96,28.485z M88.468,51.5h14.95v24.15
		c0.152,3.297,0.152,6.595,0,9.89c-0.155,3.297-0.385,6.632-0.69,10.005c-0.306,3.375-0.609,6.689-0.913,9.947
		c-0.306,3.26-0.571,6.575-0.798,9.947h-9.695c-0.153-3.372-0.401-6.688-0.742-9.947c-0.344-3.258-0.667-6.572-0.971-9.947
		c-0.381-3.373-0.665-6.708-0.855-10.005c-0.19-3.295-0.248-6.593-0.17-9.89L88.468,51.5z M88.697,137.75v-15.18h14.835l0.115,15.18
		H88.697z"/>
</g>
<g id="DIADA">
</g>
<g id="DIADA_2">
</g>
<g id="ENTRENO">
</g>
<g id="ENTRENO2">
</g>
<g id="DELEGACIÓ2">
</g>
<g id="EVENTO_SOCIAL">
</g>
<g id="ev2">
</g>
<g id="MAIL">
</g>
<g id="TELEFONO">
</g>
<g id="TLF_EMERG">
</g>
<g id="TRANS">
</g>
<g id="ACOMPAÑANT">
</g>
<g id="CONTRASEÑA">
</g>
<g id="CONTRA_x5F_2">
</g>
<g id="DADES_PERSONALS">
</g>
<g id="DADES_PERSONALS2">
</g>
<g id="EDITAR">
</g>
<g id="DELEGACIÓ">
</g>
<g id="PERFIL">
</g>
<g id="CONFIRMATS">
</g>
<g id="NO_CONFIRM">
</g>
<g id="CASTELLERS">
</g>
</svg>
