<?xml version="1.0" encoding="utf-8"?>
<!-- Generator: Adobe Illustrator 16.0.0, SVG Export Plug-In . SVG Version: 6.00 Build 0)  -->
<!DOCTYPE svg PUBLIC "-//W3C//DTD SVG 1.1//EN" "http://www.w3.org/Graphics/SVG/1.1/DTD/svg11.dtd">
<svg version="1.1" xmlns="http://www.w3.org/2000/svg" xmlns:xlink="http://www.w3.org/1999/xlink" x="0px" y="0px" width="192px"
	 height="192px" viewBox="0 0 192 192" enable-background="new 0 0 192 192" xml:space="preserve">
<g id="NOTICIAS23">
</g>
<g id="CALENDARI">
</g>
<g id="INCIDENCIES">
</g>
<g id="ACCEDIR">
</g>
<g id="SORTIR">
</g>
<g id="REGISTRE">
</g>
<g id="TUTORIAL">
</g>
<g id="TUTORIAL2">
</g>
<g id="CONVO">
</g>
<g id="COMUNICAT">
</g>
<g id="DIADA">
</g>
<g id="DIADA_2">
</g>
<g id="ENTRENO">
</g>
<g id="ENTRENO2">
</g>
<g id="DELEGACIÓ2">
</g>
<g id="EVENTO_SOCIAL">
</g>
<g id="ev2">
</g>
<g id="MAIL">
	<path fill="#790016" d="M96,18.026c-43.549,0-78.853,35.303-78.853,78.853S52.451,175.73,96,175.73s78.853-35.303,78.853-78.852
		S139.549,18.026,96,18.026z M96,168.346c-39.945,0-72.328-32.383-72.328-72.328C23.672,56.072,56.055,23.69,96,23.69
		c39.946,0,72.329,32.382,72.329,72.328C168.329,135.963,135.946,168.346,96,168.346z"/>
	<path fill="#790016" d="M96,28.485c-37.298,0-67.533,30.236-67.533,67.533c0,37.298,30.235,67.535,67.533,67.535
		c37.299,0,67.534-30.236,67.534-67.535C163.534,58.721,133.299,28.485,96,28.485z M136,69.221c0.368,0,0.725,0.046,1.07,0.123
		L96.052,94.81L54.98,69.483c0.482-0.156,0.986-0.263,1.52-0.263H136z M56.5,124.5c-0.672,0-1.313-0.138-1.898-0.381l25.363-18.344
		c1.119-0.809,1.37-2.372,0.561-3.49c-0.809-1.118-2.373-1.369-3.49-0.561l-25.47,18.42c-0.028-0.213-0.065-0.424-0.065-0.645
		V74.221c0-0.325,0.037-0.641,0.097-0.949l44.465,27.418l44.741-27.778c0.115,0.42,0.197,0.854,0.197,1.31V119.5
		c0,0.661-0.137,1.29-0.372,1.869l-27.163-19.645c-1.117-0.809-2.682-0.558-3.49,0.561c-0.81,1.118-0.559,2.682,0.561,3.49
		l25.838,18.687c-0.125,0.01-0.245,0.038-0.373,0.038H56.5z"/>
</g>
<g id="TELEFONO">
</g>
<g id="TLF_EMERG">
</g>
<g id="TRANS">
</g>
<g id="ACOMPAÑANT">
</g>
<g id="CONTRASEÑA">
</g>
<g id="CONTRA_x5F_2">
</g>
<g id="DADES_PERSONALS">
</g>
<g id="DADES_PERSONALS2">
</g>
<g id="EDITAR">
</g>
<g id="DELEGACIÓ">
</g>
<g id="PERFIL">
</g>
<g id="CONFIRMATS">
</g>
<g id="NO_CONFIRM">
</g>
<g id="CASTELLERS">
</g>
</svg>
