<?xml version="1.0" encoding="utf-8"?>
<!-- Generator: Adobe Illustrator 16.0.0, SVG Export Plug-In . SVG Version: 6.00 Build 0)  -->
<!DOCTYPE svg PUBLIC "-//W3C//DTD SVG 1.1//EN" "http://www.w3.org/Graphics/SVG/1.1/DTD/svg11.dtd">
<svg version="1.1" xmlns="http://www.w3.org/2000/svg" xmlns:xlink="http://www.w3.org/1999/xlink" x="0px" y="0px" width="192px"
	 height="192px" viewBox="0 0 192 192" enable-background="new 0 0 192 192" xml:space="preserve">
<g id="NOTICIAS23">
</g>
<g id="CALENDARI">
</g>
<g id="INCIDENCIES">
</g>
<g id="ACCEDIR">
</g>
<g id="SORTIR">
</g>
<g id="REGISTRE">
</g>
<g id="TUTORIAL">
</g>
<g id="TUTORIAL2">
</g>
<g id="CONVO">
</g>
<g id="COMUNICAT">
</g>
<g id="DIADA">
</g>
<g id="DIADA_2">
</g>
<g id="ENTRENO">
</g>
<g id="ENTRENO2">
</g>
<g id="DELEGACIÓ2">
</g>
<g id="EVENTO_SOCIAL">
</g>
<g id="ev2">
</g>
<g id="MAIL">
</g>
<g id="TELEFONO">
</g>
<g id="TLF_EMERG">
</g>
<g id="TRANS">
</g>
<g id="ACOMPAÑANT">
</g>
<g id="CONTRASEÑA">
</g>
<g id="CONTRA_x5F_2">
</g>
<g id="DADES_PERSONALS">
</g>
<g id="DADES_PERSONALS2">
</g>
<g id="EDITAR">
</g>
<g id="DELEGACIÓ">
</g>
<g id="PERFIL">
</g>
<g id="CONFIRMATS">
</g>
<g id="NO_CONFIRM">
</g>
<g id="CASTELLERS">
</g>
<g id="COMERCIAL">
</g>
<g id="COMERCIAL2">
</g>
<g id="CARREC">
	<path fill="#790016" d="M96.001,11.482c-43.55,0-78.854,35.303-78.854,78.853c0,43.548,35.304,78.851,78.854,78.851
		c43.548,0,78.852-35.303,78.852-78.851C174.853,46.785,139.549,11.482,96.001,11.482z M96.001,161.803
		c-39.946,0-72.329-32.383-72.329-72.329s32.383-72.328,72.329-72.328c39.945,0,72.328,32.382,72.328,72.328
		S135.946,161.803,96.001,161.803z"/>
	<g>
		<path fill="#790016" d="M114.615,67.187c0.055-10.115-8.226-18.51-18.311-18.564C86,48.567,77.609,56.752,77.543,66.924
			c-0.065,10.268,8.207,18.66,18.443,18.709C106.204,85.679,114.559,77.407,114.615,67.187z M96.449,83.888
			c-9.545,0.064-17.104-7.285-17.16-16.684c-0.055-9.284,7.398-16.784,16.749-16.852c9.22-0.067,16.729,7.374,16.831,16.68
			C112.969,76.121,105.461,83.827,96.449,83.888z"/>
		<path fill="#790016" d="M96.001,21.941c-37.299,0-67.535,30.236-67.535,67.533s30.236,67.534,67.535,67.534
			c37.297,0,67.533-30.236,67.533-67.534S133.298,21.941,96.001,21.941z M94.788,103.203c-0.831,2.386-1.704,4.759-2.566,7.133
			c-3.55,9.757-7.098,19.511-10.649,29.264c-0.771,2.12-1.545,4.238-2.322,6.355c-0.062,0.165-0.158,0.314-0.352,0.693
			c-1.491-5.349-2.924-10.483-4.395-15.76c-4.51,3.094-8.932,6.126-13.35,9.156c-0.059-0.039-0.115-0.076-0.172-0.113
			c5.398-14.828,10.795-29.654,16.261-44.67c0.226,0.433,0.355,0.662,0.466,0.899c0.922,1.981,2.137,2.653,4.322,2.307
			c1.369-0.216,2.727-0.503,4.085-0.776c1.779-0.355,3.233,0.259,4.567,1.403c1.297,1.11,2.677,2.122,3.979,3.226
			C94.836,102.469,94.877,102.946,94.788,103.203z M93.223,99.579c-0.766-0.608-1.515-1.247-2.197-1.943
			c-1.613-1.643-3.492-2.188-5.729-1.625c-1.077,0.272-2.177,0.468-3.274,0.653c-2.17,0.366-3.516-0.311-4.383-2.335
			c-0.598-1.394-1.033-2.859-1.541-4.292c-0.535-1.517-1.6-2.483-3.102-3.007c-1.409-0.492-2.85-0.917-4.217-1.503
			c-1.728-0.742-2.373-1.84-2.289-4.116c0.191-1.003,0.468-2.553,0.777-4.095c0.354-1.75-0.049-3.267-1.252-4.603
			c-0.979-1.088-1.969-2.182-2.828-3.363c-1.127-1.542-1.082-2.963,0.025-4.522c0.503-0.707,1.029-1.425,1.671-1.998
			c2.368-2.115,3.069-4.618,2.065-7.645c-0.278-0.84-0.381-1.751-0.47-2.64c-0.162-1.61,0.388-2.932,1.915-3.623
			c1.232-0.558,2.512-1.046,3.813-1.412c2.218-0.623,3.608-1.976,4.232-4.193c0.324-1.147,0.708-2.289,1.186-3.38
			c0.881-2.011,2.121-2.689,4.294-2.375c1.395,0.203,2.778,0.497,4.16,0.785c1.686,0.352,3.108-0.148,4.366-1.254
			c0.878-0.773,1.73-1.573,2.629-2.32c2.17-1.807,3.788-1.81,5.975-0.027c0.59,0.481,1.199,0.955,1.705,1.517
			c1.938,2.151,4.265,2.58,6.972,1.798c1.06-0.307,2.183-0.444,3.286-0.539c1.518-0.131,2.65,0.583,3.288,1.938
			c0.483,1.027,0.823,2.122,1.218,3.19c0.178,0.484,0.334,0.977,0.502,1.465c0.546,1.577,1.643,2.591,3.205,3.124
			c1.131,0.385,2.277,0.731,3.396,1.146c2.682,0.993,3.44,2.348,2.924,5.169c-0.199,1.095-0.42,2.187-0.648,3.277
			c-0.377,1.804,0.024,3.382,1.279,4.755c0.897,0.982,1.805,1.964,2.605,3.022c1.345,1.774,1.323,3.281-0.021,5.068
			c-0.603,0.801-1.255,1.583-1.979,2.272c-1.912,1.823-2.381,3.959-1.708,6.475c0.32,1.199,0.487,2.451,0.599,3.69
			c0.123,1.405-0.52,2.495-1.776,3.134c-0.819,0.417-1.694,0.725-2.556,1.051c-0.609,0.232-1.23,0.431-1.856,0.612
			c-1.948,0.569-3.103,1.884-3.69,3.792c-0.375,1.218-0.763,2.442-1.269,3.61c-0.883,2.033-2.192,2.709-4.376,2.352
			c-1.313-0.215-2.623-0.463-3.922-0.746c-1.668-0.361-3.123,0.025-4.4,1.129c-0.986,0.854-1.934,1.756-2.953,2.564
			C96.811,101.248,95.289,101.229,93.223,99.579z M131.01,140.04c-4.411-3.021-8.824-6.044-13.355-9.148
			c-1.465,5.251-2.901,10.399-4.337,15.548c-0.071,0.003-0.142,0.008-0.213,0.012c-0.233-0.619-0.479-1.234-0.704-1.855
			c-2.943-8.093-5.881-16.185-8.824-24.275c-2.068-5.69-4.137-11.381-6.225-17.063c-0.203-0.557-0.169-0.83,0.414-1.135
			c0.687-0.358,1.291-0.896,1.896-1.396c0.629-0.518,1.23-1.072,1.821-1.631c1.494-1.41,3.238-1.766,5.207-1.311
			c1.139,0.263,2.283,0.506,3.436,0.685c2.221,0.344,3.428-0.339,4.361-2.383c0.099-0.215,0.201-0.429,0.41-0.87
			c5.469,15.021,10.865,29.846,16.264,44.669C131.111,139.938,131.063,139.99,131.01,140.04z"/>
	</g>
</g>
<g id="REFRESH">
</g>
</svg>
