<?xml version="1.0" encoding="utf-8"?>
<!-- Generator: Adobe Illustrator 16.0.0, SVG Export Plug-In . SVG Version: 6.00 Build 0)  -->
<!DOCTYPE svg PUBLIC "-//W3C//DTD SVG 1.1//EN" "http://www.w3.org/Graphics/SVG/1.1/DTD/svg11.dtd">
<svg version="1.1" xmlns="http://www.w3.org/2000/svg" xmlns:xlink="http://www.w3.org/1999/xlink" x="0px" y="0px" width="192px"
	 height="192px" viewBox="0 0 192 192" enable-background="new 0 0 192 192" xml:space="preserve">
<g id="NOTICIAS23">
</g>
<g id="CALENDARI">
</g>
<g id="INCIDENCIES">
</g>
<g id="ACCEDIR">
</g>
<g id="SORTIR">
</g>
<g id="REGISTRE">
</g>
<g id="TUTORIAL">
</g>
<g id="TUTORIAL2">
</g>
<g id="CONVO">
</g>
<g id="COMUNICAT">
</g>
<g id="DIADA">
</g>
<g id="DIADA_2">
</g>
<g id="ENTRENO">
</g>
<g id="ENTRENO2">
</g>
<g id="DELEGACIÓ2">
</g>
<g id="EVENTO_SOCIAL">
</g>
<g id="ev2">
</g>
<g id="MAIL">
</g>
<g id="TELEFONO">
</g>
<g id="TLF_EMERG">
</g>
<g id="TRANS">
</g>
<g id="ACOMPAÑANT">
</g>
<g id="CONTRASEÑA">
</g>
<g id="CONTRA_x5F_2">
</g>
<g id="DADES_PERSONALS">
	<path fill="#790016" d="M96,22.167c-43.549,0-78.853,35.303-78.853,78.853c0,43.549,35.304,78.852,78.853,78.852
		s78.852-35.303,78.852-78.852C174.852,57.47,139.549,22.167,96,22.167z M96,172.487c-39.945,0-72.328-32.383-72.328-72.328
		c0-39.946,32.383-72.328,72.328-72.328c39.946,0,72.329,32.382,72.329,72.328C168.329,140.104,135.946,172.487,96,172.487z"/>
	<g>
		<path fill="#790016" d="M96,32.626c-37.299,0-67.533,30.236-67.533,67.533c0,37.298,30.234,67.534,67.533,67.534
			s67.534-30.236,67.534-67.534C163.534,62.862,133.299,32.626,96,32.626z M76.027,55.085c0.426-0.065,0.844-0.168,1.269-0.252
			c1.474,0,2.945,0,4.421,0c0.579,0.107,1.154,0.227,1.734,0.326c10.256,1.689,18.199,9.886,19.598,20.226
			c1.705,12.624-6.891,24.345-19.443,26.507c-13.079,2.253-25.511-6.672-27.479-19.734C54.162,69.143,63.017,57.096,76.027,55.085z
			 M87.217,124.861c0,2.015,0.195,3.982,0.551,5.895c-14.38,0-28.762,0-43.141,0c0-1.045,0-2.092,0-3.137
			c0.096-0.702,0.197-1.41,0.291-2.114c1.498-10.997,6.531-19.893,15.613-26.405c0.411-0.293,0.644-0.307,1.045,0.045
			c5.056,4.378,10.943,6.69,17.627,6.775c7.002,0.086,13.158-2.264,18.458-6.852c0.101-0.087,0.201-0.18,0.304-0.266
			c0.023-0.02,0.059-0.027,0.181-0.089c0.415,0.321,0.848,0.647,1.276,0.972c-6.416,5.074-10.842,12.545-11.933,21.063
			c0,0-0.272-0.051-0.272,0.017 M141.494,136.533l-2.942-0.973c-1.065,1.805-2.337,3.471-3.817,4.938l1.801,3.254l-11.713,6.481
			l-1.822-3.29c-1.748,0.399-3.557,0.626-5.426,0.626c-2.266,0-4.453-0.331-6.54-0.91l-1.548,2.874l-11.783-6.354l1.91-3.55
			c-1.842-2.009-3.361-4.313-4.452-6.851l-4.276,0.259l-0.804-13.364l3.441-0.21c0.37-2.408,1.089-4.692,2.109-6.812l-2.475-2.239
			l8.985-9.928l2.387,2.158c1.869-1.189,3.906-2.138,6.074-2.788v-3.313h13.393v3.174c2.752,0.752,5.309,1.961,7.582,3.561
			l2.637-2.409l9.034,9.885l-3.226,2.949c1.158,2.734,1.807,5.727,1.889,8.867l3.783,1.25L141.494,136.533z"/>
		<path fill="#790016" d="M117.574,111.022c-6.725,0-12.178,5.454-12.178,12.179c0,6.727,5.453,12.183,12.178,12.183
			c6.729,0,12.18-5.456,12.18-12.183C129.754,116.477,124.303,111.022,117.574,111.022z"/>
	</g>
</g>
<g id="DADES_PERSONALS2">
</g>
<g id="EDITAR">
</g>
<g id="DELEGACIÓ">
</g>
<g id="PERFIL">
</g>
<g id="CONFIRMATS">
</g>
<g id="NO_CONFIRM">
</g>
<g id="CASTELLERS">
</g>
</svg>
