<?xml version="1.0" encoding="utf-8"?>
<!-- Generator: Adobe Illustrator 16.0.0, SVG Export Plug-In . SVG Version: 6.00 Build 0)  -->
<!DOCTYPE svg PUBLIC "-//W3C//DTD SVG 1.1//EN" "http://www.w3.org/Graphics/SVG/1.1/DTD/svg11.dtd">
<svg version="1.1" xmlns="http://www.w3.org/2000/svg" xmlns:xlink="http://www.w3.org/1999/xlink" x="0px" y="0px" width="192px"
	 height="192px" viewBox="0 0 192 192" enable-background="new 0 0 192 192" xml:space="preserve">
<g id="NOTICIAS23" display="none">
</g>
<g id="CALENDARI" display="none">
</g>
<g id="INCIDENCIES" display="none">
</g>
<g id="ACCEDIR" display="none">
</g>
<g id="SORTIR" display="none">
</g>
<g id="REGISTRE" display="none">
</g>
<g id="TUTORIAL" display="none">
</g>
<g id="TUTORIAL2" display="none">
</g>
<g id="CONVO" display="none">
</g>
<g id="COMUNICAT" display="none">
</g>
<g id="DIADA" display="none">
</g>
<g id="DIADA_2" display="none">
</g>
<g id="ENTRENO" display="none">
</g>
<g id="ENTRENO2" display="none">
</g>
<g id="DELEGACIÓ2" display="none">
</g>
<g id="EVENTO_SOCIAL" display="none">
</g>
<g id="ev2" display="none">
</g>
<g id="MAIL" display="none">
</g>
<g id="TELEFONO" display="none">
</g>
<g id="TLF_EMERG" display="none">
</g>
<g id="TRANS" display="none">
</g>
<g id="ACOMPAÑANT" display="none">
</g>
<g id="CONTRASEÑA" display="none">
</g>
<g id="CONTRA_x5F_2" display="none">
</g>
<g id="DADES_PERSONALS" display="none">
</g>
<g id="DADES_PERSONALS2" display="none">
</g>
<g id="EDITAR" display="none">
</g>
<g id="DELEGACIÓ" display="none">
</g>
<g id="PERFIL" display="none">
</g>
<g id="CONFIRMATS" display="none">
	<path display="inline" fill="#790016" d="M96.001,17.883c-43.55,0-78.854,35.303-78.854,78.853
		c0,43.549,35.304,78.852,78.854,78.852c43.548,0,78.852-35.303,78.852-78.852C174.853,53.186,139.549,17.883,96.001,17.883z
		 M96.001,168.203c-39.946,0-72.329-32.383-72.329-72.328c0-39.946,32.383-72.328,72.329-72.328
		c39.945,0,72.328,32.382,72.328,72.328C168.329,135.82,135.946,168.203,96.001,168.203z"/>
</g>
<g id="NO_CONFIRM" display="none">
</g>
<g id="CASTELLERS" display="none">
</g>
<g id="COMERCIAL">
	<g>
		<path fill="#790016" d="M102.936,105.312c-0.611-0.952-1.274-1.785-1.988-2.499c-0.714-0.714-1.377-1.275-1.989-1.683v20.604
			c1.768-0.543,3.229-1.563,4.386-3.06c1.155-1.495,1.734-3.672,1.734-6.528c0-1.291-0.204-2.515-0.612-3.672
			C104.058,107.318,103.548,106.265,102.936,105.312z"/>
		<path fill="#790016" d="M96.001,28.342c-37.299,0-67.535,30.236-67.535,67.533c0,37.298,30.236,67.534,67.535,67.534
			c37.297,0,67.533-30.236,67.533-67.534C163.534,58.578,133.298,28.342,96.001,28.342z M117.114,118.266
			c-0.681,2.652-1.77,4.914-3.265,6.783c-1.496,1.871-3.452,3.366-5.864,4.488c-2.415,1.122-5.288,1.921-8.619,2.397v11.118H92.43
			V132.24c-3.604-0.272-6.613-1.088-9.026-2.448c-2.415-1.36-4.335-3.111-5.764-5.253c-1.428-2.142-2.432-4.641-3.009-7.497
			c-0.578-2.856-0.765-5.95-0.561-9.282H86.31c0,1.632,0.034,3.213,0.103,4.743c0.066,1.53,0.288,2.907,0.663,4.131
			c0.373,1.224,0.984,2.279,1.836,3.162c0.85,0.884,2.124,1.53,3.825,1.938V98.988c-2.517-1.632-4.846-3.213-6.987-4.743
			c-2.142-1.53-4.013-3.213-5.61-5.049c-1.599-1.836-2.84-3.96-3.723-6.375c-0.885-2.413-1.326-5.389-1.326-8.925
			c0-2.244,0.322-4.419,0.969-6.528c0.646-2.107,1.666-4.029,3.061-5.763c1.393-1.734,3.178-3.178,5.354-4.335
			c2.176-1.156,4.828-1.938,7.956-2.346v-6.426h6.937v6.426c5.575,0.681,9.706,2.33,12.393,4.947
			c2.686,2.619,4.096,5.661,4.233,9.129c0.066,1.088,0.169,2.159,0.306,3.213c0.136,1.055,0.169,2.126,0.103,3.213h-11.832
			c0-2.788-0.342-5.031-1.021-6.732c-0.681-1.699-2.21-2.89-4.59-3.57v20.298c2.652,1.361,5.134,2.856,7.446,4.488
			c2.311,1.632,4.317,3.417,6.018,5.355c1.699,1.938,3.061,4.047,4.08,6.324c1.021,2.279,1.53,4.743,1.53,7.395
			C118.099,112.521,117.793,115.614,117.114,118.266z"/>
		<path fill="#790016" d="M88.707,67.725c-0.918,1.463-1.377,3.146-1.377,5.049c0,1.292,0.153,2.432,0.459,3.417
			c0.306,0.986,0.714,1.887,1.224,2.703c0.511,0.816,1.087,1.581,1.734,2.295c0.646,0.714,1.309,1.445,1.989,2.193V65.124
			C90.967,65.396,89.625,66.263,88.707,67.725z"/>
	</g>
</g>
<g id="COMERCIAL2">
</g>
</svg>
