<?xml version="1.0" encoding="utf-8"?>
<!-- Generator: Adobe Illustrator 16.0.0, SVG Export Plug-In . SVG Version: 6.00 Build 0)  -->
<!DOCTYPE svg PUBLIC "-//W3C//DTD SVG 1.1//EN" "http://www.w3.org/Graphics/SVG/1.1/DTD/svg11.dtd">
<svg version="1.1" xmlns="http://www.w3.org/2000/svg" xmlns:xlink="http://www.w3.org/1999/xlink" x="0px" y="0px" width="192px"
	 height="192px" viewBox="0 0 192 192" enable-background="new 0 0 192 192" xml:space="preserve">
<g id="NOTICIAS23">
</g>
<g id="CALENDARI">
</g>
<g id="INCIDENCIES">
</g>
<g id="ACCEDIR">
</g>
<g id="SORTIR">
</g>
<g id="REGISTRE">
</g>
<g id="TUTORIAL">
</g>
<g id="TUTORIAL2">
</g>
<g id="CONVO">
</g>
<g id="COMUNICAT">
</g>
<g id="Capa_65">
</g>
<g id="DIADA">
</g>
<g id="DIADA_2">
</g>
<g id="ENTRENO">
</g>
<g id="ENTRENO2">
</g>
<g id="DELEGACIÓ2">
</g>
<g id="EVENTO_SOCIAL">
</g>
<g id="ev2">
</g>
<g id="MAIL">
</g>
<g id="TELEFONO">
</g>
<g id="TLF_EMERG">
</g>
<g id="TRANS">
</g>
<g id="ACOMPAÑANT">
</g>
<g id="CONTRASEÑA">
</g>
<g id="CONTRA_x5F_2">
</g>
<g id="DADES_PERSONALS">
</g>
<g id="DADES_PERSONALS2">
</g>
<g id="EDITAR">
</g>
<g id="DELEGACIÓ">
</g>
<g id="PERFIL">
</g>
<g id="CONFIRMATS">
</g>
<g id="NO_CONFIRM">
</g>
<g id="CASTELLERS">
</g>
<g id="COMERCIAL">
</g>
<g id="COMERCIAL2">
</g>
<g id="CARREC">
</g>
<g id="REFRESH">
</g>
<g id="camara">
</g>
<g id="musics">
</g>
<g id="Capa_39">
</g>
<g id="LLOC">
</g>
<g id="ALÇADA">
</g>
<g id="MANS_ALÇADES">
</g>
<g id="PESO">
</g>
<g id="ma">
</g>
<g id="primeres">
</g>
<g id="Capa_46">
</g>
<g id="Capa_47">
</g>
<g id="Capa_66">
</g>
<g id="Capa_67">
</g>
<g id="Capa_48">
</g>
<g id="asegurat">
</g>
<g id="taller">
</g>
<g id="Capa_51">
	<g>
		<path fill="#790016" d="M102.323,99.66c-0.793-1.007-1.908-1.744-3.348-2.214c-1.441-0.467-3.349-0.702-5.725-0.702h-5.832v24.517
			h3.24c1.583,0,3.132,0,4.645,0c1.582,0,3.059-0.287,4.428-0.864c1.007-0.432,1.817-1.08,2.43-1.944
			c0.611-0.863,1.08-1.799,1.404-2.808c0.324-1.008,0.54-2.087,0.647-3.24c0.108-1.15,0.162-2.23,0.162-3.239
			c0-2.16-0.145-4.032-0.432-5.616C103.654,101.966,103.114,100.67,102.323,99.66z"/>
		<path fill="#790016" d="M96.113,84.595c2.052-0.179,3.688-1.026,4.914-2.538c0.719-1.008,1.169-2.23,1.35-3.672
			c0.18-1.439,0.271-3.132,0.271-5.076c0-3.024-0.505-5.292-1.512-6.804c-1.01-1.513-3.24-2.339-6.696-2.484h-7.021v20.844h2.809
			C92.099,84.864,94.062,84.775,96.113,84.595z"/>
		<path fill="#790016" d="M96,25.888c-37.298,0-67.533,30.235-67.533,67.533S58.702,160.955,96,160.955
			c37.299,0,67.534-30.236,67.534-67.534S133.299,25.888,96,25.888z M119.711,113.593c-0.145,1.657-0.432,3.313-0.863,4.968
			c-1.657,5.113-4.033,8.82-7.128,11.124c-3.097,2.306-7.345,3.456-12.744,3.456H72.299v-81h24.408c1.583,0,3.187,0.054,4.807,0.162
			c1.619,0.107,3.148,0.361,4.59,0.756c1.439,0.396,2.824,0.99,4.158,1.782c1.331,0.793,2.537,1.873,3.617,3.24
			c1.729,2.232,2.825,4.535,3.294,6.911c0.468,2.376,0.702,4.933,0.702,7.668c0,1.729-0.126,3.456-0.378,5.185
			c-0.253,1.728-0.721,3.331-1.403,4.806c-0.686,1.477-1.675,2.827-2.971,4.05c-1.296,1.226-2.953,2.197-4.968,2.916v0.217
			c4.247,0.577,7.271,2.538,9.072,5.886c1.799,3.348,2.7,7.651,2.7,12.906C119.928,110.282,119.854,111.938,119.711,113.593z"/>
	</g>
</g>
<g id="Capa_52">
</g>
<g id="Capa_53">
</g>
<g id="Capa_54">
</g>
<g id="Capa_55">
</g>
<g id="Capa_56">
</g>
<g id="Capa_57">
</g>
<g id="Capa_58">
</g>
<g id="Capa_59">
</g>
<g id="Capa_60">
</g>
<g id="Capa_68">
</g>
<g id="Capa_69">
</g>
<g id="Capa_61">
</g>
<g id="Capa_62">
</g>
<g id="Capa_63">
</g>
<g id="Capa_64">
</g>
</svg>
