<?xml version="1.0" encoding="utf-8"?>
<!-- Generator: Adobe Illustrator 16.0.0, SVG Export Plug-In . SVG Version: 6.00 Build 0)  -->
<!DOCTYPE svg PUBLIC "-//W3C//DTD SVG 1.1//EN" "http://www.w3.org/Graphics/SVG/1.1/DTD/svg11.dtd">
<svg version="1.1" xmlns="http://www.w3.org/2000/svg" xmlns:xlink="http://www.w3.org/1999/xlink" x="0px" y="0px" width="192px"
	 height="192px" viewBox="0 0 192 192" enable-background="new 0 0 192 192" xml:space="preserve">
<g id="NOTICIAS23">
</g>
<g id="CALENDARI">
</g>
<g id="INCIDENCIES">
</g>
<g id="ACCEDIR">
</g>
<g id="SORTIR">
</g>
<g id="REGISTRE">
</g>
<g id="TUTORIAL">
</g>
<g id="TUTORIAL2">
</g>
<g id="CONVO">
</g>
<g id="COMUNICAT">
</g>
<g id="DIADA">
</g>
<g id="DIADA_2">
</g>
<g id="ENTRENO">
</g>
<g id="ENTRENO2">
</g>
<g id="DELEGACIÓ2">
</g>
<g id="EVENTO_SOCIAL">
</g>
<g id="ev2">
</g>
<g id="MAIL">
</g>
<g id="TELEFONO">
</g>
<g id="TLF_EMERG">
</g>
<g id="TRANS">
</g>
<g id="ACOMPAÑANT">
</g>
<g id="CONTRASEÑA">
</g>
<g id="CONTRA_x5F_2">
</g>
<g id="DADES_PERSONALS">
</g>
<g id="DADES_PERSONALS2">
</g>
<g id="EDITAR">
</g>
<g id="DELEGACIÓ">
</g>
<g id="PERFIL">
</g>
<g id="CONFIRMATS">
</g>
<g id="NO_CONFIRM">
</g>
<g id="CASTELLERS">
</g>
<g id="COMERCIAL">
</g>
<g id="COMERCIAL2">
</g>
<g id="CARREC">
</g>
<g id="REFRESH">
</g>
<g id="camara">
</g>
<g id="musics">
</g>
<g id="Capa_39">
	<g>
		<path fill-rule="evenodd" clip-rule="evenodd" fill="#790016" d="M177.232,93.604c0,0.846-0.02,1.195,0.002,1.542
			c0.275,4.699-0.344,9.34-1.146,13.936c-0.664,3.798-1.571,7.563-2.812,11.234c-2.649,7.841-6.556,15.015-11.272,21.79
			c-3.393,4.874-7.32,9.282-11.742,13.188c-6.305,5.573-13.229,10.281-20.92,13.806c-5.195,2.38-10.6,4.056-16.192,5.142
			c-2.948,0.572-5.917,1.044-8.884,1.526c-0.596,0.097-1.217,0.05-1.826,0.052c-2.965,0.009-5.93-0.064-8.891,0.034
			c-5.054,0.169-9.984-0.743-14.879-1.742c-4.203-0.859-8.322-2.105-12.326-3.727c-5.236-2.12-10.113-4.875-14.795-8
			c-5.654-3.775-10.754-8.224-15.299-13.256c-3.766-4.17-6.945-8.799-9.814-13.651c-3.049-5.158-5.529-10.545-7.326-16.258
			c-1.188-3.778-1.902-7.648-2.652-11.533c-1.33-6.896-1.082-13.831-0.885-20.752c0.103-3.583,0.875-7.164,1.531-10.711
			c0.943-5.089,2.567-9.999,4.615-14.738c2.131-4.929,4.809-9.575,7.793-14.056c3.579-5.377,7.768-10.228,12.543-14.535
			c4.363-3.938,9.07-7.455,14.189-10.405c4.427-2.552,8.967-4.8,13.848-6.379c5.42-1.753,10.932-2.903,16.582-3.662
			s11.287-0.466,16.916-0.342c3.318,0.073,6.646,0.842,9.923,1.521c4.378,0.906,8.667,2.148,12.835,3.824
			c5.242,2.108,10.113,4.871,14.795,7.996c5.654,3.775,10.746,8.231,15.303,13.251c3.723,4.1,6.896,8.642,9.693,13.427
			c1.092,1.866,2.094,3.784,3.105,5.695c2.556,4.828,4.314,9.981,5.672,15.232c0.92,3.562,1.084,7.312,1.824,10.929
			C177.43,87.352,177.078,90.729,177.232,93.604z M174.615,93.703c-0.189-1.422-0.605-2.881-0.537-4.318
			c0.249-5.261-1.145-10.295-2.355-15.274c-1.707-7.028-4.26-13.793-8.047-20.084c-3.639-6.043-7.801-11.637-12.758-16.614
			c-2.561-2.57-5.301-5.022-8.234-7.148c-6.242-4.523-12.932-8.327-20.252-10.852c-5.202-1.796-10.482-3.342-16.035-3.729
			c-3.174-0.221-6.328-0.723-9.504-0.935c-1.262-0.084-2.551,0.343-3.834,0.416c-2.328,0.13-4.645,0.181-6.98,0.463
			c-4.73,0.57-9.285,1.733-13.805,3.125c-4.637,1.428-8.97,3.532-13.253,5.796c-5.784,3.057-10.929,6.986-15.724,11.361
			c-2.62,2.392-4.891,5.167-7.311,7.778c-0.231,0.25-0.395,0.565-0.588,0.851c-1.98,2.93-4.041,5.81-5.922,8.803
			c-2.533,4.032-4.643,8.283-6.104,12.839c-1.311,4.087-2.297,8.252-3.334,12.415c-1.227,4.918-1.367,9.89-1.779,14.846
			c-0.24,2.901,0.275,5.865,0.451,8.801c0.004,0.087,0.009,0.175,0.025,0.26c0.693,3.536,1.139,7.144,2.135,10.592
			c1.939,6.697,4.08,13.309,7.699,19.397c3.467,5.833,7.393,11.269,11.984,16.229c3.307,3.574,7.056,6.685,11.057,9.428
			c3.344,2.291,6.822,4.442,10.434,6.273c4.533,2.298,9.293,4.135,14.244,5.381c5.018,1.264,10.076,2.271,15.283,2.342
			c1.107,0.015,2.209,0.323,3.318,0.384c1.034,0.058,2.078-0.002,3.112-0.074c0.679-0.048,1.349-0.27,2.028-0.309
			c2.154-0.126,4.297-0.203,6.458-0.449c4.825-0.549,9.454-1.754,14.054-3.185c5.639-1.753,10.861-4.376,15.932-7.38
			c5.018-2.974,9.57-6.536,13.769-10.545c2.255-2.153,4.265-4.563,6.378-6.863c0.232-0.254,0.434-0.541,0.627-0.828
			c2.027-3.002,4.143-5.95,6.051-9.026c2.508-4.045,4.58-8.309,6.061-12.861c1.328-4.086,2.269-8.262,3.343-12.409
			C173.975,103.68,173.74,98.67,174.615,93.703z"/>
		<path fill-rule="evenodd" clip-rule="evenodd" fill="#790016" d="M171.989,93.744c0,1.308-0.03,2.616,0.007,3.923
			c0.088,3.215-0.611,6.338-0.993,9.503c-0.563,4.658-1.778,9.141-3.452,13.449c-2.35,6.05-5.393,11.782-9.086,17.163
			c-3.363,4.899-7.307,9.291-11.734,13.19c-5.254,4.629-10.887,8.778-17.277,11.807c-5.859,2.777-11.897,4.988-18.277,6.173
			c-5.814,1.08-11.693,1.226-17.598,1.158c-7.393-0.086-14.572-1.335-21.538-3.71c-7.649-2.606-14.694-6.356-21.114-11.338
			c-4.07-3.158-7.889-6.578-11.264-10.417c-2.84-3.229-5.412-6.747-7.709-10.385c-3.324-5.268-6.123-10.859-7.922-16.849
			c-1.008-3.357-1.728-6.803-2.383-10.274c-1.307-6.914-0.881-13.835-0.863-20.759c0.005-2.033,0.797-4.055,0.914-6.099
			c0.144-2.534,0.988-4.877,1.5-7.31c0.772-3.66,2.219-7.066,3.738-10.435c2.894-6.41,6.544-12.347,11.012-17.82
			c5.434-6.654,11.91-12.089,19.047-16.736c4.563-2.972,9.549-5.246,14.707-6.993c3.73-1.263,7.602-2.046,11.492-2.807
			c6.824-1.335,13.672-1.099,20.492-0.809c4.248,0.181,8.502,1.208,12.661,2.235c5.962,1.472,11.535,3.963,16.89,7.016
			c4.23,2.413,8.199,5.137,11.781,8.417c2.818,2.58,5.814,5.022,8.293,7.902c5.436,6.316,9.813,13.319,13.055,21.06
			c1.775,4.24,3.184,8.536,4.082,13.021c0.354,1.764,0.798,3.525,0.963,5.31c0.352,3.792,0.547,7.599,0.807,11.399
			C172.142,93.734,172.065,93.739,171.989,93.744z M109.629,105.802c-2.886-0.075-5.541-0.184-8.295,0.075
			c0,1.215-0.051,2.257,0.01,3.292c0.16,2.733,0.254,5.417-2.432,7.195c-0.26,0.172-0.313,0.632-0.553,0.864
			c-0.409,0.396-0.891,0.718-1.346,1.074c-0.396-0.346-0.641-0.595-0.92-0.799c-2.611-1.908-3.703-4.386-3.213-7.656
			c0.195-1.306,0.3-2.733-0.162-3.99c-2.756,0-5.344,0-8.123,0c0,0.718,0,1.311,0,1.902c0,4.098-0.008,8.195,0,12.293
			c0.006,2.729,0.09,2.813,2.635,3.712c0.93,0.329,2.076,0.31,2.75,1.633c-4.171,4.573-8.656,8.853-13.063,13.338
			c-1.344-0.574-2.695-0.968-3.849-1.681c-3.222-1.992-6.483-3.887-9.438-6.346c-3.103-2.582-5.901-5.411-8.228-8.626
			c-2.976-4.11-5.402-8.527-7.121-13.402c-1.832-5.199-2.526-10.514-2.914-15.909c-0.281-3.894,0.611-7.732,1.09-11.579
			c0.219-1.762,0.828-3.507,1.471-5.178c1.016-2.641,2.096-5.27,3.363-7.795c1.002-1.997,2.174-3.952,3.543-5.713
			c2.38-3.061,5.004-5.914,7.883-8.542c2.441-2.228,5.06-4.227,7.9-5.828c5.967-3.364,12.251-5.92,19.227-6.342
			c1.689-0.102,3.363-0.483,5.108-0.745c0.071-1.628,0.142-3.224,0.222-5.038c-1.412,0.214-2.771,0.644-4.104,0.576
			c-2.838-0.145-5.392,1.056-8.113,1.428c-2.384,0.325-4.576,1.423-6.852,2.181c-6.025,2.007-11.199,5.425-15.98,9.393
			c-5.691,4.722-10.181,10.438-13.5,17.164c-1.771,3.588-3.133,7.257-4.295,11.031c-0.451,1.464-0.25,3.158-0.824,4.548
			c-0.941,2.271-0.854,4.577-0.869,6.907c-0.018,2.616,0.002,5.231,0.014,7.847c0.002,0.609-0.108,1.267,0.074,1.821
			c1.418,4.297,1.676,8.863,3.525,13.102c2.405,5.508,5.063,10.848,9.018,15.342c3.6,4.091,7.426,8.049,12.205,10.867
			c1.637,0.967,3.359,1.797,4.955,2.825c3.23,2.078,6.814,3.274,10.457,4.323c0.802,0.231,1.719,0.285,2.432-0.482
			c1.01-1.084,2.09-2.102,3.1-3.186c1.336-1.433,2.553-2.986,3.967-4.333c1.535-1.463,3.143-2.843,4.471-4.513
			c1.02-1.281,1.666-1.371,2.76-0.248c3.821,3.923,7.607,7.881,11.379,11.853c0.893,0.939,1.75,1.368,3.152,1.033
			c3.135-0.746,6.072-2.007,8.901-3.429c3.772-1.896,7.433-3.995,10.702-6.784c4.117-3.509,8.02-7.189,10.98-11.722
			c1.447-2.215,2.832-4.482,4.031-6.89c1.551-3.111,2.777-6.294,3.695-9.604c0.568-2.056,0.594-4.274,1.256-6.291
			c0.779-2.371,0.867-4.745,0.861-7.168c-0.006-2.093-0.008-4.185-0.02-6.277c-0.002-0.522,0.074-1.076-0.068-1.562
			c-1.393-4.768-1.695-9.835-3.973-14.359c-1.357-2.695-2.563-5.476-4.053-8.093c-1.711-3.004-3.889-5.685-6.105-8.358
			c-1.95-2.352-4.186-4.359-6.553-6.146c-3.221-2.432-6.518-4.797-10.24-6.534c-2.965-1.385-5.998-2.542-9.094-3.526
			c-2.195-0.698-4.523-0.973-6.738-1.621c-2.301-0.673-4.564-0.525-6.956-0.339c0.024,1.61-0.279,3.063,0.201,4.434
			c1.493,0.216,2.856,0.403,4.216,0.612c1.863,0.286,3.748,0.484,5.583,0.902c4.729,1.077,9.177,2.924,13.348,5.378
			c3.426,2.016,6.696,4.244,9.567,7.057c2.49,2.44,4.705,5.088,6.775,7.873c3.443,4.628,5.689,9.845,7.328,15.324
			c0.686,2.289,1.141,4.662,1.506,7.027c0.33,2.127,0.402,4.295,0.566,6.447c0.025,0.338-0.068,0.685-0.111,1.027
			c-0.117,0.937-0.28,1.87-0.347,2.811c-0.073,1.042,0.106,2.126-0.112,3.129c-0.795,3.658-1.117,7.436-2.914,10.85
			c-0.917,1.745-1.422,3.703-2.293,5.477c-0.758,1.54-1.7,3.001-2.681,4.414c-1.474,2.124-2.904,4.305-4.614,6.231
			c-4.234,4.772-9.348,8.457-14.965,11.454c-2.707,1.445-3.078,1.399-5.188-0.699c-3.275-3.259-6.545-6.524-9.822-9.78
			c-0.623-0.619-1.273-1.211-2.168-2.059c1.484-0.296,2.588-0.445,3.65-0.747c1.142-0.324,2.242-0.791,3.328-1.184
			C109.629,117.071,109.629,111.584,109.629,105.802z M84.625,89.028c0.031,3.927-0.107,7.622,0.031,11.307c3.043,0,5.801,0,8.688,0
			c0.295-3.617-0.159-7.157,0.368-10.652C90.867,88.657,87.916,89.054,84.625,89.028z M100.652,99.954
			c1.979,0.622,6.41,0.68,9.016,0.157c-0.041-3.484,0.076-7-0.076-10.511c-3.211,0-6.141,0-8.939,0
			C100.652,93.156,100.652,96.594,100.652,99.954z M99.825,74.945c0.71,2.304,0.335,4.397,0.478,6.459
			c0.063,0.915-0.289,1.9,0.275,2.681c3.047,0,5.977,0,9.012,0c0.285-3.363-0.363-6.372-1.707-9.14
			C105.078,74.945,102.568,74.945,99.825,74.945z M86.85,74.862c-1.809,2.934-2.522,6.693-1.868,9.2c2.944,0,5.874,0,8.888,0
			c0.108-3.099,0.213-6.07,0.318-9.144c-0.42-0.019-0.844-0.052-1.268-0.054C90.924,74.859,88.929,74.862,86.85,74.862z
			 M89.965,26.304c0.273-0.298,0.531-0.534,0.736-0.809c1.16-1.559,0.656-3.51-1.192-3.845c-2.573-0.466-5.196-0.505-7.503,1.125
			c-2.121,1.498-2.119,2.891-0.018,4.433c0.18,0.132,0.309,0.332,0.58,0.63c-0.398,0.324-0.803,0.531-1.029,0.859
			c-0.768,1.11-0.527,2.144,0.674,2.744c0.518,0.259,1.139,0.354,1.725,0.429c1.672,0.213,3.23-0.386,4.824-0.74
			c1.676-0.372,2.748-1.329,3.064-3.189C91.266,27.447,90.69,26.941,89.965,26.304z M75.936,26.772
			c-0.402,0.135-0.855,0.362-1.33,0.435c-2.523,0.384-4.527,2.14-5.064,4.533c-0.072,0.319-0.064,0.711,0.055,1.01
			c0.609,1.527,1.822,3.051,3.85,2.859c1.182-0.111,2.156-0.52,3.154-1.04c1.039-0.541,2.098-1.04,3.295-1.629
			c-0.595-3.202-1.201-6.471-1.829-9.846c-0.806,0.249-1.521,0.47-2.399,0.742C75.754,24.79,75.838,25.701,75.936,26.772z
			 M124.538,34.496c0.763-1.117,0.897-1.581,0.761-2.135c-0.615-2.507-3.566-4.936-6.211-5.094
			c-3.055-0.183-4.918,2.608-3.574,5.353c1.371,2.802,3.521,3.784,7.074,3.223c0.149-0.775-0.313-1.081-0.959-1.242
			c-0.912-0.228-1.877-0.333-2.721-0.713c-0.698-0.315-1.479-0.832-1.121-2.073C120.072,32.721,122.213,33.572,124.538,34.496z
			 M108.445,161.661c0.523-0.147,1.039-0.293,1.512-0.427c-0.107-2.195-1.203-4.108-0.674-6.277
			c2.178,1.722,4.268,3.373,6.322,4.998c0.707-0.27,1.314-0.501,1.939-0.74c-0.225-0.995-0.352-1.845-0.611-2.651
			c-0.602-1.874-1.264-3.729-1.91-5.588c-0.305-0.882-0.84-1.018-1.639-0.414c0.104,1.902,1.424,3.669,0.846,6.054
			c-1.898-1.552-3.63-2.94-5.33-4.368c-0.521-0.438-1.126-0.727-1.625-0.28c-0.381,0.342-0.488,1.003-0.676,1.536
			c-0.052,0.144,0.029,0.34,0.068,0.508C107.244,156.502,107.824,158.992,108.445,161.661z M84.689,162.464
			c1.371,0.258,2.535,0.547,3.717,0.675c0.76,0.082,1.583,0.061,2.309-0.15c1.723-0.5,2.613-1.849,2.123-3.303
			c-0.22-0.65-0.898-1.146-1.367-1.713c1.557-2.619,0.605-4.477-2.443-4.632c-1.081-0.055-2.22-0.274-3.191,0.17
			C85.445,156.56,85.075,159.448,84.689,162.464z M95.107,55.822c-0.604-4.537,0.738-8.875,0.305-13.484
			c-1.037,0.098-1.984-0.042-2.686,0.31c-0.945,0.475-0.057,1.63-0.367,2.264c-0.854,1.746-0.346,3.515-0.438,5.271
			c-0.041,0.766-0.203,1.529-0.35,2.286c-0.205,1.071-0.445,2.135-0.705,3.353C92.252,55.822,93.446,55.822,95.107,55.822z
			 M98.754,42.451c0,1.271-0.148,2.251,0.027,3.169c0.541,2.828,0.42,5.677,0.479,8.524c0.013,0.575,0.125,1.149,0.217,1.936
			c1.365-0.406,2.67,0.26,3.949-0.5c-0.549-2.737-1.885-5.343-0.615-8.046c-0.512-1.078-0.99-2.083-1.451-3.054
			c0.375-0.43,0.688-0.786,1.027-1.174C101.385,41.993,100.16,42.463,98.754,42.451z M104.422,69.501
			c0.874-2.983,0.512-5.619-0.295-8.149c-1.621,0-3.15,0-4.433,0c0.042,2.775,0.083,5.425,0.123,8.149
			C101.598,69.501,103.129,69.501,104.422,69.501z M89.96,61.274c0,2.848,0,5.49,0,8.237c1.569,0.061,2.999,0.239,4.624-0.157
			c0-2.748,0-5.386,0-8.08C93.172,61.274,91.709,61.274,89.96,61.274z M104.282,155.165c-2.751-3.027-8.405-0.928-9.546,2.499
			c-0.209,0.627-0.24,1.398-0.092,2.044c0.535,2.355,3.947,4.562,6.257,3.915c1.468-0.411,2.825-1.232,4.212-1.91
			c0.172-0.085,0.221-0.424,0.377-0.751c-0.478-0.261-0.904-0.494-1.602-0.875c-0.256,0.37-0.426,0.849-0.766,1.074
			c-2.048,1.361-3.811,1.1-5.627-0.34c-1.344-1.064-1.121-3.416,0.295-4.48c1.502-1.129,3.076-1.458,4.778-0.821
			C103.32,155.8,103.855,156.014,104.282,155.165z M61.871,41.43c2.358-1.638,2.553-1.969,2.791-3.995
			c0.078-0.677,0.215-1.351,0.367-2.015c0.533-2.307,1.084-4.609,1.659-7.041c-0.396,0.052-0.665,0.016-0.853,0.124
			c-2.537,1.459-5.092,2.894-7.58,4.434c-0.986,0.611-0.92,0.884-0.107,1.869c1.812-0.849,3.273-2.361,5.557-2.901
			C63.09,35.103,62.529,38.009,61.871,41.43z M134.082,36.457c-0.766-2.337-2.004-3.893-4.584-4.08
			c-1.67-0.121-2.412,0.354-1.941,1.879c0.316,1.017,1.092,1.909,1.744,2.797c0.453,0.616,1.205,1.082,0.485,2.147
			c-0.698-0.516-1.349-1.064-2.065-1.502c-0.448-0.273-0.998-0.381-1.771-0.66c1.406,2.835,2.877,4.04,4.928,4.247
			c1.259,0.127,2.123-0.698,1.719-1.885c-0.32-0.94-1.033-1.75-1.594-2.604c-0.438-0.667-1.447-0.987-1.313-2.097
			C131.758,33.885,132.044,37.021,134.082,36.457z M98.738,24.222c0.145,2.289-0.209,4.418,0.19,6.509c0.818,0,1.479,0,2.378,0
			c0-1.133-0.037-2.16,0.012-3.183c0.043-0.921,0.598-1.425,1.518-1.418c0.506,0.004,1.072,0.018,1.506,0.235
			c1.076,0.539,1.368-0.088,1.656-0.868c-1.723-1.39-1.723-1.39-4.419-0.568C101.013,23.809,100.018,24.134,98.738,24.222z
			 M106.437,31.744c1.106,0,1.833,0,2.55,0c0.256-1.225,0.438-2.322,0.721-3.392c0.27-1.018,0.959-1.334,1.973-0.95
			c0.627,0.238,1.219,0.569,1.801,0.846c0.291-0.26,0.506-0.412,0.666-0.609c0.097-0.119,0.105-0.309,0.153-0.467
			c-1.427-1.424-1.726-1.723-3.017-1.39c-0.789,0.204-1.287-0.054-1.906-0.263c-0.467-0.156-0.951-0.255-1.42-0.378
			C106.371,27.109,107.719,29.515,106.437,31.744z M77.666,161.152c1.15-0.556,2.615-0.531,3.084-1.825
			c0.697-1.924,1.213-3.921,1.689-5.914c0.201-0.84-0.156-1.537-1.133-1.559c-0.459,1.514-0.934,2.971-1.344,4.444
			c-0.871,3.137-1.146,3.291-4.252,1.972c-0.737-0.313-1.127-0.106-1.531,0.813C75.323,159.762,76.486,160.452,77.666,161.152z
			 M94.184,24.176c0,2.351,0,4.461,0,6.545c0.846,0,1.505,0,2.242,0c0-2.232,0-4.344,0-6.529c-0.449-0.046-0.779-0.105-1.109-0.107
			C94.981,24.083,94.646,24.136,94.184,24.176z M93.447,20.537c0.201,0.536,0.293,0.85,0.438,1.137
			c0.141,0.279,0.336,0.53,0.486,0.759c2-0.518,2-0.518,1.926-1.896C95.48,20.537,94.659,20.537,93.447,20.537z"/>
		<path fill-rule="evenodd" clip-rule="evenodd" fill="#790016" d="M87.256,161.642c0.987,0,1.801,0.154,2.506-0.056
			c0.455-0.135,0.904-0.751,1.078-1.248c0.205-0.593-0.068-1.104-0.766-1.431c-0.922-0.433-1.781-0.546-2.818-0.148
			C87.256,159.635,87.256,160.479,87.256,161.642z M90.434,156.895c-0.21-0.718-0.213-1.296-0.504-1.571
			c-0.323-0.306-0.909-0.45-1.379-0.446c-0.363,0.003-0.867,0.257-1.049,0.558c-0.219,0.356-0.158,0.881-0.236,1.46
			C88.324,156.895,89.158,156.895,90.434,156.895z"/>
		<path fill-rule="evenodd" clip-rule="evenodd" fill="#790016" d="M82.91,25.115c1.164-1.82,2.74-2.296,4.58-2.069
			c0.885,0.109,1.411,0.623,1.234,1.604C85.912,26.582,84.797,26.698,82.91,25.115z"/>
		<path fill-rule="evenodd" clip-rule="evenodd" fill="#790016" d="M89.274,28.568c-1.835,1.641-3.698,1.483-5.696,1.057
			C84.816,27.449,86.979,27.037,89.274,28.568z"/>
		<path fill-rule="evenodd" clip-rule="evenodd" fill="#790016" d="M76.545,28.991c0.199,0.985,0.398,1.976,0.619,3.076
			c-0.475,1.057-1.359,1.541-2.624,1.481c-1.157-0.055-2.3-0.632-2.464-1.5c-0.193-1.018,0.326-1.915,1.07-2.488
			C74.104,28.821,75.24,28.364,76.545,28.991z"/>
		<path fill-rule="evenodd" clip-rule="evenodd" fill="#790016" d="M118.043,30.106c2.611-1.1,3.77-0.561,4.664,1.886
			C121.014,31.308,119.527,30.707,118.043,30.106z"/>
		<path fill-rule="evenodd" clip-rule="evenodd" fill="#790016" d="M87.256,161.642c0-1.163,0-2.007,0-2.883
			c1.037-0.397,1.896-0.284,2.818,0.148c0.697,0.327,0.971,0.838,0.766,1.431c-0.174,0.497-0.623,1.113-1.078,1.248
			C89.057,161.796,88.243,161.642,87.256,161.642z"/>
		<path fill-rule="evenodd" clip-rule="evenodd" fill="#790016" d="M90.434,156.895c-1.275,0-2.109,0-3.168,0
			c0.078-0.579,0.018-1.104,0.236-1.46c0.182-0.301,0.686-0.555,1.049-0.558c0.47-0.004,1.056,0.141,1.379,0.446
			C90.221,155.599,90.224,156.177,90.434,156.895z"/>
	</g>
</g>
<g id="LLOC">
</g>
<g id="ALÇADA">
</g>
<g id="MANS_ALÇADES">
</g>
<g id="PESO">
</g>
<g id="ma">
</g>
<g id="primeres">
</g>
<g id="Capa_46">
</g>
<g id="Capa_47">
</g>
<g id="Capa_48">
</g>
<g id="asegurat">
</g>
<g id="taller">
</g>
<g id="Capa_51">
</g>
<g id="Capa_52">
</g>
<g id="Capa_53">
</g>
<g id="Capa_54">
</g>
<g id="Capa_55">
</g>
<g id="Capa_56">
</g>
<g id="Capa_57">
</g>
<g id="Capa_58">
</g>
<g id="Capa_59">
</g>
<g id="Capa_60">
</g>
<g id="Capa_61">
</g>
<g id="Capa_62">
</g>
<g id="Capa_63">
</g>
<g id="Capa_64">
</g>
</svg>
