<?xml version="1.0" encoding="utf-8"?>
<!-- Generator: Adobe Illustrator 16.0.0, SVG Export Plug-In . SVG Version: 6.00 Build 0)  -->
<!DOCTYPE svg PUBLIC "-//W3C//DTD SVG 1.1//EN" "http://www.w3.org/Graphics/SVG/1.1/DTD/svg11.dtd">
<svg version="1.1" xmlns="http://www.w3.org/2000/svg" xmlns:xlink="http://www.w3.org/1999/xlink" x="0px" y="0px" width="192px"
	 height="192px" viewBox="0 0 192 192" enable-background="new 0 0 192 192" xml:space="preserve">
<g id="NOTICIAS23">
</g>
<g id="CALENDARI">
</g>
<g id="INCIDENCIES">
</g>
<g id="ACCEDIR">
</g>
<g id="SORTIR">
</g>
<g id="REGISTRE">
</g>
<g id="TUTORIAL">
</g>
<g id="TUTORIAL2">
</g>
<g id="CONVO">
</g>
<g id="COMUNICAT">
</g>
<g id="DIADA">
</g>
<g id="DIADA_2">
</g>
<g id="ENTRENO">
</g>
<g id="ENTRENO2">
	<path fill="#790016" d="M96.001,17.148c-43.549,0-78.853,35.303-78.853,78.853c0,43.549,35.304,78.852,78.853,78.852
		S174.854,139.549,174.854,96C174.854,52.451,139.55,17.148,96.001,17.148z M96.001,167.468c-39.945,0-72.328-32.383-72.328-72.328
		c0-39.946,32.383-72.328,72.328-72.328c39.946,0,72.329,32.382,72.329,72.328C168.33,135.085,135.947,167.468,96.001,167.468z"/>
	<g>
		<path fill="#790016" d="M72.001,103.388c0.625,0,1.231-0.076,1.817-0.208V87.102c-0.586-0.132-1.192-0.208-1.817-0.208
			c-0.402,0-0.796,0.039-1.183,0.095v16.305C71.205,103.349,71.599,103.388,72.001,103.388z"/>
		<path fill="#790016" d="M87.753,70.432c0,0.837,0.128,1.645,0.36,2.407h15.773c0.232-0.762,0.36-1.57,0.36-2.407
			c0-0.2-0.017-0.396-0.03-0.593H87.783C87.77,70.036,87.753,70.232,87.753,70.432z"/>
		<path fill="#790016" d="M112.47,93c0,0.777,0.115,1.527,0.317,2.24v-4.48C112.585,91.473,112.47,92.223,112.47,93z"/>
		<path fill="#790016" d="M96,78.679c1.047,0,2.044-0.204,2.966-0.561h-5.932C93.956,78.476,94.953,78.679,96,78.679z"/>
		<path fill="#790016" d="M120.717,84.753c-0.654,0-1.288,0.084-1.898,0.229v16.036c0.61,0.145,1.244,0.229,1.898,0.229
			c0.375,0,0.74-0.034,1.102-0.083V84.835C121.457,84.787,121.092,84.753,120.717,84.753z"/>
		<path fill="#790016" d="M80.248,95.141c0-0.88-0.142-1.728-0.398-2.523v5.047C80.106,96.868,80.248,96.021,80.248,95.141z"/>
		<path fill="#790016" d="M103.561,113.845H88.439c-0.403,0.924-0.636,1.938-0.672,3h16.465
			C104.196,115.782,103.964,114.769,103.561,113.845z"/>
		<path fill="#790016" d="M99.816,124.434h-7.633c1.143,0.6,2.439,0.943,3.816,0.943S98.674,125.033,99.816,124.434z"/>
		<path fill="#790016" d="M95.012,62.25h1.977c-0.325-0.039-0.653-0.065-0.988-0.065S95.337,62.211,95.012,62.25z"/>
		<path fill="#790016" d="M112.787,85.033c1.608-1.601,3.7-2.708,6.031-3.107v-9.087h-11.837c-0.442,2.016-1.429,3.826-2.794,5.28
			h8.6V85.033z"/>
		<path fill="#790016" d="M79.85,103.181c-1.616,1.578-3.705,2.666-6.031,3.046v7.618h11.427c0.637-2.081,1.864-3.903,3.483-5.28
			H79.85V103.181z"/>
		<path fill="#790016" d="M112.787,90.76v4.48c0.81,2.86,3.123,5.088,6.031,5.778V84.982
			C115.91,85.671,113.597,87.899,112.787,90.76z"/>
		<path fill="#790016" d="M118.818,104.074c-2.331-0.399-4.423-1.506-6.031-3.107v7.598h-9.516c1.619,1.376,2.847,3.199,3.483,5.28
			h12.063V104.074z"/>
		<path fill="#790016" d="M93.034,78.119h5.932c2.347-0.909,4.18-2.855,4.921-5.28H88.113C88.854,75.263,90.688,77.21,93.034,78.119
			z"/>
		<path fill="#790016" d="M96,108.883c-3.38,0-6.288,2.045-7.561,4.962h15.121C102.288,110.928,99.38,108.883,96,108.883z"/>
		<path fill="#790016" d="M79.85,97.664v-5.047c-0.887-2.751-3.182-4.871-6.031-5.515v16.077
			C76.668,102.535,78.963,100.415,79.85,97.664z"/>
		<path fill="#790016" d="M73.818,84.054c2.326,0.38,4.415,1.468,6.031,3.046v-8.981h7.963c-1.365-1.454-2.352-3.264-2.794-5.28
			h-11.2V84.054z"/>
		<path fill="#790016" d="M121.818,104.191v12.653h-14.586c0.003,0.096,0.015,0.189,0.015,0.285c0,2.788-1.025,5.336-2.712,7.304
			h25.833V98.745C128.581,101.735,125.456,103.836,121.818,104.191z"/>
		<path fill="#790016" d="M70.818,106.324c-3.657-0.384-6.79-2.533-8.55-5.572v23.681h25.196c-1.687-1.967-2.712-4.516-2.712-7.304
			c0-0.096,0.012-0.189,0.015-0.285H70.818V106.324z"/>
		<path fill="#790016" d="M70.818,83.957V69.839h13.965c0.156-2.986,1.478-5.664,3.524-7.589H62.269v27.279
			C64.028,86.49,67.161,84.341,70.818,83.957z"/>
		<path fill="#790016" d="M104.247,117.13c0-0.096-0.011-0.19-0.015-0.285H87.768c-0.004,0.095-0.015,0.189-0.015,0.285
			c0,3.17,1.8,5.924,4.431,7.304h7.633C102.447,123.054,104.247,120.3,104.247,117.13z"/>
		<path fill="#790016" d="M70.818,103.293V86.988c-3.988,0.577-7.064,4.007-7.064,8.152S66.83,102.716,70.818,103.293z"/>
		<path fill="#790016" d="M121.818,84.835v16.329c4.027-0.541,7.146-3.992,7.146-8.165S125.846,85.376,121.818,84.835z"/>
		<path fill="#790016" d="M107.217,69.839h14.602v11.97c3.638,0.355,6.763,2.457,8.55,5.447V62.25h-26.676
			C105.739,64.175,107.061,66.853,107.217,69.839z"/>
		<path fill="#790016" d="M87.783,69.839h16.434c-0.282-3.941-3.34-7.122-7.229-7.589h-1.977
			C91.123,62.717,88.065,65.897,87.783,69.839z"/>
		<path fill="#790016" d="M82.85,92.219c0.252,0.934,0.398,1.91,0.398,2.921s-0.146,1.988-0.398,2.921v7.503h26.938v-9.958
			c-0.2-0.838-0.317-1.708-0.317-2.607s0.117-1.769,0.317-2.607v-9.274H99.488c-1.1,0.36-2.271,0.561-3.488,0.561
			s-2.389-0.201-3.488-0.561H82.85V92.219z M87.589,85.823h16.824v15.674H87.589V85.823z"/>
		<rect x="90.589" y="88.823" fill="#790016" width="10.824" height="9.674"/>
		<path fill="#790016" d="M138.834,54.599H51.167v80.122h87.667V54.599z M133.368,127.434h-32.874
			c-1.378,0.604-2.896,0.943-4.494,0.943s-3.116-0.34-4.494-0.943H59.269V59.25h35.539c0.392-0.042,0.79-0.065,1.192-0.065
			s0.801,0.023,1.192,0.065h36.176V127.434z"/>
		<g>
			<path fill="#790016" d="M96.001,27.607c-37.298,0-67.533,30.236-67.533,67.533c0,37.298,30.235,67.534,67.533,67.534
				c37.299,0,67.534-30.236,67.534-67.534C163.535,57.843,133.3,27.607,96.001,27.607z M141.834,137.721H48.167V51.599h93.667
				V137.721z"/>
			<ellipse fill="#790016" cx="71.998" cy="95.106" rx="8.25" ry="8.213"/>
			<ellipse fill="#790016" cx="96" cy="117.095" rx="8.232" ry="8.213"/>
			<ellipse fill="#790016" cx="96" cy="70.463" rx="8.247" ry="8.213"/>
			<ellipse fill="#790016" cx="120.361" cy="93.154" rx="7.891" ry="8.401"/>
		</g>
	</g>
</g>
<g id="DELEGACIÓ2">
</g>
<g id="EVENTO_SOCIAL">
</g>
<g id="ev2">
</g>
<g id="MAIL">
</g>
<g id="TELEFONO">
</g>
<g id="TLF_EMERG">
</g>
<g id="TRANS">
</g>
<g id="ACOMPAÑANT">
</g>
<g id="CONTRASEÑA">
</g>
<g id="CONTRA_x5F_2">
</g>
<g id="DADES_PERSONALS">
</g>
<g id="DADES_PERSONALS2">
</g>
<g id="EDITAR">
</g>
<g id="DELEGACIÓ">
</g>
<g id="PERFIL">
</g>
<g id="CONFIRMATS">
</g>
<g id="NO_CONFIRM">
</g>
<g id="CASTELLERS">
</g>
</svg>
