<svg id="Capa_1" data-name="Capa 1" xmlns="http://www.w3.org/2000/svg" viewBox="0 0 100 100"><defs><style>.cls-1,.cls-2{fill:none;stroke:currentcolor;stroke-linecap:round;stroke-linejoin:round;stroke-width:2px;}.cls-1{fill-rule:evenodd;}</style></defs><title>Social</title><path class="cls-1" d="M72.56,28.3a37.06,37.06,0,0,1-5,12.24C63.09,47.39,58.19,53.9,53.27,60.4a2,2,0,0,0-.41,1.91c.48,1.76.84,3.54,1.28,5.31.39,1.55.81,3.09,1.25,4.62A1.62,1.62,0,0,1,55,73.81c-1.93,2.4-3.85,4.82-5.78,7.23-.58.72-.87.66-1.26-.17-1.28-2.7-2.59-5.39-3.88-8.08-.24-.5-1.29-.56-2-.07-.85.6-1.69,1.2-2.48,1.87a2.06,2.06,0,0,1-2.24.44,24.72,24.72,0,0,1-2.87-1.18,27.15,27.15,0,0,1-5.88-3.92c-.2-.18-.37-.39-.57-.58A2.14,2.14,0,0,1,27.44,67,21.62,21.62,0,0,0,28,64.21a1.56,1.56,0,0,0,0-.86c-.48-1-.14-1.08-1.48-1.05l-8,.24h-.07c-1.25,0-1.35-.12-.83-1.25,1.23-2.7,2.48-5.4,3.69-8.12A1.84,1.84,0,0,1,22.73,52c.87-.14,1.71-.39,2.57-.6,0,.06,0,.13,0,.19,2.36-.57,4.72-1.15,7.09-1.68a1.89,1.89,0,0,0,1.38-1.13c3.27-6.42,6.54-12.84,9.87-19.23a39.56,39.56,0,0,1,7.12-10,41.58,41.58,0,0,1,12.91-8.82c2.51-1.09,5.13-1.94,7.71-2.84.86-.3,1-.2,1.13.68.34,2.4.7,4.8.89,7.21A42.2,42.2,0,0,1,72.56,28.3Z"/><circle class="cls-2" cx="56" cy="34" r="5"/><line class="cls-2" x1="25" y1="73" x2="19" y2="82"/><line class="cls-2" x1="28" y1="80" x2="19" y2="94"/><line class="cls-2" x1="35" y1="80" x2="29" y2="89"/></svg>