<?xml version="1.0" encoding="utf-8"?>
<!-- Generator: Adobe Illustrator 16.0.0, SVG Export Plug-In . SVG Version: 6.00 Build 0)  -->
<!DOCTYPE svg PUBLIC "-//W3C//DTD SVG 1.1//EN" "http://www.w3.org/Graphics/SVG/1.1/DTD/svg11.dtd">
<svg version="1.1" xmlns="http://www.w3.org/2000/svg" xmlns:xlink="http://www.w3.org/1999/xlink" x="0px" y="0px" width="192px"
	 height="192px" viewBox="0 0 192 192" enable-background="new 0 0 192 192" xml:space="preserve">
 <defs><style>
	 	path {
	 	 fill: currentColor;
	 	}
	 </style></defs>
	<path fill="#790016" d="M97.869,14.57c-43.549,0-78.853,35.304-78.853,78.853s35.304,78.852,78.853,78.852
		s78.853-35.303,78.853-78.852S141.418,14.57,97.869,14.57z M97.869,164.891c-39.945,0-72.328-32.383-72.328-72.328
		c0-39.946,32.383-72.328,72.328-72.328c39.946,0,72.329,32.382,72.329,72.328C170.198,132.508,137.815,164.891,97.869,164.891z"/>
	<g>
		<path  d="M97.869,25.029c-37.298,0-67.533,30.235-67.533,67.533s30.235,67.534,67.533,67.534
			c37.299,0,67.534-30.236,67.534-67.534S135.168,25.029,97.869,25.029z M126.424,49.716c9.07,0,16.424,8.208,16.424,18.334
			c0,10.125-7.354,18.333-16.424,18.333c-9.072,0-16.426-8.208-16.426-18.333C109.998,57.924,117.352,49.716,126.424,49.716z
			 M71.696,49.084c9.373,0,16.97,8.208,16.97,18.334c0,10.125-7.597,18.333-16.97,18.333c-9.371,0-16.968-8.208-16.968-18.333
			C54.729,57.292,62.325,49.084,71.696,49.084z M144.521,121.712c-1.914,5.429-6.111,10.25-12.061,10.25h-11.37
			c-5.947,0-6.093-3.802-6.093-9.75c0,0-0.039-9.412,0-12.533c0.017-1.308-0.465-3.6-1.056-5.901
			c-3.469,1.047-11.2,3.27-14.352,3.27c-3.407,0-12.166-2.597-15.105-3.499c-0.562,2.163-1.002,4.268-0.985,5.499
			c0.041,3.121,0,12.533,0,12.533c0,5.948-0.149,9.75-6.294,9.75H65.46c-6.146,0-10.482-4.821-12.461-10.25
			c0,0-1.092-6.5-0.999-12.033c0.092-5.461,2.332-12.422,2.332-12.422c0.825-4.063,2.74-8.194,6.66-9.86
			c3.043,1.701,6.573,2.681,10.34,2.681c3.769,0,7.297-0.979,10.341-2.681c1.763,0.749,2.962,1.803,3.754,3.134
			c4.224-0.849,11.128-2.134,14.163-2.134c2.99,0,9.738,1.248,13.977,2.096c0.752-1.019,1.791-1.845,3.201-2.464
			c2.946,1.701,6.361,2.681,10.009,2.681c3.646,0,7.063-0.979,10.009-2.681c3.794,1.666,5.647,5.798,6.446,9.86
			c0,0,2.169,6.961,2.257,12.422C145.578,115.212,144.521,121.712,144.521,121.712z"/>
		<path  d="M111.875,95.648c-4.168-0.876-9.658-1.914-12.285-1.914c-2.747,0-8.621,1.134-12.844,2.032
			c0,0.078,0.004,0.154,0.004,0.233c0,0-0.006,0.017-0.014,0.041c3.846,1.225,10.09,3.067,12.854,3.067
			c2.628,0,8.403-1.666,12.271-2.883C111.865,96.032,111.867,95.837,111.875,95.648z"/>
	</g>
 
</svg>
