<svg id="Capa_1" data-name="Capa 1" xmlns="http://www.w3.org/2000/svg" viewBox="0 0 100 100"><defs><style>.cls-1{fill:none;stroke:#8f1f26;stroke-linecap:round;stroke-linejoin:round;stroke-width:2px;}</style></defs><title>Mesa de trabajo 1 copia 5</title><path class="cls-1" d="M86.18,25.42a6.93,6.93,0,0,1,1.72,9.74,6.85,6.85,0,0,1-9.56,1.59,6.92,6.92,0,0,1-1.87-9.63A7.05,7.05,0,0,1,86.18,25.42Zm-68.87,6.8A6.93,6.93,0,1,1,27,30.51,7,7,0,0,1,17.31,32.22Zm7,19.24a7.29,7.29,0,0,1-2.87-5.65,22.29,22.29,0,0,1,1.2-8.18,1.37,1.37,0,0,1,1-.71,9.56,9.56,0,0,0,8.7-12.45c-.16-.55-.25-.94.33-1.38a30.38,30.38,0,0,1,17.1-6.28,6.42,6.42,0,0,1,.76,0c1.33.11,2.15.7,2.34,1.71.22,1.18-.52,1.82-1.41,2.29-1.6.84-3.25,1.56-4.82,2.45-8,4.52-12.23,11.43-12.94,20.54a14.44,14.44,0,0,1-1.18,5.33A5.81,5.81,0,0,1,24.33,51.46ZM43.8,86a6.94,6.94,0,1,1,7.86-11.43A6.94,6.94,0,0,1,43.8,86Zm22.49-16.7c-2.62,2.75-6.16,3.78-9.76,4.53-.23,0-.63-.24-.81-.48-3.76-5.22-10.11-6-14.83-1.77a2.08,2.08,0,0,1-2.74.36A31.07,31.07,0,0,1,25,60.69a3.22,3.22,0,0,1-.7-1.66,3,3,0,0,1,.73-2,2.16,2.16,0,0,1,1.9-.12,32.27,32.27,0,0,1,3.45,2c6,4.22,12.55,5.9,19.75,4.37a42,42,0,0,0,7.21-2.54c2.16-.9,4.28-1.57,6.6-.83A5.56,5.56,0,0,1,66.29,69.27Zm8.5-7.72a3,3,0,0,1-2.08.66,2.31,2.31,0,0,1-1.29-1.6,12.51,12.51,0,0,1,.06-3.23,27.07,27.07,0,0,0-1.93-13.25,24.09,24.09,0,0,0-9.5-11.05,36.81,36.81,0,0,1-3.32-3,5.87,5.87,0,0,1-.64-7.38,6,6,0,0,1,7.3-1.78A21.16,21.16,0,0,1,71,26.62a1.35,1.35,0,0,1,0,1.13C69.08,32,69.9,36.39,73.47,39.4a15.3,15.3,0,0,0,4.19,2.12c.6.24.86.45.94,1.07A30.67,30.67,0,0,1,76,59.87,4.4,4.4,0,0,1,74.79,61.55Z"/></svg>