<svg id="Capa_1" data-name="Capa 1" xmlns="http://www.w3.org/2000/svg" viewBox="0 0 100 100"><defs><style>.cls-1{fill:none;stroke:#8f1f26;stroke-linecap:round;stroke-linejoin:round;stroke-width:2px;}</style></defs><title>Mesa de trabajo 1 copia 55</title><path class="cls-1" d="M82.19,44a29.35,29.35,0,0,1-9,15L49.8,79.87,26.83,59a29.42,29.42,0,0,1-9-15,17.83,17.83,0,0,1-.57-6.44l0-.14c.89-10,7.84-17.28,16.54-17.28,6.41,0,12.06,3.94,14.74,10.28l1.26,3,1.26-3A16.53,16.53,0,0,1,66.21,20.13c8.69,0,15.64,7.27,16.55,17.42A17.83,17.83,0,0,1,82.19,44Z"/></svg>