<?xml version="1.0" encoding="utf-8"?>
<!-- Generator: Adobe Illustrator 16.0.0, SVG Export Plug-In . SVG Version: 6.00 Build 0)  -->
<!DOCTYPE svg PUBLIC "-//W3C//DTD SVG 1.1//EN" "http://www.w3.org/Graphics/SVG/1.1/DTD/svg11.dtd">
<svg version="1.1" xmlns="http://www.w3.org/2000/svg" xmlns:xlink="http://www.w3.org/1999/xlink" x="0px" y="0px" width="192px"
	 height="192px" viewBox="0 0 192 192" enable-background="new 0 0 192 192" xml:space="preserve">
 <defs><style>
	 	path {
	 	 fill: currentColor;
	 	}
	 </style></defs>
	<path   d="M96.001,27.607c-37.298,0-67.533,30.235-67.533,67.533s30.235,67.534,67.533,67.534
		c37.299,0,67.534-30.236,67.534-67.534S133.3,27.607,96.001,27.607z M116.579,121.139v11.55h-43.05
		c0.068-1.68,0.21-3.762,0.42-6.247c0.21-2.484,0.488-4.847,0.84-7.088c0.485-2.73,1.771-5.896,3.855-9.503
		c2.083-3.604,5.385-7.822,9.899-12.652l7.192-7.56c1.198-1.26,2.256-2.415,3.173-3.465c0.916-1.051,1.674-2.117,2.274-3.203
		c0.599-1.084,1.057-2.292,1.375-3.622c0.316-1.329,0.476-2.94,0.476-4.83c0-3.57-0.653-6.02-1.957-7.35
		c-1.305-1.329-3.015-1.995-5.127-1.995c-1.553,0-2.943,0.28-4.178,0.84c-1.233,0.561-2.131,1.575-2.695,3.045
		c-0.776,1.75-1.146,3.588-1.11,5.513c0.034,1.926,0.016,3.798-0.053,5.617h-13.65v-2.205c0-1.119,0.035-2.52,0.105-4.2
		c0.068-1.68,0.297-3.429,0.683-5.25c0.384-1.819,1.014-3.622,1.89-5.407c0.874-1.785,2.135-3.395,3.78-4.83
		c1.644-1.434,3.762-2.572,6.353-3.412c2.589-0.84,5.774-1.261,9.555-1.261c3.079,0,5.914,0.473,8.505,1.418
		c2.589,0.945,4.813,2.294,6.668,4.042c1.854,1.751,3.308,3.886,4.357,6.405c1.05,2.521,1.575,5.355,1.575,8.505
		c0,4.41-0.788,8.313-2.363,11.708c-1.574,3.396-3.902,6.667-6.982,9.817l-11.55,11.97c-0.771,0.771-1.593,1.664-2.468,2.678
		c-0.876,1.016-1.697,2.118-2.467,3.308c-0.771,1.191-1.418,2.433-1.942,3.728c-0.525,1.296-0.788,2.608-0.788,3.938H116.579z"/>
 
</svg>
