<svg id="Capa_1" data-name="Capa 1" xmlns="http://www.w3.org/2000/svg" viewBox="0 0 100 100"><defs><style>.cls-1{fill:none;stroke:currentcolor;stroke-linecap:round;stroke-linejoin:round;stroke-width:2px;}</style></defs><title>Anuncis</title><path class="cls-1" d="M60.28,20.27a5,5,0,0,0-8-2.24l-18,15.44a4.7,4.7,0,0,1-1.42.86L18.45,40a5,5,0,0,0-2.87,6.3L21.77,63a5,5,0,0,0,6.28,2.91L42.7,60.78a4.88,4.88,0,0,1,1.64-.28H68a5,5,0,0,0,4.59-6.88Z"/><path class="cls-1" d="M69.34,45.25A10,10,0,0,0,64.5,26.5a10.4,10.4,0,0,0-2,.2"/><line class="cls-1" x1="26.48" y1="36.84" x2="36.75" y2="62.86"/><path class="cls-1" d="M44.36,80.52l-3.77,1.33c-2.09.73-4.55-.89-5.51-3.62L30.36,65.08l11.33-4L46.4,74.26C47.36,77,46.45,79.79,44.36,80.52Z"/></svg>