<svg id="Capa_1" data-name="Capa 1" xmlns="http://www.w3.org/2000/svg" viewBox="0 0 100 100"><defs><style>.cls-1{fill:none;stroke:#8f1f26;stroke-linecap:round;stroke-linejoin:round;stroke-width:2px;}</style></defs><title>Mesa de trabajo 1 copia 28</title><path class="cls-1" d="M76.57,56.86H82V43.14H76.57c-5.51,0-6.83-3.18-2.94-7.07l3.85-3.85-9.7-9.7-3.85,3.85c-3.89,3.89-7.08,2.57-7.07-2.93V18H43.15v5.45c0,5.5-3.19,6.81-7.08,2.92l-3.85-3.85-9.69,9.7,3.84,3.85c3.89,3.89,2.57,7.07-2.93,7.07H18V56.86h5.44c5.5,0,6.82,3.18,2.93,7.07l-3.84,3.85,9.69,9.7,3.85-3.85c3.89-3.89,7.06-2.58,7.08,2.91V82H56.86V76.56c0-5.5,3.18-6.82,7.07-2.93l3.85,3.85,9.7-9.7-3.85-3.85C69.74,60,71.06,56.86,76.57,56.86ZM50,62A12,12,0,1,1,62,50,12,12,0,0,1,50,62Z"/></svg>