<svg id="Capa_1" data-name="Capa 1" xmlns="http://www.w3.org/2000/svg" viewBox="0 0 100 100"><defs><style>.cls-1{fill:none;stroke:currentcolor;stroke-linecap:round;stroke-linejoin:round;stroke-width:2px;}.cls-2{fill:currentcolor;}</style></defs><title>Entrenament Opcional</title><path class="cls-1" d="M50,69.34,69.74,83.16a1.69,1.69,0,0,0,2.6-1.87L65.42,58.07,84.32,43.9a1.69,1.69,0,0,0-.95-3l-24-.94L51.6,17.66a1.69,1.69,0,0,0-3.2,0L40.64,39.91l-24,.94a1.69,1.69,0,0,0-.95,3l18.9,14.17L27.66,81.29a1.69,1.69,0,0,0,2.6,1.87L50,69.34"/><path class="cls-2" d="M51.66,63.4A10.64,10.64,0,0,1,41.49,56l0-.15-.18-.07H38.36a1,1,0,1,1,0-1.92h2.69l0-.33c0-.25,0-.5,0-.76s0-.51,0-.76l0-.34H38.36a1,1,0,1,1,0-1.91h3.07l0-.15a10.67,10.67,0,0,1,10.19-7.5H55.3a1,1,0,0,1,0,1.91H51.66a8.77,8.77,0,0,0-8,5.3l-.19.44h9.3a1,1,0,1,1,0,1.91H43v.19a8,8,0,0,0-.05.91,7.32,7.32,0,0,0,0,.81l0,.19.19.09h9.57a1,1,0,0,1,0,1.92h-9.3l.19.44a8.76,8.76,0,0,0,8,5.3h3.63a1,1,0,1,1,0,1.91Z"/></svg>