<svg width="32" height="30" viewBox="0 0 32 30" fill="none" xmlns="http://www.w3.org/2000/svg">
	<defs><style>.cls-1{fill:none;stroke:currentcolor;stroke-linecap:round;stroke-linejoin:round;stroke-width:2px;}</style></defs>
<path class="cls-1" d="M29.7933 4.45715C30.0978 4.66607 30.3576 4.93357 30.5575 5.24403C30.7574 5.55449 30.8934 5.90168 30.9577 6.26532C31.0219 6.62895 31.013 7.00174 30.9315 7.36189C30.85 7.72205 30.6975 8.06235 30.483 8.36292C30.2733 8.65662 30.0077 8.90611 29.7015 9.09712C29.3952 9.28813 29.0544 9.41692 28.6983 9.47614C28.3423 9.53535 27.9781 9.52382 27.6266 9.44221C27.275 9.3606 26.943 9.21051 26.6494 9.00051C26.3459 8.79678 26.0857 8.5351 25.8836 8.23049C25.6816 7.92588 25.5417 7.58435 25.472 7.22552C25.4023 6.86669 25.4042 6.49762 25.4776 6.13953C25.551 5.78143 25.6944 5.44136 25.8995 5.13885C26.3308 4.53898 26.9797 4.13176 27.7075 4.00435C28.4352 3.87694 29.1839 4.03947 29.7933 4.45715V4.45715ZM2.17621 7.18397C1.72798 6.86753 1.38346 6.42548 1.18607 5.91354C0.988676 5.4016 0.947246 4.84268 1.067 4.30724C1.18675 3.77179 1.46233 3.28378 1.859 2.9047C2.25568 2.52563 2.75568 2.27246 3.29601 2.17711C3.83634 2.08176 4.3928 2.14849 4.89526 2.36889C5.39772 2.5893 5.82369 2.95351 6.11949 3.41562C6.41528 3.87774 6.56766 4.41707 6.55742 4.96565C6.54717 5.51423 6.37477 6.0475 6.06193 6.49825C5.63473 7.10079 4.98725 7.51067 4.25988 7.63903C3.5325 7.76739 2.78385 7.60389 2.17621 7.18397ZM4.98323 14.8993C4.63326 14.6326 4.348 14.2903 4.14873 13.898C3.94945 13.5057 3.84131 13.0735 3.83235 12.6336C3.7868 11.5198 3.95001 10.4072 4.31356 9.3534C4.35368 9.27805 4.41081 9.21308 4.48042 9.16366C4.55003 9.11424 4.63019 9.08172 4.71456 9.06868C5.30314 9.04342 5.87797 8.88285 6.39444 8.59944C6.91091 8.31603 7.35511 7.9174 7.69256 7.4345C8.03 6.9516 8.25162 6.39743 8.34019 5.815C8.42877 5.23258 8.38192 4.63758 8.20329 4.0762C8.13913 3.85564 8.10303 3.69925 8.33562 3.52281C10.3099 2.00172 12.7033 1.12276 15.1928 1.00451C15.2943 0.998495 15.396 0.998495 15.4975 1.00451C16.0309 1.04862 16.3597 1.28522 16.4359 1.69023C16.5241 2.16341 16.2274 2.42005 15.8705 2.60853C15.2289 2.94537 14.5672 3.23409 13.9376 3.59098C10.7296 5.40352 9.03336 8.17445 8.74865 11.8276C8.72825 12.5636 8.56766 13.289 8.27547 13.9649C8.12998 14.2505 7.92715 14.5029 7.67965 14.7065C7.43216 14.9101 7.14532 15.0605 6.83707 15.1482C6.52883 15.2359 6.20581 15.259 5.88821 15.2162C5.57061 15.1734 5.26526 15.0655 4.99125 14.8993H4.98323ZM12.7988 28.7499C12.4838 28.549 12.2126 28.2867 12.0012 27.9788C11.7897 27.6708 11.6425 27.3234 11.5682 26.9573C11.4939 26.5913 11.494 26.214 11.5686 25.8479C11.6432 25.4819 11.7907 25.1346 12.0024 24.8268C12.2141 24.519 12.4855 24.257 12.8006 24.0563C13.1157 23.8557 13.468 23.7205 13.8364 23.6589C14.2049 23.5972 14.5819 23.6104 14.9452 23.6976C15.3084 23.7848 15.6504 23.9443 15.9507 24.1664C16.5306 24.5955 16.9213 25.2331 17.0403 25.9446C17.1594 26.6562 16.9974 27.3861 16.5886 27.9806C16.1798 28.575 15.5562 28.9875 14.8491 29.131C14.1421 29.2746 13.407 29.1379 12.7988 28.7499V28.7499ZM21.8173 22.0532C20.7667 23.1559 19.3472 23.5689 17.9035 23.8697C17.8113 23.8697 17.6509 23.7735 17.5787 23.6772C16.071 21.584 13.5246 21.2712 11.6319 22.9674C11.4982 23.1219 11.3124 23.2219 11.1099 23.2485C10.9074 23.2751 10.7022 23.2265 10.5331 23.1118C8.38361 22.1378 6.55494 20.5733 5.25992 18.6005C5.10493 18.4099 5.00755 18.1789 4.97922 17.9349C4.97546 17.6407 5.07961 17.3554 5.27195 17.1329C5.38684 17.0672 5.51524 17.0287 5.64732 17.0203C5.77939 17.012 5.91162 17.034 6.03386 17.0847C6.51111 17.3233 6.97314 17.5911 7.41732 17.8867C9.82334 19.579 12.4499 20.2527 15.3371 19.6391C16.3298 19.3882 17.2976 19.0473 18.2284 18.6206C19.0945 18.2597 19.9447 17.991 20.875 18.2877C21.2531 18.394 21.5964 18.5982 21.8702 18.8798C22.144 19.1614 22.3386 19.5103 22.4343 19.8912C22.5299 20.2722 22.5232 20.6716 22.4149 21.0491C22.3065 21.4267 22.1004 21.7689 21.8173 22.0411V22.0532ZM25.2259 18.9574C24.9909 19.1472 24.6932 19.2417 24.3918 19.2221C24.2619 19.1623 24.1476 19.0733 24.0578 18.962C23.9681 18.8507 23.9053 18.7201 23.8745 18.5805C23.8265 18.1495 23.8346 17.7141 23.8985 17.2852C24.0896 15.4773 23.8235 13.6503 23.1246 11.9719C22.3427 10.1371 21.0119 8.58919 19.3151 7.54086C18.8473 7.16723 18.4027 6.76548 17.9837 6.33785C17.6074 5.94919 17.3764 5.44275 17.3297 4.90375C17.2829 4.36475 17.4233 3.8261 17.7271 3.37845C18.0609 2.94396 18.5329 2.63639 19.0652 2.50659C19.5975 2.3768 20.1581 2.43257 20.6544 2.66467C21.8307 3.18174 22.8741 3.95919 23.7061 4.93835C23.7388 5.0094 23.7558 5.08669 23.7558 5.16492C23.7558 5.24314 23.7388 5.32044 23.7061 5.39149C22.9361 7.09575 23.265 8.85615 24.6965 10.0632C25.2095 10.4313 25.7763 10.7181 26.3767 10.9133C26.6173 11.0095 26.7216 11.0937 26.7537 11.3424C27.0854 13.7044 26.7232 16.1119 25.7111 18.2717C25.6052 18.5317 25.4389 18.7626 25.2259 18.9454V18.9574Z" stroke="white" stroke-linecap="round" stroke-linejoin="round"/>
</svg>
