<svg id="Capa_1" data-name="Capa 1" xmlns="http://www.w3.org/2000/svg" viewBox="0 0 100 100"><defs><style>.cls-1{fill:none;stroke:#8f1f26;stroke-linecap:round;stroke-linejoin:round;stroke-width:2px;}</style></defs><title>Mesa de trabajo 1 copia 37</title><path class="cls-1" d="M36.24,18.23H76.48a3,3,0,0,1,3,3V71.49a3,3,0,0,1-3,3H36.24A15.73,15.73,0,0,1,20.52,58.77V34A15.73,15.73,0,0,1,36.24,18.23Z" transform="translate(96.36 -3.64) rotate(90)"/><rect class="cls-1" x="29.1" y="30.15" width="41.8" height="18.01" rx="3"/><circle class="cls-1" cx="34.56" cy="64.09" r="5.27"/><circle class="cls-1" cx="65.63" cy="64.09" r="5.27"/><path class="cls-1" d="M31.88,74.19h2.86a0,0,0,0,1,0,0V84.77a0,0,0,0,1,0,0H31.88a4.42,4.42,0,0,1-4.42-4.42V78.61A4.42,4.42,0,0,1,31.88,74.19Z" transform="translate(-48.38 110.59) rotate(-90)"/><path class="cls-1" d="M70.1,74.19H73a0,0,0,0,1,0,0V84.77a0,0,0,0,1,0,0H70.1a4.42,4.42,0,0,1-4.42-4.42V78.61A4.42,4.42,0,0,1,70.1,74.19Z" transform="translate(-10.16 148.8) rotate(-90)"/></svg>