<svg id="Capa_1" data-name="Capa 1" xmlns="http://www.w3.org/2000/svg" viewBox="0 0 100 100"><defs><style>.cls-1{fill:none;stroke:#8f1f26;stroke-linecap:round;stroke-linejoin:round;stroke-width:2px;}</style></defs><title>Mesa de trabajo 1 copia 56</title><rect class="cls-1" x="17.63" y="22.49" width="64.74" height="10.84" rx="4.85"/><path class="cls-1" d="M25.91,33.33H74.09a0,0,0,0,1,0,0v51A3.09,3.09,0,0,1,71,87.47H29a3.09,3.09,0,0,1-3.09-3.09v-51A0,0,0,0,1,25.91,33.33Z"/><line class="cls-1" x1="38.54" y1="45.61" x2="38.54" y2="79.66"/><line class="cls-1" x1="50" y1="45.61" x2="50" y2="79.66"/><line class="cls-1" x1="61.46" y1="45.61" x2="61.46" y2="79.66"/><path class="cls-1" d="M39.77,22.49a10.23,10.23,0,1,1,20.46,0"/></svg>