<?xml version="1.0" encoding="utf-8"?>
<!-- Generator: Adobe Illustrator 16.0.0, SVG Export Plug-In . SVG Version: 6.00 Build 0)  -->
<!DOCTYPE svg PUBLIC "-//W3C//DTD SVG 1.1//EN" "http://www.w3.org/Graphics/SVG/1.1/DTD/svg11.dtd">
<svg version="1.1" xmlns="http://www.w3.org/2000/svg" xmlns:xlink="http://www.w3.org/1999/xlink" x="0px" y="0px" width="192px"
	 height="192px" viewBox="0 0 192 192" enable-background="new 0 0 192 192" xml:space="preserve">
 <defs><style>
	 	path {
	 	 fill: currentColor;
	 	}
	 </style></defs>
	<path   d="M103.722,25.889c-37.298,0-67.533,30.235-67.533,67.533s30.235,67.534,67.533,67.534
		c37.299,0,67.534-30.236,67.534-67.534S141.021,25.889,103.722,25.889z M124.93,116.532c-0.7,3.465-1.89,6.389-3.57,8.768
		c-1.68,2.381-3.921,4.184-6.72,5.407c-2.801,1.224-6.266,1.838-10.395,1.838c-4.481,0-8.174-0.525-11.078-1.575
		c-2.905-1.05-5.197-2.642-6.877-4.777c-1.681-2.135-2.854-4.864-3.518-8.19c-0.666-3.323-0.998-7.261-0.998-11.813h13.65
		c0.068,1.401,0.104,2.94,0.104,4.62s0.21,3.255,0.634,4.726c0.423,1.47,1.127,2.729,2.114,3.779
		c0.986,1.05,2.502,1.611,4.547,1.681c2.184,0.141,3.839-0.279,4.968-1.261c1.127-0.979,1.938-2.273,2.431-3.885
		c0.492-1.609,0.774-3.412,0.846-5.407c0.07-1.995,0.141-3.972,0.211-5.933c0.14-3.15,0.033-5.723-0.318-7.718
		c-0.351-1.995-0.915-3.569-1.689-4.725c-0.776-1.155-1.71-1.959-2.802-2.415c-1.093-0.454-2.307-0.683-3.646-0.683
		c-1.833,0-3.472,0.543-4.916,1.628c-1.445,1.086-2.273,2.467-2.483,4.147H82.51l1.979-41.266h37.816v11.55H95.739L94.795,81.83
		c1.826-1.749,3.581-2.922,5.268-3.518c1.686-0.594,3.757-0.893,6.217-0.893c4.283,0,7.726,0.823,10.324,2.468
		c2.599,1.646,4.601,3.779,6.005,6.404s2.316,5.549,2.738,8.768c0.421,3.221,0.633,6.405,0.633,9.555
		C125.979,109.096,125.629,113.067,124.93,116.532z"/>
 
</svg>
