<?xml version="1.0" encoding="utf-8"?>
<!-- Generator: Adobe Illustrator 16.0.0, SVG Export Plug-In . SVG Version: 6.00 Build 0)  -->
<!DOCTYPE svg PUBLIC "-//W3C//DTD SVG 1.1//EN" "http://www.w3.org/Graphics/SVG/1.1/DTD/svg11.dtd">
<svg version="1.1" xmlns="http://www.w3.org/2000/svg" xmlns:xlink="http://www.w3.org/1999/xlink" x="0px" y="0px" width="192px"
	 height="192px" viewBox="0 0 192 192" enable-background="new 0 0 192 192" xml:space="preserve">
	 <defs><style>
	 	path {
	 	 fill: currentColor;
	 	}
	 </style></defs>
   
		<path   d="M76.948,72.128c-0.188-1.629-0.376-3.258-0.564-4.888c-0.063-0.813-0.126-1.612-0.188-2.396
			c-0.063-0.783-0.157-1.552-0.282-2.304h-0.188c-0.126,0.752-0.22,1.521-0.281,2.304c-0.063,0.784-0.127,1.583-0.188,2.396
			c-0.188,1.63-0.376,3.259-0.563,4.888c-0.188,1.631-0.439,3.26-0.752,4.889l-3.948,20.021h11.28L77.7,77.017
			C77.386,75.388,77.136,73.759,76.948,72.128z"/>
		<path   d="M96,25.029c-37.299,0-67.533,30.235-67.533,67.533S58.701,160.097,96,160.097s67.533-30.236,67.533-67.534
			S133.299,25.029,96,25.029z M86.818,125.238l-3.479-17.86H67.924l-3.478,17.86H50.346l16.826-70.5h17.767l15.979,70.5H86.818z
			 M139.646,90.646h-12.22v-5.922c-0.188-3.009-1.598-4.513-4.23-4.513c-1.19,0-2.1,0.314-2.726,0.94
			c-0.627,0.627-1.081,1.473-1.363,2.538c-0.282,1.066-0.438,2.319-0.47,3.76c-0.032,1.442-0.047,2.978-0.047,4.606v12.502
			c-0.063,2.57-0.032,4.652,0.094,6.251c0.125,1.598,0.376,2.852,0.752,3.76c0.376,0.909,0.86,1.551,1.457,1.927
			c0.595,0.376,1.363,0.627,2.303,0.752c0.94,0,1.676-0.219,2.209-0.658c0.532-0.438,0.924-1.001,1.176-1.691
			c0.249-0.689,0.423-1.504,0.517-2.444c0.094-0.939,0.203-1.941,0.329-3.008v-4.888h12.22v4.888c0,5.578-1.269,9.839-3.807,12.784
			c-2.538,2.946-6.848,4.418-12.925,4.418c-2.695,0-5.093-0.376-7.191-1.128c-2.101-0.752-3.87-1.927-5.311-3.525
			c-1.442-1.598-2.508-3.649-3.196-6.157c-0.69-2.505-0.973-5.514-0.846-9.023V89.612c0-3.697,0.423-6.768,1.269-9.212
			s2.005-4.371,3.478-5.781c1.472-1.41,3.228-2.396,5.265-2.961c2.035-0.563,4.214-0.846,6.533-0.846
			c3.069,0,5.671,0.438,7.802,1.315c2.13,0.879,3.868,2.054,5.217,3.525c1.347,1.473,2.303,3.149,2.867,5.029
			c0.563,1.88,0.846,3.792,0.846,5.733V90.646z"/> 
 
</svg>
