<?xml version="1.0" encoding="utf-8"?>
<!-- Generator: Adobe Illustrator 16.0.0, SVG Export Plug-In . SVG Version: 6.00 Build 0)  -->
<!DOCTYPE svg PUBLIC "-//W3C//DTD SVG 1.1//EN" "http://www.w3.org/Graphics/SVG/1.1/DTD/svg11.dtd">
<svg version="1.1" xmlns="http://www.w3.org/2000/svg" xmlns:xlink="http://www.w3.org/1999/xlink" x="0px" y="0px" width="192px"
	 height="192px" viewBox="0 0 192 192" enable-background="new 0 0 192 192" xml:space="preserve">
 <defs><style>
	 	path {
	 	 fill: currentColor;
	 	}
	 </style></defs>
	<path   d="M97.501,27.607c-37.298,0-67.533,30.235-67.533,67.533s30.235,67.534,67.533,67.534
		c37.299,0,67.534-30.236,67.534-67.534S134.8,27.607,97.501,27.607z M117.922,119.879c-0.877,3.081-2.241,5.688-4.096,7.822
		c-1.855,2.136-4.218,3.764-7.087,4.882c-2.871,1.119-6.336,1.681-10.396,1.681c-5.11,0-9.118-0.824-12.022-2.468
		c-2.905-1.644-5.093-3.657-6.563-6.037c-1.47-2.379-2.381-4.899-2.729-7.561c-0.352-2.659-0.491-5.004-0.42-7.035v-4.619h13.649
		c0.069,1.61,0.105,3.359,0.105,5.25c0,1.89,0.21,3.64,0.633,5.25c0.424,1.61,1.216,2.958,2.379,4.042
		c1.162,1.086,2.905,1.628,5.232,1.628c2.042,0,3.609-0.437,4.702-1.313c1.092-0.875,1.866-2.012,2.324-3.413
		c0.458-1.399,0.722-2.992,0.793-4.777c0.07-1.785,0.106-3.586,0.106-5.407c0-0.63-0.019-1.313-0.053-2.048
		c-0.036-0.735-0.106-1.486-0.212-2.258c-0.106-0.769-0.266-1.504-0.478-2.204c-0.211-0.699-0.528-1.295-0.949-1.785
		c-0.706-0.84-1.604-1.471-2.697-1.891s-2.256-0.717-3.49-0.893c-1.233-0.174-2.466-0.278-3.699-0.314
		c-1.233-0.034-2.381-0.053-3.438-0.053v-11.55c1.553-0.14,3.139-0.21,4.762-0.21c1.621,0,3.139-0.315,4.549-0.945
		c2.045-0.979,3.314-2.345,3.809-4.095c0.493-1.749,0.741-3.604,0.741-5.565c0-5.88-2.362-8.819-7.088-8.819
		c-0.775,0-1.569,0.088-2.38,0.262c-0.811,0.176-1.553,0.491-2.222,0.945c-0.669,0.456-1.233,1.086-1.693,1.89
		c-0.459,0.806-0.724,1.838-0.792,3.098v5.565h-13.65c-0.42-7.351,1.032-13.072,4.357-17.168c3.324-4.095,8.768-6.143,16.328-6.143
		c7.419,0,12.844,1.804,16.274,5.408c3.429,3.605,5.146,8.558,5.146,14.857c0,1.68-0.176,3.431-0.525,5.25
		c-0.351,1.821-0.929,3.501-1.732,5.04c-0.806,1.54-1.873,2.853-3.202,3.938c-1.331,1.086-2.94,1.769-4.83,2.047v0.21
		c1.749,0.21,3.359,0.754,4.83,1.628c1.47,0.876,2.729,2.1,3.779,3.675c1.051,1.575,1.872,3.518,2.468,5.828
		c0.594,2.31,0.856,4.971,0.788,7.979C119.234,113.334,118.796,116.799,117.922,119.879z"/>
 
</svg>
