<svg id="Capa_1" data-name="Capa 1" xmlns="http://www.w3.org/2000/svg" viewBox="0 0 100 100"><defs><style>.cls-1{fill:none;stroke:#8f1f26;stroke-linecap:round;stroke-linejoin:round;stroke-width:2px;}</style></defs><title>Mesa de trabajo 1 copia 7</title><path class="cls-1" d="M26,86H18.25a2,2,0,0,1-1.87-2V59.05a2,2,0,0,1,1.87-2H26a1.94,1.94,0,0,1,1.86,2V84A1.94,1.94,0,0,1,26,86Zm15.71,0H34a2,2,0,0,1-1.87-2v-34a2,2,0,0,1,1.87-2h7.77a2,2,0,0,1,1.87,2V84A2,2,0,0,1,41.73,86Zm15.32,0H49.28a1.94,1.94,0,0,1-1.86-2V54.8a1.94,1.94,0,0,1,1.86-2h7.77a2,2,0,0,1,1.87,2V84A2,2,0,0,1,57.05,86Zm15.47,0H64.75a1.94,1.94,0,0,1-1.86-2V42.85a1.94,1.94,0,0,1,1.86-2h7.77a2,2,0,0,1,1.87,2V84A2,2,0,0,1,72.52,86Z"/><polyline class="cls-1" points="16 46.82 35.59 28.12 53.4 38.81 72.1 21"/><polyline class="cls-1" points="71.2 28.12 72.1 21 64.08 21.89"/></svg>