<?xml version="1.0" encoding="utf-8"?>
<!-- Generator: Adobe Illustrator 16.0.0, SVG Export Plug-In . SVG Version: 6.00 Build 0)  -->
<!DOCTYPE svg PUBLIC "-//W3C//DTD SVG 1.1//EN" "http://www.w3.org/Graphics/SVG/1.1/DTD/svg11.dtd">
<svg version="1.1" xmlns="http://www.w3.org/2000/svg" xmlns:xlink="http://www.w3.org/1999/xlink" x="0px" y="0px" width="192px"
	 height="192px" viewBox="0 0 192 192" enable-background="new 0 0 192 192" xml:space="preserve">
 <defs><style>
	 	path {
	 	 fill: currentColor;
	 	}
	 </style></defs>
	<path d="M96.452,24.606c-37.298,0-67.533,30.235-67.533,67.533s30.235,67.534,67.533,67.534
		c37.299,0,67.534-30.236,67.534-67.534S133.751,24.606,96.452,24.606z M92.896,106.574c-0.03,0.623-0.075,1.262-0.134,1.914
		c-0.178,3.025-0.594,5.859-1.246,8.499c-0.653,2.641-1.69,4.926-3.114,6.853c-1.425,1.93-3.293,3.442-5.607,4.539
		c-2.314,1.098-5.192,1.646-8.633,1.646c-5.104,0-9.108-0.771-12.016-2.313s-5.088-3.679-6.541-6.408
		c-1.455-2.729-2.358-5.977-2.715-9.745c-0.355-3.768-0.534-7.877-0.534-12.327v-9.522c0.119-4.272,0.386-8.218,0.802-11.837
		c0.414-3.618,1.349-6.749,2.803-9.39c1.454-2.64,3.604-4.702,6.453-6.186c2.848-1.482,6.764-2.225,11.748-2.225
		c11.272,0.178,17.354,5.934,18.245,17.266c0.118,0.831,0.207,1.677,0.267,2.536c0.059,0.861,0.059,1.707,0,2.537H80.391
		c-0.119-1.068-0.223-2.314-0.312-3.738s-0.312-2.759-0.667-4.005c-0.356-1.246-0.935-2.314-1.735-3.204
		c-0.802-0.89-1.974-1.335-3.516-1.335c-2.434,0-4.272,0.639-5.519,1.913c-1.246,1.277-2.122,2.804-2.625,4.584
		c-0.505,1.78-0.771,3.62-0.801,5.518c-0.031,1.899-0.045,3.502-0.045,4.807v18.512c0,1.365,0.074,2.893,0.223,4.583
		c0.147,1.691,0.503,3.279,1.068,4.762c0.563,1.484,1.453,2.715,2.67,3.693c1.215,0.979,2.893,1.469,5.028,1.469
		c1.72,0,2.995-0.593,3.827-1.78c0.83-1.186,1.424-2.609,1.779-4.271c0.356-1.66,0.548-3.352,0.579-5.073
		c0.029-1.72,0.073-3.115,0.133-4.183h12.55C92.969,105.314,92.925,105.951,92.896,106.574z M138.775,71.464h-22.873v16.91h21.449
		v9.79h-21.449v30.26h-12.46v-66.75h35.333V71.464z"/>
 
</svg>
