<svg id="Capa_1" data-name="Capa 1" xmlns="http://www.w3.org/2000/svg" viewBox="0 0 100 100"><defs><style>.cls-1{fill:none;stroke:currentcolor;stroke-linecap:round;stroke-linejoin:round;stroke-width:2px;}</style></defs><title>Bustia</title><path class="cls-1" d="M29,29.55h5a12,12,0,0,1,12,12V69.46a0,0,0,0,1,0,0H17a0,0,0,0,1,0,0V41.55a12,12,0,0,1,12-12Z"/><path class="cls-1" d="M67.8,29.55A14.51,14.51,0,0,1,82.31,44.06v25.4"/><line class="cls-1" x1="31.51" y1="29.55" x2="67.8" y2="29.55"/><path class="cls-1" d="M59.33,14.53H72.74a.8.8,0,0,1,.8.8v6a.8.8,0,0,1-.8.8H59.33a0,0,0,0,1,0,0V14.53A0,0,0,0,1,59.33,14.53Z"/><line class="cls-1" x1="17" y1="69.46" x2="82.31" y2="69.46"/><line class="cls-1" x1="59.33" y1="20.96" x2="59.33" y2="35.47"/><line class="cls-1" x1="59.33" y1="70.67" x2="59.33" y2="86"/><rect class="cls-1" x="25.47" y="42.85" width="12.09" height="7.26" rx="0.8"/></svg>