<?xml version="1.0" encoding="utf-8"?>
<!-- Generator: Adobe Illustrator 16.0.0, SVG Export Plug-In . SVG Version: 6.00 Build 0)  -->
<!DOCTYPE svg PUBLIC "-//W3C//DTD SVG 1.1//EN" "http://www.w3.org/Graphics/SVG/1.1/DTD/svg11.dtd">
<svg version="1.1" xmlns="http://www.w3.org/2000/svg" xmlns:xlink="http://www.w3.org/1999/xlink" x="0px" y="0px" width="192px"
	 height="192px" viewBox="0 0 192 192" enable-background="new 0 0 192 192" xml:space="preserve">
 <defs><style>
	 	path {
	 	 fill: currentColor;
	 	}
	 </style></defs>
		<path   d="M74.62,84.806c-0.38-1.235-0.967-2.264-1.758-3.087c-0.792-0.823-1.916-1.235-3.372-1.235
			c-1.458,0-2.551,0.285-3.277,0.854c-0.729,0.57-1.252,1.347-1.568,2.328c-0.317,0.982-0.507,2.09-0.569,3.325
			c-0.064,1.234-0.128,2.517-0.19,3.847v17.86c0.126,2.598,0.585,4.782,1.378,6.555c0.791,1.774,2.138,2.66,4.037,2.66
			c3.99,0,5.985-3.166,5.985-9.5V92.358c0.063-1.076,0.063-2.295,0-3.657C75.221,87.34,75,86.041,74.62,84.806z"/>
		<path  d="M96,25.029c-37.299,0-67.533,30.235-67.533,67.533S58.701,160.097,96,160.097s67.533-30.236,67.533-67.534
			S133.299,25.029,96,25.029z M87.635,125.988h-12.35v-5.7h-0.19c-1.203,2.724-2.676,4.561-4.417,5.51
			c-1.743,0.95-3.816,1.487-6.223,1.615c-2.598,0-4.719-0.539-6.365-1.615c-1.647-1.076-2.945-2.47-3.895-4.18
			c-0.95-1.71-1.615-3.641-1.995-5.795c-0.38-2.152-0.603-4.306-0.665-6.46v-19.38c0.063-3.673,0.395-6.729,0.997-9.168
			c0.602-2.437,1.456-4.37,2.565-5.795c1.107-1.425,2.438-2.438,3.99-3.04c1.551-0.601,3.34-0.934,5.367-0.997
			c2.66-0.063,4.845,0.412,6.555,1.425c1.71,1.014,3.197,2.819,4.465,5.415h0.19c-0.254-1.456-0.38-3.04-0.38-4.75V54.738h12.35
			V125.988z M139.98,65.188h-15.485v60.8h-13.3v-60.8h-15.58v-10.45h44.365V65.188z"/>
 
</svg>
