<svg id="Capa_1" data-name="Capa 1" xmlns="http://www.w3.org/2000/svg" viewBox="0 0 100 100"><defs><style>.cls-1{fill:#8f1f26;}</style></defs><title>Mesa de trabajo 1 copia 40</title><path class="cls-1" d="M64.8,81.2A31.17,31.17,0,0,1,35.08,59.45l-.54-1.73H24a1.44,1.44,0,1,1,0-2.87H33.9l-.19-2.64c0-.6-.09-1.4-.09-2.22s.05-1.62.09-2.23l.19-2.63H24a1.44,1.44,0,0,1,0-2.87H34.53L35,40.79a31.31,31.31,0,0,1,29.8-22H76a1.44,1.44,0,0,1,0,2.88H64.81a28.34,28.34,0,0,0-26,17.16l-1.47,3.43H68.1a1.44,1.44,0,0,1,0,2.87H36.8l-.16,2c-.11,1.17-.15,2-.15,2.91s0,1.7.12,2.62l.12,2.24H68.1a1.44,1.44,0,0,1,0,2.87H37.31l1.47,3.43a28.34,28.34,0,0,0,26,17.16H76a1.44,1.44,0,1,1,0,2.88Z"/></svg>