<?xml version="1.0" encoding="utf-8"?>
<!-- Generator: Adobe Illustrator 16.0.0, SVG Export Plug-In . SVG Version: 6.00 Build 0)  -->
<!DOCTYPE svg PUBLIC "-//W3C//DTD SVG 1.1//EN" "http://www.w3.org/Graphics/SVG/1.1/DTD/svg11.dtd">
<svg version="1.1" xmlns="http://www.w3.org/2000/svg" xmlns:xlink="http://www.w3.org/1999/xlink" x="0px" y="0px" width="192px"
	 height="192px" viewBox="0 0 192 192" enable-background="new 0 0 192 192" xml:space="preserve">
 <defs><style>
	 	path {
	 	 fill: currentColor;
	 	}
	 </style></defs>
		<path  d="M59.063,71.822c1.52,0.791,3.157,1.248,4.815,1.623c1.217,0.275,2.444,0.506,3.673,0.725
			c1.078,0.191,2.162,0.35,3.246,0.5c0.967,0.135,1.937,0.256,2.907,0.352c0.681,0.066,1.368,0.061,2.049,0.125
			c1.029,0.098,2.053,0.254,3.082,0.338c2.077,0.172,4.157,0.326,6.237,0.463c1.145,0.074,2.292,0.105,3.438,0.145
			c0.96,0.033,1.92,0.074,2.879,0.07c4.074-0.014,8.148-0.041,12.222-0.07c0.437-0.002,0.873-0.047,1.31-0.066
			c1.714-0.072,3.428-0.16,5.143-0.205c0.43-0.012,0.875,0.045,1.303,0.07c1.008,0.059,2.031-0.047,3.043-0.139
			c0.907-0.082,1.81-0.225,2.712-0.357c0.333-0.049,0.655-0.182,0.989-0.221c1.146-0.135,2.298-0.221,3.44-0.375
			c1.329-0.18,2.653-0.408,3.978-0.627c2.349-0.391,4.687-0.846,6.922-1.686c0.813-0.305,1.585-0.738,2.334-1.182
			c0.293-0.176,0.474-0.541,0.697-0.826c0.023-0.029-0.008-0.104-0.016-0.17c-0.11,0.033-0.196,0.057-0.194,0.057
			c-0.123-0.332-0.16-0.707-0.366-0.924c-0.366-0.387-0.798-0.746-1.267-0.994c-1.72-0.912-3.597-1.393-5.486-1.779
			c-1.954-0.4-3.929-0.707-5.9-1.014c-1.439-0.225-2.887-0.4-4.334-0.564c-1.275-0.145-2.555-0.256-3.834-0.357
			c-1.375-0.111-2.752-0.199-4.129-0.289c-0.849-0.055-1.697-0.104-2.547-0.143c-1.217-0.055-2.435-0.1-3.651-0.145
			c-0.816-0.029-1.634-0.07-2.45-0.068c-3.813,0.016-7.624,0.041-11.437,0.07c-0.982,0.008-1.966,0.041-2.949,0.07
			c-0.448,0.014-0.896,0.049-1.344,0.066c-1.182,0.051-2.363,0.098-3.545,0.146c-0.544,0.023-1.088,0.033-1.63,0.076
			c-1.362,0.109-2.723,0.234-4.084,0.35c-0.881,0.076-1.765,0.123-2.642,0.225c-1.447,0.168-2.893,0.359-4.335,0.563
			c-1.268,0.178-2.54,0.342-3.795,0.592c-1.541,0.309-3.069,0.686-4.597,1.059c-0.496,0.121-0.974,0.32-1.46,0.482
			c0.005,0.021,0.011,0.041,0.017,0.063c0.188,0,0.377,0,0.566,0c0.006,0.021,0.011,0.041,0.017,0.063
			c-0.079,0.049-0.156,0.098-0.236,0.143c-0.538,0.297-1.116,0.539-1.606,0.902c-0.861,0.637-1.036,1.426-0.154,2.213
			C58.382,71.428,58.72,71.643,59.063,71.822z"/>
		<path d="M114.998,126.975c-0.068-0.23-0.204-0.191-0.385-0.15c-0.994,0.227-1.988,0.453-2.988,0.648
			c-0.839,0.162-0.847,0.141-1.036,0.961c-0.231,1-0.454,2-0.7,3.088c2.355,0.041,4.49-0.453,6.575-1.156
			c0-0.086,0.009-0.115-0.002-0.131C115.743,129.252,115.337,128.129,114.998,126.975z"/>
		<path   d="M96,28.467c-37.299,0-67.533,30.234-67.533,67.533c0,37.297,30.234,67.533,67.533,67.533
			S163.533,133.297,163.533,96C163.533,58.701,133.299,28.467,96,28.467z M56.203,64.643c1.33-0.852,2.775-1.451,4.263-1.955
			c3.134-1.063,6.354-1.773,9.617-2.277c2.591-0.398,5.189-0.758,7.794-1.045c2.218-0.244,4.448-0.375,6.674-0.529
			c4.46-0.309,8.926-0.406,13.395-0.338c2.992,0.045,5.985,0.145,8.975,0.297c2.382,0.123,4.763,0.318,7.136,0.561
			c4.843,0.492,9.657,1.182,14.378,2.41c2.278,0.594,4.529,1.277,6.597,2.436c0.606,0.34,1.177,0.764,1.709,1.211
			c0.671,0.564,1.023,1.277,1.02,2.211c-0.013,2.824,0.037,5.648,0.072,8.473c0.003,0.262-0.052,0.453-0.293,0.59
			c-1.393,0.789-2.741,1.666-4.183,2.352c-1.197,0.566-2.4,1.162-3.724,1.441c-1.299,0.275-2.573,0.676-3.879,0.91
			c-2.521,0.453-5.058,0.83-7.587,1.236c-0.023,0.004-0.048,0.004-0.07,0.008c-0.646,0.107-1.291,0.215-1.937,0.324
			c-0.042-0.047-0.085-0.094-0.127-0.141c0.29-0.934,0.582-1.869,0.87-2.805c0.079-0.256,0.135-0.52,0.227-0.77
			c0.03-0.084,0.131-0.152,0.213-0.207c0.539-0.359,0.556-0.461,0.283-1.045c-0.062-0.131-0.018-0.326,0.014-0.484
			c0.176-0.879,0.179-0.893-0.688-0.822c-1.905,0.152-3.81,0.318-5.715,0.482c-0.292,0.025-0.59,0.465-0.441,0.707
			c0.65,1.059,0.599,2.279,0.841,3.432c0.104,0.498,0.181,1.004,0.278,1.504c0.056,0.287-0.02,0.457-0.34,0.482
			c-0.781,0.057-1.561,0.148-2.342,0.184c-2.504,0.109-5.007,0.244-7.512,0.285c-3.028,0.049-6.059,0.027-9.087,0.006
			c-1.544-0.012-3.089-0.063-4.63-0.15c-1.884-0.105-3.765-0.268-5.646-0.408c-0.344-0.025-0.686-0.055-1.028-0.09
			c-0.385-0.039-0.618-0.295-0.626-0.686c-0.016-0.803,0.135-1.568,0.365-2.344c0.231-0.775,0.307-1.6,0.44-2.404
			c0.049-0.295-0.183-0.242-0.353-0.252c-1.411-0.076-2.823-0.15-4.234-0.23c-0.316-0.018-0.633-0.055-1.025-0.09
			c0.082,0.426,0.056,0.852,0.242,1.141c0.439,0.684,0.44,1.438,0.548,2.186c0.057,0.391,0.177,0.773,0.27,1.16
			c0.011,0.047,0.033,0.09,0.05,0.135c0.251,0.688,0.155,0.865-0.569,0.811c-1.027-0.08-2.054-0.205-3.072-0.365
			c-3.272-0.512-6.519-1.15-9.709-2.051c-1.968-0.555-3.905-1.195-5.738-2.115c-0.39-0.195-0.755-0.398-1.026-0.787
			c-0.178-0.254-0.539-0.375-0.797-0.582c-0.606-0.488-1.204-0.984-1.794-1.492c-0.073-0.063-0.109-0.207-0.109-0.314
			c-0.006-2.234,0.041-4.471-0.021-6.703C54.126,66.508,54.925,65.461,56.203,64.643z M137.485,123.715
			c-0.996,0.688-1.973,1.408-2.989,2.066c-0.666,0.43-1.378,0.793-2.088,1.15c-1.125,0.563-2.242,1.154-3.407,1.621
			c-0.977,0.391-2.032,0.58-3.028,0.928c-2.174,0.762-4.45,1.094-6.674,1.643c-0.502,0.125-0.981,0.336-1.473,0.508
			c-0.055,0.02-0.129,0.064-0.166,0.045c-0.482-0.246-0.921,0.037-1.325,0.176c-1.743,0.6-3.561,0.541-5.354,0.688
			c-0.654,0.055-1.318-0.033-1.978-0.02c-0.449,0.01-0.896,0.084-1.346,0.123c-1.559,0.135-3.119,0.268-4.678,0.402
			c-1.492,0.129-2.982,0.283-4.477,0.381c-0.706,0.047-1.42-0.037-2.129-0.021c-0.668,0.014-1.333,0.092-2.001,0.115
			c-0.402,0.016-0.807-0.045-1.21-0.031c-2.822,0.09-5.623-0.264-8.427-0.479c-2.089-0.16-4.163-0.512-6.243-0.789
			c-0.823-0.111-1.648-0.229-2.461-0.396c-0.59-0.121-1.156-0.355-1.743-0.498c-0.424-0.102-0.863-0.154-1.299-0.197
			c-0.861-0.084-1.749-0.045-2.582-0.242c-1.189-0.283-2.42-0.422-3.537-1.018c-0.758-0.406-1.614-0.627-2.426-0.932
			c-0.211-0.08-0.43-0.145-0.628-0.248c-1.208-0.635-2.385-1.336-3.624-1.9c-0.821-0.375-1.506-0.953-2.299-1.338
			c-0.661-0.32-1.287-0.65-1.791-1.189c-0.55-0.588-1.122-1.158-1.635-1.777c-0.173-0.209-0.268-0.541-0.271-0.82
			c-0.023-1.662-0.011-3.328-0.009-4.992c0-0.043,0.019-0.088,0.049-0.225c0.311,0.248,0.588,0.432,0.82,0.66
			c0.876,0.863,1.791,1.641,2.928,2.176c1.669,0.787,3.253,1.758,4.933,2.52c2.822,1.277,5.814,2.057,8.833,2.715
			c1.68,0.367,3.377,0.648,5.065,0.969c0.091,0.018,0.18,0.045,0.339,0.086c-0.487,1.512-0.967,3.002-1.444,4.486
			c1.851,0.664,3.707,0.889,5.68,1.072c-0.08-0.658-0.13-1.25-0.229-1.834c-0.15-0.889-0.338-1.77-0.505-2.656
			c-0.017-0.088-0.002-0.182-0.002-0.367c0.688,0.068,1.345,0.123,1.998,0.199c1.204,0.141,2.401,0.24,3.622,0.166
			c0.966-0.059,1.943,0.086,2.916,0.121c2.86,0.104,5.72,0.273,8.586,0.141c1.945-0.092,3.894-0.137,5.841-0.197
			c0.213-0.006,0.439-0.016,0.638,0.047c0.62,0.193,1.22,0.01,1.831-0.035c0.898-0.068,1.804-0.041,2.699-0.125
			c0.56-0.053,1.106-0.232,1.659-0.354c0.069-0.016,0.138-0.043,0.207-0.049c1.501-0.123,2.972-0.371,4.412-0.842
			c0.642-0.209,1.355-0.186,2.023-0.324c1.521-0.316,3.036-0.666,4.553-1.004c0.393-0.088,0.796-0.152,1.173-0.289
			c1.261-0.451,2.521-0.904,3.762-1.408c1.419-0.576,2.783-1.303,4.229-1.795c2.08-0.705,3.959-1.775,5.832-2.881
			c0.354-0.209,0.729-0.387,1.157-0.611c0.014,0.186,0.031,0.307,0.031,0.428c0.002,1.854-0.005,3.709,0.007,5.563
			C137.834,123.33,137.731,123.545,137.485,123.715z M137.513,115.09c-0.538,0.348-1.048,0.746-1.604,1.059
			c-1.862,1.043-3.778,1.973-5.812,2.645c-0.786,0.258-1.549,0.588-2.327,0.871c-1.055,0.383-2.115,0.756-3.174,1.131
			c-0.482,0.17-0.96,0.355-1.449,0.498c-0.702,0.203-1.41,0.387-2.12,0.561c-1.343,0.326-2.686,0.656-4.036,0.949
			c-0.624,0.137-1.264,0.203-1.899,0.277c-0.556,0.066-0.643-0.031-0.61-0.596c0.009-0.164,0.043-0.33,0.037-0.494
			c-0.006-0.139-0.053-0.277-0.084-0.43c-0.123,0-0.238,0-0.354,0c-0.117,0-0.234,0-0.378,0c0-0.359-0.013-0.699,0.005-1.037
			c0.013-0.252,0.209-0.201,0.375-0.186c0.19,0.02,0.427,0.113,0.563,0.035c0.45-0.26,0.888-0.539,0.843-1.199
			c-0.022-0.34,0.08-0.709,0.209-1.033c0.357-0.906,0.496-1.824,0.35-2.793c-0.038-0.25-0.003-0.525,0.061-0.775
			c0.234-0.92-0.089-1.729-0.465-2.529c-0.331-0.703-0.695-1.389-1.019-2.096c-0.139-0.303-0.307-0.416-0.651-0.371
			c-1.272,0.166-2.549,0.305-3.824,0.447c-0.214,0.023-0.27,0.105-0.251,0.324c0.029,0.336,0.021,0.678-0.006,1.014
			c-0.044,0.555-0.118,1.109-0.174,1.662c-0.072,0.719-0.096,1.447-0.222,2.156c-0.144,0.807,0.021,1.582,0.117,2.369
			c0.05,0.41,0.237,0.807,0.047,1.236c-0.055,0.123,0.001,0.303,0.026,0.453c0.051,0.291,0.124,0.578,0.174,0.871
			c0.076,0.439,0.192,0.568,0.654,0.574c0.617,0.008,1.235-0.02,1.853-0.033c0.06-0.002,0.118-0.014,0.178-0.02
			c0.569-0.041,0.602-0.01,0.574,0.566c-0.021,0.438-0.065,0.473-0.519,0.418c-0.153-0.02-0.307-0.031-0.461-0.041
			c-0.056-0.004-0.113,0.012-0.224,0.025c-0.127,0.488-0.248,0.98-0.386,1.467c-0.027,0.096-0.1,0.209-0.183,0.252
			c-0.325,0.162-0.65,0.367-0.998,0.432c-0.803,0.146-1.617,0.232-2.43,0.32c-0.825,0.088-1.652,0.168-2.48,0.221
			c-1.599,0.104-3.199,0.18-4.799,0.279c-0.862,0.053-1.722,0.137-2.583,0.199c-0.438,0.033-0.876,0.064-1.313,0.076
			c-1.234,0.031-2.47,0.068-3.704,0.066c-0.64,0-1.28-0.063-1.919-0.121c-1.271-0.115-2.539-0.256-3.811-0.369
			c-1.572-0.141-3.146-0.266-4.72-0.395c-0.213-0.018-0.427-0.041-0.64-0.037c-0.341,0.008-0.539-0.121-0.554-0.482
			c-0.007-0.152-0.041-0.305-0.068-0.5c-0.329,0-0.655,0-0.968,0c-0.035-0.072-0.06-0.102-0.063-0.135
			c-0.072-0.797-0.2-0.945-0.991-1.146c-0.543-0.137-0.793-0.541-0.559-1.033c0.069-0.148,0.386-0.244,0.591-0.25
			c0.766-0.018,1.531,0.016,2.298,0.02c0.353,0,0.608-0.117,0.641-0.539c0.059-0.779,0.143-1.557,0.224-2.334
			c0.039-0.379,0.079-0.756,0.147-1.129c0.173-0.943-0.026-1.869-0.094-2.803c-0.027-0.377-0.04-0.76-0.021-1.137
			c0.038-0.762-0.117-1.486-0.397-2.184c-0.049-0.119-0.221-0.25-0.352-0.27c-1.044-0.148-2.104-0.215-3.135-0.426
			c-0.643-0.131-0.953,0.088-1.24,0.602c-0.204,0.361-0.526,0.654-0.758,1.004c-0.126,0.189-0.23,0.428-0.245,0.65
			c-0.068,1.066-0.09,2.135-0.151,3.201c-0.055,0.955-0.139,1.91-0.212,2.863c-0.031,0.402,0.061,0.756,0.375,1.029
			c0.035,0.031,0.091,0.074,0.088,0.107c-0.037,0.486,0.39,0.525,0.672,0.701c0.252,0.156,0.517,0.293,0.764,0.455
			c0.351,0.229,0.544,1.061,0.286,1.393c-0.095,0.123-0.35,0.119-0.629,0.203c-0.225,0.262-0.045,0.596,0.11,0.92
			c-0.079,0.094-0.207,0.176-0.214,0.268c-0.03,0.354-0.27,0.41-0.529,0.379c-0.929-0.113-1.859-0.223-2.78-0.385
			c-1.097-0.195-2.188-0.422-3.271-0.684c-0.466-0.111-0.902-0.344-1.352-0.52c-0.505-0.199-1.005-0.41-1.515-0.596
			c-0.736-0.266-1.477-0.525-2.222-0.768c-0.665-0.215-1.342-0.398-2.007-0.613c-0.143-0.047-0.249-0.191-0.389-0.256
			c-0.227-0.102-0.465-0.182-0.702-0.258c-0.243-0.076-0.496-0.123-0.733-0.211c-0.5-0.188-0.985-0.414-1.49-0.586
			c-1.506-0.518-2.744-1.457-3.961-2.445c-0.698-0.568-1.439-1.084-2.151-1.635c-0.097-0.074-0.16-0.213-0.201-0.334
			c-0.032-0.096-0.007-0.211-0.007-0.318c0-12.018,0-24.035,0-36.053c0-0.199,0-0.398,0-0.6c0.453,0.666,0.949,1.156,1.735,1.381
			c0.444,0.127,0.8,0.535,1.234,0.729c1.68,0.746,3.342,1.551,5.071,2.16c2.429,0.855,4.937,1.465,7.47,1.936
			c1.947,0.363,3.903,0.672,5.858,0.986c0.452,0.072,0.916,0.07,1.396,0.104c0,0.166,0.005,0.34-0.002,0.514
			c-0.005,0.117-0.035,0.234-0.042,0.354c-0.054,0.979,0.216,1.254,1.196,1.17c0.297-0.023,0.395,0.068,0.362,0.348
			c-0.02,0.178-0.048,0.355-0.043,0.533c0.013,0.398-0.054,0.697-0.561,0.699c-0.107,0-0.22,0.189-0.32,0.301
			c-0.311,0.338-0.639,0.664-0.917,1.027c-0.162,0.211-0.326,0.479-0.348,0.732c-0.069,0.852-0.066,1.707-0.107,2.561
			c-0.029,0.615-0.143,1.232-0.112,1.844c0.038,0.777,0.166,1.553,0.291,2.322c0.067,0.416,0.35,0.666,0.777,0.684
			c1.434,0.059,2.863,0.121,4.303-0.037c0.703-0.078,0.958-0.416,1.053-0.994c0.124-0.758,0.273-1.523,0.291-2.287
			c0.035-1.508-0.016-3.018-0.025-4.527c-0.002-0.297-0.135-0.504-0.352-0.701c-0.563-0.518-1.214-0.75-1.976-0.74
			c-0.493,0.006-0.763-0.287-0.909-0.926c-0.039-0.174-0.043-0.354-0.063-0.531c-0.03-0.258,0.022-0.443,0.306-0.559
			c0.302-0.121,0.494-0.363,0.472-0.725c-0.021-0.328,0.159-0.449,0.464-0.432c0.9,0.055,1.801,0.109,2.701,0.162
			c2.17,0.127,4.338,0.295,6.51,0.365c3.123,0.1,6.248,0.191,9.372,0.166c2.825-0.021,5.649-0.197,8.474-0.318
			c1.351-0.059,2.699-0.158,4.049-0.217c0.559-0.025,0.582,0.023,0.542,0.58c-0.034,0.492-0.034,0.492,0.465,0.572
			c0.71,0.115,0.853,0.26,0.858,0.885c0.004,0.471-0.414,0.604-0.706,0.801c-0.189,0.127-0.478,0.107-0.72,0.156
			c-0.405,0.082-0.824,0.127-1.211,0.264c-0.381,0.133-0.604,0.398-0.747,0.844c-0.295,0.912-0.243,1.824-0.237,2.746
			c0.001,0.211-0.004,0.432-0.054,0.637c-0.264,1.1-0.114,2.191,0.039,3.285c0.059,0.422,0.09,0.85,0.12,1.275
			c0.031,0.443,0.145,0.564,0.594,0.568c1.639,0.008,3.278,0.002,4.917,0.029c0.372,0.006,0.487-0.168,0.507-0.477
			c0.071-1.133,0.268-2.252,0.232-3.4c-0.033-1.111,0.078-2.229,0.133-3.344c0.02-0.418-0.145-0.719-0.473-0.977
			c-0.314-0.25-0.636-0.52-0.854-0.848c-0.158-0.238-0.36-0.367-0.565-0.527c-0.478-0.377-0.534-1.043-0.204-1.568
			c0.195-0.309,0.375-0.574,0.795-0.539c0.047,0.004,0.136-0.137,0.156-0.223c0.062-0.266,0.101-0.535,0.146-0.805
			c0.041-0.242,0.171-0.35,0.429-0.383c3.553-0.469,7.097-0.996,10.583-1.846c2.355-0.572,4.641-1.367,6.931-2.156
			c1.252-0.432,2.372-1.064,3.5-1.715c0.271-0.156,0.518-0.354,0.835-0.572c0.01,0.201,0.021,0.326,0.021,0.451
			c0,11.84-0.001,23.678,0.006,35.518C137.833,114.756,137.744,114.939,137.513,115.09z"/>
 
</svg>
