<svg id="Capa_1" data-name="Capa 1" xmlns="http://www.w3.org/2000/svg" viewBox="0 0 100 100"><defs><style>.cls-1{fill:none;stroke:currentcolor;stroke-linecap:round;stroke-linejoin:round;stroke-width:2px;}</style></defs><title>Entrenament</title><polyline class="cls-1" points="15 54.5 7 54.5 7 45.5 15 45.5"/><line class="cls-1" x1="65.66" y1="54.5" x2="31.4" y2="54.5"/><polyline class="cls-1" points="82.33 45.5 90 45.5 90 54.5 82.33 54.5"/><line class="cls-1" x1="31.4" y1="45.5" x2="65.66" y2="45.5"/><path class="cls-1" d="M17.5,35H23a0,0,0,0,1,0,0V65a0,0,0,0,1,0,0H17.5A2.5,2.5,0,0,1,15,62.5v-25A2.5,2.5,0,0,1,17.5,35Z"/><rect class="cls-1" x="23" y="28.5" width="8" height="43" rx="2.5"/><path class="cls-1" d="M74,35h5.5A2.5,2.5,0,0,1,82,37.5v25A2.5,2.5,0,0,1,79.5,65H74a0,0,0,0,1,0,0V35A0,0,0,0,1,74,35Z"/><rect class="cls-1" x="66" y="29" width="8" height="43" rx="2.5"/></svg>