<svg id="Capa_1" data-name="Capa 1" xmlns="http://www.w3.org/2000/svg" viewBox="0 0 100 100"><defs><style>.cls-1{fill:none;stroke:currentcolor;stroke-linecap:round;stroke-linejoin:round;stroke-width:3px;}</style></defs><title>Mesa de trabajo 1 copia 41</title><path class="cls-1" d="M76.08,32.16V82.4a3.51,3.51,0,0,1-3.51,3.51H29.87a3.52,3.52,0,0,1-3.52-3.51V17.6a3.52,3.52,0,0,1,3.52-3.51H59.09"/><line class="cls-1" x1="59.28" y1="14.09" x2="76.08" y2="32.16"/><path class="cls-1" d="M75.27,32.16H61.6a3.52,3.52,0,0,1-3.51-3.52V14.09"/><polyline class="cls-1" points="36.44 42.96 40.89 46.85 48.49 36.66"/><polyline class="cls-1" points="36.44 58.41 40.89 62.3 48.49 52.11"/><line class="cls-1" x1="53.8" y1="41.76" x2="67.68" y2="41.76"/><line class="cls-1" x1="53.8" y1="57.2" x2="67.68" y2="57.2"/><polyline class="cls-1" points="36.44 72.97 40.89 76.86 48.49 66.67"/><line class="cls-1" x1="53.8" y1="71.76" x2="67.68" y2="71.76"/></svg>