<?xml version="1.0" encoding="utf-8"?>
<!-- Generator: Adobe Illustrator 16.0.0, SVG Export Plug-In . SVG Version: 6.00 Build 0)  -->
<!DOCTYPE svg PUBLIC "-//W3C//DTD SVG 1.1//EN" "http://www.w3.org/Graphics/SVG/1.1/DTD/svg11.dtd">
<svg version="1.1" xmlns="http://www.w3.org/2000/svg" xmlns:xlink="http://www.w3.org/1999/xlink" x="0px" y="0px" width="192px"
	 height="192px" viewBox="0 0 192 192" enable-background="new 0 0 192 192" xml:space="preserve">
 <defs><style>
	 	path {
	 	 fill: currentColor;
	 	}
	 </style></defs>
		<path  d="M96,29.747c-37.298,0-67.533,30.235-67.533,67.533S58.702,164.814,96,164.814
			c37.299,0,67.534-30.236,67.534-67.534S133.299,29.747,96,29.747z M108.155,137l-3.996-20.52H86.447L82.451,137h-16.2l19.332-81
			h20.412l18.36,81H108.155z"/>
		<path   d="M96.815,75.98c-0.216-1.872-0.433-3.743-0.648-5.616c-0.072-0.936-0.145-1.854-0.216-2.754
			c-0.072-0.899-0.181-1.782-0.324-2.646h-0.216c-0.145,0.864-0.253,1.747-0.324,2.646c-0.072,0.9-0.145,1.818-0.216,2.754
			c-0.216,1.873-0.432,3.744-0.647,5.616c-0.217,1.873-0.505,3.744-0.864,5.615L88.823,104.6h12.96L97.68,81.596
			C97.318,79.725,97.031,77.854,96.815,75.98z"/>
	 
</svg>
